%TF.GenerationSoftware,KiCad,Pcbnew,8.0.1*%
%TF.CreationDate,2024-05-08T21:45:27-04:00*%
%TF.ProjectId,Headlight Controller 1_1,48656164-6c69-4676-9874-20436f6e7472,1.1*%
%TF.SameCoordinates,Original*%
%TF.FileFunction,Drillmap*%
%TF.FilePolarity,Positive*%
%FSLAX45Y45*%
G04 Gerber Fmt 4.5, Leading zero omitted, Abs format (unit mm)*
G04 Created by KiCad (PCBNEW 8.0.1) date 2024-05-08 21:45:27*
%MOMM*%
%LPD*%
G01*
G04 APERTURE LIST*
%ADD10C,0.050000*%
%ADD11C,0.200000*%
G04 APERTURE END LIST*
D10*
X4000000Y-13730000D02*
X4500000Y-14230000D01*
X11730000Y-14230000D02*
G75*
G02*
X13000000Y-12960000I1270000J0D01*
G01*
X4000000Y-6500000D02*
X4000000Y-13730000D01*
X5270000Y-5230000D02*
X13000000Y-5230000D01*
X11730000Y-14230000D02*
X4500000Y-14230000D01*
X5270000Y-5230000D02*
G75*
G02*
X4000000Y-6500000I-1270000J0D01*
G01*
X13000000Y-12960000D02*
X13000000Y-5230000D01*
X5850000Y-6630000D02*
X6250000Y-6630000D01*
X6250000Y-7230000D01*
X5850000Y-7230000D01*
X5850000Y-6630000D01*
X9650000Y-6630000D02*
X10050000Y-6630000D01*
X10050000Y-7230000D01*
X9650000Y-7230000D01*
X9650000Y-6630000D01*
X5900000Y-12230000D02*
X6300000Y-12230000D01*
X6300000Y-12830000D01*
X5900000Y-12830000D01*
X5900000Y-12230000D01*
X10400000Y-12230000D02*
X10800000Y-12230000D01*
X10800000Y-12830000D01*
X10400000Y-12830000D01*
X10400000Y-12230000D01*
D11*
X4258277Y-14543984D02*
X4258277Y-14343984D01*
X4258277Y-14343984D02*
X4305896Y-14343984D01*
X4305896Y-14343984D02*
X4334467Y-14353508D01*
X4334467Y-14353508D02*
X4353515Y-14372555D01*
X4353515Y-14372555D02*
X4363039Y-14391603D01*
X4363039Y-14391603D02*
X4372563Y-14429698D01*
X4372563Y-14429698D02*
X4372563Y-14458269D01*
X4372563Y-14458269D02*
X4363039Y-14496365D01*
X4363039Y-14496365D02*
X4353515Y-14515412D01*
X4353515Y-14515412D02*
X4334467Y-14534460D01*
X4334467Y-14534460D02*
X4305896Y-14543984D01*
X4305896Y-14543984D02*
X4258277Y-14543984D01*
X4458277Y-14543984D02*
X4458277Y-14410650D01*
X4458277Y-14448746D02*
X4467801Y-14429698D01*
X4467801Y-14429698D02*
X4477324Y-14420174D01*
X4477324Y-14420174D02*
X4496372Y-14410650D01*
X4496372Y-14410650D02*
X4515420Y-14410650D01*
X4582086Y-14543984D02*
X4582086Y-14410650D01*
X4582086Y-14343984D02*
X4572563Y-14353508D01*
X4572563Y-14353508D02*
X4582086Y-14363031D01*
X4582086Y-14363031D02*
X4591610Y-14353508D01*
X4591610Y-14353508D02*
X4582086Y-14343984D01*
X4582086Y-14343984D02*
X4582086Y-14363031D01*
X4705896Y-14543984D02*
X4686848Y-14534460D01*
X4686848Y-14534460D02*
X4677324Y-14515412D01*
X4677324Y-14515412D02*
X4677324Y-14343984D01*
X4810658Y-14543984D02*
X4791610Y-14534460D01*
X4791610Y-14534460D02*
X4782086Y-14515412D01*
X4782086Y-14515412D02*
X4782086Y-14343984D01*
X5039229Y-14543984D02*
X5039229Y-14343984D01*
X5039229Y-14343984D02*
X5105896Y-14486841D01*
X5105896Y-14486841D02*
X5172563Y-14343984D01*
X5172563Y-14343984D02*
X5172563Y-14543984D01*
X5353515Y-14543984D02*
X5353515Y-14439222D01*
X5353515Y-14439222D02*
X5343991Y-14420174D01*
X5343991Y-14420174D02*
X5324944Y-14410650D01*
X5324944Y-14410650D02*
X5286848Y-14410650D01*
X5286848Y-14410650D02*
X5267801Y-14420174D01*
X5353515Y-14534460D02*
X5334467Y-14543984D01*
X5334467Y-14543984D02*
X5286848Y-14543984D01*
X5286848Y-14543984D02*
X5267801Y-14534460D01*
X5267801Y-14534460D02*
X5258277Y-14515412D01*
X5258277Y-14515412D02*
X5258277Y-14496365D01*
X5258277Y-14496365D02*
X5267801Y-14477317D01*
X5267801Y-14477317D02*
X5286848Y-14467793D01*
X5286848Y-14467793D02*
X5334467Y-14467793D01*
X5334467Y-14467793D02*
X5353515Y-14458269D01*
X5448753Y-14410650D02*
X5448753Y-14610650D01*
X5448753Y-14420174D02*
X5467801Y-14410650D01*
X5467801Y-14410650D02*
X5505896Y-14410650D01*
X5505896Y-14410650D02*
X5524944Y-14420174D01*
X5524944Y-14420174D02*
X5534467Y-14429698D01*
X5534467Y-14429698D02*
X5543991Y-14448746D01*
X5543991Y-14448746D02*
X5543991Y-14505888D01*
X5543991Y-14505888D02*
X5534467Y-14524936D01*
X5534467Y-14524936D02*
X5524944Y-14534460D01*
X5524944Y-14534460D02*
X5505896Y-14543984D01*
X5505896Y-14543984D02*
X5467801Y-14543984D01*
X5467801Y-14543984D02*
X5448753Y-14534460D01*
X5629705Y-14524936D02*
X5639229Y-14534460D01*
X5639229Y-14534460D02*
X5629705Y-14543984D01*
X5629705Y-14543984D02*
X5620182Y-14534460D01*
X5620182Y-14534460D02*
X5629705Y-14524936D01*
X5629705Y-14524936D02*
X5629705Y-14543984D01*
X5629705Y-14420174D02*
X5639229Y-14429698D01*
X5639229Y-14429698D02*
X5629705Y-14439222D01*
X5629705Y-14439222D02*
X5620182Y-14429698D01*
X5620182Y-14429698D02*
X5629705Y-14420174D01*
X5629705Y-14420174D02*
X5629705Y-14439222D01*
M02*
