%TF.GenerationSoftware,KiCad,Pcbnew,8.0.1*%
%TF.CreationDate,2024-05-08T21:45:27-04:00*%
%TF.ProjectId,Headlight Controller 1_1,48656164-6c69-4676-9874-20436f6e7472,1.1*%
%TF.SameCoordinates,Original*%
%TF.FileFunction,Drillmap*%
%TF.FilePolarity,Positive*%
%FSLAX45Y45*%
G04 Gerber Fmt 4.5, Leading zero omitted, Abs format (unit mm)*
G04 Created by KiCad (PCBNEW 8.0.1) date 2024-05-08 21:45:27*
%MOMM*%
%LPD*%
G01*
G04 APERTURE LIST*
%ADD10C,0.050000*%
%ADD11C,0.200000*%
%ADD12C,0.100000*%
%ADD13C,0.100080*%
%ADD14C,0.101600*%
%ADD15C,0.110240*%
%ADD16C,0.120000*%
%ADD17C,0.140200*%
%ADD18C,0.150000*%
G04 APERTURE END LIST*
D10*
X4000000Y-13730000D02*
X4500000Y-14230000D01*
X11730000Y-14230000D02*
G75*
G02*
X13000000Y-12960000I1270000J0D01*
G01*
X4000000Y-6500000D02*
X4000000Y-13730000D01*
X5270000Y-5230000D02*
X13000000Y-5230000D01*
X11730000Y-14230000D02*
X4500000Y-14230000D01*
X5270000Y-5230000D02*
G75*
G02*
X4000000Y-6500000I-1270000J0D01*
G01*
X13000000Y-12960000D02*
X13000000Y-5230000D01*
X5850000Y-6630000D02*
X6250000Y-6630000D01*
X6250000Y-7230000D01*
X5850000Y-7230000D01*
X5850000Y-6630000D01*
X9650000Y-6630000D02*
X10050000Y-6630000D01*
X10050000Y-7230000D01*
X9650000Y-7230000D01*
X9650000Y-6630000D01*
X5900000Y-12230000D02*
X6300000Y-12230000D01*
X6300000Y-12830000D01*
X5900000Y-12830000D01*
X5900000Y-12230000D01*
X10400000Y-12230000D02*
X10800000Y-12230000D01*
X10800000Y-12830000D01*
X10400000Y-12830000D01*
X10400000Y-12230000D01*
D11*
D12*
X5685000Y-11115000D02*
X5715000Y-11145000D01*
X5715000Y-11115000D02*
X5685000Y-11145000D01*
X7215000Y-7345000D02*
X7245000Y-7375000D01*
X7245000Y-7345000D02*
X7215000Y-7375000D01*
X8005000Y-10595000D02*
X8035000Y-10625000D01*
X8035000Y-10595000D02*
X8005000Y-10625000D01*
X10535000Y-10365000D02*
X10565000Y-10395000D01*
X10565000Y-10365000D02*
X10535000Y-10395000D01*
X12565000Y-9175000D02*
X12595000Y-9205000D01*
X12595000Y-9175000D02*
X12565000Y-9205000D01*
X12675000Y-9625000D02*
X12705000Y-9655000D01*
X12705000Y-9625000D02*
X12675000Y-9655000D01*
X5985000Y-5468881D02*
G75*
G02*
X5915000Y-5468881I-35000J0D01*
G01*
X5915000Y-5468881D02*
G75*
G02*
X5985000Y-5468881I35000J0D01*
G01*
X5985000Y-6230881D02*
G75*
G02*
X5915000Y-6230881I-35000J0D01*
G01*
X5915000Y-6230881D02*
G75*
G02*
X5985000Y-6230881I35000J0D01*
G01*
X6574000Y-13530000D02*
G75*
G02*
X6504000Y-13530000I-35000J0D01*
G01*
X6504000Y-13530000D02*
G75*
G02*
X6574000Y-13530000I35000J0D01*
G01*
X6576000Y-13740000D02*
G75*
G02*
X6506000Y-13740000I-35000J0D01*
G01*
X6506000Y-13740000D02*
G75*
G02*
X6576000Y-13740000I35000J0D01*
G01*
X6856000Y-5468881D02*
G75*
G02*
X6786000Y-5468881I-35000J0D01*
G01*
X6786000Y-5468881D02*
G75*
G02*
X6856000Y-5468881I35000J0D01*
G01*
X6856000Y-6230881D02*
G75*
G02*
X6786000Y-6230881I-35000J0D01*
G01*
X6786000Y-6230881D02*
G75*
G02*
X6856000Y-6230881I35000J0D01*
G01*
X7336000Y-13530000D02*
G75*
G02*
X7266000Y-13530000I-35000J0D01*
G01*
X7266000Y-13530000D02*
G75*
G02*
X7336000Y-13530000I35000J0D01*
G01*
X7338000Y-13740000D02*
G75*
G02*
X7268000Y-13740000I-35000J0D01*
G01*
X7268000Y-13740000D02*
G75*
G02*
X7338000Y-13740000I35000J0D01*
G01*
X8190494Y-5469000D02*
G75*
G02*
X8120494Y-5469000I-35000J0D01*
G01*
X8120494Y-5469000D02*
G75*
G02*
X8190494Y-5469000I35000J0D01*
G01*
X8190494Y-6231000D02*
G75*
G02*
X8120494Y-6231000I-35000J0D01*
G01*
X8120494Y-6231000D02*
G75*
G02*
X8190494Y-6231000I35000J0D01*
G01*
X8795000Y-13179000D02*
G75*
G02*
X8725000Y-13179000I-35000J0D01*
G01*
X8725000Y-13179000D02*
G75*
G02*
X8795000Y-13179000I35000J0D01*
G01*
X8795000Y-13941000D02*
G75*
G02*
X8725000Y-13941000I-35000J0D01*
G01*
X8725000Y-13941000D02*
G75*
G02*
X8795000Y-13941000I35000J0D01*
G01*
X9010000Y-13179000D02*
G75*
G02*
X8940000Y-13179000I-35000J0D01*
G01*
X8940000Y-13179000D02*
G75*
G02*
X9010000Y-13179000I35000J0D01*
G01*
X9010000Y-13941000D02*
G75*
G02*
X8940000Y-13941000I-35000J0D01*
G01*
X8940000Y-13941000D02*
G75*
G02*
X9010000Y-13941000I35000J0D01*
G01*
X9109506Y-5469000D02*
G75*
G02*
X9039506Y-5469000I-35000J0D01*
G01*
X9039506Y-5469000D02*
G75*
G02*
X9109506Y-5469000I35000J0D01*
G01*
X9109506Y-6231000D02*
G75*
G02*
X9039506Y-6231000I-35000J0D01*
G01*
X9039506Y-6231000D02*
G75*
G02*
X9109506Y-6231000I35000J0D01*
G01*
X9914000Y-13360000D02*
G75*
G02*
X9844000Y-13360000I-35000J0D01*
G01*
X9844000Y-13360000D02*
G75*
G02*
X9914000Y-13360000I35000J0D01*
G01*
X10676000Y-13360000D02*
G75*
G02*
X10606000Y-13360000I-35000J0D01*
G01*
X10606000Y-13360000D02*
G75*
G02*
X10676000Y-13360000I35000J0D01*
G01*
X12875000Y-11989000D02*
G75*
G02*
X12805000Y-11989000I-35000J0D01*
G01*
X12805000Y-11989000D02*
G75*
G02*
X12875000Y-11989000I35000J0D01*
G01*
X12875000Y-12751000D02*
G75*
G02*
X12805000Y-12751000I-35000J0D01*
G01*
X12805000Y-12751000D02*
G75*
G02*
X12875000Y-12751000I35000J0D01*
G01*
X10800000Y-8920000D02*
X10800000Y-9000000D01*
X10760000Y-8960000D02*
X10840000Y-8960000D01*
X10800000Y-9120000D02*
X10800000Y-9200000D01*
X10760000Y-9160000D02*
X10840000Y-9160000D01*
X10804813Y-9960000D02*
X10804813Y-10040000D01*
X10764813Y-10000000D02*
X10844813Y-10000000D01*
X10804813Y-10160000D02*
X10804813Y-10240000D01*
X10764813Y-10200000D02*
X10844813Y-10200000D01*
X11279000Y-5906000D02*
X11279000Y-5986000D01*
X11239000Y-5946000D02*
X11319000Y-5946000D01*
X11279000Y-6160000D02*
X11279000Y-6240000D01*
X11239000Y-6200000D02*
X11319000Y-6200000D01*
X11279000Y-6414000D02*
X11279000Y-6494000D01*
X11239000Y-6454000D02*
X11319000Y-6454000D01*
X11279000Y-6668000D02*
X11279000Y-6748000D01*
X11239000Y-6708000D02*
X11319000Y-6708000D01*
X11279000Y-6922000D02*
X11279000Y-7002000D01*
X11239000Y-6962000D02*
X11319000Y-6962000D01*
X11279000Y-7176000D02*
X11279000Y-7256000D01*
X11239000Y-7216000D02*
X11319000Y-7216000D01*
X11279000Y-7430000D02*
X11279000Y-7510000D01*
X11239000Y-7470000D02*
X11319000Y-7470000D01*
X11279000Y-7684000D02*
X11279000Y-7764000D01*
X11239000Y-7724000D02*
X11319000Y-7724000D01*
X11279000Y-7938000D02*
X11279000Y-8018000D01*
X11239000Y-7978000D02*
X11319000Y-7978000D01*
X11279000Y-8192000D02*
X11279000Y-8272000D01*
X11239000Y-8232000D02*
X11319000Y-8232000D01*
X11279000Y-8446000D02*
X11279000Y-8526000D01*
X11239000Y-8486000D02*
X11319000Y-8486000D01*
X11279000Y-8700000D02*
X11279000Y-8780000D01*
X11239000Y-8740000D02*
X11319000Y-8740000D01*
X12803000Y-5906000D02*
X12803000Y-5986000D01*
X12763000Y-5946000D02*
X12843000Y-5946000D01*
X12803000Y-6160000D02*
X12803000Y-6240000D01*
X12763000Y-6200000D02*
X12843000Y-6200000D01*
X12803000Y-6414000D02*
X12803000Y-6494000D01*
X12763000Y-6454000D02*
X12843000Y-6454000D01*
X12803000Y-6668000D02*
X12803000Y-6748000D01*
X12763000Y-6708000D02*
X12843000Y-6708000D01*
X12803000Y-6922000D02*
X12803000Y-7002000D01*
X12763000Y-6962000D02*
X12843000Y-6962000D01*
X12803000Y-7176000D02*
X12803000Y-7256000D01*
X12763000Y-7216000D02*
X12843000Y-7216000D01*
X12803000Y-7430000D02*
X12803000Y-7510000D01*
X12763000Y-7470000D02*
X12843000Y-7470000D01*
X12803000Y-7684000D02*
X12803000Y-7764000D01*
X12763000Y-7724000D02*
X12843000Y-7724000D01*
X12803000Y-7938000D02*
X12803000Y-8018000D01*
X12763000Y-7978000D02*
X12843000Y-7978000D01*
X12803000Y-8192000D02*
X12803000Y-8272000D01*
X12763000Y-8232000D02*
X12843000Y-8232000D01*
X12803000Y-8446000D02*
X12803000Y-8526000D01*
X12763000Y-8486000D02*
X12843000Y-8486000D01*
X12803000Y-8700000D02*
X12803000Y-8780000D01*
X12763000Y-8740000D02*
X12843000Y-8740000D01*
X6835356Y-6965356D02*
X6835356Y-6894644D01*
X6764644Y-6894644D01*
X6764644Y-6965356D01*
X6835356Y-6965356D01*
X6700000Y-6980000D02*
X6900000Y-6980000D01*
X6900000Y-6880000D02*
G75*
G02*
X6900000Y-6980000I0J-50000D01*
G01*
X6900000Y-6880000D02*
X6700000Y-6880000D01*
X6700000Y-6880000D02*
G75*
G03*
X6700000Y-6980000I0J-50000D01*
G01*
X6860356Y-12565356D02*
X6860356Y-12494644D01*
X6789644Y-12494644D01*
X6789644Y-12565356D01*
X6860356Y-12565356D01*
X6725000Y-12580000D02*
X6925000Y-12580000D01*
X6925000Y-12480000D02*
G75*
G02*
X6925000Y-12580000I0J-50000D01*
G01*
X6925000Y-12480000D02*
X6725000Y-12480000D01*
X6725000Y-12480000D02*
G75*
G03*
X6725000Y-12580000I0J-50000D01*
G01*
X7602022Y-6965356D02*
X7602022Y-6894644D01*
X7531311Y-6894644D01*
X7531311Y-6965356D01*
X7602022Y-6965356D01*
X7466667Y-6980000D02*
X7666667Y-6980000D01*
X7666667Y-6880000D02*
G75*
G02*
X7666667Y-6980000I0J-50000D01*
G01*
X7666667Y-6880000D02*
X7466667Y-6880000D01*
X7466667Y-6880000D02*
G75*
G03*
X7466667Y-6980000I0J-50000D01*
G01*
X7622856Y-12565356D02*
X7622856Y-12494644D01*
X7552144Y-12494644D01*
X7552144Y-12565356D01*
X7622856Y-12565356D01*
X7487500Y-12580000D02*
X7687500Y-12580000D01*
X7687500Y-12480000D02*
G75*
G02*
X7687500Y-12580000I0J-50000D01*
G01*
X7687500Y-12480000D02*
X7487500Y-12480000D01*
X7487500Y-12480000D02*
G75*
G03*
X7487500Y-12580000I0J-50000D01*
G01*
X8368689Y-6965356D02*
X8368689Y-6894644D01*
X8297977Y-6894644D01*
X8297977Y-6965356D01*
X8368689Y-6965356D01*
X8233333Y-6980000D02*
X8433333Y-6980000D01*
X8433333Y-6880000D02*
G75*
G02*
X8433333Y-6980000I0J-50000D01*
G01*
X8433333Y-6880000D02*
X8233333Y-6880000D01*
X8233333Y-6880000D02*
G75*
G03*
X8233333Y-6980000I0J-50000D01*
G01*
X8385356Y-12565356D02*
X8385356Y-12494644D01*
X8314644Y-12494644D01*
X8314644Y-12565356D01*
X8385356Y-12565356D01*
X8250000Y-12580000D02*
X8450000Y-12580000D01*
X8450000Y-12480000D02*
G75*
G02*
X8450000Y-12580000I0J-50000D01*
G01*
X8450000Y-12480000D02*
X8250000Y-12480000D01*
X8250000Y-12480000D02*
G75*
G03*
X8250000Y-12580000I0J-50000D01*
G01*
X9135356Y-6965356D02*
X9135356Y-6894644D01*
X9064644Y-6894644D01*
X9064644Y-6965356D01*
X9135356Y-6965356D01*
X9000000Y-6980000D02*
X9200000Y-6980000D01*
X9200000Y-6880000D02*
G75*
G02*
X9200000Y-6980000I0J-50000D01*
G01*
X9200000Y-6880000D02*
X9000000Y-6880000D01*
X9000000Y-6880000D02*
G75*
G03*
X9000000Y-6980000I0J-50000D01*
G01*
X9147856Y-12565356D02*
X9147856Y-12494644D01*
X9077144Y-12494644D01*
X9077144Y-12565356D01*
X9147856Y-12565356D01*
X9012500Y-12580000D02*
X9212500Y-12580000D01*
X9212500Y-12480000D02*
G75*
G02*
X9212500Y-12580000I0J-50000D01*
G01*
X9212500Y-12480000D02*
X9012500Y-12480000D01*
X9012500Y-12480000D02*
G75*
G03*
X9012500Y-12580000I0J-50000D01*
G01*
X9910356Y-12565356D02*
X9910356Y-12494644D01*
X9839644Y-12494644D01*
X9839644Y-12565356D01*
X9910356Y-12565356D01*
X9775000Y-12580000D02*
X9975000Y-12580000D01*
X9975000Y-12480000D02*
G75*
G02*
X9975000Y-12580000I0J-50000D01*
G01*
X9975000Y-12480000D02*
X9775000Y-12480000D01*
X9775000Y-12480000D02*
G75*
G03*
X9775000Y-12580000I0J-50000D01*
G01*
D13*
X4400000Y-9672040D02*
X4450040Y-9622000D01*
X4400000Y-9571960D01*
X4349960Y-9622000D01*
X4400000Y-9672040D01*
X4400000Y-10688040D02*
X4450040Y-10638000D01*
X4400000Y-10587960D01*
X4349960Y-10638000D01*
X4400000Y-10688040D01*
X4684000Y-11960040D02*
X4734040Y-11910000D01*
X4684000Y-11859960D01*
X4633960Y-11910000D01*
X4684000Y-11960040D01*
X4800000Y-6972040D02*
X4850040Y-6922000D01*
X4800000Y-6871960D01*
X4749960Y-6922000D01*
X4800000Y-6972040D01*
X4800000Y-7988040D02*
X4850040Y-7938000D01*
X4800000Y-7887960D01*
X4749960Y-7938000D01*
X4800000Y-7988040D01*
X5300000Y-6972040D02*
X5350040Y-6922000D01*
X5300000Y-6871960D01*
X5249960Y-6922000D01*
X5300000Y-6972040D01*
X5300000Y-7988040D02*
X5350040Y-7938000D01*
X5300000Y-7887960D01*
X5249960Y-7938000D01*
X5300000Y-7988040D01*
X5700000Y-11960040D02*
X5750040Y-11910000D01*
X5700000Y-11859960D01*
X5649960Y-11910000D01*
X5700000Y-11960040D01*
X11332000Y-12410040D02*
X11382040Y-12360000D01*
X11332000Y-12309960D01*
X11281960Y-12360000D01*
X11332000Y-12410040D01*
X12348000Y-12410040D02*
X12398040Y-12360000D01*
X12348000Y-12309960D01*
X12297960Y-12360000D01*
X12348000Y-12410040D01*
D14*
X4906200Y-11010000D02*
X5007800Y-11111600D01*
X5007800Y-11010000D02*
X4906200Y-11111600D01*
X5007800Y-11060800D02*
G75*
G02*
X4906200Y-11060800I-50800J0D01*
G01*
X4906200Y-11060800D02*
G75*
G02*
X5007800Y-11060800I50800J0D01*
G01*
X5160200Y-11010000D02*
X5261800Y-11111600D01*
X5261800Y-11010000D02*
X5160200Y-11111600D01*
X5261800Y-11060800D02*
G75*
G02*
X5160200Y-11060800I-50800J0D01*
G01*
X5160200Y-11060800D02*
G75*
G02*
X5261800Y-11060800I50800J0D01*
G01*
X5414200Y-11010000D02*
X5515800Y-11111600D01*
X5515800Y-11010000D02*
X5414200Y-11111600D01*
X5515800Y-11060800D02*
G75*
G02*
X5414200Y-11060800I-50800J0D01*
G01*
X5414200Y-11060800D02*
G75*
G02*
X5515800Y-11060800I50800J0D01*
G01*
X9612500Y-10974900D02*
X9714100Y-11076500D01*
X9714100Y-10974900D02*
X9612500Y-11076500D01*
X9714100Y-11025700D02*
G75*
G02*
X9612500Y-11025700I-50800J0D01*
G01*
X9612500Y-11025700D02*
G75*
G02*
X9714100Y-11025700I50800J0D01*
G01*
X9866500Y-10974900D02*
X9968100Y-11076500D01*
X9968100Y-10974900D02*
X9866500Y-11076500D01*
X9968100Y-11025700D02*
G75*
G02*
X9866500Y-11025700I-50800J0D01*
G01*
X9866500Y-11025700D02*
G75*
G02*
X9968100Y-11025700I50800J0D01*
G01*
X10120500Y-10974900D02*
X10222100Y-11076500D01*
X10222100Y-10974900D02*
X10120500Y-11076500D01*
X10222100Y-11025700D02*
G75*
G02*
X10120500Y-11025700I-50800J0D01*
G01*
X10120500Y-11025700D02*
G75*
G02*
X10222100Y-11025700I50800J0D01*
G01*
D15*
X11097470Y-9342630D02*
X11207710Y-9452870D01*
X11207710Y-9342630D02*
X11097470Y-9452870D01*
X11152590Y-9342630D02*
X11152590Y-9452870D01*
X11097470Y-9397750D02*
X11207710Y-9397750D01*
X11097470Y-9571230D02*
X11207710Y-9681470D01*
X11207710Y-9571230D02*
X11097470Y-9681470D01*
X11152590Y-9571230D02*
X11152590Y-9681470D01*
X11097470Y-9626350D02*
X11207710Y-9626350D01*
X11097470Y-9799830D02*
X11207710Y-9910070D01*
X11207710Y-9799830D02*
X11097470Y-9910070D01*
X11152590Y-9799830D02*
X11152590Y-9910070D01*
X11097470Y-9854950D02*
X11207710Y-9854950D01*
D16*
X5507000Y-5576000D02*
X5627000Y-5696000D01*
X5627000Y-5576000D02*
X5507000Y-5696000D01*
X5609427Y-5678427D02*
X5609427Y-5593573D01*
X5524573Y-5593573D01*
X5524573Y-5678427D01*
X5609427Y-5678427D01*
X5507000Y-5830000D02*
X5627000Y-5950000D01*
X5627000Y-5830000D02*
X5507000Y-5950000D01*
X5609427Y-5932427D02*
X5609427Y-5847573D01*
X5524573Y-5847573D01*
X5524573Y-5932427D01*
X5609427Y-5932427D01*
X5507000Y-6084000D02*
X5627000Y-6204000D01*
X5627000Y-6084000D02*
X5507000Y-6204000D01*
X5609427Y-6186427D02*
X5609427Y-6101573D01*
X5524573Y-6101573D01*
X5524573Y-6186427D01*
X5609427Y-6186427D01*
X6351989Y-5576000D02*
X6471989Y-5696000D01*
X6471989Y-5576000D02*
X6351989Y-5696000D01*
X6454416Y-5678427D02*
X6454416Y-5593573D01*
X6369562Y-5593573D01*
X6369562Y-5678427D01*
X6454416Y-5678427D01*
X6351989Y-5830000D02*
X6471989Y-5950000D01*
X6471989Y-5830000D02*
X6351989Y-5950000D01*
X6454416Y-5932427D02*
X6454416Y-5847573D01*
X6369562Y-5847573D01*
X6369562Y-5932427D01*
X6454416Y-5932427D01*
X6351989Y-6084000D02*
X6471989Y-6204000D01*
X6471989Y-6084000D02*
X6351989Y-6204000D01*
X6454416Y-6186427D02*
X6454416Y-6101573D01*
X6369562Y-6101573D01*
X6369562Y-6186427D01*
X6454416Y-6186427D01*
X7641000Y-13422000D02*
X7761000Y-13542000D01*
X7761000Y-13422000D02*
X7641000Y-13542000D01*
X7743427Y-13524427D02*
X7743427Y-13439573D01*
X7658573Y-13439573D01*
X7658573Y-13524427D01*
X7743427Y-13524427D01*
X7641000Y-13676000D02*
X7761000Y-13796000D01*
X7761000Y-13676000D02*
X7641000Y-13796000D01*
X7743427Y-13778427D02*
X7743427Y-13693573D01*
X7658573Y-13693573D01*
X7658573Y-13778427D01*
X7743427Y-13778427D01*
X7641000Y-13930000D02*
X7761000Y-14050000D01*
X7761000Y-13930000D02*
X7641000Y-14050000D01*
X7743427Y-14032427D02*
X7743427Y-13947573D01*
X7658573Y-13947573D01*
X7658573Y-14032427D01*
X7743427Y-14032427D01*
X7695494Y-5742000D02*
X7815494Y-5862000D01*
X7815494Y-5742000D02*
X7695494Y-5862000D01*
X7797921Y-5844427D02*
X7797921Y-5759573D01*
X7713068Y-5759573D01*
X7713068Y-5844427D01*
X7797921Y-5844427D01*
X7695494Y-5996000D02*
X7815494Y-6116000D01*
X7815494Y-5996000D02*
X7695494Y-6116000D01*
X7797921Y-6098427D02*
X7797921Y-6013573D01*
X7713068Y-6013573D01*
X7713068Y-6098427D01*
X7797921Y-6098427D01*
X7695494Y-6250000D02*
X7815494Y-6370000D01*
X7815494Y-6250000D02*
X7695494Y-6370000D01*
X7797921Y-6352427D02*
X7797921Y-6267573D01*
X7713068Y-6267573D01*
X7713068Y-6352427D01*
X7797921Y-6352427D01*
X8615495Y-5742000D02*
X8735495Y-5862000D01*
X8735495Y-5742000D02*
X8615495Y-5862000D01*
X8717921Y-5844427D02*
X8717921Y-5759573D01*
X8633068Y-5759573D01*
X8633068Y-5844427D01*
X8717921Y-5844427D01*
X8615495Y-5996000D02*
X8735495Y-6116000D01*
X8735495Y-5996000D02*
X8615495Y-6116000D01*
X8717921Y-6098427D02*
X8717921Y-6013573D01*
X8633068Y-6013573D01*
X8633068Y-6098427D01*
X8717921Y-6098427D01*
X8615495Y-6250000D02*
X8735495Y-6370000D01*
X8735495Y-6250000D02*
X8615495Y-6370000D01*
X8717921Y-6352427D02*
X8717921Y-6267573D01*
X8633068Y-6267573D01*
X8633068Y-6352427D01*
X8717921Y-6352427D01*
X9350000Y-13406000D02*
X9470000Y-13526000D01*
X9470000Y-13406000D02*
X9350000Y-13526000D01*
X9452427Y-13508427D02*
X9452427Y-13423573D01*
X9367573Y-13423573D01*
X9367573Y-13508427D01*
X9452427Y-13508427D01*
X9350000Y-13660000D02*
X9470000Y-13780000D01*
X9470000Y-13660000D02*
X9350000Y-13780000D01*
X9452427Y-13762427D02*
X9452427Y-13677573D01*
X9367573Y-13677573D01*
X9367573Y-13762427D01*
X9452427Y-13762427D01*
X9350000Y-13914000D02*
X9470000Y-14034000D01*
X9470000Y-13914000D02*
X9350000Y-14034000D01*
X9452427Y-14016427D02*
X9452427Y-13931573D01*
X9367573Y-13931573D01*
X9367573Y-14016427D01*
X9452427Y-14016427D01*
X10939011Y-12776000D02*
X11059011Y-12896000D01*
X11059011Y-12776000D02*
X10939011Y-12896000D01*
X11041438Y-12878427D02*
X11041438Y-12793573D01*
X10956584Y-12793573D01*
X10956584Y-12878427D01*
X11041438Y-12878427D01*
X10939011Y-13030000D02*
X11059011Y-13150000D01*
X11059011Y-13030000D02*
X10939011Y-13150000D01*
X11041438Y-13132427D02*
X11041438Y-13047573D01*
X10956584Y-13047573D01*
X10956584Y-13132427D01*
X11041438Y-13132427D01*
X10939011Y-13284000D02*
X11059011Y-13404000D01*
X11059011Y-13284000D02*
X10939011Y-13404000D01*
X11041438Y-13386427D02*
X11041438Y-13301573D01*
X10956584Y-13301573D01*
X10956584Y-13386427D01*
X11041438Y-13386427D01*
X11389011Y-12776000D02*
X11509011Y-12896000D01*
X11509011Y-12776000D02*
X11389011Y-12896000D01*
X11491438Y-12878427D02*
X11491438Y-12793573D01*
X11406584Y-12793573D01*
X11406584Y-12878427D01*
X11491438Y-12878427D01*
X11389011Y-13030000D02*
X11509011Y-13150000D01*
X11509011Y-13030000D02*
X11389011Y-13150000D01*
X11491438Y-13132427D02*
X11491438Y-13047573D01*
X11406584Y-13047573D01*
X11406584Y-13132427D01*
X11491438Y-13132427D01*
X11389011Y-13284000D02*
X11509011Y-13404000D01*
X11509011Y-13284000D02*
X11389011Y-13404000D01*
X11491438Y-13386427D02*
X11491438Y-13301573D01*
X11406584Y-13301573D01*
X11406584Y-13386427D01*
X11491438Y-13386427D01*
D17*
X4897060Y-8768200D02*
X5037260Y-8908400D01*
X5037260Y-8768200D02*
X4897060Y-8908400D01*
X4967160Y-8908400D02*
X5037260Y-8838300D01*
X4967160Y-8768200D01*
X4897060Y-8838300D01*
X4967160Y-8908400D01*
X5394900Y-8768200D02*
X5535100Y-8908400D01*
X5535100Y-8768200D02*
X5394900Y-8908400D01*
X5465000Y-8908400D02*
X5535100Y-8838300D01*
X5465000Y-8768200D01*
X5394900Y-8838300D01*
X5465000Y-8908400D01*
X9603360Y-8733100D02*
X9743560Y-8873300D01*
X9743560Y-8733100D02*
X9603360Y-8873300D01*
X9673460Y-8873300D02*
X9743560Y-8803200D01*
X9673460Y-8733100D01*
X9603360Y-8803200D01*
X9673460Y-8873300D01*
X10101200Y-8733100D02*
X10241400Y-8873300D01*
X10241400Y-8733100D02*
X10101200Y-8873300D01*
X10171300Y-8873300D02*
X10241400Y-8803200D01*
X10171300Y-8733100D01*
X10101200Y-8803200D01*
X10171300Y-8873300D01*
D18*
X6084000Y-7896000D02*
X6084000Y-8046000D01*
X6009000Y-7971000D02*
X6159000Y-7971000D01*
X6159000Y-7971000D02*
G75*
G02*
X6009000Y-7971000I-75000J0D01*
G01*
X6009000Y-7971000D02*
G75*
G02*
X6159000Y-7971000I75000J0D01*
G01*
X6084000Y-8912000D02*
X6084000Y-9062000D01*
X6009000Y-8987000D02*
X6159000Y-8987000D01*
X6159000Y-8987000D02*
G75*
G02*
X6009000Y-8987000I-75000J0D01*
G01*
X6009000Y-8987000D02*
G75*
G02*
X6159000Y-8987000I75000J0D01*
G01*
X6084000Y-9925500D02*
X6084000Y-10075500D01*
X6009000Y-10000500D02*
X6159000Y-10000500D01*
X6159000Y-10000500D02*
G75*
G02*
X6009000Y-10000500I-75000J0D01*
G01*
X6009000Y-10000500D02*
G75*
G02*
X6159000Y-10000500I75000J0D01*
G01*
X6084000Y-10941500D02*
X6084000Y-11091500D01*
X6009000Y-11016500D02*
X6159000Y-11016500D01*
X6159000Y-11016500D02*
G75*
G02*
X6009000Y-11016500I-75000J0D01*
G01*
X6009000Y-11016500D02*
G75*
G02*
X6159000Y-11016500I75000J0D01*
G01*
X6592000Y-7642000D02*
X6592000Y-7792000D01*
X6517000Y-7717000D02*
X6667000Y-7717000D01*
X6667000Y-7717000D02*
G75*
G02*
X6517000Y-7717000I-75000J0D01*
G01*
X6517000Y-7717000D02*
G75*
G02*
X6667000Y-7717000I75000J0D01*
G01*
X6592000Y-9671500D02*
X6592000Y-9821500D01*
X6517000Y-9746500D02*
X6667000Y-9746500D01*
X6667000Y-9746500D02*
G75*
G02*
X6517000Y-9746500I-75000J0D01*
G01*
X6517000Y-9746500D02*
G75*
G02*
X6667000Y-9746500I75000J0D01*
G01*
X7100000Y-7896000D02*
X7100000Y-8046000D01*
X7025000Y-7971000D02*
X7175000Y-7971000D01*
X7175000Y-7971000D02*
G75*
G02*
X7025000Y-7971000I-75000J0D01*
G01*
X7025000Y-7971000D02*
G75*
G02*
X7175000Y-7971000I75000J0D01*
G01*
X7100000Y-8912000D02*
X7100000Y-9062000D01*
X7025000Y-8987000D02*
X7175000Y-8987000D01*
X7175000Y-8987000D02*
G75*
G02*
X7025000Y-8987000I-75000J0D01*
G01*
X7025000Y-8987000D02*
G75*
G02*
X7175000Y-8987000I75000J0D01*
G01*
X7100000Y-9925500D02*
X7100000Y-10075500D01*
X7025000Y-10000500D02*
X7175000Y-10000500D01*
X7175000Y-10000500D02*
G75*
G02*
X7025000Y-10000500I-75000J0D01*
G01*
X7025000Y-10000500D02*
G75*
G02*
X7175000Y-10000500I75000J0D01*
G01*
X7100000Y-10941500D02*
X7100000Y-11091500D01*
X7025000Y-11016500D02*
X7175000Y-11016500D01*
X7175000Y-11016500D02*
G75*
G02*
X7025000Y-11016500I-75000J0D01*
G01*
X7025000Y-11016500D02*
G75*
G02*
X7175000Y-11016500I75000J0D01*
G01*
X8044000Y-7895500D02*
X8044000Y-8045500D01*
X7969000Y-7970500D02*
X8119000Y-7970500D01*
X8119000Y-7970500D02*
G75*
G02*
X7969000Y-7970500I-75000J0D01*
G01*
X7969000Y-7970500D02*
G75*
G02*
X8119000Y-7970500I75000J0D01*
G01*
X8044000Y-8911500D02*
X8044000Y-9061500D01*
X7969000Y-8986500D02*
X8119000Y-8986500D01*
X8119000Y-8986500D02*
G75*
G02*
X7969000Y-8986500I-75000J0D01*
G01*
X7969000Y-8986500D02*
G75*
G02*
X8119000Y-8986500I75000J0D01*
G01*
X8044000Y-9925000D02*
X8044000Y-10075000D01*
X7969000Y-10000000D02*
X8119000Y-10000000D01*
X8119000Y-10000000D02*
G75*
G02*
X7969000Y-10000000I-75000J0D01*
G01*
X7969000Y-10000000D02*
G75*
G02*
X8119000Y-10000000I75000J0D01*
G01*
X8044000Y-10941000D02*
X8044000Y-11091000D01*
X7969000Y-11016000D02*
X8119000Y-11016000D01*
X8119000Y-11016000D02*
G75*
G02*
X7969000Y-11016000I-75000J0D01*
G01*
X7969000Y-11016000D02*
G75*
G02*
X8119000Y-11016000I75000J0D01*
G01*
X8552000Y-7641500D02*
X8552000Y-7791500D01*
X8477000Y-7716500D02*
X8627000Y-7716500D01*
X8627000Y-7716500D02*
G75*
G02*
X8477000Y-7716500I-75000J0D01*
G01*
X8477000Y-7716500D02*
G75*
G02*
X8627000Y-7716500I75000J0D01*
G01*
X8552000Y-9671000D02*
X8552000Y-9821000D01*
X8477000Y-9746000D02*
X8627000Y-9746000D01*
X8627000Y-9746000D02*
G75*
G02*
X8477000Y-9746000I-75000J0D01*
G01*
X8477000Y-9746000D02*
G75*
G02*
X8627000Y-9746000I75000J0D01*
G01*
X9060000Y-7895500D02*
X9060000Y-8045500D01*
X8985000Y-7970500D02*
X9135000Y-7970500D01*
X9135000Y-7970500D02*
G75*
G02*
X8985000Y-7970500I-75000J0D01*
G01*
X8985000Y-7970500D02*
G75*
G02*
X9135000Y-7970500I75000J0D01*
G01*
X9060000Y-8911500D02*
X9060000Y-9061500D01*
X8985000Y-8986500D02*
X9135000Y-8986500D01*
X9135000Y-8986500D02*
G75*
G02*
X8985000Y-8986500I-75000J0D01*
G01*
X8985000Y-8986500D02*
G75*
G02*
X9135000Y-8986500I75000J0D01*
G01*
X9060000Y-9925000D02*
X9060000Y-10075000D01*
X8985000Y-10000000D02*
X9135000Y-10000000D01*
X9135000Y-10000000D02*
G75*
G02*
X8985000Y-10000000I-75000J0D01*
G01*
X8985000Y-10000000D02*
G75*
G02*
X9135000Y-10000000I75000J0D01*
G01*
X9060000Y-10941000D02*
X9060000Y-11091000D01*
X8985000Y-11016000D02*
X9135000Y-11016000D01*
X9135000Y-11016000D02*
G75*
G02*
X8985000Y-11016000I-75000J0D01*
G01*
X8985000Y-11016000D02*
G75*
G02*
X9135000Y-11016000I75000J0D01*
G01*
X11293500Y-10648500D02*
X11293500Y-10798500D01*
X11218500Y-10723500D02*
X11368500Y-10723500D01*
X11368500Y-10723500D02*
G75*
G02*
X11218500Y-10723500I-75000J0D01*
G01*
X11218500Y-10723500D02*
G75*
G02*
X11368500Y-10723500I75000J0D01*
G01*
X11293500Y-11664500D02*
X11293500Y-11814500D01*
X11218500Y-11739500D02*
X11368500Y-11739500D01*
X11368500Y-11739500D02*
G75*
G02*
X11218500Y-11739500I-75000J0D01*
G01*
X11218500Y-11739500D02*
G75*
G02*
X11368500Y-11739500I75000J0D01*
G01*
X11801500Y-11918500D02*
X11801500Y-12068500D01*
X11726500Y-11993500D02*
X11876500Y-11993500D01*
X11876500Y-11993500D02*
G75*
G02*
X11726500Y-11993500I-75000J0D01*
G01*
X11726500Y-11993500D02*
G75*
G02*
X11876500Y-11993500I75000J0D01*
G01*
X12309500Y-10648500D02*
X12309500Y-10798500D01*
X12234500Y-10723500D02*
X12384500Y-10723500D01*
X12384500Y-10723500D02*
G75*
G02*
X12234500Y-10723500I-75000J0D01*
G01*
X12234500Y-10723500D02*
G75*
G02*
X12384500Y-10723500I75000J0D01*
G01*
X12309500Y-11664500D02*
X12309500Y-11814500D01*
X12234500Y-11739500D02*
X12384500Y-11739500D01*
X12384500Y-11739500D02*
G75*
G02*
X12234500Y-11739500I-75000J0D01*
G01*
X12234500Y-11739500D02*
G75*
G02*
X12384500Y-11739500I75000J0D01*
G01*
D11*
X6470711Y-11800711D02*
X6470711Y-11659289D01*
X6329289Y-11659289D01*
X6329289Y-11800711D01*
X6470711Y-11800711D01*
X6500000Y-11730000D02*
G75*
G02*
X6300000Y-11730000I-100000J0D01*
G01*
X6300000Y-11730000D02*
G75*
G02*
X6500000Y-11730000I100000J0D01*
G01*
D12*
X6475000Y-11630000D02*
X6325000Y-11630000D01*
X6325000Y-11830000D02*
G75*
G02*
X6325000Y-11630000I0J100000D01*
G01*
X6325000Y-11830000D02*
X6475000Y-11830000D01*
X6475000Y-11830000D02*
G75*
G03*
X6475000Y-11630000I0J100000D01*
G01*
D11*
X7270711Y-11800711D02*
X7270711Y-11659289D01*
X7129289Y-11659289D01*
X7129289Y-11800711D01*
X7270711Y-11800711D01*
X7300000Y-11730000D02*
G75*
G02*
X7100000Y-11730000I-100000J0D01*
G01*
X7100000Y-11730000D02*
G75*
G02*
X7300000Y-11730000I100000J0D01*
G01*
D12*
X7275000Y-11630000D02*
X7125000Y-11630000D01*
X7125000Y-11830000D02*
G75*
G02*
X7125000Y-11630000I0J100000D01*
G01*
X7125000Y-11830000D02*
X7275000Y-11830000D01*
X7275000Y-11830000D02*
G75*
G03*
X7275000Y-11630000I0J100000D01*
G01*
D11*
X8420711Y-11790711D02*
X8420711Y-11649289D01*
X8279289Y-11649289D01*
X8279289Y-11790711D01*
X8420711Y-11790711D01*
X8450000Y-11720000D02*
G75*
G02*
X8250000Y-11720000I-100000J0D01*
G01*
X8250000Y-11720000D02*
G75*
G02*
X8450000Y-11720000I100000J0D01*
G01*
D12*
X8275000Y-11820000D02*
X8425000Y-11820000D01*
X8425000Y-11620000D02*
G75*
G02*
X8425000Y-11820000I0J-100000D01*
G01*
X8425000Y-11620000D02*
X8275000Y-11620000D01*
X8275000Y-11620000D02*
G75*
G03*
X8275000Y-11820000I0J-100000D01*
G01*
D11*
X9220711Y-11790711D02*
X9220711Y-11649289D01*
X9079289Y-11649289D01*
X9079289Y-11790711D01*
X9220711Y-11790711D01*
X9250000Y-11720000D02*
G75*
G02*
X9050000Y-11720000I-100000J0D01*
G01*
X9050000Y-11720000D02*
G75*
G02*
X9250000Y-11720000I100000J0D01*
G01*
D12*
X9075000Y-11820000D02*
X9225000Y-11820000D01*
X9225000Y-11620000D02*
G75*
G02*
X9225000Y-11820000I0J-100000D01*
G01*
X9225000Y-11620000D02*
X9075000Y-11620000D01*
X9075000Y-11620000D02*
G75*
G03*
X9075000Y-11820000I0J-100000D01*
G01*
D11*
X4258277Y-14543984D02*
X4258277Y-14343984D01*
X4258277Y-14343984D02*
X4305896Y-14343984D01*
X4305896Y-14343984D02*
X4334467Y-14353508D01*
X4334467Y-14353508D02*
X4353515Y-14372555D01*
X4353515Y-14372555D02*
X4363039Y-14391603D01*
X4363039Y-14391603D02*
X4372563Y-14429698D01*
X4372563Y-14429698D02*
X4372563Y-14458269D01*
X4372563Y-14458269D02*
X4363039Y-14496365D01*
X4363039Y-14496365D02*
X4353515Y-14515412D01*
X4353515Y-14515412D02*
X4334467Y-14534460D01*
X4334467Y-14534460D02*
X4305896Y-14543984D01*
X4305896Y-14543984D02*
X4258277Y-14543984D01*
X4458277Y-14543984D02*
X4458277Y-14410650D01*
X4458277Y-14448746D02*
X4467801Y-14429698D01*
X4467801Y-14429698D02*
X4477324Y-14420174D01*
X4477324Y-14420174D02*
X4496372Y-14410650D01*
X4496372Y-14410650D02*
X4515420Y-14410650D01*
X4582086Y-14543984D02*
X4582086Y-14410650D01*
X4582086Y-14343984D02*
X4572563Y-14353508D01*
X4572563Y-14353508D02*
X4582086Y-14363031D01*
X4582086Y-14363031D02*
X4591610Y-14353508D01*
X4591610Y-14353508D02*
X4582086Y-14343984D01*
X4582086Y-14343984D02*
X4582086Y-14363031D01*
X4705896Y-14543984D02*
X4686848Y-14534460D01*
X4686848Y-14534460D02*
X4677324Y-14515412D01*
X4677324Y-14515412D02*
X4677324Y-14343984D01*
X4810658Y-14543984D02*
X4791610Y-14534460D01*
X4791610Y-14534460D02*
X4782086Y-14515412D01*
X4782086Y-14515412D02*
X4782086Y-14343984D01*
X5039229Y-14543984D02*
X5039229Y-14343984D01*
X5039229Y-14343984D02*
X5105896Y-14486841D01*
X5105896Y-14486841D02*
X5172563Y-14343984D01*
X5172563Y-14343984D02*
X5172563Y-14543984D01*
X5353515Y-14543984D02*
X5353515Y-14439222D01*
X5353515Y-14439222D02*
X5343991Y-14420174D01*
X5343991Y-14420174D02*
X5324944Y-14410650D01*
X5324944Y-14410650D02*
X5286848Y-14410650D01*
X5286848Y-14410650D02*
X5267801Y-14420174D01*
X5353515Y-14534460D02*
X5334467Y-14543984D01*
X5334467Y-14543984D02*
X5286848Y-14543984D01*
X5286848Y-14543984D02*
X5267801Y-14534460D01*
X5267801Y-14534460D02*
X5258277Y-14515412D01*
X5258277Y-14515412D02*
X5258277Y-14496365D01*
X5258277Y-14496365D02*
X5267801Y-14477317D01*
X5267801Y-14477317D02*
X5286848Y-14467793D01*
X5286848Y-14467793D02*
X5334467Y-14467793D01*
X5334467Y-14467793D02*
X5353515Y-14458269D01*
X5448753Y-14410650D02*
X5448753Y-14610650D01*
X5448753Y-14420174D02*
X5467801Y-14410650D01*
X5467801Y-14410650D02*
X5505896Y-14410650D01*
X5505896Y-14410650D02*
X5524944Y-14420174D01*
X5524944Y-14420174D02*
X5534467Y-14429698D01*
X5534467Y-14429698D02*
X5543991Y-14448746D01*
X5543991Y-14448746D02*
X5543991Y-14505888D01*
X5543991Y-14505888D02*
X5534467Y-14524936D01*
X5534467Y-14524936D02*
X5524944Y-14534460D01*
X5524944Y-14534460D02*
X5505896Y-14543984D01*
X5505896Y-14543984D02*
X5467801Y-14543984D01*
X5467801Y-14543984D02*
X5448753Y-14534460D01*
X5629705Y-14524936D02*
X5639229Y-14534460D01*
X5639229Y-14534460D02*
X5629705Y-14543984D01*
X5629705Y-14543984D02*
X5620182Y-14534460D01*
X5620182Y-14534460D02*
X5629705Y-14524936D01*
X5629705Y-14524936D02*
X5629705Y-14543984D01*
X5629705Y-14420174D02*
X5639229Y-14429698D01*
X5639229Y-14429698D02*
X5629705Y-14439222D01*
X5629705Y-14439222D02*
X5620182Y-14429698D01*
X5620182Y-14429698D02*
X5629705Y-14420174D01*
X5629705Y-14420174D02*
X5629705Y-14439222D01*
D12*
X3967500Y-14857500D02*
X3997500Y-14887500D01*
X3997500Y-14857500D02*
X3967500Y-14887500D01*
D11*
X4296372Y-14763984D02*
X4315420Y-14763984D01*
X4315420Y-14763984D02*
X4334467Y-14773508D01*
X4334467Y-14773508D02*
X4343991Y-14783031D01*
X4343991Y-14783031D02*
X4353515Y-14802079D01*
X4353515Y-14802079D02*
X4363039Y-14840174D01*
X4363039Y-14840174D02*
X4363039Y-14887793D01*
X4363039Y-14887793D02*
X4353515Y-14925888D01*
X4353515Y-14925888D02*
X4343991Y-14944936D01*
X4343991Y-14944936D02*
X4334467Y-14954460D01*
X4334467Y-14954460D02*
X4315420Y-14963984D01*
X4315420Y-14963984D02*
X4296372Y-14963984D01*
X4296372Y-14963984D02*
X4277324Y-14954460D01*
X4277324Y-14954460D02*
X4267801Y-14944936D01*
X4267801Y-14944936D02*
X4258277Y-14925888D01*
X4258277Y-14925888D02*
X4248753Y-14887793D01*
X4248753Y-14887793D02*
X4248753Y-14840174D01*
X4248753Y-14840174D02*
X4258277Y-14802079D01*
X4258277Y-14802079D02*
X4267801Y-14783031D01*
X4267801Y-14783031D02*
X4277324Y-14773508D01*
X4277324Y-14773508D02*
X4296372Y-14763984D01*
X4448753Y-14944936D02*
X4458277Y-14954460D01*
X4458277Y-14954460D02*
X4448753Y-14963984D01*
X4448753Y-14963984D02*
X4439229Y-14954460D01*
X4439229Y-14954460D02*
X4448753Y-14944936D01*
X4448753Y-14944936D02*
X4448753Y-14963984D01*
X4524944Y-14763984D02*
X4648753Y-14763984D01*
X4648753Y-14763984D02*
X4582086Y-14840174D01*
X4582086Y-14840174D02*
X4610658Y-14840174D01*
X4610658Y-14840174D02*
X4629705Y-14849698D01*
X4629705Y-14849698D02*
X4639229Y-14859222D01*
X4639229Y-14859222D02*
X4648753Y-14878269D01*
X4648753Y-14878269D02*
X4648753Y-14925888D01*
X4648753Y-14925888D02*
X4639229Y-14944936D01*
X4639229Y-14944936D02*
X4629705Y-14954460D01*
X4629705Y-14954460D02*
X4610658Y-14963984D01*
X4610658Y-14963984D02*
X4553515Y-14963984D01*
X4553515Y-14963984D02*
X4534467Y-14954460D01*
X4534467Y-14954460D02*
X4524944Y-14944936D01*
X4772563Y-14763984D02*
X4791610Y-14763984D01*
X4791610Y-14763984D02*
X4810658Y-14773508D01*
X4810658Y-14773508D02*
X4820182Y-14783031D01*
X4820182Y-14783031D02*
X4829705Y-14802079D01*
X4829705Y-14802079D02*
X4839229Y-14840174D01*
X4839229Y-14840174D02*
X4839229Y-14887793D01*
X4839229Y-14887793D02*
X4829705Y-14925888D01*
X4829705Y-14925888D02*
X4820182Y-14944936D01*
X4820182Y-14944936D02*
X4810658Y-14954460D01*
X4810658Y-14954460D02*
X4791610Y-14963984D01*
X4791610Y-14963984D02*
X4772563Y-14963984D01*
X4772563Y-14963984D02*
X4753515Y-14954460D01*
X4753515Y-14954460D02*
X4743991Y-14944936D01*
X4743991Y-14944936D02*
X4734467Y-14925888D01*
X4734467Y-14925888D02*
X4724944Y-14887793D01*
X4724944Y-14887793D02*
X4724944Y-14840174D01*
X4724944Y-14840174D02*
X4734467Y-14802079D01*
X4734467Y-14802079D02*
X4743991Y-14783031D01*
X4743991Y-14783031D02*
X4753515Y-14773508D01*
X4753515Y-14773508D02*
X4772563Y-14763984D01*
X4963039Y-14763984D02*
X4982086Y-14763984D01*
X4982086Y-14763984D02*
X5001134Y-14773508D01*
X5001134Y-14773508D02*
X5010658Y-14783031D01*
X5010658Y-14783031D02*
X5020182Y-14802079D01*
X5020182Y-14802079D02*
X5029705Y-14840174D01*
X5029705Y-14840174D02*
X5029705Y-14887793D01*
X5029705Y-14887793D02*
X5020182Y-14925888D01*
X5020182Y-14925888D02*
X5010658Y-14944936D01*
X5010658Y-14944936D02*
X5001134Y-14954460D01*
X5001134Y-14954460D02*
X4982086Y-14963984D01*
X4982086Y-14963984D02*
X4963039Y-14963984D01*
X4963039Y-14963984D02*
X4943991Y-14954460D01*
X4943991Y-14954460D02*
X4934467Y-14944936D01*
X4934467Y-14944936D02*
X4924944Y-14925888D01*
X4924944Y-14925888D02*
X4915420Y-14887793D01*
X4915420Y-14887793D02*
X4915420Y-14840174D01*
X4915420Y-14840174D02*
X4924944Y-14802079D01*
X4924944Y-14802079D02*
X4934467Y-14783031D01*
X4934467Y-14783031D02*
X4943991Y-14773508D01*
X4943991Y-14773508D02*
X4963039Y-14763984D01*
X5115420Y-14963984D02*
X5115420Y-14830650D01*
X5115420Y-14849698D02*
X5124944Y-14840174D01*
X5124944Y-14840174D02*
X5143991Y-14830650D01*
X5143991Y-14830650D02*
X5172563Y-14830650D01*
X5172563Y-14830650D02*
X5191610Y-14840174D01*
X5191610Y-14840174D02*
X5201134Y-14859222D01*
X5201134Y-14859222D02*
X5201134Y-14963984D01*
X5201134Y-14859222D02*
X5210658Y-14840174D01*
X5210658Y-14840174D02*
X5229705Y-14830650D01*
X5229705Y-14830650D02*
X5258277Y-14830650D01*
X5258277Y-14830650D02*
X5277325Y-14840174D01*
X5277325Y-14840174D02*
X5286848Y-14859222D01*
X5286848Y-14859222D02*
X5286848Y-14963984D01*
X5382086Y-14963984D02*
X5382086Y-14830650D01*
X5382086Y-14849698D02*
X5391610Y-14840174D01*
X5391610Y-14840174D02*
X5410658Y-14830650D01*
X5410658Y-14830650D02*
X5439229Y-14830650D01*
X5439229Y-14830650D02*
X5458277Y-14840174D01*
X5458277Y-14840174D02*
X5467801Y-14859222D01*
X5467801Y-14859222D02*
X5467801Y-14963984D01*
X5467801Y-14859222D02*
X5477325Y-14840174D01*
X5477325Y-14840174D02*
X5496372Y-14830650D01*
X5496372Y-14830650D02*
X5524944Y-14830650D01*
X5524944Y-14830650D02*
X5543991Y-14840174D01*
X5543991Y-14840174D02*
X5553515Y-14859222D01*
X5553515Y-14859222D02*
X5553515Y-14963984D01*
X5943991Y-14754460D02*
X5772563Y-15011603D01*
X6201134Y-14763984D02*
X6220182Y-14763984D01*
X6220182Y-14763984D02*
X6239229Y-14773508D01*
X6239229Y-14773508D02*
X6248753Y-14783031D01*
X6248753Y-14783031D02*
X6258277Y-14802079D01*
X6258277Y-14802079D02*
X6267801Y-14840174D01*
X6267801Y-14840174D02*
X6267801Y-14887793D01*
X6267801Y-14887793D02*
X6258277Y-14925888D01*
X6258277Y-14925888D02*
X6248753Y-14944936D01*
X6248753Y-14944936D02*
X6239229Y-14954460D01*
X6239229Y-14954460D02*
X6220182Y-14963984D01*
X6220182Y-14963984D02*
X6201134Y-14963984D01*
X6201134Y-14963984D02*
X6182086Y-14954460D01*
X6182086Y-14954460D02*
X6172563Y-14944936D01*
X6172563Y-14944936D02*
X6163039Y-14925888D01*
X6163039Y-14925888D02*
X6153515Y-14887793D01*
X6153515Y-14887793D02*
X6153515Y-14840174D01*
X6153515Y-14840174D02*
X6163039Y-14802079D01*
X6163039Y-14802079D02*
X6172563Y-14783031D01*
X6172563Y-14783031D02*
X6182086Y-14773508D01*
X6182086Y-14773508D02*
X6201134Y-14763984D01*
X6353515Y-14944936D02*
X6363039Y-14954460D01*
X6363039Y-14954460D02*
X6353515Y-14963984D01*
X6353515Y-14963984D02*
X6343991Y-14954460D01*
X6343991Y-14954460D02*
X6353515Y-14944936D01*
X6353515Y-14944936D02*
X6353515Y-14963984D01*
X6486848Y-14763984D02*
X6505896Y-14763984D01*
X6505896Y-14763984D02*
X6524944Y-14773508D01*
X6524944Y-14773508D02*
X6534467Y-14783031D01*
X6534467Y-14783031D02*
X6543991Y-14802079D01*
X6543991Y-14802079D02*
X6553515Y-14840174D01*
X6553515Y-14840174D02*
X6553515Y-14887793D01*
X6553515Y-14887793D02*
X6543991Y-14925888D01*
X6543991Y-14925888D02*
X6534467Y-14944936D01*
X6534467Y-14944936D02*
X6524944Y-14954460D01*
X6524944Y-14954460D02*
X6505896Y-14963984D01*
X6505896Y-14963984D02*
X6486848Y-14963984D01*
X6486848Y-14963984D02*
X6467801Y-14954460D01*
X6467801Y-14954460D02*
X6458277Y-14944936D01*
X6458277Y-14944936D02*
X6448753Y-14925888D01*
X6448753Y-14925888D02*
X6439229Y-14887793D01*
X6439229Y-14887793D02*
X6439229Y-14840174D01*
X6439229Y-14840174D02*
X6448753Y-14802079D01*
X6448753Y-14802079D02*
X6458277Y-14783031D01*
X6458277Y-14783031D02*
X6467801Y-14773508D01*
X6467801Y-14773508D02*
X6486848Y-14763984D01*
X6743991Y-14963984D02*
X6629706Y-14963984D01*
X6686848Y-14963984D02*
X6686848Y-14763984D01*
X6686848Y-14763984D02*
X6667801Y-14792555D01*
X6667801Y-14792555D02*
X6648753Y-14811603D01*
X6648753Y-14811603D02*
X6629706Y-14821127D01*
X6934467Y-14963984D02*
X6820182Y-14963984D01*
X6877325Y-14963984D02*
X6877325Y-14763984D01*
X6877325Y-14763984D02*
X6858277Y-14792555D01*
X6858277Y-14792555D02*
X6839229Y-14811603D01*
X6839229Y-14811603D02*
X6820182Y-14821127D01*
X7048753Y-14849698D02*
X7029706Y-14840174D01*
X7029706Y-14840174D02*
X7020182Y-14830650D01*
X7020182Y-14830650D02*
X7010658Y-14811603D01*
X7010658Y-14811603D02*
X7010658Y-14802079D01*
X7010658Y-14802079D02*
X7020182Y-14783031D01*
X7020182Y-14783031D02*
X7029706Y-14773508D01*
X7029706Y-14773508D02*
X7048753Y-14763984D01*
X7048753Y-14763984D02*
X7086848Y-14763984D01*
X7086848Y-14763984D02*
X7105896Y-14773508D01*
X7105896Y-14773508D02*
X7115420Y-14783031D01*
X7115420Y-14783031D02*
X7124944Y-14802079D01*
X7124944Y-14802079D02*
X7124944Y-14811603D01*
X7124944Y-14811603D02*
X7115420Y-14830650D01*
X7115420Y-14830650D02*
X7105896Y-14840174D01*
X7105896Y-14840174D02*
X7086848Y-14849698D01*
X7086848Y-14849698D02*
X7048753Y-14849698D01*
X7048753Y-14849698D02*
X7029706Y-14859222D01*
X7029706Y-14859222D02*
X7020182Y-14868746D01*
X7020182Y-14868746D02*
X7010658Y-14887793D01*
X7010658Y-14887793D02*
X7010658Y-14925888D01*
X7010658Y-14925888D02*
X7020182Y-14944936D01*
X7020182Y-14944936D02*
X7029706Y-14954460D01*
X7029706Y-14954460D02*
X7048753Y-14963984D01*
X7048753Y-14963984D02*
X7086848Y-14963984D01*
X7086848Y-14963984D02*
X7105896Y-14954460D01*
X7105896Y-14954460D02*
X7115420Y-14944936D01*
X7115420Y-14944936D02*
X7124944Y-14925888D01*
X7124944Y-14925888D02*
X7124944Y-14887793D01*
X7124944Y-14887793D02*
X7115420Y-14868746D01*
X7115420Y-14868746D02*
X7105896Y-14859222D01*
X7105896Y-14859222D02*
X7086848Y-14849698D01*
X7201134Y-14763984D02*
X7201134Y-14802079D01*
X7277325Y-14763984D02*
X7277325Y-14802079D01*
X7572563Y-15040174D02*
X7563039Y-15030650D01*
X7563039Y-15030650D02*
X7543991Y-15002079D01*
X7543991Y-15002079D02*
X7534468Y-14983031D01*
X7534468Y-14983031D02*
X7524944Y-14954460D01*
X7524944Y-14954460D02*
X7515420Y-14906841D01*
X7515420Y-14906841D02*
X7515420Y-14868746D01*
X7515420Y-14868746D02*
X7524944Y-14821127D01*
X7524944Y-14821127D02*
X7534468Y-14792555D01*
X7534468Y-14792555D02*
X7543991Y-14773508D01*
X7543991Y-14773508D02*
X7563039Y-14744936D01*
X7563039Y-14744936D02*
X7572563Y-14735412D01*
X7734468Y-14763984D02*
X7696372Y-14763984D01*
X7696372Y-14763984D02*
X7677325Y-14773508D01*
X7677325Y-14773508D02*
X7667801Y-14783031D01*
X7667801Y-14783031D02*
X7648753Y-14811603D01*
X7648753Y-14811603D02*
X7639229Y-14849698D01*
X7639229Y-14849698D02*
X7639229Y-14925888D01*
X7639229Y-14925888D02*
X7648753Y-14944936D01*
X7648753Y-14944936D02*
X7658277Y-14954460D01*
X7658277Y-14954460D02*
X7677325Y-14963984D01*
X7677325Y-14963984D02*
X7715420Y-14963984D01*
X7715420Y-14963984D02*
X7734468Y-14954460D01*
X7734468Y-14954460D02*
X7743991Y-14944936D01*
X7743991Y-14944936D02*
X7753515Y-14925888D01*
X7753515Y-14925888D02*
X7753515Y-14878269D01*
X7753515Y-14878269D02*
X7743991Y-14859222D01*
X7743991Y-14859222D02*
X7734468Y-14849698D01*
X7734468Y-14849698D02*
X7715420Y-14840174D01*
X7715420Y-14840174D02*
X7677325Y-14840174D01*
X7677325Y-14840174D02*
X7658277Y-14849698D01*
X7658277Y-14849698D02*
X7648753Y-14859222D01*
X7648753Y-14859222D02*
X7639229Y-14878269D01*
X7991610Y-14963984D02*
X7991610Y-14763984D01*
X8077325Y-14963984D02*
X8077325Y-14859222D01*
X8077325Y-14859222D02*
X8067801Y-14840174D01*
X8067801Y-14840174D02*
X8048753Y-14830650D01*
X8048753Y-14830650D02*
X8020182Y-14830650D01*
X8020182Y-14830650D02*
X8001134Y-14840174D01*
X8001134Y-14840174D02*
X7991610Y-14849698D01*
X8201134Y-14963984D02*
X8182087Y-14954460D01*
X8182087Y-14954460D02*
X8172563Y-14944936D01*
X8172563Y-14944936D02*
X8163039Y-14925888D01*
X8163039Y-14925888D02*
X8163039Y-14868746D01*
X8163039Y-14868746D02*
X8172563Y-14849698D01*
X8172563Y-14849698D02*
X8182087Y-14840174D01*
X8182087Y-14840174D02*
X8201134Y-14830650D01*
X8201134Y-14830650D02*
X8229706Y-14830650D01*
X8229706Y-14830650D02*
X8248753Y-14840174D01*
X8248753Y-14840174D02*
X8258277Y-14849698D01*
X8258277Y-14849698D02*
X8267801Y-14868746D01*
X8267801Y-14868746D02*
X8267801Y-14925888D01*
X8267801Y-14925888D02*
X8258277Y-14944936D01*
X8258277Y-14944936D02*
X8248753Y-14954460D01*
X8248753Y-14954460D02*
X8229706Y-14963984D01*
X8229706Y-14963984D02*
X8201134Y-14963984D01*
X8382087Y-14963984D02*
X8363039Y-14954460D01*
X8363039Y-14954460D02*
X8353515Y-14935412D01*
X8353515Y-14935412D02*
X8353515Y-14763984D01*
X8534468Y-14954460D02*
X8515420Y-14963984D01*
X8515420Y-14963984D02*
X8477325Y-14963984D01*
X8477325Y-14963984D02*
X8458277Y-14954460D01*
X8458277Y-14954460D02*
X8448753Y-14935412D01*
X8448753Y-14935412D02*
X8448753Y-14859222D01*
X8448753Y-14859222D02*
X8458277Y-14840174D01*
X8458277Y-14840174D02*
X8477325Y-14830650D01*
X8477325Y-14830650D02*
X8515420Y-14830650D01*
X8515420Y-14830650D02*
X8534468Y-14840174D01*
X8534468Y-14840174D02*
X8543992Y-14859222D01*
X8543992Y-14859222D02*
X8543992Y-14878269D01*
X8543992Y-14878269D02*
X8448753Y-14897317D01*
X8620182Y-14954460D02*
X8639230Y-14963984D01*
X8639230Y-14963984D02*
X8677325Y-14963984D01*
X8677325Y-14963984D02*
X8696373Y-14954460D01*
X8696373Y-14954460D02*
X8705896Y-14935412D01*
X8705896Y-14935412D02*
X8705896Y-14925888D01*
X8705896Y-14925888D02*
X8696373Y-14906841D01*
X8696373Y-14906841D02*
X8677325Y-14897317D01*
X8677325Y-14897317D02*
X8648753Y-14897317D01*
X8648753Y-14897317D02*
X8629706Y-14887793D01*
X8629706Y-14887793D02*
X8620182Y-14868746D01*
X8620182Y-14868746D02*
X8620182Y-14859222D01*
X8620182Y-14859222D02*
X8629706Y-14840174D01*
X8629706Y-14840174D02*
X8648753Y-14830650D01*
X8648753Y-14830650D02*
X8677325Y-14830650D01*
X8677325Y-14830650D02*
X8696373Y-14840174D01*
X8772563Y-15040174D02*
X8782087Y-15030650D01*
X8782087Y-15030650D02*
X8801134Y-15002079D01*
X8801134Y-15002079D02*
X8810658Y-14983031D01*
X8810658Y-14983031D02*
X8820182Y-14954460D01*
X8820182Y-14954460D02*
X8829706Y-14906841D01*
X8829706Y-14906841D02*
X8829706Y-14868746D01*
X8829706Y-14868746D02*
X8820182Y-14821127D01*
X8820182Y-14821127D02*
X8810658Y-14792555D01*
X8810658Y-14792555D02*
X8801134Y-14773508D01*
X8801134Y-14773508D02*
X8782087Y-14744936D01*
X8782087Y-14744936D02*
X8772563Y-14735412D01*
D12*
X3997500Y-15136500D02*
G75*
G02*
X3927500Y-15136500I-35000J0D01*
G01*
X3927500Y-15136500D02*
G75*
G02*
X3997500Y-15136500I35000J0D01*
G01*
D11*
X4296372Y-15027984D02*
X4315420Y-15027984D01*
X4315420Y-15027984D02*
X4334467Y-15037508D01*
X4334467Y-15037508D02*
X4343991Y-15047031D01*
X4343991Y-15047031D02*
X4353515Y-15066079D01*
X4353515Y-15066079D02*
X4363039Y-15104174D01*
X4363039Y-15104174D02*
X4363039Y-15151793D01*
X4363039Y-15151793D02*
X4353515Y-15189888D01*
X4353515Y-15189888D02*
X4343991Y-15208936D01*
X4343991Y-15208936D02*
X4334467Y-15218460D01*
X4334467Y-15218460D02*
X4315420Y-15227984D01*
X4315420Y-15227984D02*
X4296372Y-15227984D01*
X4296372Y-15227984D02*
X4277324Y-15218460D01*
X4277324Y-15218460D02*
X4267801Y-15208936D01*
X4267801Y-15208936D02*
X4258277Y-15189888D01*
X4258277Y-15189888D02*
X4248753Y-15151793D01*
X4248753Y-15151793D02*
X4248753Y-15104174D01*
X4248753Y-15104174D02*
X4258277Y-15066079D01*
X4258277Y-15066079D02*
X4267801Y-15047031D01*
X4267801Y-15047031D02*
X4277324Y-15037508D01*
X4277324Y-15037508D02*
X4296372Y-15027984D01*
X4448753Y-15208936D02*
X4458277Y-15218460D01*
X4458277Y-15218460D02*
X4448753Y-15227984D01*
X4448753Y-15227984D02*
X4439229Y-15218460D01*
X4439229Y-15218460D02*
X4448753Y-15208936D01*
X4448753Y-15208936D02*
X4448753Y-15227984D01*
X4524944Y-15027984D02*
X4658277Y-15027984D01*
X4658277Y-15027984D02*
X4572563Y-15227984D01*
X4772563Y-15027984D02*
X4791610Y-15027984D01*
X4791610Y-15027984D02*
X4810658Y-15037508D01*
X4810658Y-15037508D02*
X4820182Y-15047031D01*
X4820182Y-15047031D02*
X4829705Y-15066079D01*
X4829705Y-15066079D02*
X4839229Y-15104174D01*
X4839229Y-15104174D02*
X4839229Y-15151793D01*
X4839229Y-15151793D02*
X4829705Y-15189888D01*
X4829705Y-15189888D02*
X4820182Y-15208936D01*
X4820182Y-15208936D02*
X4810658Y-15218460D01*
X4810658Y-15218460D02*
X4791610Y-15227984D01*
X4791610Y-15227984D02*
X4772563Y-15227984D01*
X4772563Y-15227984D02*
X4753515Y-15218460D01*
X4753515Y-15218460D02*
X4743991Y-15208936D01*
X4743991Y-15208936D02*
X4734467Y-15189888D01*
X4734467Y-15189888D02*
X4724944Y-15151793D01*
X4724944Y-15151793D02*
X4724944Y-15104174D01*
X4724944Y-15104174D02*
X4734467Y-15066079D01*
X4734467Y-15066079D02*
X4743991Y-15047031D01*
X4743991Y-15047031D02*
X4753515Y-15037508D01*
X4753515Y-15037508D02*
X4772563Y-15027984D01*
X4963039Y-15027984D02*
X4982086Y-15027984D01*
X4982086Y-15027984D02*
X5001134Y-15037508D01*
X5001134Y-15037508D02*
X5010658Y-15047031D01*
X5010658Y-15047031D02*
X5020182Y-15066079D01*
X5020182Y-15066079D02*
X5029705Y-15104174D01*
X5029705Y-15104174D02*
X5029705Y-15151793D01*
X5029705Y-15151793D02*
X5020182Y-15189888D01*
X5020182Y-15189888D02*
X5010658Y-15208936D01*
X5010658Y-15208936D02*
X5001134Y-15218460D01*
X5001134Y-15218460D02*
X4982086Y-15227984D01*
X4982086Y-15227984D02*
X4963039Y-15227984D01*
X4963039Y-15227984D02*
X4943991Y-15218460D01*
X4943991Y-15218460D02*
X4934467Y-15208936D01*
X4934467Y-15208936D02*
X4924944Y-15189888D01*
X4924944Y-15189888D02*
X4915420Y-15151793D01*
X4915420Y-15151793D02*
X4915420Y-15104174D01*
X4915420Y-15104174D02*
X4924944Y-15066079D01*
X4924944Y-15066079D02*
X4934467Y-15047031D01*
X4934467Y-15047031D02*
X4943991Y-15037508D01*
X4943991Y-15037508D02*
X4963039Y-15027984D01*
X5115420Y-15227984D02*
X5115420Y-15094650D01*
X5115420Y-15113698D02*
X5124944Y-15104174D01*
X5124944Y-15104174D02*
X5143991Y-15094650D01*
X5143991Y-15094650D02*
X5172563Y-15094650D01*
X5172563Y-15094650D02*
X5191610Y-15104174D01*
X5191610Y-15104174D02*
X5201134Y-15123222D01*
X5201134Y-15123222D02*
X5201134Y-15227984D01*
X5201134Y-15123222D02*
X5210658Y-15104174D01*
X5210658Y-15104174D02*
X5229705Y-15094650D01*
X5229705Y-15094650D02*
X5258277Y-15094650D01*
X5258277Y-15094650D02*
X5277325Y-15104174D01*
X5277325Y-15104174D02*
X5286848Y-15123222D01*
X5286848Y-15123222D02*
X5286848Y-15227984D01*
X5382086Y-15227984D02*
X5382086Y-15094650D01*
X5382086Y-15113698D02*
X5391610Y-15104174D01*
X5391610Y-15104174D02*
X5410658Y-15094650D01*
X5410658Y-15094650D02*
X5439229Y-15094650D01*
X5439229Y-15094650D02*
X5458277Y-15104174D01*
X5458277Y-15104174D02*
X5467801Y-15123222D01*
X5467801Y-15123222D02*
X5467801Y-15227984D01*
X5467801Y-15123222D02*
X5477325Y-15104174D01*
X5477325Y-15104174D02*
X5496372Y-15094650D01*
X5496372Y-15094650D02*
X5524944Y-15094650D01*
X5524944Y-15094650D02*
X5543991Y-15104174D01*
X5543991Y-15104174D02*
X5553515Y-15123222D01*
X5553515Y-15123222D02*
X5553515Y-15227984D01*
X5943991Y-15018460D02*
X5772563Y-15275603D01*
X6201134Y-15027984D02*
X6220182Y-15027984D01*
X6220182Y-15027984D02*
X6239229Y-15037508D01*
X6239229Y-15037508D02*
X6248753Y-15047031D01*
X6248753Y-15047031D02*
X6258277Y-15066079D01*
X6258277Y-15066079D02*
X6267801Y-15104174D01*
X6267801Y-15104174D02*
X6267801Y-15151793D01*
X6267801Y-15151793D02*
X6258277Y-15189888D01*
X6258277Y-15189888D02*
X6248753Y-15208936D01*
X6248753Y-15208936D02*
X6239229Y-15218460D01*
X6239229Y-15218460D02*
X6220182Y-15227984D01*
X6220182Y-15227984D02*
X6201134Y-15227984D01*
X6201134Y-15227984D02*
X6182086Y-15218460D01*
X6182086Y-15218460D02*
X6172563Y-15208936D01*
X6172563Y-15208936D02*
X6163039Y-15189888D01*
X6163039Y-15189888D02*
X6153515Y-15151793D01*
X6153515Y-15151793D02*
X6153515Y-15104174D01*
X6153515Y-15104174D02*
X6163039Y-15066079D01*
X6163039Y-15066079D02*
X6172563Y-15047031D01*
X6172563Y-15047031D02*
X6182086Y-15037508D01*
X6182086Y-15037508D02*
X6201134Y-15027984D01*
X6353515Y-15208936D02*
X6363039Y-15218460D01*
X6363039Y-15218460D02*
X6353515Y-15227984D01*
X6353515Y-15227984D02*
X6343991Y-15218460D01*
X6343991Y-15218460D02*
X6353515Y-15208936D01*
X6353515Y-15208936D02*
X6353515Y-15227984D01*
X6486848Y-15027984D02*
X6505896Y-15027984D01*
X6505896Y-15027984D02*
X6524944Y-15037508D01*
X6524944Y-15037508D02*
X6534467Y-15047031D01*
X6534467Y-15047031D02*
X6543991Y-15066079D01*
X6543991Y-15066079D02*
X6553515Y-15104174D01*
X6553515Y-15104174D02*
X6553515Y-15151793D01*
X6553515Y-15151793D02*
X6543991Y-15189888D01*
X6543991Y-15189888D02*
X6534467Y-15208936D01*
X6534467Y-15208936D02*
X6524944Y-15218460D01*
X6524944Y-15218460D02*
X6505896Y-15227984D01*
X6505896Y-15227984D02*
X6486848Y-15227984D01*
X6486848Y-15227984D02*
X6467801Y-15218460D01*
X6467801Y-15218460D02*
X6458277Y-15208936D01*
X6458277Y-15208936D02*
X6448753Y-15189888D01*
X6448753Y-15189888D02*
X6439229Y-15151793D01*
X6439229Y-15151793D02*
X6439229Y-15104174D01*
X6439229Y-15104174D02*
X6448753Y-15066079D01*
X6448753Y-15066079D02*
X6458277Y-15047031D01*
X6458277Y-15047031D02*
X6467801Y-15037508D01*
X6467801Y-15037508D02*
X6486848Y-15027984D01*
X6629706Y-15047031D02*
X6639229Y-15037508D01*
X6639229Y-15037508D02*
X6658277Y-15027984D01*
X6658277Y-15027984D02*
X6705896Y-15027984D01*
X6705896Y-15027984D02*
X6724944Y-15037508D01*
X6724944Y-15037508D02*
X6734467Y-15047031D01*
X6734467Y-15047031D02*
X6743991Y-15066079D01*
X6743991Y-15066079D02*
X6743991Y-15085127D01*
X6743991Y-15085127D02*
X6734467Y-15113698D01*
X6734467Y-15113698D02*
X6620182Y-15227984D01*
X6620182Y-15227984D02*
X6743991Y-15227984D01*
X6810658Y-15027984D02*
X6943991Y-15027984D01*
X6943991Y-15027984D02*
X6858277Y-15227984D01*
X7105896Y-15027984D02*
X7067801Y-15027984D01*
X7067801Y-15027984D02*
X7048753Y-15037508D01*
X7048753Y-15037508D02*
X7039229Y-15047031D01*
X7039229Y-15047031D02*
X7020182Y-15075603D01*
X7020182Y-15075603D02*
X7010658Y-15113698D01*
X7010658Y-15113698D02*
X7010658Y-15189888D01*
X7010658Y-15189888D02*
X7020182Y-15208936D01*
X7020182Y-15208936D02*
X7029706Y-15218460D01*
X7029706Y-15218460D02*
X7048753Y-15227984D01*
X7048753Y-15227984D02*
X7086848Y-15227984D01*
X7086848Y-15227984D02*
X7105896Y-15218460D01*
X7105896Y-15218460D02*
X7115420Y-15208936D01*
X7115420Y-15208936D02*
X7124944Y-15189888D01*
X7124944Y-15189888D02*
X7124944Y-15142269D01*
X7124944Y-15142269D02*
X7115420Y-15123222D01*
X7115420Y-15123222D02*
X7105896Y-15113698D01*
X7105896Y-15113698D02*
X7086848Y-15104174D01*
X7086848Y-15104174D02*
X7048753Y-15104174D01*
X7048753Y-15104174D02*
X7029706Y-15113698D01*
X7029706Y-15113698D02*
X7020182Y-15123222D01*
X7020182Y-15123222D02*
X7010658Y-15142269D01*
X7201134Y-15027984D02*
X7201134Y-15066079D01*
X7277325Y-15027984D02*
X7277325Y-15066079D01*
X7572563Y-15304174D02*
X7563039Y-15294650D01*
X7563039Y-15294650D02*
X7543991Y-15266079D01*
X7543991Y-15266079D02*
X7534468Y-15247031D01*
X7534468Y-15247031D02*
X7524944Y-15218460D01*
X7524944Y-15218460D02*
X7515420Y-15170841D01*
X7515420Y-15170841D02*
X7515420Y-15132746D01*
X7515420Y-15132746D02*
X7524944Y-15085127D01*
X7524944Y-15085127D02*
X7534468Y-15056555D01*
X7534468Y-15056555D02*
X7543991Y-15037508D01*
X7543991Y-15037508D02*
X7563039Y-15008936D01*
X7563039Y-15008936D02*
X7572563Y-14999412D01*
X7639229Y-15047031D02*
X7648753Y-15037508D01*
X7648753Y-15037508D02*
X7667801Y-15027984D01*
X7667801Y-15027984D02*
X7715420Y-15027984D01*
X7715420Y-15027984D02*
X7734468Y-15037508D01*
X7734468Y-15037508D02*
X7743991Y-15047031D01*
X7743991Y-15047031D02*
X7753515Y-15066079D01*
X7753515Y-15066079D02*
X7753515Y-15085127D01*
X7753515Y-15085127D02*
X7743991Y-15113698D01*
X7743991Y-15113698D02*
X7629706Y-15227984D01*
X7629706Y-15227984D02*
X7753515Y-15227984D01*
X7877325Y-15027984D02*
X7896372Y-15027984D01*
X7896372Y-15027984D02*
X7915420Y-15037508D01*
X7915420Y-15037508D02*
X7924944Y-15047031D01*
X7924944Y-15047031D02*
X7934468Y-15066079D01*
X7934468Y-15066079D02*
X7943991Y-15104174D01*
X7943991Y-15104174D02*
X7943991Y-15151793D01*
X7943991Y-15151793D02*
X7934468Y-15189888D01*
X7934468Y-15189888D02*
X7924944Y-15208936D01*
X7924944Y-15208936D02*
X7915420Y-15218460D01*
X7915420Y-15218460D02*
X7896372Y-15227984D01*
X7896372Y-15227984D02*
X7877325Y-15227984D01*
X7877325Y-15227984D02*
X7858277Y-15218460D01*
X7858277Y-15218460D02*
X7848753Y-15208936D01*
X7848753Y-15208936D02*
X7839229Y-15189888D01*
X7839229Y-15189888D02*
X7829706Y-15151793D01*
X7829706Y-15151793D02*
X7829706Y-15104174D01*
X7829706Y-15104174D02*
X7839229Y-15066079D01*
X7839229Y-15066079D02*
X7848753Y-15047031D01*
X7848753Y-15047031D02*
X7858277Y-15037508D01*
X7858277Y-15037508D02*
X7877325Y-15027984D01*
X8182087Y-15227984D02*
X8182087Y-15027984D01*
X8267801Y-15227984D02*
X8267801Y-15123222D01*
X8267801Y-15123222D02*
X8258277Y-15104174D01*
X8258277Y-15104174D02*
X8239230Y-15094650D01*
X8239230Y-15094650D02*
X8210658Y-15094650D01*
X8210658Y-15094650D02*
X8191610Y-15104174D01*
X8191610Y-15104174D02*
X8182087Y-15113698D01*
X8391611Y-15227984D02*
X8372563Y-15218460D01*
X8372563Y-15218460D02*
X8363039Y-15208936D01*
X8363039Y-15208936D02*
X8353515Y-15189888D01*
X8353515Y-15189888D02*
X8353515Y-15132746D01*
X8353515Y-15132746D02*
X8363039Y-15113698D01*
X8363039Y-15113698D02*
X8372563Y-15104174D01*
X8372563Y-15104174D02*
X8391611Y-15094650D01*
X8391611Y-15094650D02*
X8420182Y-15094650D01*
X8420182Y-15094650D02*
X8439230Y-15104174D01*
X8439230Y-15104174D02*
X8448753Y-15113698D01*
X8448753Y-15113698D02*
X8458277Y-15132746D01*
X8458277Y-15132746D02*
X8458277Y-15189888D01*
X8458277Y-15189888D02*
X8448753Y-15208936D01*
X8448753Y-15208936D02*
X8439230Y-15218460D01*
X8439230Y-15218460D02*
X8420182Y-15227984D01*
X8420182Y-15227984D02*
X8391611Y-15227984D01*
X8572563Y-15227984D02*
X8553515Y-15218460D01*
X8553515Y-15218460D02*
X8543992Y-15199412D01*
X8543992Y-15199412D02*
X8543992Y-15027984D01*
X8724944Y-15218460D02*
X8705896Y-15227984D01*
X8705896Y-15227984D02*
X8667801Y-15227984D01*
X8667801Y-15227984D02*
X8648753Y-15218460D01*
X8648753Y-15218460D02*
X8639230Y-15199412D01*
X8639230Y-15199412D02*
X8639230Y-15123222D01*
X8639230Y-15123222D02*
X8648753Y-15104174D01*
X8648753Y-15104174D02*
X8667801Y-15094650D01*
X8667801Y-15094650D02*
X8705896Y-15094650D01*
X8705896Y-15094650D02*
X8724944Y-15104174D01*
X8724944Y-15104174D02*
X8734468Y-15123222D01*
X8734468Y-15123222D02*
X8734468Y-15142269D01*
X8734468Y-15142269D02*
X8639230Y-15161317D01*
X8810658Y-15218460D02*
X8829706Y-15227984D01*
X8829706Y-15227984D02*
X8867801Y-15227984D01*
X8867801Y-15227984D02*
X8886849Y-15218460D01*
X8886849Y-15218460D02*
X8896373Y-15199412D01*
X8896373Y-15199412D02*
X8896373Y-15189888D01*
X8896373Y-15189888D02*
X8886849Y-15170841D01*
X8886849Y-15170841D02*
X8867801Y-15161317D01*
X8867801Y-15161317D02*
X8839230Y-15161317D01*
X8839230Y-15161317D02*
X8820182Y-15151793D01*
X8820182Y-15151793D02*
X8810658Y-15132746D01*
X8810658Y-15132746D02*
X8810658Y-15123222D01*
X8810658Y-15123222D02*
X8820182Y-15104174D01*
X8820182Y-15104174D02*
X8839230Y-15094650D01*
X8839230Y-15094650D02*
X8867801Y-15094650D01*
X8867801Y-15094650D02*
X8886849Y-15104174D01*
X8963039Y-15304174D02*
X8972563Y-15294650D01*
X8972563Y-15294650D02*
X8991611Y-15266079D01*
X8991611Y-15266079D02*
X9001134Y-15247031D01*
X9001134Y-15247031D02*
X9010658Y-15218460D01*
X9010658Y-15218460D02*
X9020182Y-15170841D01*
X9020182Y-15170841D02*
X9020182Y-15132746D01*
X9020182Y-15132746D02*
X9010658Y-15085127D01*
X9010658Y-15085127D02*
X9001134Y-15056555D01*
X9001134Y-15056555D02*
X8991611Y-15037508D01*
X8991611Y-15037508D02*
X8972563Y-15008936D01*
X8972563Y-15008936D02*
X8963039Y-14999412D01*
D12*
X3957500Y-15360500D02*
X3957500Y-15440500D01*
X3917500Y-15400500D02*
X3997500Y-15400500D01*
D11*
X4296372Y-15291984D02*
X4315420Y-15291984D01*
X4315420Y-15291984D02*
X4334467Y-15301508D01*
X4334467Y-15301508D02*
X4343991Y-15311031D01*
X4343991Y-15311031D02*
X4353515Y-15330079D01*
X4353515Y-15330079D02*
X4363039Y-15368174D01*
X4363039Y-15368174D02*
X4363039Y-15415793D01*
X4363039Y-15415793D02*
X4353515Y-15453888D01*
X4353515Y-15453888D02*
X4343991Y-15472936D01*
X4343991Y-15472936D02*
X4334467Y-15482460D01*
X4334467Y-15482460D02*
X4315420Y-15491984D01*
X4315420Y-15491984D02*
X4296372Y-15491984D01*
X4296372Y-15491984D02*
X4277324Y-15482460D01*
X4277324Y-15482460D02*
X4267801Y-15472936D01*
X4267801Y-15472936D02*
X4258277Y-15453888D01*
X4258277Y-15453888D02*
X4248753Y-15415793D01*
X4248753Y-15415793D02*
X4248753Y-15368174D01*
X4248753Y-15368174D02*
X4258277Y-15330079D01*
X4258277Y-15330079D02*
X4267801Y-15311031D01*
X4267801Y-15311031D02*
X4277324Y-15301508D01*
X4277324Y-15301508D02*
X4296372Y-15291984D01*
X4448753Y-15472936D02*
X4458277Y-15482460D01*
X4458277Y-15482460D02*
X4448753Y-15491984D01*
X4448753Y-15491984D02*
X4439229Y-15482460D01*
X4439229Y-15482460D02*
X4448753Y-15472936D01*
X4448753Y-15472936D02*
X4448753Y-15491984D01*
X4572563Y-15377698D02*
X4553515Y-15368174D01*
X4553515Y-15368174D02*
X4543991Y-15358650D01*
X4543991Y-15358650D02*
X4534467Y-15339603D01*
X4534467Y-15339603D02*
X4534467Y-15330079D01*
X4534467Y-15330079D02*
X4543991Y-15311031D01*
X4543991Y-15311031D02*
X4553515Y-15301508D01*
X4553515Y-15301508D02*
X4572563Y-15291984D01*
X4572563Y-15291984D02*
X4610658Y-15291984D01*
X4610658Y-15291984D02*
X4629705Y-15301508D01*
X4629705Y-15301508D02*
X4639229Y-15311031D01*
X4639229Y-15311031D02*
X4648753Y-15330079D01*
X4648753Y-15330079D02*
X4648753Y-15339603D01*
X4648753Y-15339603D02*
X4639229Y-15358650D01*
X4639229Y-15358650D02*
X4629705Y-15368174D01*
X4629705Y-15368174D02*
X4610658Y-15377698D01*
X4610658Y-15377698D02*
X4572563Y-15377698D01*
X4572563Y-15377698D02*
X4553515Y-15387222D01*
X4553515Y-15387222D02*
X4543991Y-15396746D01*
X4543991Y-15396746D02*
X4534467Y-15415793D01*
X4534467Y-15415793D02*
X4534467Y-15453888D01*
X4534467Y-15453888D02*
X4543991Y-15472936D01*
X4543991Y-15472936D02*
X4553515Y-15482460D01*
X4553515Y-15482460D02*
X4572563Y-15491984D01*
X4572563Y-15491984D02*
X4610658Y-15491984D01*
X4610658Y-15491984D02*
X4629705Y-15482460D01*
X4629705Y-15482460D02*
X4639229Y-15472936D01*
X4639229Y-15472936D02*
X4648753Y-15453888D01*
X4648753Y-15453888D02*
X4648753Y-15415793D01*
X4648753Y-15415793D02*
X4639229Y-15396746D01*
X4639229Y-15396746D02*
X4629705Y-15387222D01*
X4629705Y-15387222D02*
X4610658Y-15377698D01*
X4772563Y-15291984D02*
X4791610Y-15291984D01*
X4791610Y-15291984D02*
X4810658Y-15301508D01*
X4810658Y-15301508D02*
X4820182Y-15311031D01*
X4820182Y-15311031D02*
X4829705Y-15330079D01*
X4829705Y-15330079D02*
X4839229Y-15368174D01*
X4839229Y-15368174D02*
X4839229Y-15415793D01*
X4839229Y-15415793D02*
X4829705Y-15453888D01*
X4829705Y-15453888D02*
X4820182Y-15472936D01*
X4820182Y-15472936D02*
X4810658Y-15482460D01*
X4810658Y-15482460D02*
X4791610Y-15491984D01*
X4791610Y-15491984D02*
X4772563Y-15491984D01*
X4772563Y-15491984D02*
X4753515Y-15482460D01*
X4753515Y-15482460D02*
X4743991Y-15472936D01*
X4743991Y-15472936D02*
X4734467Y-15453888D01*
X4734467Y-15453888D02*
X4724944Y-15415793D01*
X4724944Y-15415793D02*
X4724944Y-15368174D01*
X4724944Y-15368174D02*
X4734467Y-15330079D01*
X4734467Y-15330079D02*
X4743991Y-15311031D01*
X4743991Y-15311031D02*
X4753515Y-15301508D01*
X4753515Y-15301508D02*
X4772563Y-15291984D01*
X4963039Y-15291984D02*
X4982086Y-15291984D01*
X4982086Y-15291984D02*
X5001134Y-15301508D01*
X5001134Y-15301508D02*
X5010658Y-15311031D01*
X5010658Y-15311031D02*
X5020182Y-15330079D01*
X5020182Y-15330079D02*
X5029705Y-15368174D01*
X5029705Y-15368174D02*
X5029705Y-15415793D01*
X5029705Y-15415793D02*
X5020182Y-15453888D01*
X5020182Y-15453888D02*
X5010658Y-15472936D01*
X5010658Y-15472936D02*
X5001134Y-15482460D01*
X5001134Y-15482460D02*
X4982086Y-15491984D01*
X4982086Y-15491984D02*
X4963039Y-15491984D01*
X4963039Y-15491984D02*
X4943991Y-15482460D01*
X4943991Y-15482460D02*
X4934467Y-15472936D01*
X4934467Y-15472936D02*
X4924944Y-15453888D01*
X4924944Y-15453888D02*
X4915420Y-15415793D01*
X4915420Y-15415793D02*
X4915420Y-15368174D01*
X4915420Y-15368174D02*
X4924944Y-15330079D01*
X4924944Y-15330079D02*
X4934467Y-15311031D01*
X4934467Y-15311031D02*
X4943991Y-15301508D01*
X4943991Y-15301508D02*
X4963039Y-15291984D01*
X5115420Y-15491984D02*
X5115420Y-15358650D01*
X5115420Y-15377698D02*
X5124944Y-15368174D01*
X5124944Y-15368174D02*
X5143991Y-15358650D01*
X5143991Y-15358650D02*
X5172563Y-15358650D01*
X5172563Y-15358650D02*
X5191610Y-15368174D01*
X5191610Y-15368174D02*
X5201134Y-15387222D01*
X5201134Y-15387222D02*
X5201134Y-15491984D01*
X5201134Y-15387222D02*
X5210658Y-15368174D01*
X5210658Y-15368174D02*
X5229705Y-15358650D01*
X5229705Y-15358650D02*
X5258277Y-15358650D01*
X5258277Y-15358650D02*
X5277325Y-15368174D01*
X5277325Y-15368174D02*
X5286848Y-15387222D01*
X5286848Y-15387222D02*
X5286848Y-15491984D01*
X5382086Y-15491984D02*
X5382086Y-15358650D01*
X5382086Y-15377698D02*
X5391610Y-15368174D01*
X5391610Y-15368174D02*
X5410658Y-15358650D01*
X5410658Y-15358650D02*
X5439229Y-15358650D01*
X5439229Y-15358650D02*
X5458277Y-15368174D01*
X5458277Y-15368174D02*
X5467801Y-15387222D01*
X5467801Y-15387222D02*
X5467801Y-15491984D01*
X5467801Y-15387222D02*
X5477325Y-15368174D01*
X5477325Y-15368174D02*
X5496372Y-15358650D01*
X5496372Y-15358650D02*
X5524944Y-15358650D01*
X5524944Y-15358650D02*
X5543991Y-15368174D01*
X5543991Y-15368174D02*
X5553515Y-15387222D01*
X5553515Y-15387222D02*
X5553515Y-15491984D01*
X5943991Y-15282460D02*
X5772563Y-15539603D01*
X6201134Y-15291984D02*
X6220182Y-15291984D01*
X6220182Y-15291984D02*
X6239229Y-15301508D01*
X6239229Y-15301508D02*
X6248753Y-15311031D01*
X6248753Y-15311031D02*
X6258277Y-15330079D01*
X6258277Y-15330079D02*
X6267801Y-15368174D01*
X6267801Y-15368174D02*
X6267801Y-15415793D01*
X6267801Y-15415793D02*
X6258277Y-15453888D01*
X6258277Y-15453888D02*
X6248753Y-15472936D01*
X6248753Y-15472936D02*
X6239229Y-15482460D01*
X6239229Y-15482460D02*
X6220182Y-15491984D01*
X6220182Y-15491984D02*
X6201134Y-15491984D01*
X6201134Y-15491984D02*
X6182086Y-15482460D01*
X6182086Y-15482460D02*
X6172563Y-15472936D01*
X6172563Y-15472936D02*
X6163039Y-15453888D01*
X6163039Y-15453888D02*
X6153515Y-15415793D01*
X6153515Y-15415793D02*
X6153515Y-15368174D01*
X6153515Y-15368174D02*
X6163039Y-15330079D01*
X6163039Y-15330079D02*
X6172563Y-15311031D01*
X6172563Y-15311031D02*
X6182086Y-15301508D01*
X6182086Y-15301508D02*
X6201134Y-15291984D01*
X6353515Y-15472936D02*
X6363039Y-15482460D01*
X6363039Y-15482460D02*
X6353515Y-15491984D01*
X6353515Y-15491984D02*
X6343991Y-15482460D01*
X6343991Y-15482460D02*
X6353515Y-15472936D01*
X6353515Y-15472936D02*
X6353515Y-15491984D01*
X6486848Y-15291984D02*
X6505896Y-15291984D01*
X6505896Y-15291984D02*
X6524944Y-15301508D01*
X6524944Y-15301508D02*
X6534467Y-15311031D01*
X6534467Y-15311031D02*
X6543991Y-15330079D01*
X6543991Y-15330079D02*
X6553515Y-15368174D01*
X6553515Y-15368174D02*
X6553515Y-15415793D01*
X6553515Y-15415793D02*
X6543991Y-15453888D01*
X6543991Y-15453888D02*
X6534467Y-15472936D01*
X6534467Y-15472936D02*
X6524944Y-15482460D01*
X6524944Y-15482460D02*
X6505896Y-15491984D01*
X6505896Y-15491984D02*
X6486848Y-15491984D01*
X6486848Y-15491984D02*
X6467801Y-15482460D01*
X6467801Y-15482460D02*
X6458277Y-15472936D01*
X6458277Y-15472936D02*
X6448753Y-15453888D01*
X6448753Y-15453888D02*
X6439229Y-15415793D01*
X6439229Y-15415793D02*
X6439229Y-15368174D01*
X6439229Y-15368174D02*
X6448753Y-15330079D01*
X6448753Y-15330079D02*
X6458277Y-15311031D01*
X6458277Y-15311031D02*
X6467801Y-15301508D01*
X6467801Y-15301508D02*
X6486848Y-15291984D01*
X6620182Y-15291984D02*
X6743991Y-15291984D01*
X6743991Y-15291984D02*
X6677325Y-15368174D01*
X6677325Y-15368174D02*
X6705896Y-15368174D01*
X6705896Y-15368174D02*
X6724944Y-15377698D01*
X6724944Y-15377698D02*
X6734467Y-15387222D01*
X6734467Y-15387222D02*
X6743991Y-15406269D01*
X6743991Y-15406269D02*
X6743991Y-15453888D01*
X6743991Y-15453888D02*
X6734467Y-15472936D01*
X6734467Y-15472936D02*
X6724944Y-15482460D01*
X6724944Y-15482460D02*
X6705896Y-15491984D01*
X6705896Y-15491984D02*
X6648753Y-15491984D01*
X6648753Y-15491984D02*
X6629706Y-15482460D01*
X6629706Y-15482460D02*
X6620182Y-15472936D01*
X6934467Y-15491984D02*
X6820182Y-15491984D01*
X6877325Y-15491984D02*
X6877325Y-15291984D01*
X6877325Y-15291984D02*
X6858277Y-15320555D01*
X6858277Y-15320555D02*
X6839229Y-15339603D01*
X6839229Y-15339603D02*
X6820182Y-15349127D01*
X7115420Y-15291984D02*
X7020182Y-15291984D01*
X7020182Y-15291984D02*
X7010658Y-15387222D01*
X7010658Y-15387222D02*
X7020182Y-15377698D01*
X7020182Y-15377698D02*
X7039229Y-15368174D01*
X7039229Y-15368174D02*
X7086848Y-15368174D01*
X7086848Y-15368174D02*
X7105896Y-15377698D01*
X7105896Y-15377698D02*
X7115420Y-15387222D01*
X7115420Y-15387222D02*
X7124944Y-15406269D01*
X7124944Y-15406269D02*
X7124944Y-15453888D01*
X7124944Y-15453888D02*
X7115420Y-15472936D01*
X7115420Y-15472936D02*
X7105896Y-15482460D01*
X7105896Y-15482460D02*
X7086848Y-15491984D01*
X7086848Y-15491984D02*
X7039229Y-15491984D01*
X7039229Y-15491984D02*
X7020182Y-15482460D01*
X7020182Y-15482460D02*
X7010658Y-15472936D01*
X7201134Y-15291984D02*
X7201134Y-15330079D01*
X7277325Y-15291984D02*
X7277325Y-15330079D01*
X7572563Y-15568174D02*
X7563039Y-15558650D01*
X7563039Y-15558650D02*
X7543991Y-15530079D01*
X7543991Y-15530079D02*
X7534468Y-15511031D01*
X7534468Y-15511031D02*
X7524944Y-15482460D01*
X7524944Y-15482460D02*
X7515420Y-15434841D01*
X7515420Y-15434841D02*
X7515420Y-15396746D01*
X7515420Y-15396746D02*
X7524944Y-15349127D01*
X7524944Y-15349127D02*
X7534468Y-15320555D01*
X7534468Y-15320555D02*
X7543991Y-15301508D01*
X7543991Y-15301508D02*
X7563039Y-15272936D01*
X7563039Y-15272936D02*
X7572563Y-15263412D01*
X7639229Y-15311031D02*
X7648753Y-15301508D01*
X7648753Y-15301508D02*
X7667801Y-15291984D01*
X7667801Y-15291984D02*
X7715420Y-15291984D01*
X7715420Y-15291984D02*
X7734468Y-15301508D01*
X7734468Y-15301508D02*
X7743991Y-15311031D01*
X7743991Y-15311031D02*
X7753515Y-15330079D01*
X7753515Y-15330079D02*
X7753515Y-15349127D01*
X7753515Y-15349127D02*
X7743991Y-15377698D01*
X7743991Y-15377698D02*
X7629706Y-15491984D01*
X7629706Y-15491984D02*
X7753515Y-15491984D01*
X7867801Y-15377698D02*
X7848753Y-15368174D01*
X7848753Y-15368174D02*
X7839229Y-15358650D01*
X7839229Y-15358650D02*
X7829706Y-15339603D01*
X7829706Y-15339603D02*
X7829706Y-15330079D01*
X7829706Y-15330079D02*
X7839229Y-15311031D01*
X7839229Y-15311031D02*
X7848753Y-15301508D01*
X7848753Y-15301508D02*
X7867801Y-15291984D01*
X7867801Y-15291984D02*
X7905896Y-15291984D01*
X7905896Y-15291984D02*
X7924944Y-15301508D01*
X7924944Y-15301508D02*
X7934468Y-15311031D01*
X7934468Y-15311031D02*
X7943991Y-15330079D01*
X7943991Y-15330079D02*
X7943991Y-15339603D01*
X7943991Y-15339603D02*
X7934468Y-15358650D01*
X7934468Y-15358650D02*
X7924944Y-15368174D01*
X7924944Y-15368174D02*
X7905896Y-15377698D01*
X7905896Y-15377698D02*
X7867801Y-15377698D01*
X7867801Y-15377698D02*
X7848753Y-15387222D01*
X7848753Y-15387222D02*
X7839229Y-15396746D01*
X7839229Y-15396746D02*
X7829706Y-15415793D01*
X7829706Y-15415793D02*
X7829706Y-15453888D01*
X7829706Y-15453888D02*
X7839229Y-15472936D01*
X7839229Y-15472936D02*
X7848753Y-15482460D01*
X7848753Y-15482460D02*
X7867801Y-15491984D01*
X7867801Y-15491984D02*
X7905896Y-15491984D01*
X7905896Y-15491984D02*
X7924944Y-15482460D01*
X7924944Y-15482460D02*
X7934468Y-15472936D01*
X7934468Y-15472936D02*
X7943991Y-15453888D01*
X7943991Y-15453888D02*
X7943991Y-15415793D01*
X7943991Y-15415793D02*
X7934468Y-15396746D01*
X7934468Y-15396746D02*
X7924944Y-15387222D01*
X7924944Y-15387222D02*
X7905896Y-15377698D01*
X8182087Y-15491984D02*
X8182087Y-15291984D01*
X8267801Y-15491984D02*
X8267801Y-15387222D01*
X8267801Y-15387222D02*
X8258277Y-15368174D01*
X8258277Y-15368174D02*
X8239230Y-15358650D01*
X8239230Y-15358650D02*
X8210658Y-15358650D01*
X8210658Y-15358650D02*
X8191610Y-15368174D01*
X8191610Y-15368174D02*
X8182087Y-15377698D01*
X8391611Y-15491984D02*
X8372563Y-15482460D01*
X8372563Y-15482460D02*
X8363039Y-15472936D01*
X8363039Y-15472936D02*
X8353515Y-15453888D01*
X8353515Y-15453888D02*
X8353515Y-15396746D01*
X8353515Y-15396746D02*
X8363039Y-15377698D01*
X8363039Y-15377698D02*
X8372563Y-15368174D01*
X8372563Y-15368174D02*
X8391611Y-15358650D01*
X8391611Y-15358650D02*
X8420182Y-15358650D01*
X8420182Y-15358650D02*
X8439230Y-15368174D01*
X8439230Y-15368174D02*
X8448753Y-15377698D01*
X8448753Y-15377698D02*
X8458277Y-15396746D01*
X8458277Y-15396746D02*
X8458277Y-15453888D01*
X8458277Y-15453888D02*
X8448753Y-15472936D01*
X8448753Y-15472936D02*
X8439230Y-15482460D01*
X8439230Y-15482460D02*
X8420182Y-15491984D01*
X8420182Y-15491984D02*
X8391611Y-15491984D01*
X8572563Y-15491984D02*
X8553515Y-15482460D01*
X8553515Y-15482460D02*
X8543992Y-15463412D01*
X8543992Y-15463412D02*
X8543992Y-15291984D01*
X8724944Y-15482460D02*
X8705896Y-15491984D01*
X8705896Y-15491984D02*
X8667801Y-15491984D01*
X8667801Y-15491984D02*
X8648753Y-15482460D01*
X8648753Y-15482460D02*
X8639230Y-15463412D01*
X8639230Y-15463412D02*
X8639230Y-15387222D01*
X8639230Y-15387222D02*
X8648753Y-15368174D01*
X8648753Y-15368174D02*
X8667801Y-15358650D01*
X8667801Y-15358650D02*
X8705896Y-15358650D01*
X8705896Y-15358650D02*
X8724944Y-15368174D01*
X8724944Y-15368174D02*
X8734468Y-15387222D01*
X8734468Y-15387222D02*
X8734468Y-15406269D01*
X8734468Y-15406269D02*
X8639230Y-15425317D01*
X8810658Y-15482460D02*
X8829706Y-15491984D01*
X8829706Y-15491984D02*
X8867801Y-15491984D01*
X8867801Y-15491984D02*
X8886849Y-15482460D01*
X8886849Y-15482460D02*
X8896373Y-15463412D01*
X8896373Y-15463412D02*
X8896373Y-15453888D01*
X8896373Y-15453888D02*
X8886849Y-15434841D01*
X8886849Y-15434841D02*
X8867801Y-15425317D01*
X8867801Y-15425317D02*
X8839230Y-15425317D01*
X8839230Y-15425317D02*
X8820182Y-15415793D01*
X8820182Y-15415793D02*
X8810658Y-15396746D01*
X8810658Y-15396746D02*
X8810658Y-15387222D01*
X8810658Y-15387222D02*
X8820182Y-15368174D01*
X8820182Y-15368174D02*
X8839230Y-15358650D01*
X8839230Y-15358650D02*
X8867801Y-15358650D01*
X8867801Y-15358650D02*
X8886849Y-15368174D01*
X8963039Y-15568174D02*
X8972563Y-15558650D01*
X8972563Y-15558650D02*
X8991611Y-15530079D01*
X8991611Y-15530079D02*
X9001134Y-15511031D01*
X9001134Y-15511031D02*
X9010658Y-15482460D01*
X9010658Y-15482460D02*
X9020182Y-15434841D01*
X9020182Y-15434841D02*
X9020182Y-15396746D01*
X9020182Y-15396746D02*
X9010658Y-15349127D01*
X9010658Y-15349127D02*
X9001134Y-15320555D01*
X9001134Y-15320555D02*
X8991611Y-15301508D01*
X8991611Y-15301508D02*
X8972563Y-15272936D01*
X8972563Y-15272936D02*
X8963039Y-15263412D01*
D12*
X3982856Y-15699856D02*
X3982856Y-15629144D01*
X3912144Y-15629144D01*
X3912144Y-15699856D01*
X3982856Y-15699856D01*
D11*
X4363039Y-15755984D02*
X4248753Y-15755984D01*
X4305896Y-15755984D02*
X4305896Y-15555984D01*
X4305896Y-15555984D02*
X4286848Y-15584555D01*
X4286848Y-15584555D02*
X4267801Y-15603603D01*
X4267801Y-15603603D02*
X4248753Y-15613127D01*
X4448753Y-15736936D02*
X4458277Y-15746460D01*
X4458277Y-15746460D02*
X4448753Y-15755984D01*
X4448753Y-15755984D02*
X4439229Y-15746460D01*
X4439229Y-15746460D02*
X4448753Y-15736936D01*
X4448753Y-15736936D02*
X4448753Y-15755984D01*
X4582086Y-15555984D02*
X4601134Y-15555984D01*
X4601134Y-15555984D02*
X4620182Y-15565508D01*
X4620182Y-15565508D02*
X4629705Y-15575031D01*
X4629705Y-15575031D02*
X4639229Y-15594079D01*
X4639229Y-15594079D02*
X4648753Y-15632174D01*
X4648753Y-15632174D02*
X4648753Y-15679793D01*
X4648753Y-15679793D02*
X4639229Y-15717888D01*
X4639229Y-15717888D02*
X4629705Y-15736936D01*
X4629705Y-15736936D02*
X4620182Y-15746460D01*
X4620182Y-15746460D02*
X4601134Y-15755984D01*
X4601134Y-15755984D02*
X4582086Y-15755984D01*
X4582086Y-15755984D02*
X4563039Y-15746460D01*
X4563039Y-15746460D02*
X4553515Y-15736936D01*
X4553515Y-15736936D02*
X4543991Y-15717888D01*
X4543991Y-15717888D02*
X4534467Y-15679793D01*
X4534467Y-15679793D02*
X4534467Y-15632174D01*
X4534467Y-15632174D02*
X4543991Y-15594079D01*
X4543991Y-15594079D02*
X4553515Y-15575031D01*
X4553515Y-15575031D02*
X4563039Y-15565508D01*
X4563039Y-15565508D02*
X4582086Y-15555984D01*
X4772563Y-15555984D02*
X4791610Y-15555984D01*
X4791610Y-15555984D02*
X4810658Y-15565508D01*
X4810658Y-15565508D02*
X4820182Y-15575031D01*
X4820182Y-15575031D02*
X4829705Y-15594079D01*
X4829705Y-15594079D02*
X4839229Y-15632174D01*
X4839229Y-15632174D02*
X4839229Y-15679793D01*
X4839229Y-15679793D02*
X4829705Y-15717888D01*
X4829705Y-15717888D02*
X4820182Y-15736936D01*
X4820182Y-15736936D02*
X4810658Y-15746460D01*
X4810658Y-15746460D02*
X4791610Y-15755984D01*
X4791610Y-15755984D02*
X4772563Y-15755984D01*
X4772563Y-15755984D02*
X4753515Y-15746460D01*
X4753515Y-15746460D02*
X4743991Y-15736936D01*
X4743991Y-15736936D02*
X4734467Y-15717888D01*
X4734467Y-15717888D02*
X4724944Y-15679793D01*
X4724944Y-15679793D02*
X4724944Y-15632174D01*
X4724944Y-15632174D02*
X4734467Y-15594079D01*
X4734467Y-15594079D02*
X4743991Y-15575031D01*
X4743991Y-15575031D02*
X4753515Y-15565508D01*
X4753515Y-15565508D02*
X4772563Y-15555984D01*
X4963039Y-15555984D02*
X4982086Y-15555984D01*
X4982086Y-15555984D02*
X5001134Y-15565508D01*
X5001134Y-15565508D02*
X5010658Y-15575031D01*
X5010658Y-15575031D02*
X5020182Y-15594079D01*
X5020182Y-15594079D02*
X5029705Y-15632174D01*
X5029705Y-15632174D02*
X5029705Y-15679793D01*
X5029705Y-15679793D02*
X5020182Y-15717888D01*
X5020182Y-15717888D02*
X5010658Y-15736936D01*
X5010658Y-15736936D02*
X5001134Y-15746460D01*
X5001134Y-15746460D02*
X4982086Y-15755984D01*
X4982086Y-15755984D02*
X4963039Y-15755984D01*
X4963039Y-15755984D02*
X4943991Y-15746460D01*
X4943991Y-15746460D02*
X4934467Y-15736936D01*
X4934467Y-15736936D02*
X4924944Y-15717888D01*
X4924944Y-15717888D02*
X4915420Y-15679793D01*
X4915420Y-15679793D02*
X4915420Y-15632174D01*
X4915420Y-15632174D02*
X4924944Y-15594079D01*
X4924944Y-15594079D02*
X4934467Y-15575031D01*
X4934467Y-15575031D02*
X4943991Y-15565508D01*
X4943991Y-15565508D02*
X4963039Y-15555984D01*
X5115420Y-15755984D02*
X5115420Y-15622650D01*
X5115420Y-15641698D02*
X5124944Y-15632174D01*
X5124944Y-15632174D02*
X5143991Y-15622650D01*
X5143991Y-15622650D02*
X5172563Y-15622650D01*
X5172563Y-15622650D02*
X5191610Y-15632174D01*
X5191610Y-15632174D02*
X5201134Y-15651222D01*
X5201134Y-15651222D02*
X5201134Y-15755984D01*
X5201134Y-15651222D02*
X5210658Y-15632174D01*
X5210658Y-15632174D02*
X5229705Y-15622650D01*
X5229705Y-15622650D02*
X5258277Y-15622650D01*
X5258277Y-15622650D02*
X5277325Y-15632174D01*
X5277325Y-15632174D02*
X5286848Y-15651222D01*
X5286848Y-15651222D02*
X5286848Y-15755984D01*
X5382086Y-15755984D02*
X5382086Y-15622650D01*
X5382086Y-15641698D02*
X5391610Y-15632174D01*
X5391610Y-15632174D02*
X5410658Y-15622650D01*
X5410658Y-15622650D02*
X5439229Y-15622650D01*
X5439229Y-15622650D02*
X5458277Y-15632174D01*
X5458277Y-15632174D02*
X5467801Y-15651222D01*
X5467801Y-15651222D02*
X5467801Y-15755984D01*
X5467801Y-15651222D02*
X5477325Y-15632174D01*
X5477325Y-15632174D02*
X5496372Y-15622650D01*
X5496372Y-15622650D02*
X5524944Y-15622650D01*
X5524944Y-15622650D02*
X5543991Y-15632174D01*
X5543991Y-15632174D02*
X5553515Y-15651222D01*
X5553515Y-15651222D02*
X5553515Y-15755984D01*
X5943991Y-15546460D02*
X5772563Y-15803603D01*
X6201134Y-15555984D02*
X6220182Y-15555984D01*
X6220182Y-15555984D02*
X6239229Y-15565508D01*
X6239229Y-15565508D02*
X6248753Y-15575031D01*
X6248753Y-15575031D02*
X6258277Y-15594079D01*
X6258277Y-15594079D02*
X6267801Y-15632174D01*
X6267801Y-15632174D02*
X6267801Y-15679793D01*
X6267801Y-15679793D02*
X6258277Y-15717888D01*
X6258277Y-15717888D02*
X6248753Y-15736936D01*
X6248753Y-15736936D02*
X6239229Y-15746460D01*
X6239229Y-15746460D02*
X6220182Y-15755984D01*
X6220182Y-15755984D02*
X6201134Y-15755984D01*
X6201134Y-15755984D02*
X6182086Y-15746460D01*
X6182086Y-15746460D02*
X6172563Y-15736936D01*
X6172563Y-15736936D02*
X6163039Y-15717888D01*
X6163039Y-15717888D02*
X6153515Y-15679793D01*
X6153515Y-15679793D02*
X6153515Y-15632174D01*
X6153515Y-15632174D02*
X6163039Y-15594079D01*
X6163039Y-15594079D02*
X6172563Y-15575031D01*
X6172563Y-15575031D02*
X6182086Y-15565508D01*
X6182086Y-15565508D02*
X6201134Y-15555984D01*
X6353515Y-15736936D02*
X6363039Y-15746460D01*
X6363039Y-15746460D02*
X6353515Y-15755984D01*
X6353515Y-15755984D02*
X6343991Y-15746460D01*
X6343991Y-15746460D02*
X6353515Y-15736936D01*
X6353515Y-15736936D02*
X6353515Y-15755984D01*
X6486848Y-15555984D02*
X6505896Y-15555984D01*
X6505896Y-15555984D02*
X6524944Y-15565508D01*
X6524944Y-15565508D02*
X6534467Y-15575031D01*
X6534467Y-15575031D02*
X6543991Y-15594079D01*
X6543991Y-15594079D02*
X6553515Y-15632174D01*
X6553515Y-15632174D02*
X6553515Y-15679793D01*
X6553515Y-15679793D02*
X6543991Y-15717888D01*
X6543991Y-15717888D02*
X6534467Y-15736936D01*
X6534467Y-15736936D02*
X6524944Y-15746460D01*
X6524944Y-15746460D02*
X6505896Y-15755984D01*
X6505896Y-15755984D02*
X6486848Y-15755984D01*
X6486848Y-15755984D02*
X6467801Y-15746460D01*
X6467801Y-15746460D02*
X6458277Y-15736936D01*
X6458277Y-15736936D02*
X6448753Y-15717888D01*
X6448753Y-15717888D02*
X6439229Y-15679793D01*
X6439229Y-15679793D02*
X6439229Y-15632174D01*
X6439229Y-15632174D02*
X6448753Y-15594079D01*
X6448753Y-15594079D02*
X6458277Y-15575031D01*
X6458277Y-15575031D02*
X6467801Y-15565508D01*
X6467801Y-15565508D02*
X6486848Y-15555984D01*
X6620182Y-15555984D02*
X6743991Y-15555984D01*
X6743991Y-15555984D02*
X6677325Y-15632174D01*
X6677325Y-15632174D02*
X6705896Y-15632174D01*
X6705896Y-15632174D02*
X6724944Y-15641698D01*
X6724944Y-15641698D02*
X6734467Y-15651222D01*
X6734467Y-15651222D02*
X6743991Y-15670269D01*
X6743991Y-15670269D02*
X6743991Y-15717888D01*
X6743991Y-15717888D02*
X6734467Y-15736936D01*
X6734467Y-15736936D02*
X6724944Y-15746460D01*
X6724944Y-15746460D02*
X6705896Y-15755984D01*
X6705896Y-15755984D02*
X6648753Y-15755984D01*
X6648753Y-15755984D02*
X6629706Y-15746460D01*
X6629706Y-15746460D02*
X6620182Y-15736936D01*
X6839229Y-15755984D02*
X6877325Y-15755984D01*
X6877325Y-15755984D02*
X6896372Y-15746460D01*
X6896372Y-15746460D02*
X6905896Y-15736936D01*
X6905896Y-15736936D02*
X6924944Y-15708365D01*
X6924944Y-15708365D02*
X6934467Y-15670269D01*
X6934467Y-15670269D02*
X6934467Y-15594079D01*
X6934467Y-15594079D02*
X6924944Y-15575031D01*
X6924944Y-15575031D02*
X6915420Y-15565508D01*
X6915420Y-15565508D02*
X6896372Y-15555984D01*
X6896372Y-15555984D02*
X6858277Y-15555984D01*
X6858277Y-15555984D02*
X6839229Y-15565508D01*
X6839229Y-15565508D02*
X6829706Y-15575031D01*
X6829706Y-15575031D02*
X6820182Y-15594079D01*
X6820182Y-15594079D02*
X6820182Y-15641698D01*
X6820182Y-15641698D02*
X6829706Y-15660746D01*
X6829706Y-15660746D02*
X6839229Y-15670269D01*
X6839229Y-15670269D02*
X6858277Y-15679793D01*
X6858277Y-15679793D02*
X6896372Y-15679793D01*
X6896372Y-15679793D02*
X6915420Y-15670269D01*
X6915420Y-15670269D02*
X6924944Y-15660746D01*
X6924944Y-15660746D02*
X6934467Y-15641698D01*
X7105896Y-15622650D02*
X7105896Y-15755984D01*
X7058277Y-15546460D02*
X7010658Y-15689317D01*
X7010658Y-15689317D02*
X7134467Y-15689317D01*
X7201134Y-15555984D02*
X7201134Y-15594079D01*
X7277325Y-15555984D02*
X7277325Y-15594079D01*
X7572563Y-15832174D02*
X7563039Y-15822650D01*
X7563039Y-15822650D02*
X7543991Y-15794079D01*
X7543991Y-15794079D02*
X7534468Y-15775031D01*
X7534468Y-15775031D02*
X7524944Y-15746460D01*
X7524944Y-15746460D02*
X7515420Y-15698841D01*
X7515420Y-15698841D02*
X7515420Y-15660746D01*
X7515420Y-15660746D02*
X7524944Y-15613127D01*
X7524944Y-15613127D02*
X7534468Y-15584555D01*
X7534468Y-15584555D02*
X7543991Y-15565508D01*
X7543991Y-15565508D02*
X7563039Y-15536936D01*
X7563039Y-15536936D02*
X7572563Y-15527412D01*
X7686848Y-15555984D02*
X7705896Y-15555984D01*
X7705896Y-15555984D02*
X7724944Y-15565508D01*
X7724944Y-15565508D02*
X7734468Y-15575031D01*
X7734468Y-15575031D02*
X7743991Y-15594079D01*
X7743991Y-15594079D02*
X7753515Y-15632174D01*
X7753515Y-15632174D02*
X7753515Y-15679793D01*
X7753515Y-15679793D02*
X7743991Y-15717888D01*
X7743991Y-15717888D02*
X7734468Y-15736936D01*
X7734468Y-15736936D02*
X7724944Y-15746460D01*
X7724944Y-15746460D02*
X7705896Y-15755984D01*
X7705896Y-15755984D02*
X7686848Y-15755984D01*
X7686848Y-15755984D02*
X7667801Y-15746460D01*
X7667801Y-15746460D02*
X7658277Y-15736936D01*
X7658277Y-15736936D02*
X7648753Y-15717888D01*
X7648753Y-15717888D02*
X7639229Y-15679793D01*
X7639229Y-15679793D02*
X7639229Y-15632174D01*
X7639229Y-15632174D02*
X7648753Y-15594079D01*
X7648753Y-15594079D02*
X7658277Y-15575031D01*
X7658277Y-15575031D02*
X7667801Y-15565508D01*
X7667801Y-15565508D02*
X7686848Y-15555984D01*
X7991610Y-15755984D02*
X7991610Y-15555984D01*
X8077325Y-15755984D02*
X8077325Y-15651222D01*
X8077325Y-15651222D02*
X8067801Y-15632174D01*
X8067801Y-15632174D02*
X8048753Y-15622650D01*
X8048753Y-15622650D02*
X8020182Y-15622650D01*
X8020182Y-15622650D02*
X8001134Y-15632174D01*
X8001134Y-15632174D02*
X7991610Y-15641698D01*
X8201134Y-15755984D02*
X8182087Y-15746460D01*
X8182087Y-15746460D02*
X8172563Y-15736936D01*
X8172563Y-15736936D02*
X8163039Y-15717888D01*
X8163039Y-15717888D02*
X8163039Y-15660746D01*
X8163039Y-15660746D02*
X8172563Y-15641698D01*
X8172563Y-15641698D02*
X8182087Y-15632174D01*
X8182087Y-15632174D02*
X8201134Y-15622650D01*
X8201134Y-15622650D02*
X8229706Y-15622650D01*
X8229706Y-15622650D02*
X8248753Y-15632174D01*
X8248753Y-15632174D02*
X8258277Y-15641698D01*
X8258277Y-15641698D02*
X8267801Y-15660746D01*
X8267801Y-15660746D02*
X8267801Y-15717888D01*
X8267801Y-15717888D02*
X8258277Y-15736936D01*
X8258277Y-15736936D02*
X8248753Y-15746460D01*
X8248753Y-15746460D02*
X8229706Y-15755984D01*
X8229706Y-15755984D02*
X8201134Y-15755984D01*
X8382087Y-15755984D02*
X8363039Y-15746460D01*
X8363039Y-15746460D02*
X8353515Y-15727412D01*
X8353515Y-15727412D02*
X8353515Y-15555984D01*
X8534468Y-15746460D02*
X8515420Y-15755984D01*
X8515420Y-15755984D02*
X8477325Y-15755984D01*
X8477325Y-15755984D02*
X8458277Y-15746460D01*
X8458277Y-15746460D02*
X8448753Y-15727412D01*
X8448753Y-15727412D02*
X8448753Y-15651222D01*
X8448753Y-15651222D02*
X8458277Y-15632174D01*
X8458277Y-15632174D02*
X8477325Y-15622650D01*
X8477325Y-15622650D02*
X8515420Y-15622650D01*
X8515420Y-15622650D02*
X8534468Y-15632174D01*
X8534468Y-15632174D02*
X8543992Y-15651222D01*
X8543992Y-15651222D02*
X8543992Y-15670269D01*
X8543992Y-15670269D02*
X8448753Y-15689317D01*
X8620182Y-15746460D02*
X8639230Y-15755984D01*
X8639230Y-15755984D02*
X8677325Y-15755984D01*
X8677325Y-15755984D02*
X8696373Y-15746460D01*
X8696373Y-15746460D02*
X8705896Y-15727412D01*
X8705896Y-15727412D02*
X8705896Y-15717888D01*
X8705896Y-15717888D02*
X8696373Y-15698841D01*
X8696373Y-15698841D02*
X8677325Y-15689317D01*
X8677325Y-15689317D02*
X8648753Y-15689317D01*
X8648753Y-15689317D02*
X8629706Y-15679793D01*
X8629706Y-15679793D02*
X8620182Y-15660746D01*
X8620182Y-15660746D02*
X8620182Y-15651222D01*
X8620182Y-15651222D02*
X8629706Y-15632174D01*
X8629706Y-15632174D02*
X8648753Y-15622650D01*
X8648753Y-15622650D02*
X8677325Y-15622650D01*
X8677325Y-15622650D02*
X8696373Y-15632174D01*
X8943992Y-15679793D02*
X9096373Y-15679793D01*
X9020182Y-15755984D02*
X9020182Y-15603603D01*
X9353515Y-15755984D02*
X9391611Y-15755984D01*
X9391611Y-15755984D02*
X9410658Y-15746460D01*
X9410658Y-15746460D02*
X9420182Y-15736936D01*
X9420182Y-15736936D02*
X9439230Y-15708365D01*
X9439230Y-15708365D02*
X9448754Y-15670269D01*
X9448754Y-15670269D02*
X9448754Y-15594079D01*
X9448754Y-15594079D02*
X9439230Y-15575031D01*
X9439230Y-15575031D02*
X9429706Y-15565508D01*
X9429706Y-15565508D02*
X9410658Y-15555984D01*
X9410658Y-15555984D02*
X9372563Y-15555984D01*
X9372563Y-15555984D02*
X9353515Y-15565508D01*
X9353515Y-15565508D02*
X9343992Y-15575031D01*
X9343992Y-15575031D02*
X9334468Y-15594079D01*
X9334468Y-15594079D02*
X9334468Y-15641698D01*
X9334468Y-15641698D02*
X9343992Y-15660746D01*
X9343992Y-15660746D02*
X9353515Y-15670269D01*
X9353515Y-15670269D02*
X9372563Y-15679793D01*
X9372563Y-15679793D02*
X9410658Y-15679793D01*
X9410658Y-15679793D02*
X9429706Y-15670269D01*
X9429706Y-15670269D02*
X9439230Y-15660746D01*
X9439230Y-15660746D02*
X9448754Y-15641698D01*
X9677325Y-15746460D02*
X9696373Y-15755984D01*
X9696373Y-15755984D02*
X9734468Y-15755984D01*
X9734468Y-15755984D02*
X9753516Y-15746460D01*
X9753516Y-15746460D02*
X9763039Y-15727412D01*
X9763039Y-15727412D02*
X9763039Y-15717888D01*
X9763039Y-15717888D02*
X9753516Y-15698841D01*
X9753516Y-15698841D02*
X9734468Y-15689317D01*
X9734468Y-15689317D02*
X9705896Y-15689317D01*
X9705896Y-15689317D02*
X9686849Y-15679793D01*
X9686849Y-15679793D02*
X9677325Y-15660746D01*
X9677325Y-15660746D02*
X9677325Y-15651222D01*
X9677325Y-15651222D02*
X9686849Y-15632174D01*
X9686849Y-15632174D02*
X9705896Y-15622650D01*
X9705896Y-15622650D02*
X9734468Y-15622650D01*
X9734468Y-15622650D02*
X9753516Y-15632174D01*
X9877325Y-15755984D02*
X9858277Y-15746460D01*
X9858277Y-15746460D02*
X9848754Y-15727412D01*
X9848754Y-15727412D02*
X9848754Y-15555984D01*
X9982087Y-15755984D02*
X9963039Y-15746460D01*
X9963039Y-15746460D02*
X9953516Y-15736936D01*
X9953516Y-15736936D02*
X9943992Y-15717888D01*
X9943992Y-15717888D02*
X9943992Y-15660746D01*
X9943992Y-15660746D02*
X9953516Y-15641698D01*
X9953516Y-15641698D02*
X9963039Y-15632174D01*
X9963039Y-15632174D02*
X9982087Y-15622650D01*
X9982087Y-15622650D02*
X10010658Y-15622650D01*
X10010658Y-15622650D02*
X10029706Y-15632174D01*
X10029706Y-15632174D02*
X10039230Y-15641698D01*
X10039230Y-15641698D02*
X10048754Y-15660746D01*
X10048754Y-15660746D02*
X10048754Y-15717888D01*
X10048754Y-15717888D02*
X10039230Y-15736936D01*
X10039230Y-15736936D02*
X10029706Y-15746460D01*
X10029706Y-15746460D02*
X10010658Y-15755984D01*
X10010658Y-15755984D02*
X9982087Y-15755984D01*
X10105897Y-15622650D02*
X10182087Y-15622650D01*
X10134468Y-15555984D02*
X10134468Y-15727412D01*
X10134468Y-15727412D02*
X10143992Y-15746460D01*
X10143992Y-15746460D02*
X10163039Y-15755984D01*
X10163039Y-15755984D02*
X10182087Y-15755984D01*
X10239230Y-15746460D02*
X10258277Y-15755984D01*
X10258277Y-15755984D02*
X10296373Y-15755984D01*
X10296373Y-15755984D02*
X10315420Y-15746460D01*
X10315420Y-15746460D02*
X10324944Y-15727412D01*
X10324944Y-15727412D02*
X10324944Y-15717888D01*
X10324944Y-15717888D02*
X10315420Y-15698841D01*
X10315420Y-15698841D02*
X10296373Y-15689317D01*
X10296373Y-15689317D02*
X10267801Y-15689317D01*
X10267801Y-15689317D02*
X10248754Y-15679793D01*
X10248754Y-15679793D02*
X10239230Y-15660746D01*
X10239230Y-15660746D02*
X10239230Y-15651222D01*
X10239230Y-15651222D02*
X10248754Y-15632174D01*
X10248754Y-15632174D02*
X10267801Y-15622650D01*
X10267801Y-15622650D02*
X10296373Y-15622650D01*
X10296373Y-15622650D02*
X10315420Y-15632174D01*
X10391611Y-15832174D02*
X10401135Y-15822650D01*
X10401135Y-15822650D02*
X10420182Y-15794079D01*
X10420182Y-15794079D02*
X10429706Y-15775031D01*
X10429706Y-15775031D02*
X10439230Y-15746460D01*
X10439230Y-15746460D02*
X10448754Y-15698841D01*
X10448754Y-15698841D02*
X10448754Y-15660746D01*
X10448754Y-15660746D02*
X10439230Y-15613127D01*
X10439230Y-15613127D02*
X10429706Y-15584555D01*
X10429706Y-15584555D02*
X10420182Y-15565508D01*
X10420182Y-15565508D02*
X10401135Y-15536936D01*
X10401135Y-15536936D02*
X10391611Y-15527412D01*
D13*
X3947460Y-15978540D02*
X3997500Y-15928500D01*
X3947460Y-15878460D01*
X3897420Y-15928500D01*
X3947460Y-15978540D01*
D11*
X4363039Y-16019984D02*
X4248753Y-16019984D01*
X4305896Y-16019984D02*
X4305896Y-15819984D01*
X4305896Y-15819984D02*
X4286848Y-15848555D01*
X4286848Y-15848555D02*
X4267801Y-15867603D01*
X4267801Y-15867603D02*
X4248753Y-15877127D01*
X4448753Y-16000936D02*
X4458277Y-16010460D01*
X4458277Y-16010460D02*
X4448753Y-16019984D01*
X4448753Y-16019984D02*
X4439229Y-16010460D01*
X4439229Y-16010460D02*
X4448753Y-16000936D01*
X4448753Y-16000936D02*
X4448753Y-16019984D01*
X4582086Y-15819984D02*
X4601134Y-15819984D01*
X4601134Y-15819984D02*
X4620182Y-15829508D01*
X4620182Y-15829508D02*
X4629705Y-15839031D01*
X4629705Y-15839031D02*
X4639229Y-15858079D01*
X4639229Y-15858079D02*
X4648753Y-15896174D01*
X4648753Y-15896174D02*
X4648753Y-15943793D01*
X4648753Y-15943793D02*
X4639229Y-15981888D01*
X4639229Y-15981888D02*
X4629705Y-16000936D01*
X4629705Y-16000936D02*
X4620182Y-16010460D01*
X4620182Y-16010460D02*
X4601134Y-16019984D01*
X4601134Y-16019984D02*
X4582086Y-16019984D01*
X4582086Y-16019984D02*
X4563039Y-16010460D01*
X4563039Y-16010460D02*
X4553515Y-16000936D01*
X4553515Y-16000936D02*
X4543991Y-15981888D01*
X4543991Y-15981888D02*
X4534467Y-15943793D01*
X4534467Y-15943793D02*
X4534467Y-15896174D01*
X4534467Y-15896174D02*
X4543991Y-15858079D01*
X4543991Y-15858079D02*
X4553515Y-15839031D01*
X4553515Y-15839031D02*
X4563039Y-15829508D01*
X4563039Y-15829508D02*
X4582086Y-15819984D01*
X4772563Y-15819984D02*
X4791610Y-15819984D01*
X4791610Y-15819984D02*
X4810658Y-15829508D01*
X4810658Y-15829508D02*
X4820182Y-15839031D01*
X4820182Y-15839031D02*
X4829705Y-15858079D01*
X4829705Y-15858079D02*
X4839229Y-15896174D01*
X4839229Y-15896174D02*
X4839229Y-15943793D01*
X4839229Y-15943793D02*
X4829705Y-15981888D01*
X4829705Y-15981888D02*
X4820182Y-16000936D01*
X4820182Y-16000936D02*
X4810658Y-16010460D01*
X4810658Y-16010460D02*
X4791610Y-16019984D01*
X4791610Y-16019984D02*
X4772563Y-16019984D01*
X4772563Y-16019984D02*
X4753515Y-16010460D01*
X4753515Y-16010460D02*
X4743991Y-16000936D01*
X4743991Y-16000936D02*
X4734467Y-15981888D01*
X4734467Y-15981888D02*
X4724944Y-15943793D01*
X4724944Y-15943793D02*
X4724944Y-15896174D01*
X4724944Y-15896174D02*
X4734467Y-15858079D01*
X4734467Y-15858079D02*
X4743991Y-15839031D01*
X4743991Y-15839031D02*
X4753515Y-15829508D01*
X4753515Y-15829508D02*
X4772563Y-15819984D01*
X5029705Y-16019984D02*
X4915420Y-16019984D01*
X4972563Y-16019984D02*
X4972563Y-15819984D01*
X4972563Y-15819984D02*
X4953515Y-15848555D01*
X4953515Y-15848555D02*
X4934467Y-15867603D01*
X4934467Y-15867603D02*
X4915420Y-15877127D01*
X5115420Y-16019984D02*
X5115420Y-15886650D01*
X5115420Y-15905698D02*
X5124944Y-15896174D01*
X5124944Y-15896174D02*
X5143991Y-15886650D01*
X5143991Y-15886650D02*
X5172563Y-15886650D01*
X5172563Y-15886650D02*
X5191610Y-15896174D01*
X5191610Y-15896174D02*
X5201134Y-15915222D01*
X5201134Y-15915222D02*
X5201134Y-16019984D01*
X5201134Y-15915222D02*
X5210658Y-15896174D01*
X5210658Y-15896174D02*
X5229705Y-15886650D01*
X5229705Y-15886650D02*
X5258277Y-15886650D01*
X5258277Y-15886650D02*
X5277325Y-15896174D01*
X5277325Y-15896174D02*
X5286848Y-15915222D01*
X5286848Y-15915222D02*
X5286848Y-16019984D01*
X5382086Y-16019984D02*
X5382086Y-15886650D01*
X5382086Y-15905698D02*
X5391610Y-15896174D01*
X5391610Y-15896174D02*
X5410658Y-15886650D01*
X5410658Y-15886650D02*
X5439229Y-15886650D01*
X5439229Y-15886650D02*
X5458277Y-15896174D01*
X5458277Y-15896174D02*
X5467801Y-15915222D01*
X5467801Y-15915222D02*
X5467801Y-16019984D01*
X5467801Y-15915222D02*
X5477325Y-15896174D01*
X5477325Y-15896174D02*
X5496372Y-15886650D01*
X5496372Y-15886650D02*
X5524944Y-15886650D01*
X5524944Y-15886650D02*
X5543991Y-15896174D01*
X5543991Y-15896174D02*
X5553515Y-15915222D01*
X5553515Y-15915222D02*
X5553515Y-16019984D01*
X5943991Y-15810460D02*
X5772563Y-16067603D01*
X6201134Y-15819984D02*
X6220182Y-15819984D01*
X6220182Y-15819984D02*
X6239229Y-15829508D01*
X6239229Y-15829508D02*
X6248753Y-15839031D01*
X6248753Y-15839031D02*
X6258277Y-15858079D01*
X6258277Y-15858079D02*
X6267801Y-15896174D01*
X6267801Y-15896174D02*
X6267801Y-15943793D01*
X6267801Y-15943793D02*
X6258277Y-15981888D01*
X6258277Y-15981888D02*
X6248753Y-16000936D01*
X6248753Y-16000936D02*
X6239229Y-16010460D01*
X6239229Y-16010460D02*
X6220182Y-16019984D01*
X6220182Y-16019984D02*
X6201134Y-16019984D01*
X6201134Y-16019984D02*
X6182086Y-16010460D01*
X6182086Y-16010460D02*
X6172563Y-16000936D01*
X6172563Y-16000936D02*
X6163039Y-15981888D01*
X6163039Y-15981888D02*
X6153515Y-15943793D01*
X6153515Y-15943793D02*
X6153515Y-15896174D01*
X6153515Y-15896174D02*
X6163039Y-15858079D01*
X6163039Y-15858079D02*
X6172563Y-15839031D01*
X6172563Y-15839031D02*
X6182086Y-15829508D01*
X6182086Y-15829508D02*
X6201134Y-15819984D01*
X6353515Y-16000936D02*
X6363039Y-16010460D01*
X6363039Y-16010460D02*
X6353515Y-16019984D01*
X6353515Y-16019984D02*
X6343991Y-16010460D01*
X6343991Y-16010460D02*
X6353515Y-16000936D01*
X6353515Y-16000936D02*
X6353515Y-16019984D01*
X6486848Y-15819984D02*
X6505896Y-15819984D01*
X6505896Y-15819984D02*
X6524944Y-15829508D01*
X6524944Y-15829508D02*
X6534467Y-15839031D01*
X6534467Y-15839031D02*
X6543991Y-15858079D01*
X6543991Y-15858079D02*
X6553515Y-15896174D01*
X6553515Y-15896174D02*
X6553515Y-15943793D01*
X6553515Y-15943793D02*
X6543991Y-15981888D01*
X6543991Y-15981888D02*
X6534467Y-16000936D01*
X6534467Y-16000936D02*
X6524944Y-16010460D01*
X6524944Y-16010460D02*
X6505896Y-16019984D01*
X6505896Y-16019984D02*
X6486848Y-16019984D01*
X6486848Y-16019984D02*
X6467801Y-16010460D01*
X6467801Y-16010460D02*
X6458277Y-16000936D01*
X6458277Y-16000936D02*
X6448753Y-15981888D01*
X6448753Y-15981888D02*
X6439229Y-15943793D01*
X6439229Y-15943793D02*
X6439229Y-15896174D01*
X6439229Y-15896174D02*
X6448753Y-15858079D01*
X6448753Y-15858079D02*
X6458277Y-15839031D01*
X6458277Y-15839031D02*
X6467801Y-15829508D01*
X6467801Y-15829508D02*
X6486848Y-15819984D01*
X6620182Y-15819984D02*
X6743991Y-15819984D01*
X6743991Y-15819984D02*
X6677325Y-15896174D01*
X6677325Y-15896174D02*
X6705896Y-15896174D01*
X6705896Y-15896174D02*
X6724944Y-15905698D01*
X6724944Y-15905698D02*
X6734467Y-15915222D01*
X6734467Y-15915222D02*
X6743991Y-15934269D01*
X6743991Y-15934269D02*
X6743991Y-15981888D01*
X6743991Y-15981888D02*
X6734467Y-16000936D01*
X6734467Y-16000936D02*
X6724944Y-16010460D01*
X6724944Y-16010460D02*
X6705896Y-16019984D01*
X6705896Y-16019984D02*
X6648753Y-16019984D01*
X6648753Y-16019984D02*
X6629706Y-16010460D01*
X6629706Y-16010460D02*
X6620182Y-16000936D01*
X6839229Y-16019984D02*
X6877325Y-16019984D01*
X6877325Y-16019984D02*
X6896372Y-16010460D01*
X6896372Y-16010460D02*
X6905896Y-16000936D01*
X6905896Y-16000936D02*
X6924944Y-15972365D01*
X6924944Y-15972365D02*
X6934467Y-15934269D01*
X6934467Y-15934269D02*
X6934467Y-15858079D01*
X6934467Y-15858079D02*
X6924944Y-15839031D01*
X6924944Y-15839031D02*
X6915420Y-15829508D01*
X6915420Y-15829508D02*
X6896372Y-15819984D01*
X6896372Y-15819984D02*
X6858277Y-15819984D01*
X6858277Y-15819984D02*
X6839229Y-15829508D01*
X6839229Y-15829508D02*
X6829706Y-15839031D01*
X6829706Y-15839031D02*
X6820182Y-15858079D01*
X6820182Y-15858079D02*
X6820182Y-15905698D01*
X6820182Y-15905698D02*
X6829706Y-15924746D01*
X6829706Y-15924746D02*
X6839229Y-15934269D01*
X6839229Y-15934269D02*
X6858277Y-15943793D01*
X6858277Y-15943793D02*
X6896372Y-15943793D01*
X6896372Y-15943793D02*
X6915420Y-15934269D01*
X6915420Y-15934269D02*
X6924944Y-15924746D01*
X6924944Y-15924746D02*
X6934467Y-15905698D01*
X7105896Y-15886650D02*
X7105896Y-16019984D01*
X7058277Y-15810460D02*
X7010658Y-15953317D01*
X7010658Y-15953317D02*
X7134467Y-15953317D01*
X7201134Y-15819984D02*
X7201134Y-15858079D01*
X7277325Y-15819984D02*
X7277325Y-15858079D01*
X7572563Y-16096174D02*
X7563039Y-16086650D01*
X7563039Y-16086650D02*
X7543991Y-16058079D01*
X7543991Y-16058079D02*
X7534468Y-16039031D01*
X7534468Y-16039031D02*
X7524944Y-16010460D01*
X7524944Y-16010460D02*
X7515420Y-15962841D01*
X7515420Y-15962841D02*
X7515420Y-15924746D01*
X7515420Y-15924746D02*
X7524944Y-15877127D01*
X7524944Y-15877127D02*
X7534468Y-15848555D01*
X7534468Y-15848555D02*
X7543991Y-15829508D01*
X7543991Y-15829508D02*
X7563039Y-15800936D01*
X7563039Y-15800936D02*
X7572563Y-15791412D01*
X7753515Y-16019984D02*
X7639229Y-16019984D01*
X7696372Y-16019984D02*
X7696372Y-15819984D01*
X7696372Y-15819984D02*
X7677325Y-15848555D01*
X7677325Y-15848555D02*
X7658277Y-15867603D01*
X7658277Y-15867603D02*
X7639229Y-15877127D01*
X7877325Y-15819984D02*
X7896372Y-15819984D01*
X7896372Y-15819984D02*
X7915420Y-15829508D01*
X7915420Y-15829508D02*
X7924944Y-15839031D01*
X7924944Y-15839031D02*
X7934468Y-15858079D01*
X7934468Y-15858079D02*
X7943991Y-15896174D01*
X7943991Y-15896174D02*
X7943991Y-15943793D01*
X7943991Y-15943793D02*
X7934468Y-15981888D01*
X7934468Y-15981888D02*
X7924944Y-16000936D01*
X7924944Y-16000936D02*
X7915420Y-16010460D01*
X7915420Y-16010460D02*
X7896372Y-16019984D01*
X7896372Y-16019984D02*
X7877325Y-16019984D01*
X7877325Y-16019984D02*
X7858277Y-16010460D01*
X7858277Y-16010460D02*
X7848753Y-16000936D01*
X7848753Y-16000936D02*
X7839229Y-15981888D01*
X7839229Y-15981888D02*
X7829706Y-15943793D01*
X7829706Y-15943793D02*
X7829706Y-15896174D01*
X7829706Y-15896174D02*
X7839229Y-15858079D01*
X7839229Y-15858079D02*
X7848753Y-15839031D01*
X7848753Y-15839031D02*
X7858277Y-15829508D01*
X7858277Y-15829508D02*
X7877325Y-15819984D01*
X8182087Y-16019984D02*
X8182087Y-15819984D01*
X8267801Y-16019984D02*
X8267801Y-15915222D01*
X8267801Y-15915222D02*
X8258277Y-15896174D01*
X8258277Y-15896174D02*
X8239230Y-15886650D01*
X8239230Y-15886650D02*
X8210658Y-15886650D01*
X8210658Y-15886650D02*
X8191610Y-15896174D01*
X8191610Y-15896174D02*
X8182087Y-15905698D01*
X8391611Y-16019984D02*
X8372563Y-16010460D01*
X8372563Y-16010460D02*
X8363039Y-16000936D01*
X8363039Y-16000936D02*
X8353515Y-15981888D01*
X8353515Y-15981888D02*
X8353515Y-15924746D01*
X8353515Y-15924746D02*
X8363039Y-15905698D01*
X8363039Y-15905698D02*
X8372563Y-15896174D01*
X8372563Y-15896174D02*
X8391611Y-15886650D01*
X8391611Y-15886650D02*
X8420182Y-15886650D01*
X8420182Y-15886650D02*
X8439230Y-15896174D01*
X8439230Y-15896174D02*
X8448753Y-15905698D01*
X8448753Y-15905698D02*
X8458277Y-15924746D01*
X8458277Y-15924746D02*
X8458277Y-15981888D01*
X8458277Y-15981888D02*
X8448753Y-16000936D01*
X8448753Y-16000936D02*
X8439230Y-16010460D01*
X8439230Y-16010460D02*
X8420182Y-16019984D01*
X8420182Y-16019984D02*
X8391611Y-16019984D01*
X8572563Y-16019984D02*
X8553515Y-16010460D01*
X8553515Y-16010460D02*
X8543992Y-15991412D01*
X8543992Y-15991412D02*
X8543992Y-15819984D01*
X8724944Y-16010460D02*
X8705896Y-16019984D01*
X8705896Y-16019984D02*
X8667801Y-16019984D01*
X8667801Y-16019984D02*
X8648753Y-16010460D01*
X8648753Y-16010460D02*
X8639230Y-15991412D01*
X8639230Y-15991412D02*
X8639230Y-15915222D01*
X8639230Y-15915222D02*
X8648753Y-15896174D01*
X8648753Y-15896174D02*
X8667801Y-15886650D01*
X8667801Y-15886650D02*
X8705896Y-15886650D01*
X8705896Y-15886650D02*
X8724944Y-15896174D01*
X8724944Y-15896174D02*
X8734468Y-15915222D01*
X8734468Y-15915222D02*
X8734468Y-15934269D01*
X8734468Y-15934269D02*
X8639230Y-15953317D01*
X8810658Y-16010460D02*
X8829706Y-16019984D01*
X8829706Y-16019984D02*
X8867801Y-16019984D01*
X8867801Y-16019984D02*
X8886849Y-16010460D01*
X8886849Y-16010460D02*
X8896373Y-15991412D01*
X8896373Y-15991412D02*
X8896373Y-15981888D01*
X8896373Y-15981888D02*
X8886849Y-15962841D01*
X8886849Y-15962841D02*
X8867801Y-15953317D01*
X8867801Y-15953317D02*
X8839230Y-15953317D01*
X8839230Y-15953317D02*
X8820182Y-15943793D01*
X8820182Y-15943793D02*
X8810658Y-15924746D01*
X8810658Y-15924746D02*
X8810658Y-15915222D01*
X8810658Y-15915222D02*
X8820182Y-15896174D01*
X8820182Y-15896174D02*
X8839230Y-15886650D01*
X8839230Y-15886650D02*
X8867801Y-15886650D01*
X8867801Y-15886650D02*
X8886849Y-15896174D01*
X8963039Y-16096174D02*
X8972563Y-16086650D01*
X8972563Y-16086650D02*
X8991611Y-16058079D01*
X8991611Y-16058079D02*
X9001134Y-16039031D01*
X9001134Y-16039031D02*
X9010658Y-16010460D01*
X9010658Y-16010460D02*
X9020182Y-15962841D01*
X9020182Y-15962841D02*
X9020182Y-15924746D01*
X9020182Y-15924746D02*
X9010658Y-15877127D01*
X9010658Y-15877127D02*
X9001134Y-15848555D01*
X9001134Y-15848555D02*
X8991611Y-15829508D01*
X8991611Y-15829508D02*
X8972563Y-15800936D01*
X8972563Y-15800936D02*
X8963039Y-15791412D01*
D14*
X3895900Y-16141700D02*
X3997500Y-16243300D01*
X3997500Y-16141700D02*
X3895900Y-16243300D01*
X3997500Y-16192500D02*
G75*
G02*
X3895900Y-16192500I-50800J0D01*
G01*
X3895900Y-16192500D02*
G75*
G02*
X3997500Y-16192500I50800J0D01*
G01*
D11*
X4363039Y-16283984D02*
X4248753Y-16283984D01*
X4305896Y-16283984D02*
X4305896Y-16083984D01*
X4305896Y-16083984D02*
X4286848Y-16112555D01*
X4286848Y-16112555D02*
X4267801Y-16131603D01*
X4267801Y-16131603D02*
X4248753Y-16141127D01*
X4448753Y-16264936D02*
X4458277Y-16274460D01*
X4458277Y-16274460D02*
X4448753Y-16283984D01*
X4448753Y-16283984D02*
X4439229Y-16274460D01*
X4439229Y-16274460D02*
X4448753Y-16264936D01*
X4448753Y-16264936D02*
X4448753Y-16283984D01*
X4582086Y-16083984D02*
X4601134Y-16083984D01*
X4601134Y-16083984D02*
X4620182Y-16093508D01*
X4620182Y-16093508D02*
X4629705Y-16103031D01*
X4629705Y-16103031D02*
X4639229Y-16122079D01*
X4639229Y-16122079D02*
X4648753Y-16160174D01*
X4648753Y-16160174D02*
X4648753Y-16207793D01*
X4648753Y-16207793D02*
X4639229Y-16245888D01*
X4639229Y-16245888D02*
X4629705Y-16264936D01*
X4629705Y-16264936D02*
X4620182Y-16274460D01*
X4620182Y-16274460D02*
X4601134Y-16283984D01*
X4601134Y-16283984D02*
X4582086Y-16283984D01*
X4582086Y-16283984D02*
X4563039Y-16274460D01*
X4563039Y-16274460D02*
X4553515Y-16264936D01*
X4553515Y-16264936D02*
X4543991Y-16245888D01*
X4543991Y-16245888D02*
X4534467Y-16207793D01*
X4534467Y-16207793D02*
X4534467Y-16160174D01*
X4534467Y-16160174D02*
X4543991Y-16122079D01*
X4543991Y-16122079D02*
X4553515Y-16103031D01*
X4553515Y-16103031D02*
X4563039Y-16093508D01*
X4563039Y-16093508D02*
X4582086Y-16083984D01*
X4839229Y-16283984D02*
X4724944Y-16283984D01*
X4782086Y-16283984D02*
X4782086Y-16083984D01*
X4782086Y-16083984D02*
X4763039Y-16112555D01*
X4763039Y-16112555D02*
X4743991Y-16131603D01*
X4743991Y-16131603D02*
X4724944Y-16141127D01*
X5010658Y-16083984D02*
X4972563Y-16083984D01*
X4972563Y-16083984D02*
X4953515Y-16093508D01*
X4953515Y-16093508D02*
X4943991Y-16103031D01*
X4943991Y-16103031D02*
X4924944Y-16131603D01*
X4924944Y-16131603D02*
X4915420Y-16169698D01*
X4915420Y-16169698D02*
X4915420Y-16245888D01*
X4915420Y-16245888D02*
X4924944Y-16264936D01*
X4924944Y-16264936D02*
X4934467Y-16274460D01*
X4934467Y-16274460D02*
X4953515Y-16283984D01*
X4953515Y-16283984D02*
X4991610Y-16283984D01*
X4991610Y-16283984D02*
X5010658Y-16274460D01*
X5010658Y-16274460D02*
X5020182Y-16264936D01*
X5020182Y-16264936D02*
X5029705Y-16245888D01*
X5029705Y-16245888D02*
X5029705Y-16198269D01*
X5029705Y-16198269D02*
X5020182Y-16179222D01*
X5020182Y-16179222D02*
X5010658Y-16169698D01*
X5010658Y-16169698D02*
X4991610Y-16160174D01*
X4991610Y-16160174D02*
X4953515Y-16160174D01*
X4953515Y-16160174D02*
X4934467Y-16169698D01*
X4934467Y-16169698D02*
X4924944Y-16179222D01*
X4924944Y-16179222D02*
X4915420Y-16198269D01*
X5115420Y-16283984D02*
X5115420Y-16150650D01*
X5115420Y-16169698D02*
X5124944Y-16160174D01*
X5124944Y-16160174D02*
X5143991Y-16150650D01*
X5143991Y-16150650D02*
X5172563Y-16150650D01*
X5172563Y-16150650D02*
X5191610Y-16160174D01*
X5191610Y-16160174D02*
X5201134Y-16179222D01*
X5201134Y-16179222D02*
X5201134Y-16283984D01*
X5201134Y-16179222D02*
X5210658Y-16160174D01*
X5210658Y-16160174D02*
X5229705Y-16150650D01*
X5229705Y-16150650D02*
X5258277Y-16150650D01*
X5258277Y-16150650D02*
X5277325Y-16160174D01*
X5277325Y-16160174D02*
X5286848Y-16179222D01*
X5286848Y-16179222D02*
X5286848Y-16283984D01*
X5382086Y-16283984D02*
X5382086Y-16150650D01*
X5382086Y-16169698D02*
X5391610Y-16160174D01*
X5391610Y-16160174D02*
X5410658Y-16150650D01*
X5410658Y-16150650D02*
X5439229Y-16150650D01*
X5439229Y-16150650D02*
X5458277Y-16160174D01*
X5458277Y-16160174D02*
X5467801Y-16179222D01*
X5467801Y-16179222D02*
X5467801Y-16283984D01*
X5467801Y-16179222D02*
X5477325Y-16160174D01*
X5477325Y-16160174D02*
X5496372Y-16150650D01*
X5496372Y-16150650D02*
X5524944Y-16150650D01*
X5524944Y-16150650D02*
X5543991Y-16160174D01*
X5543991Y-16160174D02*
X5553515Y-16179222D01*
X5553515Y-16179222D02*
X5553515Y-16283984D01*
X5943991Y-16074460D02*
X5772563Y-16331603D01*
X6201134Y-16083984D02*
X6220182Y-16083984D01*
X6220182Y-16083984D02*
X6239229Y-16093508D01*
X6239229Y-16093508D02*
X6248753Y-16103031D01*
X6248753Y-16103031D02*
X6258277Y-16122079D01*
X6258277Y-16122079D02*
X6267801Y-16160174D01*
X6267801Y-16160174D02*
X6267801Y-16207793D01*
X6267801Y-16207793D02*
X6258277Y-16245888D01*
X6258277Y-16245888D02*
X6248753Y-16264936D01*
X6248753Y-16264936D02*
X6239229Y-16274460D01*
X6239229Y-16274460D02*
X6220182Y-16283984D01*
X6220182Y-16283984D02*
X6201134Y-16283984D01*
X6201134Y-16283984D02*
X6182086Y-16274460D01*
X6182086Y-16274460D02*
X6172563Y-16264936D01*
X6172563Y-16264936D02*
X6163039Y-16245888D01*
X6163039Y-16245888D02*
X6153515Y-16207793D01*
X6153515Y-16207793D02*
X6153515Y-16160174D01*
X6153515Y-16160174D02*
X6163039Y-16122079D01*
X6163039Y-16122079D02*
X6172563Y-16103031D01*
X6172563Y-16103031D02*
X6182086Y-16093508D01*
X6182086Y-16093508D02*
X6201134Y-16083984D01*
X6353515Y-16264936D02*
X6363039Y-16274460D01*
X6363039Y-16274460D02*
X6353515Y-16283984D01*
X6353515Y-16283984D02*
X6343991Y-16274460D01*
X6343991Y-16274460D02*
X6353515Y-16264936D01*
X6353515Y-16264936D02*
X6353515Y-16283984D01*
X6486848Y-16083984D02*
X6505896Y-16083984D01*
X6505896Y-16083984D02*
X6524944Y-16093508D01*
X6524944Y-16093508D02*
X6534467Y-16103031D01*
X6534467Y-16103031D02*
X6543991Y-16122079D01*
X6543991Y-16122079D02*
X6553515Y-16160174D01*
X6553515Y-16160174D02*
X6553515Y-16207793D01*
X6553515Y-16207793D02*
X6543991Y-16245888D01*
X6543991Y-16245888D02*
X6534467Y-16264936D01*
X6534467Y-16264936D02*
X6524944Y-16274460D01*
X6524944Y-16274460D02*
X6505896Y-16283984D01*
X6505896Y-16283984D02*
X6486848Y-16283984D01*
X6486848Y-16283984D02*
X6467801Y-16274460D01*
X6467801Y-16274460D02*
X6458277Y-16264936D01*
X6458277Y-16264936D02*
X6448753Y-16245888D01*
X6448753Y-16245888D02*
X6439229Y-16207793D01*
X6439229Y-16207793D02*
X6439229Y-16160174D01*
X6439229Y-16160174D02*
X6448753Y-16122079D01*
X6448753Y-16122079D02*
X6458277Y-16103031D01*
X6458277Y-16103031D02*
X6467801Y-16093508D01*
X6467801Y-16093508D02*
X6486848Y-16083984D01*
X6724944Y-16150650D02*
X6724944Y-16283984D01*
X6677325Y-16074460D02*
X6629706Y-16217317D01*
X6629706Y-16217317D02*
X6753515Y-16217317D01*
X6867801Y-16083984D02*
X6886848Y-16083984D01*
X6886848Y-16083984D02*
X6905896Y-16093508D01*
X6905896Y-16093508D02*
X6915420Y-16103031D01*
X6915420Y-16103031D02*
X6924944Y-16122079D01*
X6924944Y-16122079D02*
X6934467Y-16160174D01*
X6934467Y-16160174D02*
X6934467Y-16207793D01*
X6934467Y-16207793D02*
X6924944Y-16245888D01*
X6924944Y-16245888D02*
X6915420Y-16264936D01*
X6915420Y-16264936D02*
X6905896Y-16274460D01*
X6905896Y-16274460D02*
X6886848Y-16283984D01*
X6886848Y-16283984D02*
X6867801Y-16283984D01*
X6867801Y-16283984D02*
X6848753Y-16274460D01*
X6848753Y-16274460D02*
X6839229Y-16264936D01*
X6839229Y-16264936D02*
X6829706Y-16245888D01*
X6829706Y-16245888D02*
X6820182Y-16207793D01*
X6820182Y-16207793D02*
X6820182Y-16160174D01*
X6820182Y-16160174D02*
X6829706Y-16122079D01*
X6829706Y-16122079D02*
X6839229Y-16103031D01*
X6839229Y-16103031D02*
X6848753Y-16093508D01*
X6848753Y-16093508D02*
X6867801Y-16083984D01*
X7058277Y-16083984D02*
X7077325Y-16083984D01*
X7077325Y-16083984D02*
X7096372Y-16093508D01*
X7096372Y-16093508D02*
X7105896Y-16103031D01*
X7105896Y-16103031D02*
X7115420Y-16122079D01*
X7115420Y-16122079D02*
X7124944Y-16160174D01*
X7124944Y-16160174D02*
X7124944Y-16207793D01*
X7124944Y-16207793D02*
X7115420Y-16245888D01*
X7115420Y-16245888D02*
X7105896Y-16264936D01*
X7105896Y-16264936D02*
X7096372Y-16274460D01*
X7096372Y-16274460D02*
X7077325Y-16283984D01*
X7077325Y-16283984D02*
X7058277Y-16283984D01*
X7058277Y-16283984D02*
X7039229Y-16274460D01*
X7039229Y-16274460D02*
X7029706Y-16264936D01*
X7029706Y-16264936D02*
X7020182Y-16245888D01*
X7020182Y-16245888D02*
X7010658Y-16207793D01*
X7010658Y-16207793D02*
X7010658Y-16160174D01*
X7010658Y-16160174D02*
X7020182Y-16122079D01*
X7020182Y-16122079D02*
X7029706Y-16103031D01*
X7029706Y-16103031D02*
X7039229Y-16093508D01*
X7039229Y-16093508D02*
X7058277Y-16083984D01*
X7201134Y-16083984D02*
X7201134Y-16122079D01*
X7277325Y-16083984D02*
X7277325Y-16122079D01*
X7572563Y-16360174D02*
X7563039Y-16350650D01*
X7563039Y-16350650D02*
X7543991Y-16322079D01*
X7543991Y-16322079D02*
X7534468Y-16303031D01*
X7534468Y-16303031D02*
X7524944Y-16274460D01*
X7524944Y-16274460D02*
X7515420Y-16226841D01*
X7515420Y-16226841D02*
X7515420Y-16188746D01*
X7515420Y-16188746D02*
X7524944Y-16141127D01*
X7524944Y-16141127D02*
X7534468Y-16112555D01*
X7534468Y-16112555D02*
X7543991Y-16093508D01*
X7543991Y-16093508D02*
X7563039Y-16064936D01*
X7563039Y-16064936D02*
X7572563Y-16055412D01*
X7734468Y-16083984D02*
X7696372Y-16083984D01*
X7696372Y-16083984D02*
X7677325Y-16093508D01*
X7677325Y-16093508D02*
X7667801Y-16103031D01*
X7667801Y-16103031D02*
X7648753Y-16131603D01*
X7648753Y-16131603D02*
X7639229Y-16169698D01*
X7639229Y-16169698D02*
X7639229Y-16245888D01*
X7639229Y-16245888D02*
X7648753Y-16264936D01*
X7648753Y-16264936D02*
X7658277Y-16274460D01*
X7658277Y-16274460D02*
X7677325Y-16283984D01*
X7677325Y-16283984D02*
X7715420Y-16283984D01*
X7715420Y-16283984D02*
X7734468Y-16274460D01*
X7734468Y-16274460D02*
X7743991Y-16264936D01*
X7743991Y-16264936D02*
X7753515Y-16245888D01*
X7753515Y-16245888D02*
X7753515Y-16198269D01*
X7753515Y-16198269D02*
X7743991Y-16179222D01*
X7743991Y-16179222D02*
X7734468Y-16169698D01*
X7734468Y-16169698D02*
X7715420Y-16160174D01*
X7715420Y-16160174D02*
X7677325Y-16160174D01*
X7677325Y-16160174D02*
X7658277Y-16169698D01*
X7658277Y-16169698D02*
X7648753Y-16179222D01*
X7648753Y-16179222D02*
X7639229Y-16198269D01*
X7991610Y-16283984D02*
X7991610Y-16083984D01*
X8077325Y-16283984D02*
X8077325Y-16179222D01*
X8077325Y-16179222D02*
X8067801Y-16160174D01*
X8067801Y-16160174D02*
X8048753Y-16150650D01*
X8048753Y-16150650D02*
X8020182Y-16150650D01*
X8020182Y-16150650D02*
X8001134Y-16160174D01*
X8001134Y-16160174D02*
X7991610Y-16169698D01*
X8201134Y-16283984D02*
X8182087Y-16274460D01*
X8182087Y-16274460D02*
X8172563Y-16264936D01*
X8172563Y-16264936D02*
X8163039Y-16245888D01*
X8163039Y-16245888D02*
X8163039Y-16188746D01*
X8163039Y-16188746D02*
X8172563Y-16169698D01*
X8172563Y-16169698D02*
X8182087Y-16160174D01*
X8182087Y-16160174D02*
X8201134Y-16150650D01*
X8201134Y-16150650D02*
X8229706Y-16150650D01*
X8229706Y-16150650D02*
X8248753Y-16160174D01*
X8248753Y-16160174D02*
X8258277Y-16169698D01*
X8258277Y-16169698D02*
X8267801Y-16188746D01*
X8267801Y-16188746D02*
X8267801Y-16245888D01*
X8267801Y-16245888D02*
X8258277Y-16264936D01*
X8258277Y-16264936D02*
X8248753Y-16274460D01*
X8248753Y-16274460D02*
X8229706Y-16283984D01*
X8229706Y-16283984D02*
X8201134Y-16283984D01*
X8382087Y-16283984D02*
X8363039Y-16274460D01*
X8363039Y-16274460D02*
X8353515Y-16255412D01*
X8353515Y-16255412D02*
X8353515Y-16083984D01*
X8534468Y-16274460D02*
X8515420Y-16283984D01*
X8515420Y-16283984D02*
X8477325Y-16283984D01*
X8477325Y-16283984D02*
X8458277Y-16274460D01*
X8458277Y-16274460D02*
X8448753Y-16255412D01*
X8448753Y-16255412D02*
X8448753Y-16179222D01*
X8448753Y-16179222D02*
X8458277Y-16160174D01*
X8458277Y-16160174D02*
X8477325Y-16150650D01*
X8477325Y-16150650D02*
X8515420Y-16150650D01*
X8515420Y-16150650D02*
X8534468Y-16160174D01*
X8534468Y-16160174D02*
X8543992Y-16179222D01*
X8543992Y-16179222D02*
X8543992Y-16198269D01*
X8543992Y-16198269D02*
X8448753Y-16217317D01*
X8620182Y-16274460D02*
X8639230Y-16283984D01*
X8639230Y-16283984D02*
X8677325Y-16283984D01*
X8677325Y-16283984D02*
X8696373Y-16274460D01*
X8696373Y-16274460D02*
X8705896Y-16255412D01*
X8705896Y-16255412D02*
X8705896Y-16245888D01*
X8705896Y-16245888D02*
X8696373Y-16226841D01*
X8696373Y-16226841D02*
X8677325Y-16217317D01*
X8677325Y-16217317D02*
X8648753Y-16217317D01*
X8648753Y-16217317D02*
X8629706Y-16207793D01*
X8629706Y-16207793D02*
X8620182Y-16188746D01*
X8620182Y-16188746D02*
X8620182Y-16179222D01*
X8620182Y-16179222D02*
X8629706Y-16160174D01*
X8629706Y-16160174D02*
X8648753Y-16150650D01*
X8648753Y-16150650D02*
X8677325Y-16150650D01*
X8677325Y-16150650D02*
X8696373Y-16160174D01*
X8772563Y-16360174D02*
X8782087Y-16350650D01*
X8782087Y-16350650D02*
X8801134Y-16322079D01*
X8801134Y-16322079D02*
X8810658Y-16303031D01*
X8810658Y-16303031D02*
X8820182Y-16274460D01*
X8820182Y-16274460D02*
X8829706Y-16226841D01*
X8829706Y-16226841D02*
X8829706Y-16188746D01*
X8829706Y-16188746D02*
X8820182Y-16141127D01*
X8820182Y-16141127D02*
X8810658Y-16112555D01*
X8810658Y-16112555D02*
X8801134Y-16093508D01*
X8801134Y-16093508D02*
X8782087Y-16064936D01*
X8782087Y-16064936D02*
X8772563Y-16055412D01*
D15*
X3887260Y-16401380D02*
X3997500Y-16511620D01*
X3997500Y-16401380D02*
X3887260Y-16511620D01*
X3942380Y-16401380D02*
X3942380Y-16511620D01*
X3887260Y-16456500D02*
X3997500Y-16456500D01*
D11*
X4363039Y-16547984D02*
X4248753Y-16547984D01*
X4305896Y-16547984D02*
X4305896Y-16347984D01*
X4305896Y-16347984D02*
X4286848Y-16376555D01*
X4286848Y-16376555D02*
X4267801Y-16395603D01*
X4267801Y-16395603D02*
X4248753Y-16405127D01*
X4448753Y-16528936D02*
X4458277Y-16538460D01*
X4458277Y-16538460D02*
X4448753Y-16547984D01*
X4448753Y-16547984D02*
X4439229Y-16538460D01*
X4439229Y-16538460D02*
X4448753Y-16528936D01*
X4448753Y-16528936D02*
X4448753Y-16547984D01*
X4648753Y-16547984D02*
X4534467Y-16547984D01*
X4591610Y-16547984D02*
X4591610Y-16347984D01*
X4591610Y-16347984D02*
X4572563Y-16376555D01*
X4572563Y-16376555D02*
X4553515Y-16395603D01*
X4553515Y-16395603D02*
X4534467Y-16405127D01*
X4772563Y-16347984D02*
X4791610Y-16347984D01*
X4791610Y-16347984D02*
X4810658Y-16357508D01*
X4810658Y-16357508D02*
X4820182Y-16367031D01*
X4820182Y-16367031D02*
X4829705Y-16386079D01*
X4829705Y-16386079D02*
X4839229Y-16424174D01*
X4839229Y-16424174D02*
X4839229Y-16471793D01*
X4839229Y-16471793D02*
X4829705Y-16509888D01*
X4829705Y-16509888D02*
X4820182Y-16528936D01*
X4820182Y-16528936D02*
X4810658Y-16538460D01*
X4810658Y-16538460D02*
X4791610Y-16547984D01*
X4791610Y-16547984D02*
X4772563Y-16547984D01*
X4772563Y-16547984D02*
X4753515Y-16538460D01*
X4753515Y-16538460D02*
X4743991Y-16528936D01*
X4743991Y-16528936D02*
X4734467Y-16509888D01*
X4734467Y-16509888D02*
X4724944Y-16471793D01*
X4724944Y-16471793D02*
X4724944Y-16424174D01*
X4724944Y-16424174D02*
X4734467Y-16386079D01*
X4734467Y-16386079D02*
X4743991Y-16367031D01*
X4743991Y-16367031D02*
X4753515Y-16357508D01*
X4753515Y-16357508D02*
X4772563Y-16347984D01*
X4915420Y-16367031D02*
X4924944Y-16357508D01*
X4924944Y-16357508D02*
X4943991Y-16347984D01*
X4943991Y-16347984D02*
X4991610Y-16347984D01*
X4991610Y-16347984D02*
X5010658Y-16357508D01*
X5010658Y-16357508D02*
X5020182Y-16367031D01*
X5020182Y-16367031D02*
X5029705Y-16386079D01*
X5029705Y-16386079D02*
X5029705Y-16405127D01*
X5029705Y-16405127D02*
X5020182Y-16433698D01*
X5020182Y-16433698D02*
X4905896Y-16547984D01*
X4905896Y-16547984D02*
X5029705Y-16547984D01*
X5115420Y-16547984D02*
X5115420Y-16414650D01*
X5115420Y-16433698D02*
X5124944Y-16424174D01*
X5124944Y-16424174D02*
X5143991Y-16414650D01*
X5143991Y-16414650D02*
X5172563Y-16414650D01*
X5172563Y-16414650D02*
X5191610Y-16424174D01*
X5191610Y-16424174D02*
X5201134Y-16443222D01*
X5201134Y-16443222D02*
X5201134Y-16547984D01*
X5201134Y-16443222D02*
X5210658Y-16424174D01*
X5210658Y-16424174D02*
X5229705Y-16414650D01*
X5229705Y-16414650D02*
X5258277Y-16414650D01*
X5258277Y-16414650D02*
X5277325Y-16424174D01*
X5277325Y-16424174D02*
X5286848Y-16443222D01*
X5286848Y-16443222D02*
X5286848Y-16547984D01*
X5382086Y-16547984D02*
X5382086Y-16414650D01*
X5382086Y-16433698D02*
X5391610Y-16424174D01*
X5391610Y-16424174D02*
X5410658Y-16414650D01*
X5410658Y-16414650D02*
X5439229Y-16414650D01*
X5439229Y-16414650D02*
X5458277Y-16424174D01*
X5458277Y-16424174D02*
X5467801Y-16443222D01*
X5467801Y-16443222D02*
X5467801Y-16547984D01*
X5467801Y-16443222D02*
X5477325Y-16424174D01*
X5477325Y-16424174D02*
X5496372Y-16414650D01*
X5496372Y-16414650D02*
X5524944Y-16414650D01*
X5524944Y-16414650D02*
X5543991Y-16424174D01*
X5543991Y-16424174D02*
X5553515Y-16443222D01*
X5553515Y-16443222D02*
X5553515Y-16547984D01*
X5943991Y-16338460D02*
X5772563Y-16595603D01*
X6201134Y-16347984D02*
X6220182Y-16347984D01*
X6220182Y-16347984D02*
X6239229Y-16357508D01*
X6239229Y-16357508D02*
X6248753Y-16367031D01*
X6248753Y-16367031D02*
X6258277Y-16386079D01*
X6258277Y-16386079D02*
X6267801Y-16424174D01*
X6267801Y-16424174D02*
X6267801Y-16471793D01*
X6267801Y-16471793D02*
X6258277Y-16509888D01*
X6258277Y-16509888D02*
X6248753Y-16528936D01*
X6248753Y-16528936D02*
X6239229Y-16538460D01*
X6239229Y-16538460D02*
X6220182Y-16547984D01*
X6220182Y-16547984D02*
X6201134Y-16547984D01*
X6201134Y-16547984D02*
X6182086Y-16538460D01*
X6182086Y-16538460D02*
X6172563Y-16528936D01*
X6172563Y-16528936D02*
X6163039Y-16509888D01*
X6163039Y-16509888D02*
X6153515Y-16471793D01*
X6153515Y-16471793D02*
X6153515Y-16424174D01*
X6153515Y-16424174D02*
X6163039Y-16386079D01*
X6163039Y-16386079D02*
X6172563Y-16367031D01*
X6172563Y-16367031D02*
X6182086Y-16357508D01*
X6182086Y-16357508D02*
X6201134Y-16347984D01*
X6353515Y-16528936D02*
X6363039Y-16538460D01*
X6363039Y-16538460D02*
X6353515Y-16547984D01*
X6353515Y-16547984D02*
X6343991Y-16538460D01*
X6343991Y-16538460D02*
X6353515Y-16528936D01*
X6353515Y-16528936D02*
X6353515Y-16547984D01*
X6486848Y-16347984D02*
X6505896Y-16347984D01*
X6505896Y-16347984D02*
X6524944Y-16357508D01*
X6524944Y-16357508D02*
X6534467Y-16367031D01*
X6534467Y-16367031D02*
X6543991Y-16386079D01*
X6543991Y-16386079D02*
X6553515Y-16424174D01*
X6553515Y-16424174D02*
X6553515Y-16471793D01*
X6553515Y-16471793D02*
X6543991Y-16509888D01*
X6543991Y-16509888D02*
X6534467Y-16528936D01*
X6534467Y-16528936D02*
X6524944Y-16538460D01*
X6524944Y-16538460D02*
X6505896Y-16547984D01*
X6505896Y-16547984D02*
X6486848Y-16547984D01*
X6486848Y-16547984D02*
X6467801Y-16538460D01*
X6467801Y-16538460D02*
X6458277Y-16528936D01*
X6458277Y-16528936D02*
X6448753Y-16509888D01*
X6448753Y-16509888D02*
X6439229Y-16471793D01*
X6439229Y-16471793D02*
X6439229Y-16424174D01*
X6439229Y-16424174D02*
X6448753Y-16386079D01*
X6448753Y-16386079D02*
X6458277Y-16367031D01*
X6458277Y-16367031D02*
X6467801Y-16357508D01*
X6467801Y-16357508D02*
X6486848Y-16347984D01*
X6724944Y-16414650D02*
X6724944Y-16547984D01*
X6677325Y-16338460D02*
X6629706Y-16481317D01*
X6629706Y-16481317D02*
X6753515Y-16481317D01*
X6810658Y-16347984D02*
X6934467Y-16347984D01*
X6934467Y-16347984D02*
X6867801Y-16424174D01*
X6867801Y-16424174D02*
X6896372Y-16424174D01*
X6896372Y-16424174D02*
X6915420Y-16433698D01*
X6915420Y-16433698D02*
X6924944Y-16443222D01*
X6924944Y-16443222D02*
X6934467Y-16462269D01*
X6934467Y-16462269D02*
X6934467Y-16509888D01*
X6934467Y-16509888D02*
X6924944Y-16528936D01*
X6924944Y-16528936D02*
X6915420Y-16538460D01*
X6915420Y-16538460D02*
X6896372Y-16547984D01*
X6896372Y-16547984D02*
X6839229Y-16547984D01*
X6839229Y-16547984D02*
X6820182Y-16538460D01*
X6820182Y-16538460D02*
X6810658Y-16528936D01*
X7105896Y-16414650D02*
X7105896Y-16547984D01*
X7058277Y-16338460D02*
X7010658Y-16481317D01*
X7010658Y-16481317D02*
X7134467Y-16481317D01*
X7201134Y-16347984D02*
X7201134Y-16386079D01*
X7277325Y-16347984D02*
X7277325Y-16386079D01*
X7572563Y-16624174D02*
X7563039Y-16614650D01*
X7563039Y-16614650D02*
X7543991Y-16586079D01*
X7543991Y-16586079D02*
X7534468Y-16567031D01*
X7534468Y-16567031D02*
X7524944Y-16538460D01*
X7524944Y-16538460D02*
X7515420Y-16490841D01*
X7515420Y-16490841D02*
X7515420Y-16452746D01*
X7515420Y-16452746D02*
X7524944Y-16405127D01*
X7524944Y-16405127D02*
X7534468Y-16376555D01*
X7534468Y-16376555D02*
X7543991Y-16357508D01*
X7543991Y-16357508D02*
X7563039Y-16328936D01*
X7563039Y-16328936D02*
X7572563Y-16319412D01*
X7629706Y-16347984D02*
X7753515Y-16347984D01*
X7753515Y-16347984D02*
X7686848Y-16424174D01*
X7686848Y-16424174D02*
X7715420Y-16424174D01*
X7715420Y-16424174D02*
X7734468Y-16433698D01*
X7734468Y-16433698D02*
X7743991Y-16443222D01*
X7743991Y-16443222D02*
X7753515Y-16462269D01*
X7753515Y-16462269D02*
X7753515Y-16509888D01*
X7753515Y-16509888D02*
X7743991Y-16528936D01*
X7743991Y-16528936D02*
X7734468Y-16538460D01*
X7734468Y-16538460D02*
X7715420Y-16547984D01*
X7715420Y-16547984D02*
X7658277Y-16547984D01*
X7658277Y-16547984D02*
X7639229Y-16538460D01*
X7639229Y-16538460D02*
X7629706Y-16528936D01*
X7991610Y-16547984D02*
X7991610Y-16347984D01*
X8077325Y-16547984D02*
X8077325Y-16443222D01*
X8077325Y-16443222D02*
X8067801Y-16424174D01*
X8067801Y-16424174D02*
X8048753Y-16414650D01*
X8048753Y-16414650D02*
X8020182Y-16414650D01*
X8020182Y-16414650D02*
X8001134Y-16424174D01*
X8001134Y-16424174D02*
X7991610Y-16433698D01*
X8201134Y-16547984D02*
X8182087Y-16538460D01*
X8182087Y-16538460D02*
X8172563Y-16528936D01*
X8172563Y-16528936D02*
X8163039Y-16509888D01*
X8163039Y-16509888D02*
X8163039Y-16452746D01*
X8163039Y-16452746D02*
X8172563Y-16433698D01*
X8172563Y-16433698D02*
X8182087Y-16424174D01*
X8182087Y-16424174D02*
X8201134Y-16414650D01*
X8201134Y-16414650D02*
X8229706Y-16414650D01*
X8229706Y-16414650D02*
X8248753Y-16424174D01*
X8248753Y-16424174D02*
X8258277Y-16433698D01*
X8258277Y-16433698D02*
X8267801Y-16452746D01*
X8267801Y-16452746D02*
X8267801Y-16509888D01*
X8267801Y-16509888D02*
X8258277Y-16528936D01*
X8258277Y-16528936D02*
X8248753Y-16538460D01*
X8248753Y-16538460D02*
X8229706Y-16547984D01*
X8229706Y-16547984D02*
X8201134Y-16547984D01*
X8382087Y-16547984D02*
X8363039Y-16538460D01*
X8363039Y-16538460D02*
X8353515Y-16519412D01*
X8353515Y-16519412D02*
X8353515Y-16347984D01*
X8534468Y-16538460D02*
X8515420Y-16547984D01*
X8515420Y-16547984D02*
X8477325Y-16547984D01*
X8477325Y-16547984D02*
X8458277Y-16538460D01*
X8458277Y-16538460D02*
X8448753Y-16519412D01*
X8448753Y-16519412D02*
X8448753Y-16443222D01*
X8448753Y-16443222D02*
X8458277Y-16424174D01*
X8458277Y-16424174D02*
X8477325Y-16414650D01*
X8477325Y-16414650D02*
X8515420Y-16414650D01*
X8515420Y-16414650D02*
X8534468Y-16424174D01*
X8534468Y-16424174D02*
X8543992Y-16443222D01*
X8543992Y-16443222D02*
X8543992Y-16462269D01*
X8543992Y-16462269D02*
X8448753Y-16481317D01*
X8620182Y-16538460D02*
X8639230Y-16547984D01*
X8639230Y-16547984D02*
X8677325Y-16547984D01*
X8677325Y-16547984D02*
X8696373Y-16538460D01*
X8696373Y-16538460D02*
X8705896Y-16519412D01*
X8705896Y-16519412D02*
X8705896Y-16509888D01*
X8705896Y-16509888D02*
X8696373Y-16490841D01*
X8696373Y-16490841D02*
X8677325Y-16481317D01*
X8677325Y-16481317D02*
X8648753Y-16481317D01*
X8648753Y-16481317D02*
X8629706Y-16471793D01*
X8629706Y-16471793D02*
X8620182Y-16452746D01*
X8620182Y-16452746D02*
X8620182Y-16443222D01*
X8620182Y-16443222D02*
X8629706Y-16424174D01*
X8629706Y-16424174D02*
X8648753Y-16414650D01*
X8648753Y-16414650D02*
X8677325Y-16414650D01*
X8677325Y-16414650D02*
X8696373Y-16424174D01*
X8772563Y-16624174D02*
X8782087Y-16614650D01*
X8782087Y-16614650D02*
X8801134Y-16586079D01*
X8801134Y-16586079D02*
X8810658Y-16567031D01*
X8810658Y-16567031D02*
X8820182Y-16538460D01*
X8820182Y-16538460D02*
X8829706Y-16490841D01*
X8829706Y-16490841D02*
X8829706Y-16452746D01*
X8829706Y-16452746D02*
X8820182Y-16405127D01*
X8820182Y-16405127D02*
X8810658Y-16376555D01*
X8810658Y-16376555D02*
X8801134Y-16357508D01*
X8801134Y-16357508D02*
X8782087Y-16328936D01*
X8782087Y-16328936D02*
X8772563Y-16319412D01*
D16*
X3877500Y-16660500D02*
X3997500Y-16780500D01*
X3997500Y-16660500D02*
X3877500Y-16780500D01*
X3979927Y-16762927D02*
X3979927Y-16678073D01*
X3895073Y-16678073D01*
X3895073Y-16762927D01*
X3979927Y-16762927D01*
D11*
X4363039Y-16811984D02*
X4248753Y-16811984D01*
X4305896Y-16811984D02*
X4305896Y-16611984D01*
X4305896Y-16611984D02*
X4286848Y-16640555D01*
X4286848Y-16640555D02*
X4267801Y-16659603D01*
X4267801Y-16659603D02*
X4248753Y-16669127D01*
X4448753Y-16792936D02*
X4458277Y-16802460D01*
X4458277Y-16802460D02*
X4448753Y-16811984D01*
X4448753Y-16811984D02*
X4439229Y-16802460D01*
X4439229Y-16802460D02*
X4448753Y-16792936D01*
X4448753Y-16792936D02*
X4448753Y-16811984D01*
X4534467Y-16631031D02*
X4543991Y-16621508D01*
X4543991Y-16621508D02*
X4563039Y-16611984D01*
X4563039Y-16611984D02*
X4610658Y-16611984D01*
X4610658Y-16611984D02*
X4629705Y-16621508D01*
X4629705Y-16621508D02*
X4639229Y-16631031D01*
X4639229Y-16631031D02*
X4648753Y-16650079D01*
X4648753Y-16650079D02*
X4648753Y-16669127D01*
X4648753Y-16669127D02*
X4639229Y-16697698D01*
X4639229Y-16697698D02*
X4524944Y-16811984D01*
X4524944Y-16811984D02*
X4648753Y-16811984D01*
X4772563Y-16611984D02*
X4791610Y-16611984D01*
X4791610Y-16611984D02*
X4810658Y-16621508D01*
X4810658Y-16621508D02*
X4820182Y-16631031D01*
X4820182Y-16631031D02*
X4829705Y-16650079D01*
X4829705Y-16650079D02*
X4839229Y-16688174D01*
X4839229Y-16688174D02*
X4839229Y-16735793D01*
X4839229Y-16735793D02*
X4829705Y-16773888D01*
X4829705Y-16773888D02*
X4820182Y-16792936D01*
X4820182Y-16792936D02*
X4810658Y-16802460D01*
X4810658Y-16802460D02*
X4791610Y-16811984D01*
X4791610Y-16811984D02*
X4772563Y-16811984D01*
X4772563Y-16811984D02*
X4753515Y-16802460D01*
X4753515Y-16802460D02*
X4743991Y-16792936D01*
X4743991Y-16792936D02*
X4734467Y-16773888D01*
X4734467Y-16773888D02*
X4724944Y-16735793D01*
X4724944Y-16735793D02*
X4724944Y-16688174D01*
X4724944Y-16688174D02*
X4734467Y-16650079D01*
X4734467Y-16650079D02*
X4743991Y-16631031D01*
X4743991Y-16631031D02*
X4753515Y-16621508D01*
X4753515Y-16621508D02*
X4772563Y-16611984D01*
X4963039Y-16611984D02*
X4982086Y-16611984D01*
X4982086Y-16611984D02*
X5001134Y-16621508D01*
X5001134Y-16621508D02*
X5010658Y-16631031D01*
X5010658Y-16631031D02*
X5020182Y-16650079D01*
X5020182Y-16650079D02*
X5029705Y-16688174D01*
X5029705Y-16688174D02*
X5029705Y-16735793D01*
X5029705Y-16735793D02*
X5020182Y-16773888D01*
X5020182Y-16773888D02*
X5010658Y-16792936D01*
X5010658Y-16792936D02*
X5001134Y-16802460D01*
X5001134Y-16802460D02*
X4982086Y-16811984D01*
X4982086Y-16811984D02*
X4963039Y-16811984D01*
X4963039Y-16811984D02*
X4943991Y-16802460D01*
X4943991Y-16802460D02*
X4934467Y-16792936D01*
X4934467Y-16792936D02*
X4924944Y-16773888D01*
X4924944Y-16773888D02*
X4915420Y-16735793D01*
X4915420Y-16735793D02*
X4915420Y-16688174D01*
X4915420Y-16688174D02*
X4924944Y-16650079D01*
X4924944Y-16650079D02*
X4934467Y-16631031D01*
X4934467Y-16631031D02*
X4943991Y-16621508D01*
X4943991Y-16621508D02*
X4963039Y-16611984D01*
X5115420Y-16811984D02*
X5115420Y-16678650D01*
X5115420Y-16697698D02*
X5124944Y-16688174D01*
X5124944Y-16688174D02*
X5143991Y-16678650D01*
X5143991Y-16678650D02*
X5172563Y-16678650D01*
X5172563Y-16678650D02*
X5191610Y-16688174D01*
X5191610Y-16688174D02*
X5201134Y-16707222D01*
X5201134Y-16707222D02*
X5201134Y-16811984D01*
X5201134Y-16707222D02*
X5210658Y-16688174D01*
X5210658Y-16688174D02*
X5229705Y-16678650D01*
X5229705Y-16678650D02*
X5258277Y-16678650D01*
X5258277Y-16678650D02*
X5277325Y-16688174D01*
X5277325Y-16688174D02*
X5286848Y-16707222D01*
X5286848Y-16707222D02*
X5286848Y-16811984D01*
X5382086Y-16811984D02*
X5382086Y-16678650D01*
X5382086Y-16697698D02*
X5391610Y-16688174D01*
X5391610Y-16688174D02*
X5410658Y-16678650D01*
X5410658Y-16678650D02*
X5439229Y-16678650D01*
X5439229Y-16678650D02*
X5458277Y-16688174D01*
X5458277Y-16688174D02*
X5467801Y-16707222D01*
X5467801Y-16707222D02*
X5467801Y-16811984D01*
X5467801Y-16707222D02*
X5477325Y-16688174D01*
X5477325Y-16688174D02*
X5496372Y-16678650D01*
X5496372Y-16678650D02*
X5524944Y-16678650D01*
X5524944Y-16678650D02*
X5543991Y-16688174D01*
X5543991Y-16688174D02*
X5553515Y-16707222D01*
X5553515Y-16707222D02*
X5553515Y-16811984D01*
X5943991Y-16602460D02*
X5772563Y-16859603D01*
X6201134Y-16611984D02*
X6220182Y-16611984D01*
X6220182Y-16611984D02*
X6239229Y-16621508D01*
X6239229Y-16621508D02*
X6248753Y-16631031D01*
X6248753Y-16631031D02*
X6258277Y-16650079D01*
X6258277Y-16650079D02*
X6267801Y-16688174D01*
X6267801Y-16688174D02*
X6267801Y-16735793D01*
X6267801Y-16735793D02*
X6258277Y-16773888D01*
X6258277Y-16773888D02*
X6248753Y-16792936D01*
X6248753Y-16792936D02*
X6239229Y-16802460D01*
X6239229Y-16802460D02*
X6220182Y-16811984D01*
X6220182Y-16811984D02*
X6201134Y-16811984D01*
X6201134Y-16811984D02*
X6182086Y-16802460D01*
X6182086Y-16802460D02*
X6172563Y-16792936D01*
X6172563Y-16792936D02*
X6163039Y-16773888D01*
X6163039Y-16773888D02*
X6153515Y-16735793D01*
X6153515Y-16735793D02*
X6153515Y-16688174D01*
X6153515Y-16688174D02*
X6163039Y-16650079D01*
X6163039Y-16650079D02*
X6172563Y-16631031D01*
X6172563Y-16631031D02*
X6182086Y-16621508D01*
X6182086Y-16621508D02*
X6201134Y-16611984D01*
X6353515Y-16792936D02*
X6363039Y-16802460D01*
X6363039Y-16802460D02*
X6353515Y-16811984D01*
X6353515Y-16811984D02*
X6343991Y-16802460D01*
X6343991Y-16802460D02*
X6353515Y-16792936D01*
X6353515Y-16792936D02*
X6353515Y-16811984D01*
X6486848Y-16611984D02*
X6505896Y-16611984D01*
X6505896Y-16611984D02*
X6524944Y-16621508D01*
X6524944Y-16621508D02*
X6534467Y-16631031D01*
X6534467Y-16631031D02*
X6543991Y-16650079D01*
X6543991Y-16650079D02*
X6553515Y-16688174D01*
X6553515Y-16688174D02*
X6553515Y-16735793D01*
X6553515Y-16735793D02*
X6543991Y-16773888D01*
X6543991Y-16773888D02*
X6534467Y-16792936D01*
X6534467Y-16792936D02*
X6524944Y-16802460D01*
X6524944Y-16802460D02*
X6505896Y-16811984D01*
X6505896Y-16811984D02*
X6486848Y-16811984D01*
X6486848Y-16811984D02*
X6467801Y-16802460D01*
X6467801Y-16802460D02*
X6458277Y-16792936D01*
X6458277Y-16792936D02*
X6448753Y-16773888D01*
X6448753Y-16773888D02*
X6439229Y-16735793D01*
X6439229Y-16735793D02*
X6439229Y-16688174D01*
X6439229Y-16688174D02*
X6448753Y-16650079D01*
X6448753Y-16650079D02*
X6458277Y-16631031D01*
X6458277Y-16631031D02*
X6467801Y-16621508D01*
X6467801Y-16621508D02*
X6486848Y-16611984D01*
X6724944Y-16678650D02*
X6724944Y-16811984D01*
X6677325Y-16602460D02*
X6629706Y-16745317D01*
X6629706Y-16745317D02*
X6753515Y-16745317D01*
X6810658Y-16611984D02*
X6943991Y-16611984D01*
X6943991Y-16611984D02*
X6858277Y-16811984D01*
X7010658Y-16631031D02*
X7020182Y-16621508D01*
X7020182Y-16621508D02*
X7039229Y-16611984D01*
X7039229Y-16611984D02*
X7086848Y-16611984D01*
X7086848Y-16611984D02*
X7105896Y-16621508D01*
X7105896Y-16621508D02*
X7115420Y-16631031D01*
X7115420Y-16631031D02*
X7124944Y-16650079D01*
X7124944Y-16650079D02*
X7124944Y-16669127D01*
X7124944Y-16669127D02*
X7115420Y-16697698D01*
X7115420Y-16697698D02*
X7001134Y-16811984D01*
X7001134Y-16811984D02*
X7124944Y-16811984D01*
X7201134Y-16611984D02*
X7201134Y-16650079D01*
X7277325Y-16611984D02*
X7277325Y-16650079D01*
X7572563Y-16888174D02*
X7563039Y-16878650D01*
X7563039Y-16878650D02*
X7543991Y-16850079D01*
X7543991Y-16850079D02*
X7534468Y-16831031D01*
X7534468Y-16831031D02*
X7524944Y-16802460D01*
X7524944Y-16802460D02*
X7515420Y-16754841D01*
X7515420Y-16754841D02*
X7515420Y-16716746D01*
X7515420Y-16716746D02*
X7524944Y-16669127D01*
X7524944Y-16669127D02*
X7534468Y-16640555D01*
X7534468Y-16640555D02*
X7543991Y-16621508D01*
X7543991Y-16621508D02*
X7563039Y-16592936D01*
X7563039Y-16592936D02*
X7572563Y-16583412D01*
X7639229Y-16631031D02*
X7648753Y-16621508D01*
X7648753Y-16621508D02*
X7667801Y-16611984D01*
X7667801Y-16611984D02*
X7715420Y-16611984D01*
X7715420Y-16611984D02*
X7734468Y-16621508D01*
X7734468Y-16621508D02*
X7743991Y-16631031D01*
X7743991Y-16631031D02*
X7753515Y-16650079D01*
X7753515Y-16650079D02*
X7753515Y-16669127D01*
X7753515Y-16669127D02*
X7743991Y-16697698D01*
X7743991Y-16697698D02*
X7629706Y-16811984D01*
X7629706Y-16811984D02*
X7753515Y-16811984D01*
X7924944Y-16678650D02*
X7924944Y-16811984D01*
X7877325Y-16602460D02*
X7829706Y-16745317D01*
X7829706Y-16745317D02*
X7953515Y-16745317D01*
X8182087Y-16811984D02*
X8182087Y-16611984D01*
X8267801Y-16811984D02*
X8267801Y-16707222D01*
X8267801Y-16707222D02*
X8258277Y-16688174D01*
X8258277Y-16688174D02*
X8239230Y-16678650D01*
X8239230Y-16678650D02*
X8210658Y-16678650D01*
X8210658Y-16678650D02*
X8191610Y-16688174D01*
X8191610Y-16688174D02*
X8182087Y-16697698D01*
X8391611Y-16811984D02*
X8372563Y-16802460D01*
X8372563Y-16802460D02*
X8363039Y-16792936D01*
X8363039Y-16792936D02*
X8353515Y-16773888D01*
X8353515Y-16773888D02*
X8353515Y-16716746D01*
X8353515Y-16716746D02*
X8363039Y-16697698D01*
X8363039Y-16697698D02*
X8372563Y-16688174D01*
X8372563Y-16688174D02*
X8391611Y-16678650D01*
X8391611Y-16678650D02*
X8420182Y-16678650D01*
X8420182Y-16678650D02*
X8439230Y-16688174D01*
X8439230Y-16688174D02*
X8448753Y-16697698D01*
X8448753Y-16697698D02*
X8458277Y-16716746D01*
X8458277Y-16716746D02*
X8458277Y-16773888D01*
X8458277Y-16773888D02*
X8448753Y-16792936D01*
X8448753Y-16792936D02*
X8439230Y-16802460D01*
X8439230Y-16802460D02*
X8420182Y-16811984D01*
X8420182Y-16811984D02*
X8391611Y-16811984D01*
X8572563Y-16811984D02*
X8553515Y-16802460D01*
X8553515Y-16802460D02*
X8543992Y-16783412D01*
X8543992Y-16783412D02*
X8543992Y-16611984D01*
X8724944Y-16802460D02*
X8705896Y-16811984D01*
X8705896Y-16811984D02*
X8667801Y-16811984D01*
X8667801Y-16811984D02*
X8648753Y-16802460D01*
X8648753Y-16802460D02*
X8639230Y-16783412D01*
X8639230Y-16783412D02*
X8639230Y-16707222D01*
X8639230Y-16707222D02*
X8648753Y-16688174D01*
X8648753Y-16688174D02*
X8667801Y-16678650D01*
X8667801Y-16678650D02*
X8705896Y-16678650D01*
X8705896Y-16678650D02*
X8724944Y-16688174D01*
X8724944Y-16688174D02*
X8734468Y-16707222D01*
X8734468Y-16707222D02*
X8734468Y-16726269D01*
X8734468Y-16726269D02*
X8639230Y-16745317D01*
X8810658Y-16802460D02*
X8829706Y-16811984D01*
X8829706Y-16811984D02*
X8867801Y-16811984D01*
X8867801Y-16811984D02*
X8886849Y-16802460D01*
X8886849Y-16802460D02*
X8896373Y-16783412D01*
X8896373Y-16783412D02*
X8896373Y-16773888D01*
X8896373Y-16773888D02*
X8886849Y-16754841D01*
X8886849Y-16754841D02*
X8867801Y-16745317D01*
X8867801Y-16745317D02*
X8839230Y-16745317D01*
X8839230Y-16745317D02*
X8820182Y-16735793D01*
X8820182Y-16735793D02*
X8810658Y-16716746D01*
X8810658Y-16716746D02*
X8810658Y-16707222D01*
X8810658Y-16707222D02*
X8820182Y-16688174D01*
X8820182Y-16688174D02*
X8839230Y-16678650D01*
X8839230Y-16678650D02*
X8867801Y-16678650D01*
X8867801Y-16678650D02*
X8886849Y-16688174D01*
X8963039Y-16888174D02*
X8972563Y-16878650D01*
X8972563Y-16878650D02*
X8991611Y-16850079D01*
X8991611Y-16850079D02*
X9001134Y-16831031D01*
X9001134Y-16831031D02*
X9010658Y-16802460D01*
X9010658Y-16802460D02*
X9020182Y-16754841D01*
X9020182Y-16754841D02*
X9020182Y-16716746D01*
X9020182Y-16716746D02*
X9010658Y-16669127D01*
X9010658Y-16669127D02*
X9001134Y-16640555D01*
X9001134Y-16640555D02*
X8991611Y-16621508D01*
X8991611Y-16621508D02*
X8972563Y-16592936D01*
X8972563Y-16592936D02*
X8963039Y-16583412D01*
D17*
X3857300Y-16914400D02*
X3997500Y-17054600D01*
X3997500Y-16914400D02*
X3857300Y-17054600D01*
X3927400Y-17054600D02*
X3997500Y-16984500D01*
X3927400Y-16914400D01*
X3857300Y-16984500D01*
X3927400Y-17054600D01*
D11*
X4363039Y-17075984D02*
X4248753Y-17075984D01*
X4305896Y-17075984D02*
X4305896Y-16875984D01*
X4305896Y-16875984D02*
X4286848Y-16904555D01*
X4286848Y-16904555D02*
X4267801Y-16923603D01*
X4267801Y-16923603D02*
X4248753Y-16933127D01*
X4448753Y-17056936D02*
X4458277Y-17066460D01*
X4458277Y-17066460D02*
X4448753Y-17075984D01*
X4448753Y-17075984D02*
X4439229Y-17066460D01*
X4439229Y-17066460D02*
X4448753Y-17056936D01*
X4448753Y-17056936D02*
X4448753Y-17075984D01*
X4629705Y-16942650D02*
X4629705Y-17075984D01*
X4582086Y-16866460D02*
X4534467Y-17009317D01*
X4534467Y-17009317D02*
X4658277Y-17009317D01*
X4772563Y-16875984D02*
X4791610Y-16875984D01*
X4791610Y-16875984D02*
X4810658Y-16885508D01*
X4810658Y-16885508D02*
X4820182Y-16895031D01*
X4820182Y-16895031D02*
X4829705Y-16914079D01*
X4829705Y-16914079D02*
X4839229Y-16952174D01*
X4839229Y-16952174D02*
X4839229Y-16999793D01*
X4839229Y-16999793D02*
X4829705Y-17037889D01*
X4829705Y-17037889D02*
X4820182Y-17056936D01*
X4820182Y-17056936D02*
X4810658Y-17066460D01*
X4810658Y-17066460D02*
X4791610Y-17075984D01*
X4791610Y-17075984D02*
X4772563Y-17075984D01*
X4772563Y-17075984D02*
X4753515Y-17066460D01*
X4753515Y-17066460D02*
X4743991Y-17056936D01*
X4743991Y-17056936D02*
X4734467Y-17037889D01*
X4734467Y-17037889D02*
X4724944Y-16999793D01*
X4724944Y-16999793D02*
X4724944Y-16952174D01*
X4724944Y-16952174D02*
X4734467Y-16914079D01*
X4734467Y-16914079D02*
X4743991Y-16895031D01*
X4743991Y-16895031D02*
X4753515Y-16885508D01*
X4753515Y-16885508D02*
X4772563Y-16875984D01*
X4915420Y-16895031D02*
X4924944Y-16885508D01*
X4924944Y-16885508D02*
X4943991Y-16875984D01*
X4943991Y-16875984D02*
X4991610Y-16875984D01*
X4991610Y-16875984D02*
X5010658Y-16885508D01*
X5010658Y-16885508D02*
X5020182Y-16895031D01*
X5020182Y-16895031D02*
X5029705Y-16914079D01*
X5029705Y-16914079D02*
X5029705Y-16933127D01*
X5029705Y-16933127D02*
X5020182Y-16961698D01*
X5020182Y-16961698D02*
X4905896Y-17075984D01*
X4905896Y-17075984D02*
X5029705Y-17075984D01*
X5115420Y-17075984D02*
X5115420Y-16942650D01*
X5115420Y-16961698D02*
X5124944Y-16952174D01*
X5124944Y-16952174D02*
X5143991Y-16942650D01*
X5143991Y-16942650D02*
X5172563Y-16942650D01*
X5172563Y-16942650D02*
X5191610Y-16952174D01*
X5191610Y-16952174D02*
X5201134Y-16971222D01*
X5201134Y-16971222D02*
X5201134Y-17075984D01*
X5201134Y-16971222D02*
X5210658Y-16952174D01*
X5210658Y-16952174D02*
X5229705Y-16942650D01*
X5229705Y-16942650D02*
X5258277Y-16942650D01*
X5258277Y-16942650D02*
X5277325Y-16952174D01*
X5277325Y-16952174D02*
X5286848Y-16971222D01*
X5286848Y-16971222D02*
X5286848Y-17075984D01*
X5382086Y-17075984D02*
X5382086Y-16942650D01*
X5382086Y-16961698D02*
X5391610Y-16952174D01*
X5391610Y-16952174D02*
X5410658Y-16942650D01*
X5410658Y-16942650D02*
X5439229Y-16942650D01*
X5439229Y-16942650D02*
X5458277Y-16952174D01*
X5458277Y-16952174D02*
X5467801Y-16971222D01*
X5467801Y-16971222D02*
X5467801Y-17075984D01*
X5467801Y-16971222D02*
X5477325Y-16952174D01*
X5477325Y-16952174D02*
X5496372Y-16942650D01*
X5496372Y-16942650D02*
X5524944Y-16942650D01*
X5524944Y-16942650D02*
X5543991Y-16952174D01*
X5543991Y-16952174D02*
X5553515Y-16971222D01*
X5553515Y-16971222D02*
X5553515Y-17075984D01*
X5943991Y-16866460D02*
X5772563Y-17123603D01*
X6201134Y-16875984D02*
X6220182Y-16875984D01*
X6220182Y-16875984D02*
X6239229Y-16885508D01*
X6239229Y-16885508D02*
X6248753Y-16895031D01*
X6248753Y-16895031D02*
X6258277Y-16914079D01*
X6258277Y-16914079D02*
X6267801Y-16952174D01*
X6267801Y-16952174D02*
X6267801Y-16999793D01*
X6267801Y-16999793D02*
X6258277Y-17037889D01*
X6258277Y-17037889D02*
X6248753Y-17056936D01*
X6248753Y-17056936D02*
X6239229Y-17066460D01*
X6239229Y-17066460D02*
X6220182Y-17075984D01*
X6220182Y-17075984D02*
X6201134Y-17075984D01*
X6201134Y-17075984D02*
X6182086Y-17066460D01*
X6182086Y-17066460D02*
X6172563Y-17056936D01*
X6172563Y-17056936D02*
X6163039Y-17037889D01*
X6163039Y-17037889D02*
X6153515Y-16999793D01*
X6153515Y-16999793D02*
X6153515Y-16952174D01*
X6153515Y-16952174D02*
X6163039Y-16914079D01*
X6163039Y-16914079D02*
X6172563Y-16895031D01*
X6172563Y-16895031D02*
X6182086Y-16885508D01*
X6182086Y-16885508D02*
X6201134Y-16875984D01*
X6353515Y-17056936D02*
X6363039Y-17066460D01*
X6363039Y-17066460D02*
X6353515Y-17075984D01*
X6353515Y-17075984D02*
X6343991Y-17066460D01*
X6343991Y-17066460D02*
X6353515Y-17056936D01*
X6353515Y-17056936D02*
X6353515Y-17075984D01*
X6486848Y-16875984D02*
X6505896Y-16875984D01*
X6505896Y-16875984D02*
X6524944Y-16885508D01*
X6524944Y-16885508D02*
X6534467Y-16895031D01*
X6534467Y-16895031D02*
X6543991Y-16914079D01*
X6543991Y-16914079D02*
X6553515Y-16952174D01*
X6553515Y-16952174D02*
X6553515Y-16999793D01*
X6553515Y-16999793D02*
X6543991Y-17037889D01*
X6543991Y-17037889D02*
X6534467Y-17056936D01*
X6534467Y-17056936D02*
X6524944Y-17066460D01*
X6524944Y-17066460D02*
X6505896Y-17075984D01*
X6505896Y-17075984D02*
X6486848Y-17075984D01*
X6486848Y-17075984D02*
X6467801Y-17066460D01*
X6467801Y-17066460D02*
X6458277Y-17056936D01*
X6458277Y-17056936D02*
X6448753Y-17037889D01*
X6448753Y-17037889D02*
X6439229Y-16999793D01*
X6439229Y-16999793D02*
X6439229Y-16952174D01*
X6439229Y-16952174D02*
X6448753Y-16914079D01*
X6448753Y-16914079D02*
X6458277Y-16895031D01*
X6458277Y-16895031D02*
X6467801Y-16885508D01*
X6467801Y-16885508D02*
X6486848Y-16875984D01*
X6734467Y-16875984D02*
X6639229Y-16875984D01*
X6639229Y-16875984D02*
X6629706Y-16971222D01*
X6629706Y-16971222D02*
X6639229Y-16961698D01*
X6639229Y-16961698D02*
X6658277Y-16952174D01*
X6658277Y-16952174D02*
X6705896Y-16952174D01*
X6705896Y-16952174D02*
X6724944Y-16961698D01*
X6724944Y-16961698D02*
X6734467Y-16971222D01*
X6734467Y-16971222D02*
X6743991Y-16990270D01*
X6743991Y-16990270D02*
X6743991Y-17037889D01*
X6743991Y-17037889D02*
X6734467Y-17056936D01*
X6734467Y-17056936D02*
X6724944Y-17066460D01*
X6724944Y-17066460D02*
X6705896Y-17075984D01*
X6705896Y-17075984D02*
X6658277Y-17075984D01*
X6658277Y-17075984D02*
X6639229Y-17066460D01*
X6639229Y-17066460D02*
X6629706Y-17056936D01*
X6924944Y-16875984D02*
X6829706Y-16875984D01*
X6829706Y-16875984D02*
X6820182Y-16971222D01*
X6820182Y-16971222D02*
X6829706Y-16961698D01*
X6829706Y-16961698D02*
X6848753Y-16952174D01*
X6848753Y-16952174D02*
X6896372Y-16952174D01*
X6896372Y-16952174D02*
X6915420Y-16961698D01*
X6915420Y-16961698D02*
X6924944Y-16971222D01*
X6924944Y-16971222D02*
X6934467Y-16990270D01*
X6934467Y-16990270D02*
X6934467Y-17037889D01*
X6934467Y-17037889D02*
X6924944Y-17056936D01*
X6924944Y-17056936D02*
X6915420Y-17066460D01*
X6915420Y-17066460D02*
X6896372Y-17075984D01*
X6896372Y-17075984D02*
X6848753Y-17075984D01*
X6848753Y-17075984D02*
X6829706Y-17066460D01*
X6829706Y-17066460D02*
X6820182Y-17056936D01*
X7010658Y-16895031D02*
X7020182Y-16885508D01*
X7020182Y-16885508D02*
X7039229Y-16875984D01*
X7039229Y-16875984D02*
X7086848Y-16875984D01*
X7086848Y-16875984D02*
X7105896Y-16885508D01*
X7105896Y-16885508D02*
X7115420Y-16895031D01*
X7115420Y-16895031D02*
X7124944Y-16914079D01*
X7124944Y-16914079D02*
X7124944Y-16933127D01*
X7124944Y-16933127D02*
X7115420Y-16961698D01*
X7115420Y-16961698D02*
X7001134Y-17075984D01*
X7001134Y-17075984D02*
X7124944Y-17075984D01*
X7201134Y-16875984D02*
X7201134Y-16914079D01*
X7277325Y-16875984D02*
X7277325Y-16914079D01*
X7572563Y-17152174D02*
X7563039Y-17142650D01*
X7563039Y-17142650D02*
X7543991Y-17114079D01*
X7543991Y-17114079D02*
X7534468Y-17095031D01*
X7534468Y-17095031D02*
X7524944Y-17066460D01*
X7524944Y-17066460D02*
X7515420Y-17018841D01*
X7515420Y-17018841D02*
X7515420Y-16980746D01*
X7515420Y-16980746D02*
X7524944Y-16933127D01*
X7524944Y-16933127D02*
X7534468Y-16904555D01*
X7534468Y-16904555D02*
X7543991Y-16885508D01*
X7543991Y-16885508D02*
X7563039Y-16856936D01*
X7563039Y-16856936D02*
X7572563Y-16847412D01*
X7734468Y-16942650D02*
X7734468Y-17075984D01*
X7686848Y-16866460D02*
X7639229Y-17009317D01*
X7639229Y-17009317D02*
X7763039Y-17009317D01*
X7991610Y-17075984D02*
X7991610Y-16875984D01*
X8077325Y-17075984D02*
X8077325Y-16971222D01*
X8077325Y-16971222D02*
X8067801Y-16952174D01*
X8067801Y-16952174D02*
X8048753Y-16942650D01*
X8048753Y-16942650D02*
X8020182Y-16942650D01*
X8020182Y-16942650D02*
X8001134Y-16952174D01*
X8001134Y-16952174D02*
X7991610Y-16961698D01*
X8201134Y-17075984D02*
X8182087Y-17066460D01*
X8182087Y-17066460D02*
X8172563Y-17056936D01*
X8172563Y-17056936D02*
X8163039Y-17037889D01*
X8163039Y-17037889D02*
X8163039Y-16980746D01*
X8163039Y-16980746D02*
X8172563Y-16961698D01*
X8172563Y-16961698D02*
X8182087Y-16952174D01*
X8182087Y-16952174D02*
X8201134Y-16942650D01*
X8201134Y-16942650D02*
X8229706Y-16942650D01*
X8229706Y-16942650D02*
X8248753Y-16952174D01*
X8248753Y-16952174D02*
X8258277Y-16961698D01*
X8258277Y-16961698D02*
X8267801Y-16980746D01*
X8267801Y-16980746D02*
X8267801Y-17037889D01*
X8267801Y-17037889D02*
X8258277Y-17056936D01*
X8258277Y-17056936D02*
X8248753Y-17066460D01*
X8248753Y-17066460D02*
X8229706Y-17075984D01*
X8229706Y-17075984D02*
X8201134Y-17075984D01*
X8382087Y-17075984D02*
X8363039Y-17066460D01*
X8363039Y-17066460D02*
X8353515Y-17047412D01*
X8353515Y-17047412D02*
X8353515Y-16875984D01*
X8534468Y-17066460D02*
X8515420Y-17075984D01*
X8515420Y-17075984D02*
X8477325Y-17075984D01*
X8477325Y-17075984D02*
X8458277Y-17066460D01*
X8458277Y-17066460D02*
X8448753Y-17047412D01*
X8448753Y-17047412D02*
X8448753Y-16971222D01*
X8448753Y-16971222D02*
X8458277Y-16952174D01*
X8458277Y-16952174D02*
X8477325Y-16942650D01*
X8477325Y-16942650D02*
X8515420Y-16942650D01*
X8515420Y-16942650D02*
X8534468Y-16952174D01*
X8534468Y-16952174D02*
X8543992Y-16971222D01*
X8543992Y-16971222D02*
X8543992Y-16990270D01*
X8543992Y-16990270D02*
X8448753Y-17009317D01*
X8620182Y-17066460D02*
X8639230Y-17075984D01*
X8639230Y-17075984D02*
X8677325Y-17075984D01*
X8677325Y-17075984D02*
X8696373Y-17066460D01*
X8696373Y-17066460D02*
X8705896Y-17047412D01*
X8705896Y-17047412D02*
X8705896Y-17037889D01*
X8705896Y-17037889D02*
X8696373Y-17018841D01*
X8696373Y-17018841D02*
X8677325Y-17009317D01*
X8677325Y-17009317D02*
X8648753Y-17009317D01*
X8648753Y-17009317D02*
X8629706Y-16999793D01*
X8629706Y-16999793D02*
X8620182Y-16980746D01*
X8620182Y-16980746D02*
X8620182Y-16971222D01*
X8620182Y-16971222D02*
X8629706Y-16952174D01*
X8629706Y-16952174D02*
X8648753Y-16942650D01*
X8648753Y-16942650D02*
X8677325Y-16942650D01*
X8677325Y-16942650D02*
X8696373Y-16952174D01*
X8772563Y-17152174D02*
X8782087Y-17142650D01*
X8782087Y-17142650D02*
X8801134Y-17114079D01*
X8801134Y-17114079D02*
X8810658Y-17095031D01*
X8810658Y-17095031D02*
X8820182Y-17066460D01*
X8820182Y-17066460D02*
X8829706Y-17018841D01*
X8829706Y-17018841D02*
X8829706Y-16980746D01*
X8829706Y-16980746D02*
X8820182Y-16933127D01*
X8820182Y-16933127D02*
X8810658Y-16904555D01*
X8810658Y-16904555D02*
X8801134Y-16885508D01*
X8801134Y-16885508D02*
X8782087Y-16856936D01*
X8782087Y-16856936D02*
X8772563Y-16847412D01*
D18*
X3922500Y-17173500D02*
X3922500Y-17323500D01*
X3847500Y-17248500D02*
X3997500Y-17248500D01*
X3997500Y-17248500D02*
G75*
G02*
X3847500Y-17248500I-75000J0D01*
G01*
X3847500Y-17248500D02*
G75*
G02*
X3997500Y-17248500I75000J0D01*
G01*
D11*
X4363039Y-17339984D02*
X4248753Y-17339984D01*
X4305896Y-17339984D02*
X4305896Y-17139984D01*
X4305896Y-17139984D02*
X4286848Y-17168555D01*
X4286848Y-17168555D02*
X4267801Y-17187603D01*
X4267801Y-17187603D02*
X4248753Y-17197127D01*
X4448753Y-17320936D02*
X4458277Y-17330460D01*
X4458277Y-17330460D02*
X4448753Y-17339984D01*
X4448753Y-17339984D02*
X4439229Y-17330460D01*
X4439229Y-17330460D02*
X4448753Y-17320936D01*
X4448753Y-17320936D02*
X4448753Y-17339984D01*
X4639229Y-17139984D02*
X4543991Y-17139984D01*
X4543991Y-17139984D02*
X4534467Y-17235222D01*
X4534467Y-17235222D02*
X4543991Y-17225698D01*
X4543991Y-17225698D02*
X4563039Y-17216174D01*
X4563039Y-17216174D02*
X4610658Y-17216174D01*
X4610658Y-17216174D02*
X4629705Y-17225698D01*
X4629705Y-17225698D02*
X4639229Y-17235222D01*
X4639229Y-17235222D02*
X4648753Y-17254270D01*
X4648753Y-17254270D02*
X4648753Y-17301889D01*
X4648753Y-17301889D02*
X4639229Y-17320936D01*
X4639229Y-17320936D02*
X4629705Y-17330460D01*
X4629705Y-17330460D02*
X4610658Y-17339984D01*
X4610658Y-17339984D02*
X4563039Y-17339984D01*
X4563039Y-17339984D02*
X4543991Y-17330460D01*
X4543991Y-17330460D02*
X4534467Y-17320936D01*
X4772563Y-17139984D02*
X4791610Y-17139984D01*
X4791610Y-17139984D02*
X4810658Y-17149508D01*
X4810658Y-17149508D02*
X4820182Y-17159031D01*
X4820182Y-17159031D02*
X4829705Y-17178079D01*
X4829705Y-17178079D02*
X4839229Y-17216174D01*
X4839229Y-17216174D02*
X4839229Y-17263793D01*
X4839229Y-17263793D02*
X4829705Y-17301889D01*
X4829705Y-17301889D02*
X4820182Y-17320936D01*
X4820182Y-17320936D02*
X4810658Y-17330460D01*
X4810658Y-17330460D02*
X4791610Y-17339984D01*
X4791610Y-17339984D02*
X4772563Y-17339984D01*
X4772563Y-17339984D02*
X4753515Y-17330460D01*
X4753515Y-17330460D02*
X4743991Y-17320936D01*
X4743991Y-17320936D02*
X4734467Y-17301889D01*
X4734467Y-17301889D02*
X4724944Y-17263793D01*
X4724944Y-17263793D02*
X4724944Y-17216174D01*
X4724944Y-17216174D02*
X4734467Y-17178079D01*
X4734467Y-17178079D02*
X4743991Y-17159031D01*
X4743991Y-17159031D02*
X4753515Y-17149508D01*
X4753515Y-17149508D02*
X4772563Y-17139984D01*
X4963039Y-17139984D02*
X4982086Y-17139984D01*
X4982086Y-17139984D02*
X5001134Y-17149508D01*
X5001134Y-17149508D02*
X5010658Y-17159031D01*
X5010658Y-17159031D02*
X5020182Y-17178079D01*
X5020182Y-17178079D02*
X5029705Y-17216174D01*
X5029705Y-17216174D02*
X5029705Y-17263793D01*
X5029705Y-17263793D02*
X5020182Y-17301889D01*
X5020182Y-17301889D02*
X5010658Y-17320936D01*
X5010658Y-17320936D02*
X5001134Y-17330460D01*
X5001134Y-17330460D02*
X4982086Y-17339984D01*
X4982086Y-17339984D02*
X4963039Y-17339984D01*
X4963039Y-17339984D02*
X4943991Y-17330460D01*
X4943991Y-17330460D02*
X4934467Y-17320936D01*
X4934467Y-17320936D02*
X4924944Y-17301889D01*
X4924944Y-17301889D02*
X4915420Y-17263793D01*
X4915420Y-17263793D02*
X4915420Y-17216174D01*
X4915420Y-17216174D02*
X4924944Y-17178079D01*
X4924944Y-17178079D02*
X4934467Y-17159031D01*
X4934467Y-17159031D02*
X4943991Y-17149508D01*
X4943991Y-17149508D02*
X4963039Y-17139984D01*
X5115420Y-17339984D02*
X5115420Y-17206650D01*
X5115420Y-17225698D02*
X5124944Y-17216174D01*
X5124944Y-17216174D02*
X5143991Y-17206650D01*
X5143991Y-17206650D02*
X5172563Y-17206650D01*
X5172563Y-17206650D02*
X5191610Y-17216174D01*
X5191610Y-17216174D02*
X5201134Y-17235222D01*
X5201134Y-17235222D02*
X5201134Y-17339984D01*
X5201134Y-17235222D02*
X5210658Y-17216174D01*
X5210658Y-17216174D02*
X5229705Y-17206650D01*
X5229705Y-17206650D02*
X5258277Y-17206650D01*
X5258277Y-17206650D02*
X5277325Y-17216174D01*
X5277325Y-17216174D02*
X5286848Y-17235222D01*
X5286848Y-17235222D02*
X5286848Y-17339984D01*
X5382086Y-17339984D02*
X5382086Y-17206650D01*
X5382086Y-17225698D02*
X5391610Y-17216174D01*
X5391610Y-17216174D02*
X5410658Y-17206650D01*
X5410658Y-17206650D02*
X5439229Y-17206650D01*
X5439229Y-17206650D02*
X5458277Y-17216174D01*
X5458277Y-17216174D02*
X5467801Y-17235222D01*
X5467801Y-17235222D02*
X5467801Y-17339984D01*
X5467801Y-17235222D02*
X5477325Y-17216174D01*
X5477325Y-17216174D02*
X5496372Y-17206650D01*
X5496372Y-17206650D02*
X5524944Y-17206650D01*
X5524944Y-17206650D02*
X5543991Y-17216174D01*
X5543991Y-17216174D02*
X5553515Y-17235222D01*
X5553515Y-17235222D02*
X5553515Y-17339984D01*
X5943991Y-17130460D02*
X5772563Y-17387603D01*
X6201134Y-17139984D02*
X6220182Y-17139984D01*
X6220182Y-17139984D02*
X6239229Y-17149508D01*
X6239229Y-17149508D02*
X6248753Y-17159031D01*
X6248753Y-17159031D02*
X6258277Y-17178079D01*
X6258277Y-17178079D02*
X6267801Y-17216174D01*
X6267801Y-17216174D02*
X6267801Y-17263793D01*
X6267801Y-17263793D02*
X6258277Y-17301889D01*
X6258277Y-17301889D02*
X6248753Y-17320936D01*
X6248753Y-17320936D02*
X6239229Y-17330460D01*
X6239229Y-17330460D02*
X6220182Y-17339984D01*
X6220182Y-17339984D02*
X6201134Y-17339984D01*
X6201134Y-17339984D02*
X6182086Y-17330460D01*
X6182086Y-17330460D02*
X6172563Y-17320936D01*
X6172563Y-17320936D02*
X6163039Y-17301889D01*
X6163039Y-17301889D02*
X6153515Y-17263793D01*
X6153515Y-17263793D02*
X6153515Y-17216174D01*
X6153515Y-17216174D02*
X6163039Y-17178079D01*
X6163039Y-17178079D02*
X6172563Y-17159031D01*
X6172563Y-17159031D02*
X6182086Y-17149508D01*
X6182086Y-17149508D02*
X6201134Y-17139984D01*
X6353515Y-17320936D02*
X6363039Y-17330460D01*
X6363039Y-17330460D02*
X6353515Y-17339984D01*
X6353515Y-17339984D02*
X6343991Y-17330460D01*
X6343991Y-17330460D02*
X6353515Y-17320936D01*
X6353515Y-17320936D02*
X6353515Y-17339984D01*
X6486848Y-17139984D02*
X6505896Y-17139984D01*
X6505896Y-17139984D02*
X6524944Y-17149508D01*
X6524944Y-17149508D02*
X6534467Y-17159031D01*
X6534467Y-17159031D02*
X6543991Y-17178079D01*
X6543991Y-17178079D02*
X6553515Y-17216174D01*
X6553515Y-17216174D02*
X6553515Y-17263793D01*
X6553515Y-17263793D02*
X6543991Y-17301889D01*
X6543991Y-17301889D02*
X6534467Y-17320936D01*
X6534467Y-17320936D02*
X6524944Y-17330460D01*
X6524944Y-17330460D02*
X6505896Y-17339984D01*
X6505896Y-17339984D02*
X6486848Y-17339984D01*
X6486848Y-17339984D02*
X6467801Y-17330460D01*
X6467801Y-17330460D02*
X6458277Y-17320936D01*
X6458277Y-17320936D02*
X6448753Y-17301889D01*
X6448753Y-17301889D02*
X6439229Y-17263793D01*
X6439229Y-17263793D02*
X6439229Y-17216174D01*
X6439229Y-17216174D02*
X6448753Y-17178079D01*
X6448753Y-17178079D02*
X6458277Y-17159031D01*
X6458277Y-17159031D02*
X6467801Y-17149508D01*
X6467801Y-17149508D02*
X6486848Y-17139984D01*
X6734467Y-17139984D02*
X6639229Y-17139984D01*
X6639229Y-17139984D02*
X6629706Y-17235222D01*
X6629706Y-17235222D02*
X6639229Y-17225698D01*
X6639229Y-17225698D02*
X6658277Y-17216174D01*
X6658277Y-17216174D02*
X6705896Y-17216174D01*
X6705896Y-17216174D02*
X6724944Y-17225698D01*
X6724944Y-17225698D02*
X6734467Y-17235222D01*
X6734467Y-17235222D02*
X6743991Y-17254270D01*
X6743991Y-17254270D02*
X6743991Y-17301889D01*
X6743991Y-17301889D02*
X6734467Y-17320936D01*
X6734467Y-17320936D02*
X6724944Y-17330460D01*
X6724944Y-17330460D02*
X6705896Y-17339984D01*
X6705896Y-17339984D02*
X6658277Y-17339984D01*
X6658277Y-17339984D02*
X6639229Y-17330460D01*
X6639229Y-17330460D02*
X6629706Y-17320936D01*
X6839229Y-17339984D02*
X6877325Y-17339984D01*
X6877325Y-17339984D02*
X6896372Y-17330460D01*
X6896372Y-17330460D02*
X6905896Y-17320936D01*
X6905896Y-17320936D02*
X6924944Y-17292365D01*
X6924944Y-17292365D02*
X6934467Y-17254270D01*
X6934467Y-17254270D02*
X6934467Y-17178079D01*
X6934467Y-17178079D02*
X6924944Y-17159031D01*
X6924944Y-17159031D02*
X6915420Y-17149508D01*
X6915420Y-17149508D02*
X6896372Y-17139984D01*
X6896372Y-17139984D02*
X6858277Y-17139984D01*
X6858277Y-17139984D02*
X6839229Y-17149508D01*
X6839229Y-17149508D02*
X6829706Y-17159031D01*
X6829706Y-17159031D02*
X6820182Y-17178079D01*
X6820182Y-17178079D02*
X6820182Y-17225698D01*
X6820182Y-17225698D02*
X6829706Y-17244746D01*
X6829706Y-17244746D02*
X6839229Y-17254270D01*
X6839229Y-17254270D02*
X6858277Y-17263793D01*
X6858277Y-17263793D02*
X6896372Y-17263793D01*
X6896372Y-17263793D02*
X6915420Y-17254270D01*
X6915420Y-17254270D02*
X6924944Y-17244746D01*
X6924944Y-17244746D02*
X6934467Y-17225698D01*
X7124944Y-17339984D02*
X7010658Y-17339984D01*
X7067801Y-17339984D02*
X7067801Y-17139984D01*
X7067801Y-17139984D02*
X7048753Y-17168555D01*
X7048753Y-17168555D02*
X7029706Y-17187603D01*
X7029706Y-17187603D02*
X7010658Y-17197127D01*
X7201134Y-17139984D02*
X7201134Y-17178079D01*
X7277325Y-17139984D02*
X7277325Y-17178079D01*
X7572563Y-17416174D02*
X7563039Y-17406650D01*
X7563039Y-17406650D02*
X7543991Y-17378079D01*
X7543991Y-17378079D02*
X7534468Y-17359031D01*
X7534468Y-17359031D02*
X7524944Y-17330460D01*
X7524944Y-17330460D02*
X7515420Y-17282841D01*
X7515420Y-17282841D02*
X7515420Y-17244746D01*
X7515420Y-17244746D02*
X7524944Y-17197127D01*
X7524944Y-17197127D02*
X7534468Y-17168555D01*
X7534468Y-17168555D02*
X7543991Y-17149508D01*
X7543991Y-17149508D02*
X7563039Y-17120936D01*
X7563039Y-17120936D02*
X7572563Y-17111412D01*
X7639229Y-17159031D02*
X7648753Y-17149508D01*
X7648753Y-17149508D02*
X7667801Y-17139984D01*
X7667801Y-17139984D02*
X7715420Y-17139984D01*
X7715420Y-17139984D02*
X7734468Y-17149508D01*
X7734468Y-17149508D02*
X7743991Y-17159031D01*
X7743991Y-17159031D02*
X7753515Y-17178079D01*
X7753515Y-17178079D02*
X7753515Y-17197127D01*
X7753515Y-17197127D02*
X7743991Y-17225698D01*
X7743991Y-17225698D02*
X7629706Y-17339984D01*
X7629706Y-17339984D02*
X7753515Y-17339984D01*
X7934468Y-17139984D02*
X7839229Y-17139984D01*
X7839229Y-17139984D02*
X7829706Y-17235222D01*
X7829706Y-17235222D02*
X7839229Y-17225698D01*
X7839229Y-17225698D02*
X7858277Y-17216174D01*
X7858277Y-17216174D02*
X7905896Y-17216174D01*
X7905896Y-17216174D02*
X7924944Y-17225698D01*
X7924944Y-17225698D02*
X7934468Y-17235222D01*
X7934468Y-17235222D02*
X7943991Y-17254270D01*
X7943991Y-17254270D02*
X7943991Y-17301889D01*
X7943991Y-17301889D02*
X7934468Y-17320936D01*
X7934468Y-17320936D02*
X7924944Y-17330460D01*
X7924944Y-17330460D02*
X7905896Y-17339984D01*
X7905896Y-17339984D02*
X7858277Y-17339984D01*
X7858277Y-17339984D02*
X7839229Y-17330460D01*
X7839229Y-17330460D02*
X7829706Y-17320936D01*
X8182087Y-17339984D02*
X8182087Y-17139984D01*
X8267801Y-17339984D02*
X8267801Y-17235222D01*
X8267801Y-17235222D02*
X8258277Y-17216174D01*
X8258277Y-17216174D02*
X8239230Y-17206650D01*
X8239230Y-17206650D02*
X8210658Y-17206650D01*
X8210658Y-17206650D02*
X8191610Y-17216174D01*
X8191610Y-17216174D02*
X8182087Y-17225698D01*
X8391611Y-17339984D02*
X8372563Y-17330460D01*
X8372563Y-17330460D02*
X8363039Y-17320936D01*
X8363039Y-17320936D02*
X8353515Y-17301889D01*
X8353515Y-17301889D02*
X8353515Y-17244746D01*
X8353515Y-17244746D02*
X8363039Y-17225698D01*
X8363039Y-17225698D02*
X8372563Y-17216174D01*
X8372563Y-17216174D02*
X8391611Y-17206650D01*
X8391611Y-17206650D02*
X8420182Y-17206650D01*
X8420182Y-17206650D02*
X8439230Y-17216174D01*
X8439230Y-17216174D02*
X8448753Y-17225698D01*
X8448753Y-17225698D02*
X8458277Y-17244746D01*
X8458277Y-17244746D02*
X8458277Y-17301889D01*
X8458277Y-17301889D02*
X8448753Y-17320936D01*
X8448753Y-17320936D02*
X8439230Y-17330460D01*
X8439230Y-17330460D02*
X8420182Y-17339984D01*
X8420182Y-17339984D02*
X8391611Y-17339984D01*
X8572563Y-17339984D02*
X8553515Y-17330460D01*
X8553515Y-17330460D02*
X8543992Y-17311412D01*
X8543992Y-17311412D02*
X8543992Y-17139984D01*
X8724944Y-17330460D02*
X8705896Y-17339984D01*
X8705896Y-17339984D02*
X8667801Y-17339984D01*
X8667801Y-17339984D02*
X8648753Y-17330460D01*
X8648753Y-17330460D02*
X8639230Y-17311412D01*
X8639230Y-17311412D02*
X8639230Y-17235222D01*
X8639230Y-17235222D02*
X8648753Y-17216174D01*
X8648753Y-17216174D02*
X8667801Y-17206650D01*
X8667801Y-17206650D02*
X8705896Y-17206650D01*
X8705896Y-17206650D02*
X8724944Y-17216174D01*
X8724944Y-17216174D02*
X8734468Y-17235222D01*
X8734468Y-17235222D02*
X8734468Y-17254270D01*
X8734468Y-17254270D02*
X8639230Y-17273317D01*
X8810658Y-17330460D02*
X8829706Y-17339984D01*
X8829706Y-17339984D02*
X8867801Y-17339984D01*
X8867801Y-17339984D02*
X8886849Y-17330460D01*
X8886849Y-17330460D02*
X8896373Y-17311412D01*
X8896373Y-17311412D02*
X8896373Y-17301889D01*
X8896373Y-17301889D02*
X8886849Y-17282841D01*
X8886849Y-17282841D02*
X8867801Y-17273317D01*
X8867801Y-17273317D02*
X8839230Y-17273317D01*
X8839230Y-17273317D02*
X8820182Y-17263793D01*
X8820182Y-17263793D02*
X8810658Y-17244746D01*
X8810658Y-17244746D02*
X8810658Y-17235222D01*
X8810658Y-17235222D02*
X8820182Y-17216174D01*
X8820182Y-17216174D02*
X8839230Y-17206650D01*
X8839230Y-17206650D02*
X8867801Y-17206650D01*
X8867801Y-17206650D02*
X8886849Y-17216174D01*
X8963039Y-17416174D02*
X8972563Y-17406650D01*
X8972563Y-17406650D02*
X8991611Y-17378079D01*
X8991611Y-17378079D02*
X9001134Y-17359031D01*
X9001134Y-17359031D02*
X9010658Y-17330460D01*
X9010658Y-17330460D02*
X9020182Y-17282841D01*
X9020182Y-17282841D02*
X9020182Y-17244746D01*
X9020182Y-17244746D02*
X9010658Y-17197127D01*
X9010658Y-17197127D02*
X9001134Y-17168555D01*
X9001134Y-17168555D02*
X8991611Y-17149508D01*
X8991611Y-17149508D02*
X8972563Y-17120936D01*
X8972563Y-17120936D02*
X8963039Y-17111412D01*
X3968211Y-17589211D02*
X3968211Y-17447789D01*
X3826789Y-17447789D01*
X3826789Y-17589211D01*
X3968211Y-17589211D01*
X3997500Y-17518500D02*
G75*
G02*
X3797500Y-17518500I-100000J0D01*
G01*
X3797500Y-17518500D02*
G75*
G02*
X3997500Y-17518500I100000J0D01*
G01*
X4248753Y-17429031D02*
X4258277Y-17419508D01*
X4258277Y-17419508D02*
X4277324Y-17409984D01*
X4277324Y-17409984D02*
X4324944Y-17409984D01*
X4324944Y-17409984D02*
X4343991Y-17419508D01*
X4343991Y-17419508D02*
X4353515Y-17429031D01*
X4353515Y-17429031D02*
X4363039Y-17448079D01*
X4363039Y-17448079D02*
X4363039Y-17467127D01*
X4363039Y-17467127D02*
X4353515Y-17495698D01*
X4353515Y-17495698D02*
X4239229Y-17609984D01*
X4239229Y-17609984D02*
X4363039Y-17609984D01*
X4448753Y-17590936D02*
X4458277Y-17600460D01*
X4458277Y-17600460D02*
X4448753Y-17609984D01*
X4448753Y-17609984D02*
X4439229Y-17600460D01*
X4439229Y-17600460D02*
X4448753Y-17590936D01*
X4448753Y-17590936D02*
X4448753Y-17609984D01*
X4582086Y-17409984D02*
X4601134Y-17409984D01*
X4601134Y-17409984D02*
X4620182Y-17419508D01*
X4620182Y-17419508D02*
X4629705Y-17429031D01*
X4629705Y-17429031D02*
X4639229Y-17448079D01*
X4639229Y-17448079D02*
X4648753Y-17486174D01*
X4648753Y-17486174D02*
X4648753Y-17533793D01*
X4648753Y-17533793D02*
X4639229Y-17571889D01*
X4639229Y-17571889D02*
X4629705Y-17590936D01*
X4629705Y-17590936D02*
X4620182Y-17600460D01*
X4620182Y-17600460D02*
X4601134Y-17609984D01*
X4601134Y-17609984D02*
X4582086Y-17609984D01*
X4582086Y-17609984D02*
X4563039Y-17600460D01*
X4563039Y-17600460D02*
X4553515Y-17590936D01*
X4553515Y-17590936D02*
X4543991Y-17571889D01*
X4543991Y-17571889D02*
X4534467Y-17533793D01*
X4534467Y-17533793D02*
X4534467Y-17486174D01*
X4534467Y-17486174D02*
X4543991Y-17448079D01*
X4543991Y-17448079D02*
X4553515Y-17429031D01*
X4553515Y-17429031D02*
X4563039Y-17419508D01*
X4563039Y-17419508D02*
X4582086Y-17409984D01*
X4772563Y-17409984D02*
X4791610Y-17409984D01*
X4791610Y-17409984D02*
X4810658Y-17419508D01*
X4810658Y-17419508D02*
X4820182Y-17429031D01*
X4820182Y-17429031D02*
X4829705Y-17448079D01*
X4829705Y-17448079D02*
X4839229Y-17486174D01*
X4839229Y-17486174D02*
X4839229Y-17533793D01*
X4839229Y-17533793D02*
X4829705Y-17571889D01*
X4829705Y-17571889D02*
X4820182Y-17590936D01*
X4820182Y-17590936D02*
X4810658Y-17600460D01*
X4810658Y-17600460D02*
X4791610Y-17609984D01*
X4791610Y-17609984D02*
X4772563Y-17609984D01*
X4772563Y-17609984D02*
X4753515Y-17600460D01*
X4753515Y-17600460D02*
X4743991Y-17590936D01*
X4743991Y-17590936D02*
X4734467Y-17571889D01*
X4734467Y-17571889D02*
X4724944Y-17533793D01*
X4724944Y-17533793D02*
X4724944Y-17486174D01*
X4724944Y-17486174D02*
X4734467Y-17448079D01*
X4734467Y-17448079D02*
X4743991Y-17429031D01*
X4743991Y-17429031D02*
X4753515Y-17419508D01*
X4753515Y-17419508D02*
X4772563Y-17409984D01*
X4963039Y-17409984D02*
X4982086Y-17409984D01*
X4982086Y-17409984D02*
X5001134Y-17419508D01*
X5001134Y-17419508D02*
X5010658Y-17429031D01*
X5010658Y-17429031D02*
X5020182Y-17448079D01*
X5020182Y-17448079D02*
X5029705Y-17486174D01*
X5029705Y-17486174D02*
X5029705Y-17533793D01*
X5029705Y-17533793D02*
X5020182Y-17571889D01*
X5020182Y-17571889D02*
X5010658Y-17590936D01*
X5010658Y-17590936D02*
X5001134Y-17600460D01*
X5001134Y-17600460D02*
X4982086Y-17609984D01*
X4982086Y-17609984D02*
X4963039Y-17609984D01*
X4963039Y-17609984D02*
X4943991Y-17600460D01*
X4943991Y-17600460D02*
X4934467Y-17590936D01*
X4934467Y-17590936D02*
X4924944Y-17571889D01*
X4924944Y-17571889D02*
X4915420Y-17533793D01*
X4915420Y-17533793D02*
X4915420Y-17486174D01*
X4915420Y-17486174D02*
X4924944Y-17448079D01*
X4924944Y-17448079D02*
X4934467Y-17429031D01*
X4934467Y-17429031D02*
X4943991Y-17419508D01*
X4943991Y-17419508D02*
X4963039Y-17409984D01*
X5115420Y-17609984D02*
X5115420Y-17476650D01*
X5115420Y-17495698D02*
X5124944Y-17486174D01*
X5124944Y-17486174D02*
X5143991Y-17476650D01*
X5143991Y-17476650D02*
X5172563Y-17476650D01*
X5172563Y-17476650D02*
X5191610Y-17486174D01*
X5191610Y-17486174D02*
X5201134Y-17505222D01*
X5201134Y-17505222D02*
X5201134Y-17609984D01*
X5201134Y-17505222D02*
X5210658Y-17486174D01*
X5210658Y-17486174D02*
X5229705Y-17476650D01*
X5229705Y-17476650D02*
X5258277Y-17476650D01*
X5258277Y-17476650D02*
X5277325Y-17486174D01*
X5277325Y-17486174D02*
X5286848Y-17505222D01*
X5286848Y-17505222D02*
X5286848Y-17609984D01*
X5382086Y-17609984D02*
X5382086Y-17476650D01*
X5382086Y-17495698D02*
X5391610Y-17486174D01*
X5391610Y-17486174D02*
X5410658Y-17476650D01*
X5410658Y-17476650D02*
X5439229Y-17476650D01*
X5439229Y-17476650D02*
X5458277Y-17486174D01*
X5458277Y-17486174D02*
X5467801Y-17505222D01*
X5467801Y-17505222D02*
X5467801Y-17609984D01*
X5467801Y-17505222D02*
X5477325Y-17486174D01*
X5477325Y-17486174D02*
X5496372Y-17476650D01*
X5496372Y-17476650D02*
X5524944Y-17476650D01*
X5524944Y-17476650D02*
X5543991Y-17486174D01*
X5543991Y-17486174D02*
X5553515Y-17505222D01*
X5553515Y-17505222D02*
X5553515Y-17609984D01*
X5943991Y-17400460D02*
X5772563Y-17657603D01*
X6201134Y-17409984D02*
X6220182Y-17409984D01*
X6220182Y-17409984D02*
X6239229Y-17419508D01*
X6239229Y-17419508D02*
X6248753Y-17429031D01*
X6248753Y-17429031D02*
X6258277Y-17448079D01*
X6258277Y-17448079D02*
X6267801Y-17486174D01*
X6267801Y-17486174D02*
X6267801Y-17533793D01*
X6267801Y-17533793D02*
X6258277Y-17571889D01*
X6258277Y-17571889D02*
X6248753Y-17590936D01*
X6248753Y-17590936D02*
X6239229Y-17600460D01*
X6239229Y-17600460D02*
X6220182Y-17609984D01*
X6220182Y-17609984D02*
X6201134Y-17609984D01*
X6201134Y-17609984D02*
X6182086Y-17600460D01*
X6182086Y-17600460D02*
X6172563Y-17590936D01*
X6172563Y-17590936D02*
X6163039Y-17571889D01*
X6163039Y-17571889D02*
X6153515Y-17533793D01*
X6153515Y-17533793D02*
X6153515Y-17486174D01*
X6153515Y-17486174D02*
X6163039Y-17448079D01*
X6163039Y-17448079D02*
X6172563Y-17429031D01*
X6172563Y-17429031D02*
X6182086Y-17419508D01*
X6182086Y-17419508D02*
X6201134Y-17409984D01*
X6353515Y-17590936D02*
X6363039Y-17600460D01*
X6363039Y-17600460D02*
X6353515Y-17609984D01*
X6353515Y-17609984D02*
X6343991Y-17600460D01*
X6343991Y-17600460D02*
X6353515Y-17590936D01*
X6353515Y-17590936D02*
X6353515Y-17609984D01*
X6486848Y-17409984D02*
X6505896Y-17409984D01*
X6505896Y-17409984D02*
X6524944Y-17419508D01*
X6524944Y-17419508D02*
X6534467Y-17429031D01*
X6534467Y-17429031D02*
X6543991Y-17448079D01*
X6543991Y-17448079D02*
X6553515Y-17486174D01*
X6553515Y-17486174D02*
X6553515Y-17533793D01*
X6553515Y-17533793D02*
X6543991Y-17571889D01*
X6543991Y-17571889D02*
X6534467Y-17590936D01*
X6534467Y-17590936D02*
X6524944Y-17600460D01*
X6524944Y-17600460D02*
X6505896Y-17609984D01*
X6505896Y-17609984D02*
X6486848Y-17609984D01*
X6486848Y-17609984D02*
X6467801Y-17600460D01*
X6467801Y-17600460D02*
X6458277Y-17590936D01*
X6458277Y-17590936D02*
X6448753Y-17571889D01*
X6448753Y-17571889D02*
X6439229Y-17533793D01*
X6439229Y-17533793D02*
X6439229Y-17486174D01*
X6439229Y-17486174D02*
X6448753Y-17448079D01*
X6448753Y-17448079D02*
X6458277Y-17429031D01*
X6458277Y-17429031D02*
X6467801Y-17419508D01*
X6467801Y-17419508D02*
X6486848Y-17409984D01*
X6620182Y-17409984D02*
X6753515Y-17409984D01*
X6753515Y-17409984D02*
X6667801Y-17609984D01*
X6858277Y-17495698D02*
X6839229Y-17486174D01*
X6839229Y-17486174D02*
X6829706Y-17476650D01*
X6829706Y-17476650D02*
X6820182Y-17457603D01*
X6820182Y-17457603D02*
X6820182Y-17448079D01*
X6820182Y-17448079D02*
X6829706Y-17429031D01*
X6829706Y-17429031D02*
X6839229Y-17419508D01*
X6839229Y-17419508D02*
X6858277Y-17409984D01*
X6858277Y-17409984D02*
X6896372Y-17409984D01*
X6896372Y-17409984D02*
X6915420Y-17419508D01*
X6915420Y-17419508D02*
X6924944Y-17429031D01*
X6924944Y-17429031D02*
X6934467Y-17448079D01*
X6934467Y-17448079D02*
X6934467Y-17457603D01*
X6934467Y-17457603D02*
X6924944Y-17476650D01*
X6924944Y-17476650D02*
X6915420Y-17486174D01*
X6915420Y-17486174D02*
X6896372Y-17495698D01*
X6896372Y-17495698D02*
X6858277Y-17495698D01*
X6858277Y-17495698D02*
X6839229Y-17505222D01*
X6839229Y-17505222D02*
X6829706Y-17514746D01*
X6829706Y-17514746D02*
X6820182Y-17533793D01*
X6820182Y-17533793D02*
X6820182Y-17571889D01*
X6820182Y-17571889D02*
X6829706Y-17590936D01*
X6829706Y-17590936D02*
X6839229Y-17600460D01*
X6839229Y-17600460D02*
X6858277Y-17609984D01*
X6858277Y-17609984D02*
X6896372Y-17609984D01*
X6896372Y-17609984D02*
X6915420Y-17600460D01*
X6915420Y-17600460D02*
X6924944Y-17590936D01*
X6924944Y-17590936D02*
X6934467Y-17571889D01*
X6934467Y-17571889D02*
X6934467Y-17533793D01*
X6934467Y-17533793D02*
X6924944Y-17514746D01*
X6924944Y-17514746D02*
X6915420Y-17505222D01*
X6915420Y-17505222D02*
X6896372Y-17495698D01*
X7001134Y-17409984D02*
X7134467Y-17409984D01*
X7134467Y-17409984D02*
X7048753Y-17609984D01*
X7201134Y-17409984D02*
X7201134Y-17448079D01*
X7277325Y-17409984D02*
X7277325Y-17448079D01*
X7572563Y-17686174D02*
X7563039Y-17676650D01*
X7563039Y-17676650D02*
X7543991Y-17648079D01*
X7543991Y-17648079D02*
X7534468Y-17629031D01*
X7534468Y-17629031D02*
X7524944Y-17600460D01*
X7524944Y-17600460D02*
X7515420Y-17552841D01*
X7515420Y-17552841D02*
X7515420Y-17514746D01*
X7515420Y-17514746D02*
X7524944Y-17467127D01*
X7524944Y-17467127D02*
X7534468Y-17438555D01*
X7534468Y-17438555D02*
X7543991Y-17419508D01*
X7543991Y-17419508D02*
X7563039Y-17390936D01*
X7563039Y-17390936D02*
X7572563Y-17381412D01*
X7686848Y-17409984D02*
X7705896Y-17409984D01*
X7705896Y-17409984D02*
X7724944Y-17419508D01*
X7724944Y-17419508D02*
X7734468Y-17429031D01*
X7734468Y-17429031D02*
X7743991Y-17448079D01*
X7743991Y-17448079D02*
X7753515Y-17486174D01*
X7753515Y-17486174D02*
X7753515Y-17533793D01*
X7753515Y-17533793D02*
X7743991Y-17571889D01*
X7743991Y-17571889D02*
X7734468Y-17590936D01*
X7734468Y-17590936D02*
X7724944Y-17600460D01*
X7724944Y-17600460D02*
X7705896Y-17609984D01*
X7705896Y-17609984D02*
X7686848Y-17609984D01*
X7686848Y-17609984D02*
X7667801Y-17600460D01*
X7667801Y-17600460D02*
X7658277Y-17590936D01*
X7658277Y-17590936D02*
X7648753Y-17571889D01*
X7648753Y-17571889D02*
X7639229Y-17533793D01*
X7639229Y-17533793D02*
X7639229Y-17486174D01*
X7639229Y-17486174D02*
X7648753Y-17448079D01*
X7648753Y-17448079D02*
X7658277Y-17429031D01*
X7658277Y-17429031D02*
X7667801Y-17419508D01*
X7667801Y-17419508D02*
X7686848Y-17409984D01*
X7991610Y-17609984D02*
X7991610Y-17409984D01*
X8077325Y-17609984D02*
X8077325Y-17505222D01*
X8077325Y-17505222D02*
X8067801Y-17486174D01*
X8067801Y-17486174D02*
X8048753Y-17476650D01*
X8048753Y-17476650D02*
X8020182Y-17476650D01*
X8020182Y-17476650D02*
X8001134Y-17486174D01*
X8001134Y-17486174D02*
X7991610Y-17495698D01*
X8201134Y-17609984D02*
X8182087Y-17600460D01*
X8182087Y-17600460D02*
X8172563Y-17590936D01*
X8172563Y-17590936D02*
X8163039Y-17571889D01*
X8163039Y-17571889D02*
X8163039Y-17514746D01*
X8163039Y-17514746D02*
X8172563Y-17495698D01*
X8172563Y-17495698D02*
X8182087Y-17486174D01*
X8182087Y-17486174D02*
X8201134Y-17476650D01*
X8201134Y-17476650D02*
X8229706Y-17476650D01*
X8229706Y-17476650D02*
X8248753Y-17486174D01*
X8248753Y-17486174D02*
X8258277Y-17495698D01*
X8258277Y-17495698D02*
X8267801Y-17514746D01*
X8267801Y-17514746D02*
X8267801Y-17571889D01*
X8267801Y-17571889D02*
X8258277Y-17590936D01*
X8258277Y-17590936D02*
X8248753Y-17600460D01*
X8248753Y-17600460D02*
X8229706Y-17609984D01*
X8229706Y-17609984D02*
X8201134Y-17609984D01*
X8382087Y-17609984D02*
X8363039Y-17600460D01*
X8363039Y-17600460D02*
X8353515Y-17581412D01*
X8353515Y-17581412D02*
X8353515Y-17409984D01*
X8534468Y-17600460D02*
X8515420Y-17609984D01*
X8515420Y-17609984D02*
X8477325Y-17609984D01*
X8477325Y-17609984D02*
X8458277Y-17600460D01*
X8458277Y-17600460D02*
X8448753Y-17581412D01*
X8448753Y-17581412D02*
X8448753Y-17505222D01*
X8448753Y-17505222D02*
X8458277Y-17486174D01*
X8458277Y-17486174D02*
X8477325Y-17476650D01*
X8477325Y-17476650D02*
X8515420Y-17476650D01*
X8515420Y-17476650D02*
X8534468Y-17486174D01*
X8534468Y-17486174D02*
X8543992Y-17505222D01*
X8543992Y-17505222D02*
X8543992Y-17524270D01*
X8543992Y-17524270D02*
X8448753Y-17543317D01*
X8620182Y-17600460D02*
X8639230Y-17609984D01*
X8639230Y-17609984D02*
X8677325Y-17609984D01*
X8677325Y-17609984D02*
X8696373Y-17600460D01*
X8696373Y-17600460D02*
X8705896Y-17581412D01*
X8705896Y-17581412D02*
X8705896Y-17571889D01*
X8705896Y-17571889D02*
X8696373Y-17552841D01*
X8696373Y-17552841D02*
X8677325Y-17543317D01*
X8677325Y-17543317D02*
X8648753Y-17543317D01*
X8648753Y-17543317D02*
X8629706Y-17533793D01*
X8629706Y-17533793D02*
X8620182Y-17514746D01*
X8620182Y-17514746D02*
X8620182Y-17505222D01*
X8620182Y-17505222D02*
X8629706Y-17486174D01*
X8629706Y-17486174D02*
X8648753Y-17476650D01*
X8648753Y-17476650D02*
X8677325Y-17476650D01*
X8677325Y-17476650D02*
X8696373Y-17486174D01*
X8943992Y-17533793D02*
X9096373Y-17533793D01*
X9020182Y-17609984D02*
X9020182Y-17457603D01*
X9429706Y-17476650D02*
X9429706Y-17609984D01*
X9382087Y-17400460D02*
X9334468Y-17543317D01*
X9334468Y-17543317D02*
X9458277Y-17543317D01*
X9677325Y-17600460D02*
X9696373Y-17609984D01*
X9696373Y-17609984D02*
X9734468Y-17609984D01*
X9734468Y-17609984D02*
X9753516Y-17600460D01*
X9753516Y-17600460D02*
X9763039Y-17581412D01*
X9763039Y-17581412D02*
X9763039Y-17571889D01*
X9763039Y-17571889D02*
X9753516Y-17552841D01*
X9753516Y-17552841D02*
X9734468Y-17543317D01*
X9734468Y-17543317D02*
X9705896Y-17543317D01*
X9705896Y-17543317D02*
X9686849Y-17533793D01*
X9686849Y-17533793D02*
X9677325Y-17514746D01*
X9677325Y-17514746D02*
X9677325Y-17505222D01*
X9677325Y-17505222D02*
X9686849Y-17486174D01*
X9686849Y-17486174D02*
X9705896Y-17476650D01*
X9705896Y-17476650D02*
X9734468Y-17476650D01*
X9734468Y-17476650D02*
X9753516Y-17486174D01*
X9877325Y-17609984D02*
X9858277Y-17600460D01*
X9858277Y-17600460D02*
X9848754Y-17581412D01*
X9848754Y-17581412D02*
X9848754Y-17409984D01*
X9982087Y-17609984D02*
X9963039Y-17600460D01*
X9963039Y-17600460D02*
X9953516Y-17590936D01*
X9953516Y-17590936D02*
X9943992Y-17571889D01*
X9943992Y-17571889D02*
X9943992Y-17514746D01*
X9943992Y-17514746D02*
X9953516Y-17495698D01*
X9953516Y-17495698D02*
X9963039Y-17486174D01*
X9963039Y-17486174D02*
X9982087Y-17476650D01*
X9982087Y-17476650D02*
X10010658Y-17476650D01*
X10010658Y-17476650D02*
X10029706Y-17486174D01*
X10029706Y-17486174D02*
X10039230Y-17495698D01*
X10039230Y-17495698D02*
X10048754Y-17514746D01*
X10048754Y-17514746D02*
X10048754Y-17571889D01*
X10048754Y-17571889D02*
X10039230Y-17590936D01*
X10039230Y-17590936D02*
X10029706Y-17600460D01*
X10029706Y-17600460D02*
X10010658Y-17609984D01*
X10010658Y-17609984D02*
X9982087Y-17609984D01*
X10105897Y-17476650D02*
X10182087Y-17476650D01*
X10134468Y-17409984D02*
X10134468Y-17581412D01*
X10134468Y-17581412D02*
X10143992Y-17600460D01*
X10143992Y-17600460D02*
X10163039Y-17609984D01*
X10163039Y-17609984D02*
X10182087Y-17609984D01*
X10239230Y-17600460D02*
X10258277Y-17609984D01*
X10258277Y-17609984D02*
X10296373Y-17609984D01*
X10296373Y-17609984D02*
X10315420Y-17600460D01*
X10315420Y-17600460D02*
X10324944Y-17581412D01*
X10324944Y-17581412D02*
X10324944Y-17571889D01*
X10324944Y-17571889D02*
X10315420Y-17552841D01*
X10315420Y-17552841D02*
X10296373Y-17543317D01*
X10296373Y-17543317D02*
X10267801Y-17543317D01*
X10267801Y-17543317D02*
X10248754Y-17533793D01*
X10248754Y-17533793D02*
X10239230Y-17514746D01*
X10239230Y-17514746D02*
X10239230Y-17505222D01*
X10239230Y-17505222D02*
X10248754Y-17486174D01*
X10248754Y-17486174D02*
X10267801Y-17476650D01*
X10267801Y-17476650D02*
X10296373Y-17476650D01*
X10296373Y-17476650D02*
X10315420Y-17486174D01*
X10391611Y-17686174D02*
X10401135Y-17676650D01*
X10401135Y-17676650D02*
X10420182Y-17648079D01*
X10420182Y-17648079D02*
X10429706Y-17629031D01*
X10429706Y-17629031D02*
X10439230Y-17600460D01*
X10439230Y-17600460D02*
X10448754Y-17552841D01*
X10448754Y-17552841D02*
X10448754Y-17514746D01*
X10448754Y-17514746D02*
X10439230Y-17467127D01*
X10439230Y-17467127D02*
X10429706Y-17438555D01*
X10429706Y-17438555D02*
X10420182Y-17419508D01*
X10420182Y-17419508D02*
X10401135Y-17390936D01*
X10401135Y-17390936D02*
X10391611Y-17381412D01*
M02*
