%TF.GenerationSoftware,KiCad,Pcbnew,8.0.1*%
%TF.CreationDate,2024-05-08T21:45:22-04:00*%
%TF.ProjectId,Headlight Controller 1_1,48656164-6c69-4676-9874-20436f6e7472,1.1*%
%TF.SameCoordinates,Original*%
%TF.FileFunction,Legend,Top*%
%TF.FilePolarity,Positive*%
%FSLAX46Y46*%
G04 Gerber Fmt 4.6, Leading zero omitted, Abs format (unit mm)*
G04 Created by KiCad (PCBNEW 8.0.1) date 2024-05-08 21:45:22*
%MOMM*%
%LPD*%
G01*
G04 APERTURE LIST*
%ADD10C,0.100000*%
%ADD11C,0.150000*%
%ADD12C,0.200000*%
%ADD13C,0.300000*%
%ADD14C,0.152400*%
%ADD15C,0.254000*%
%ADD16C,0.120000*%
%ADD17C,0.609600*%
%ADD18C,0.304800*%
G04 APERTURE END LIST*
D10*
X109595642Y-88831739D02*
X106293642Y-88831739D01*
X107244642Y-88225739D01*
X108744642Y-88225739D01*
X109595642Y-88831739D01*
G36*
X109595642Y-88831739D02*
G01*
X106293642Y-88831739D01*
X107244642Y-88225739D01*
X108744642Y-88225739D01*
X109595642Y-88831739D01*
G37*
X41519709Y-130759612D02*
X63700000Y-130759612D01*
X63700000Y-137700000D01*
X41519709Y-137700000D01*
X41519709Y-130759612D01*
X108537249Y-103454594D02*
X107293642Y-103374261D01*
X106398000Y-102794000D01*
X109700000Y-102794000D01*
X108537249Y-103454594D01*
G36*
X108537249Y-103454594D02*
G01*
X107293642Y-103374261D01*
X106398000Y-102794000D01*
X109700000Y-102794000D01*
X108537249Y-103454594D01*
G37*
D11*
X68679819Y-58739411D02*
X68679819Y-59310839D01*
X68679819Y-59025125D02*
X67679819Y-59025125D01*
X67679819Y-59025125D02*
X67822676Y-59120363D01*
X67822676Y-59120363D02*
X67917914Y-59215601D01*
X67917914Y-59215601D02*
X67965533Y-59310839D01*
X68679819Y-58310839D02*
X67679819Y-58310839D01*
X68679819Y-57739411D02*
X68108390Y-58167982D01*
X67679819Y-57739411D02*
X68251247Y-58310839D01*
X101340774Y-97570111D02*
X101340774Y-98003445D01*
X100659822Y-98189159D02*
X100659822Y-97570111D01*
X100659822Y-97570111D02*
X101959822Y-97570111D01*
X101959822Y-97570111D02*
X101959822Y-98189159D01*
X101526488Y-98746301D02*
X100659822Y-98746301D01*
X101402679Y-98746301D02*
X101464584Y-98808206D01*
X101464584Y-98808206D02*
X101526488Y-98932016D01*
X101526488Y-98932016D02*
X101526488Y-99117730D01*
X101526488Y-99117730D02*
X101464584Y-99241539D01*
X101464584Y-99241539D02*
X101340774Y-99303444D01*
X101340774Y-99303444D02*
X100659822Y-99303444D01*
X100721727Y-99860587D02*
X100659822Y-99984396D01*
X100659822Y-99984396D02*
X100659822Y-100232015D01*
X100659822Y-100232015D02*
X100721727Y-100355825D01*
X100721727Y-100355825D02*
X100845536Y-100417729D01*
X100845536Y-100417729D02*
X100907441Y-100417729D01*
X100907441Y-100417729D02*
X101031250Y-100355825D01*
X101031250Y-100355825D02*
X101093155Y-100232015D01*
X101093155Y-100232015D02*
X101093155Y-100046301D01*
X101093155Y-100046301D02*
X101155060Y-99922491D01*
X101155060Y-99922491D02*
X101278869Y-99860587D01*
X101278869Y-99860587D02*
X101340774Y-99860587D01*
X101340774Y-99860587D02*
X101464584Y-99922491D01*
X101464584Y-99922491D02*
X101526488Y-100046301D01*
X101526488Y-100046301D02*
X101526488Y-100232015D01*
X101526488Y-100232015D02*
X101464584Y-100355825D01*
X101526488Y-101532015D02*
X100659822Y-101532015D01*
X101526488Y-100974872D02*
X100845536Y-100974872D01*
X100845536Y-100974872D02*
X100721727Y-101036777D01*
X100721727Y-101036777D02*
X100659822Y-101160587D01*
X100659822Y-101160587D02*
X100659822Y-101346301D01*
X100659822Y-101346301D02*
X100721727Y-101470110D01*
X100721727Y-101470110D02*
X100783631Y-101532015D01*
X100659822Y-102151062D02*
X101526488Y-102151062D01*
X101278869Y-102151062D02*
X101402679Y-102212967D01*
X101402679Y-102212967D02*
X101464584Y-102274872D01*
X101464584Y-102274872D02*
X101526488Y-102398681D01*
X101526488Y-102398681D02*
X101526488Y-102522491D01*
X100721727Y-103451062D02*
X100659822Y-103327253D01*
X100659822Y-103327253D02*
X100659822Y-103079634D01*
X100659822Y-103079634D02*
X100721727Y-102955824D01*
X100721727Y-102955824D02*
X100845536Y-102893920D01*
X100845536Y-102893920D02*
X101340774Y-102893920D01*
X101340774Y-102893920D02*
X101464584Y-102955824D01*
X101464584Y-102955824D02*
X101526488Y-103079634D01*
X101526488Y-103079634D02*
X101526488Y-103327253D01*
X101526488Y-103327253D02*
X101464584Y-103451062D01*
X101464584Y-103451062D02*
X101340774Y-103512967D01*
X101340774Y-103512967D02*
X101216965Y-103512967D01*
X101216965Y-103512967D02*
X101093155Y-102893920D01*
X98690704Y-94351064D02*
X98628800Y-94289160D01*
X98628800Y-94289160D02*
X98566895Y-94103445D01*
X98566895Y-94103445D02*
X98566895Y-93979636D01*
X98566895Y-93979636D02*
X98628800Y-93793922D01*
X98628800Y-93793922D02*
X98752609Y-93670112D01*
X98752609Y-93670112D02*
X98876419Y-93608207D01*
X98876419Y-93608207D02*
X99124038Y-93546303D01*
X99124038Y-93546303D02*
X99309752Y-93546303D01*
X99309752Y-93546303D02*
X99557371Y-93608207D01*
X99557371Y-93608207D02*
X99681180Y-93670112D01*
X99681180Y-93670112D02*
X99804990Y-93793922D01*
X99804990Y-93793922D02*
X99866895Y-93979636D01*
X99866895Y-93979636D02*
X99866895Y-94103445D01*
X99866895Y-94103445D02*
X99804990Y-94289160D01*
X99804990Y-94289160D02*
X99743085Y-94351064D01*
X98566895Y-95093922D02*
X98628800Y-94970112D01*
X98628800Y-94970112D02*
X98690704Y-94908207D01*
X98690704Y-94908207D02*
X98814514Y-94846303D01*
X98814514Y-94846303D02*
X99185942Y-94846303D01*
X99185942Y-94846303D02*
X99309752Y-94908207D01*
X99309752Y-94908207D02*
X99371657Y-94970112D01*
X99371657Y-94970112D02*
X99433561Y-95093922D01*
X99433561Y-95093922D02*
X99433561Y-95279636D01*
X99433561Y-95279636D02*
X99371657Y-95403445D01*
X99371657Y-95403445D02*
X99309752Y-95465350D01*
X99309752Y-95465350D02*
X99185942Y-95527255D01*
X99185942Y-95527255D02*
X98814514Y-95527255D01*
X98814514Y-95527255D02*
X98690704Y-95465350D01*
X98690704Y-95465350D02*
X98628800Y-95403445D01*
X98628800Y-95403445D02*
X98566895Y-95279636D01*
X98566895Y-95279636D02*
X98566895Y-95093922D01*
X98566895Y-96084397D02*
X99433561Y-96084397D01*
X99185942Y-96084397D02*
X99309752Y-96146302D01*
X99309752Y-96146302D02*
X99371657Y-96208207D01*
X99371657Y-96208207D02*
X99433561Y-96332016D01*
X99433561Y-96332016D02*
X99433561Y-96455826D01*
X98566895Y-96889159D02*
X99433561Y-96889159D01*
X99185942Y-96889159D02*
X99309752Y-96951064D01*
X99309752Y-96951064D02*
X99371657Y-97012969D01*
X99371657Y-97012969D02*
X99433561Y-97136778D01*
X99433561Y-97136778D02*
X99433561Y-97260588D01*
X98628800Y-98189159D02*
X98566895Y-98065350D01*
X98566895Y-98065350D02*
X98566895Y-97817731D01*
X98566895Y-97817731D02*
X98628800Y-97693921D01*
X98628800Y-97693921D02*
X98752609Y-97632017D01*
X98752609Y-97632017D02*
X99247847Y-97632017D01*
X99247847Y-97632017D02*
X99371657Y-97693921D01*
X99371657Y-97693921D02*
X99433561Y-97817731D01*
X99433561Y-97817731D02*
X99433561Y-98065350D01*
X99433561Y-98065350D02*
X99371657Y-98189159D01*
X99371657Y-98189159D02*
X99247847Y-98251064D01*
X99247847Y-98251064D02*
X99124038Y-98251064D01*
X99124038Y-98251064D02*
X99000228Y-97632017D01*
X98628800Y-99365350D02*
X98566895Y-99241541D01*
X98566895Y-99241541D02*
X98566895Y-98993922D01*
X98566895Y-98993922D02*
X98628800Y-98870112D01*
X98628800Y-98870112D02*
X98690704Y-98808207D01*
X98690704Y-98808207D02*
X98814514Y-98746303D01*
X98814514Y-98746303D02*
X99185942Y-98746303D01*
X99185942Y-98746303D02*
X99309752Y-98808207D01*
X99309752Y-98808207D02*
X99371657Y-98870112D01*
X99371657Y-98870112D02*
X99433561Y-98993922D01*
X99433561Y-98993922D02*
X99433561Y-99241541D01*
X99433561Y-99241541D02*
X99371657Y-99365350D01*
X99433561Y-99736779D02*
X99433561Y-100232017D01*
X99866895Y-99922493D02*
X98752609Y-99922493D01*
X98752609Y-99922493D02*
X98628800Y-99984398D01*
X98628800Y-99984398D02*
X98566895Y-100108208D01*
X98566895Y-100108208D02*
X98566895Y-100232017D01*
X98566895Y-101655826D02*
X99866895Y-101655826D01*
X99866895Y-101655826D02*
X99866895Y-102151064D01*
X99866895Y-102151064D02*
X99804990Y-102274874D01*
X99804990Y-102274874D02*
X99743085Y-102336779D01*
X99743085Y-102336779D02*
X99619276Y-102398683D01*
X99619276Y-102398683D02*
X99433561Y-102398683D01*
X99433561Y-102398683D02*
X99309752Y-102336779D01*
X99309752Y-102336779D02*
X99247847Y-102274874D01*
X99247847Y-102274874D02*
X99185942Y-102151064D01*
X99185942Y-102151064D02*
X99185942Y-101655826D01*
X98566895Y-102955826D02*
X99433561Y-102955826D01*
X99866895Y-102955826D02*
X99804990Y-102893922D01*
X99804990Y-102893922D02*
X99743085Y-102955826D01*
X99743085Y-102955826D02*
X99804990Y-103017731D01*
X99804990Y-103017731D02*
X99866895Y-102955826D01*
X99866895Y-102955826D02*
X99743085Y-102955826D01*
X99433561Y-103574874D02*
X98566895Y-103574874D01*
X99309752Y-103574874D02*
X99371657Y-103636779D01*
X99371657Y-103636779D02*
X99433561Y-103760589D01*
X99433561Y-103760589D02*
X99433561Y-103946303D01*
X99433561Y-103946303D02*
X99371657Y-104070112D01*
X99371657Y-104070112D02*
X99247847Y-104132017D01*
X99247847Y-104132017D02*
X98566895Y-104132017D01*
X98566895Y-104936779D02*
X98628800Y-104812969D01*
X98628800Y-104812969D02*
X98690704Y-104751064D01*
X98690704Y-104751064D02*
X98814514Y-104689160D01*
X98814514Y-104689160D02*
X99185942Y-104689160D01*
X99185942Y-104689160D02*
X99309752Y-104751064D01*
X99309752Y-104751064D02*
X99371657Y-104812969D01*
X99371657Y-104812969D02*
X99433561Y-104936779D01*
X99433561Y-104936779D02*
X99433561Y-105122493D01*
X99433561Y-105122493D02*
X99371657Y-105246302D01*
X99371657Y-105246302D02*
X99309752Y-105308207D01*
X99309752Y-105308207D02*
X99185942Y-105370112D01*
X99185942Y-105370112D02*
X98814514Y-105370112D01*
X98814514Y-105370112D02*
X98690704Y-105308207D01*
X98690704Y-105308207D02*
X98628800Y-105246302D01*
X98628800Y-105246302D02*
X98566895Y-105122493D01*
X98566895Y-105122493D02*
X98566895Y-104936779D01*
X99433561Y-106484397D02*
X98566895Y-106484397D01*
X99433561Y-105927254D02*
X98752609Y-105927254D01*
X98752609Y-105927254D02*
X98628800Y-105989159D01*
X98628800Y-105989159D02*
X98566895Y-106112969D01*
X98566895Y-106112969D02*
X98566895Y-106298683D01*
X98566895Y-106298683D02*
X98628800Y-106422492D01*
X98628800Y-106422492D02*
X98690704Y-106484397D01*
X99433561Y-106917730D02*
X99433561Y-107412968D01*
X99866895Y-107103444D02*
X98752609Y-107103444D01*
X98752609Y-107103444D02*
X98628800Y-107165349D01*
X98628800Y-107165349D02*
X98566895Y-107289159D01*
X98566895Y-107289159D02*
X98566895Y-107412968D01*
X98690704Y-107846301D02*
X98628800Y-107908206D01*
X98628800Y-107908206D02*
X98566895Y-107846301D01*
X98566895Y-107846301D02*
X98628800Y-107784397D01*
X98628800Y-107784397D02*
X98690704Y-107846301D01*
X98690704Y-107846301D02*
X98566895Y-107846301D01*
X99062133Y-107846301D02*
X99804990Y-107784397D01*
X99804990Y-107784397D02*
X99866895Y-107846301D01*
X99866895Y-107846301D02*
X99804990Y-107908206D01*
X99804990Y-107908206D02*
X99062133Y-107846301D01*
X99062133Y-107846301D02*
X99866895Y-107846301D01*
X128869819Y-123739411D02*
X128869819Y-124310839D01*
X128869819Y-124025125D02*
X127869819Y-124025125D01*
X127869819Y-124025125D02*
X128012676Y-124120363D01*
X128012676Y-124120363D02*
X128107914Y-124215601D01*
X128107914Y-124215601D02*
X128155533Y-124310839D01*
X128869819Y-123310839D02*
X127869819Y-123310839D01*
X128869819Y-122739411D02*
X128298390Y-123167982D01*
X127869819Y-122739411D02*
X128441247Y-123310839D01*
X101960588Y-134069819D02*
X101389160Y-134069819D01*
X101674874Y-134069819D02*
X101674874Y-133069819D01*
X101674874Y-133069819D02*
X101579636Y-133212676D01*
X101579636Y-133212676D02*
X101484398Y-133307914D01*
X101484398Y-133307914D02*
X101389160Y-133355533D01*
X102579636Y-133069819D02*
X102674874Y-133069819D01*
X102674874Y-133069819D02*
X102770112Y-133117438D01*
X102770112Y-133117438D02*
X102817731Y-133165057D01*
X102817731Y-133165057D02*
X102865350Y-133260295D01*
X102865350Y-133260295D02*
X102912969Y-133450771D01*
X102912969Y-133450771D02*
X102912969Y-133688866D01*
X102912969Y-133688866D02*
X102865350Y-133879342D01*
X102865350Y-133879342D02*
X102817731Y-133974580D01*
X102817731Y-133974580D02*
X102770112Y-134022200D01*
X102770112Y-134022200D02*
X102674874Y-134069819D01*
X102674874Y-134069819D02*
X102579636Y-134069819D01*
X102579636Y-134069819D02*
X102484398Y-134022200D01*
X102484398Y-134022200D02*
X102436779Y-133974580D01*
X102436779Y-133974580D02*
X102389160Y-133879342D01*
X102389160Y-133879342D02*
X102341541Y-133688866D01*
X102341541Y-133688866D02*
X102341541Y-133450771D01*
X102341541Y-133450771D02*
X102389160Y-133260295D01*
X102389160Y-133260295D02*
X102436779Y-133165057D01*
X102436779Y-133165057D02*
X102484398Y-133117438D01*
X102484398Y-133117438D02*
X102579636Y-133069819D01*
X103341541Y-134069819D02*
X103341541Y-133069819D01*
X103912969Y-134069819D02*
X103484398Y-133498390D01*
X103912969Y-133069819D02*
X103341541Y-133641247D01*
X54040774Y-98170111D02*
X54040774Y-98603445D01*
X53359822Y-98789159D02*
X53359822Y-98170111D01*
X53359822Y-98170111D02*
X54659822Y-98170111D01*
X54659822Y-98170111D02*
X54659822Y-98789159D01*
X54226488Y-99346301D02*
X53359822Y-99346301D01*
X54102679Y-99346301D02*
X54164584Y-99408206D01*
X54164584Y-99408206D02*
X54226488Y-99532016D01*
X54226488Y-99532016D02*
X54226488Y-99717730D01*
X54226488Y-99717730D02*
X54164584Y-99841539D01*
X54164584Y-99841539D02*
X54040774Y-99903444D01*
X54040774Y-99903444D02*
X53359822Y-99903444D01*
X53421727Y-100460587D02*
X53359822Y-100584396D01*
X53359822Y-100584396D02*
X53359822Y-100832015D01*
X53359822Y-100832015D02*
X53421727Y-100955825D01*
X53421727Y-100955825D02*
X53545536Y-101017729D01*
X53545536Y-101017729D02*
X53607441Y-101017729D01*
X53607441Y-101017729D02*
X53731250Y-100955825D01*
X53731250Y-100955825D02*
X53793155Y-100832015D01*
X53793155Y-100832015D02*
X53793155Y-100646301D01*
X53793155Y-100646301D02*
X53855060Y-100522491D01*
X53855060Y-100522491D02*
X53978869Y-100460587D01*
X53978869Y-100460587D02*
X54040774Y-100460587D01*
X54040774Y-100460587D02*
X54164584Y-100522491D01*
X54164584Y-100522491D02*
X54226488Y-100646301D01*
X54226488Y-100646301D02*
X54226488Y-100832015D01*
X54226488Y-100832015D02*
X54164584Y-100955825D01*
X54226488Y-102132015D02*
X53359822Y-102132015D01*
X54226488Y-101574872D02*
X53545536Y-101574872D01*
X53545536Y-101574872D02*
X53421727Y-101636777D01*
X53421727Y-101636777D02*
X53359822Y-101760587D01*
X53359822Y-101760587D02*
X53359822Y-101946301D01*
X53359822Y-101946301D02*
X53421727Y-102070110D01*
X53421727Y-102070110D02*
X53483631Y-102132015D01*
X53359822Y-102751062D02*
X54226488Y-102751062D01*
X53978869Y-102751062D02*
X54102679Y-102812967D01*
X54102679Y-102812967D02*
X54164584Y-102874872D01*
X54164584Y-102874872D02*
X54226488Y-102998681D01*
X54226488Y-102998681D02*
X54226488Y-103122491D01*
X53421727Y-104051062D02*
X53359822Y-103927253D01*
X53359822Y-103927253D02*
X53359822Y-103679634D01*
X53359822Y-103679634D02*
X53421727Y-103555824D01*
X53421727Y-103555824D02*
X53545536Y-103493920D01*
X53545536Y-103493920D02*
X54040774Y-103493920D01*
X54040774Y-103493920D02*
X54164584Y-103555824D01*
X54164584Y-103555824D02*
X54226488Y-103679634D01*
X54226488Y-103679634D02*
X54226488Y-103927253D01*
X54226488Y-103927253D02*
X54164584Y-104051062D01*
X54164584Y-104051062D02*
X54040774Y-104112967D01*
X54040774Y-104112967D02*
X53916965Y-104112967D01*
X53916965Y-104112967D02*
X53793155Y-103493920D01*
X51390704Y-94951064D02*
X51328800Y-94889160D01*
X51328800Y-94889160D02*
X51266895Y-94703445D01*
X51266895Y-94703445D02*
X51266895Y-94579636D01*
X51266895Y-94579636D02*
X51328800Y-94393922D01*
X51328800Y-94393922D02*
X51452609Y-94270112D01*
X51452609Y-94270112D02*
X51576419Y-94208207D01*
X51576419Y-94208207D02*
X51824038Y-94146303D01*
X51824038Y-94146303D02*
X52009752Y-94146303D01*
X52009752Y-94146303D02*
X52257371Y-94208207D01*
X52257371Y-94208207D02*
X52381180Y-94270112D01*
X52381180Y-94270112D02*
X52504990Y-94393922D01*
X52504990Y-94393922D02*
X52566895Y-94579636D01*
X52566895Y-94579636D02*
X52566895Y-94703445D01*
X52566895Y-94703445D02*
X52504990Y-94889160D01*
X52504990Y-94889160D02*
X52443085Y-94951064D01*
X51266895Y-95693922D02*
X51328800Y-95570112D01*
X51328800Y-95570112D02*
X51390704Y-95508207D01*
X51390704Y-95508207D02*
X51514514Y-95446303D01*
X51514514Y-95446303D02*
X51885942Y-95446303D01*
X51885942Y-95446303D02*
X52009752Y-95508207D01*
X52009752Y-95508207D02*
X52071657Y-95570112D01*
X52071657Y-95570112D02*
X52133561Y-95693922D01*
X52133561Y-95693922D02*
X52133561Y-95879636D01*
X52133561Y-95879636D02*
X52071657Y-96003445D01*
X52071657Y-96003445D02*
X52009752Y-96065350D01*
X52009752Y-96065350D02*
X51885942Y-96127255D01*
X51885942Y-96127255D02*
X51514514Y-96127255D01*
X51514514Y-96127255D02*
X51390704Y-96065350D01*
X51390704Y-96065350D02*
X51328800Y-96003445D01*
X51328800Y-96003445D02*
X51266895Y-95879636D01*
X51266895Y-95879636D02*
X51266895Y-95693922D01*
X51266895Y-96684397D02*
X52133561Y-96684397D01*
X51885942Y-96684397D02*
X52009752Y-96746302D01*
X52009752Y-96746302D02*
X52071657Y-96808207D01*
X52071657Y-96808207D02*
X52133561Y-96932016D01*
X52133561Y-96932016D02*
X52133561Y-97055826D01*
X51266895Y-97489159D02*
X52133561Y-97489159D01*
X51885942Y-97489159D02*
X52009752Y-97551064D01*
X52009752Y-97551064D02*
X52071657Y-97612969D01*
X52071657Y-97612969D02*
X52133561Y-97736778D01*
X52133561Y-97736778D02*
X52133561Y-97860588D01*
X51328800Y-98789159D02*
X51266895Y-98665350D01*
X51266895Y-98665350D02*
X51266895Y-98417731D01*
X51266895Y-98417731D02*
X51328800Y-98293921D01*
X51328800Y-98293921D02*
X51452609Y-98232017D01*
X51452609Y-98232017D02*
X51947847Y-98232017D01*
X51947847Y-98232017D02*
X52071657Y-98293921D01*
X52071657Y-98293921D02*
X52133561Y-98417731D01*
X52133561Y-98417731D02*
X52133561Y-98665350D01*
X52133561Y-98665350D02*
X52071657Y-98789159D01*
X52071657Y-98789159D02*
X51947847Y-98851064D01*
X51947847Y-98851064D02*
X51824038Y-98851064D01*
X51824038Y-98851064D02*
X51700228Y-98232017D01*
X51328800Y-99965350D02*
X51266895Y-99841541D01*
X51266895Y-99841541D02*
X51266895Y-99593922D01*
X51266895Y-99593922D02*
X51328800Y-99470112D01*
X51328800Y-99470112D02*
X51390704Y-99408207D01*
X51390704Y-99408207D02*
X51514514Y-99346303D01*
X51514514Y-99346303D02*
X51885942Y-99346303D01*
X51885942Y-99346303D02*
X52009752Y-99408207D01*
X52009752Y-99408207D02*
X52071657Y-99470112D01*
X52071657Y-99470112D02*
X52133561Y-99593922D01*
X52133561Y-99593922D02*
X52133561Y-99841541D01*
X52133561Y-99841541D02*
X52071657Y-99965350D01*
X52133561Y-100336779D02*
X52133561Y-100832017D01*
X52566895Y-100522493D02*
X51452609Y-100522493D01*
X51452609Y-100522493D02*
X51328800Y-100584398D01*
X51328800Y-100584398D02*
X51266895Y-100708208D01*
X51266895Y-100708208D02*
X51266895Y-100832017D01*
X51266895Y-102255826D02*
X52566895Y-102255826D01*
X52566895Y-102255826D02*
X52566895Y-102751064D01*
X52566895Y-102751064D02*
X52504990Y-102874874D01*
X52504990Y-102874874D02*
X52443085Y-102936779D01*
X52443085Y-102936779D02*
X52319276Y-102998683D01*
X52319276Y-102998683D02*
X52133561Y-102998683D01*
X52133561Y-102998683D02*
X52009752Y-102936779D01*
X52009752Y-102936779D02*
X51947847Y-102874874D01*
X51947847Y-102874874D02*
X51885942Y-102751064D01*
X51885942Y-102751064D02*
X51885942Y-102255826D01*
X51266895Y-103555826D02*
X52133561Y-103555826D01*
X52566895Y-103555826D02*
X52504990Y-103493922D01*
X52504990Y-103493922D02*
X52443085Y-103555826D01*
X52443085Y-103555826D02*
X52504990Y-103617731D01*
X52504990Y-103617731D02*
X52566895Y-103555826D01*
X52566895Y-103555826D02*
X52443085Y-103555826D01*
X52133561Y-104174874D02*
X51266895Y-104174874D01*
X52009752Y-104174874D02*
X52071657Y-104236779D01*
X52071657Y-104236779D02*
X52133561Y-104360589D01*
X52133561Y-104360589D02*
X52133561Y-104546303D01*
X52133561Y-104546303D02*
X52071657Y-104670112D01*
X52071657Y-104670112D02*
X51947847Y-104732017D01*
X51947847Y-104732017D02*
X51266895Y-104732017D01*
X51266895Y-105536779D02*
X51328800Y-105412969D01*
X51328800Y-105412969D02*
X51390704Y-105351064D01*
X51390704Y-105351064D02*
X51514514Y-105289160D01*
X51514514Y-105289160D02*
X51885942Y-105289160D01*
X51885942Y-105289160D02*
X52009752Y-105351064D01*
X52009752Y-105351064D02*
X52071657Y-105412969D01*
X52071657Y-105412969D02*
X52133561Y-105536779D01*
X52133561Y-105536779D02*
X52133561Y-105722493D01*
X52133561Y-105722493D02*
X52071657Y-105846302D01*
X52071657Y-105846302D02*
X52009752Y-105908207D01*
X52009752Y-105908207D02*
X51885942Y-105970112D01*
X51885942Y-105970112D02*
X51514514Y-105970112D01*
X51514514Y-105970112D02*
X51390704Y-105908207D01*
X51390704Y-105908207D02*
X51328800Y-105846302D01*
X51328800Y-105846302D02*
X51266895Y-105722493D01*
X51266895Y-105722493D02*
X51266895Y-105536779D01*
X52133561Y-107084397D02*
X51266895Y-107084397D01*
X52133561Y-106527254D02*
X51452609Y-106527254D01*
X51452609Y-106527254D02*
X51328800Y-106589159D01*
X51328800Y-106589159D02*
X51266895Y-106712969D01*
X51266895Y-106712969D02*
X51266895Y-106898683D01*
X51266895Y-106898683D02*
X51328800Y-107022492D01*
X51328800Y-107022492D02*
X51390704Y-107084397D01*
X52133561Y-107517730D02*
X52133561Y-108012968D01*
X52566895Y-107703444D02*
X51452609Y-107703444D01*
X51452609Y-107703444D02*
X51328800Y-107765349D01*
X51328800Y-107765349D02*
X51266895Y-107889159D01*
X51266895Y-107889159D02*
X51266895Y-108012968D01*
X51390704Y-108446301D02*
X51328800Y-108508206D01*
X51328800Y-108508206D02*
X51266895Y-108446301D01*
X51266895Y-108446301D02*
X51328800Y-108384397D01*
X51328800Y-108384397D02*
X51390704Y-108446301D01*
X51390704Y-108446301D02*
X51266895Y-108446301D01*
X51762133Y-108446301D02*
X52504990Y-108384397D01*
X52504990Y-108384397D02*
X52566895Y-108446301D01*
X52566895Y-108446301D02*
X52504990Y-108508206D01*
X52504990Y-108508206D02*
X51762133Y-108446301D01*
X51762133Y-108446301D02*
X52566895Y-108446301D01*
X59969819Y-58739411D02*
X59969819Y-59310839D01*
X59969819Y-59025125D02*
X58969819Y-59025125D01*
X58969819Y-59025125D02*
X59112676Y-59120363D01*
X59112676Y-59120363D02*
X59207914Y-59215601D01*
X59207914Y-59215601D02*
X59255533Y-59310839D01*
X59969819Y-58310839D02*
X58969819Y-58310839D01*
X59969819Y-57739411D02*
X59398390Y-58167982D01*
X58969819Y-57739411D02*
X59541247Y-58310839D01*
X91214874Y-58639411D02*
X91214874Y-59210839D01*
X91214874Y-58925125D02*
X90214874Y-58925125D01*
X90214874Y-58925125D02*
X90357731Y-59020363D01*
X90357731Y-59020363D02*
X90452969Y-59115601D01*
X90452969Y-59115601D02*
X90500588Y-59210839D01*
X91214874Y-58210839D02*
X90214874Y-58210839D01*
X91214874Y-57639411D02*
X90643445Y-58067982D01*
X90214874Y-57639411D02*
X90786302Y-58210839D01*
D12*
X52807257Y-113060149D02*
X52807257Y-113288721D01*
X52807257Y-113288721D02*
X52750114Y-113403006D01*
X52750114Y-113403006D02*
X52635828Y-113517292D01*
X52635828Y-113517292D02*
X52407257Y-113574435D01*
X52407257Y-113574435D02*
X52007257Y-113574435D01*
X52007257Y-113574435D02*
X51778685Y-113517292D01*
X51778685Y-113517292D02*
X51664400Y-113403006D01*
X51664400Y-113403006D02*
X51607257Y-113288721D01*
X51607257Y-113288721D02*
X51607257Y-113060149D01*
X51607257Y-113060149D02*
X51664400Y-112945864D01*
X51664400Y-112945864D02*
X51778685Y-112831578D01*
X51778685Y-112831578D02*
X52007257Y-112774435D01*
X52007257Y-112774435D02*
X52407257Y-112774435D01*
X52407257Y-112774435D02*
X52635828Y-112831578D01*
X52635828Y-112831578D02*
X52750114Y-112945864D01*
X52750114Y-112945864D02*
X52807257Y-113060149D01*
X52407257Y-114603007D02*
X51607257Y-114603007D01*
X52407257Y-114088721D02*
X51778685Y-114088721D01*
X51778685Y-114088721D02*
X51664400Y-114145864D01*
X51664400Y-114145864D02*
X51607257Y-114260149D01*
X51607257Y-114260149D02*
X51607257Y-114431578D01*
X51607257Y-114431578D02*
X51664400Y-114545864D01*
X51664400Y-114545864D02*
X51721542Y-114603007D01*
X52407257Y-115003006D02*
X52407257Y-115460149D01*
X52807257Y-115174435D02*
X51778685Y-115174435D01*
X51778685Y-115174435D02*
X51664400Y-115231578D01*
X51664400Y-115231578D02*
X51607257Y-115345863D01*
X51607257Y-115345863D02*
X51607257Y-115460149D01*
D11*
X69010588Y-137869819D02*
X68439160Y-137869819D01*
X68724874Y-137869819D02*
X68724874Y-136869819D01*
X68724874Y-136869819D02*
X68629636Y-137012676D01*
X68629636Y-137012676D02*
X68534398Y-137107914D01*
X68534398Y-137107914D02*
X68439160Y-137155533D01*
X69439160Y-137869819D02*
X69439160Y-136869819D01*
X70010588Y-137869819D02*
X69582017Y-137298390D01*
X70010588Y-136869819D02*
X69439160Y-137441247D01*
X86130180Y-80512969D02*
X86130180Y-80036779D01*
X86130180Y-80036779D02*
X85653990Y-79989160D01*
X85653990Y-79989160D02*
X85701609Y-80036779D01*
X85701609Y-80036779D02*
X85749228Y-80132017D01*
X85749228Y-80132017D02*
X85749228Y-80370112D01*
X85749228Y-80370112D02*
X85701609Y-80465350D01*
X85701609Y-80465350D02*
X85653990Y-80512969D01*
X85653990Y-80512969D02*
X85558752Y-80560588D01*
X85558752Y-80560588D02*
X85320657Y-80560588D01*
X85320657Y-80560588D02*
X85225419Y-80512969D01*
X85225419Y-80512969D02*
X85177800Y-80465350D01*
X85177800Y-80465350D02*
X85130180Y-80370112D01*
X85130180Y-80370112D02*
X85130180Y-80132017D01*
X85130180Y-80132017D02*
X85177800Y-80036779D01*
X85177800Y-80036779D02*
X85225419Y-79989160D01*
X86130180Y-80846303D02*
X85130180Y-81179636D01*
X85130180Y-81179636D02*
X86130180Y-81512969D01*
X85130180Y-83179636D02*
X85606371Y-82846303D01*
X85130180Y-82608208D02*
X86130180Y-82608208D01*
X86130180Y-82608208D02*
X86130180Y-82989160D01*
X86130180Y-82989160D02*
X86082561Y-83084398D01*
X86082561Y-83084398D02*
X86034942Y-83132017D01*
X86034942Y-83132017D02*
X85939704Y-83179636D01*
X85939704Y-83179636D02*
X85796847Y-83179636D01*
X85796847Y-83179636D02*
X85701609Y-83132017D01*
X85701609Y-83132017D02*
X85653990Y-83084398D01*
X85653990Y-83084398D02*
X85606371Y-82989160D01*
X85606371Y-82989160D02*
X85606371Y-82608208D01*
X85177800Y-83989160D02*
X85130180Y-83893922D01*
X85130180Y-83893922D02*
X85130180Y-83703446D01*
X85130180Y-83703446D02*
X85177800Y-83608208D01*
X85177800Y-83608208D02*
X85273038Y-83560589D01*
X85273038Y-83560589D02*
X85653990Y-83560589D01*
X85653990Y-83560589D02*
X85749228Y-83608208D01*
X85749228Y-83608208D02*
X85796847Y-83703446D01*
X85796847Y-83703446D02*
X85796847Y-83893922D01*
X85796847Y-83893922D02*
X85749228Y-83989160D01*
X85749228Y-83989160D02*
X85653990Y-84036779D01*
X85653990Y-84036779D02*
X85558752Y-84036779D01*
X85558752Y-84036779D02*
X85463514Y-83560589D01*
X85130180Y-84608208D02*
X85177800Y-84512970D01*
X85177800Y-84512970D02*
X85273038Y-84465351D01*
X85273038Y-84465351D02*
X86130180Y-84465351D01*
X85130180Y-85417732D02*
X85653990Y-85417732D01*
X85653990Y-85417732D02*
X85749228Y-85370113D01*
X85749228Y-85370113D02*
X85796847Y-85274875D01*
X85796847Y-85274875D02*
X85796847Y-85084399D01*
X85796847Y-85084399D02*
X85749228Y-84989161D01*
X85177800Y-85417732D02*
X85130180Y-85322494D01*
X85130180Y-85322494D02*
X85130180Y-85084399D01*
X85130180Y-85084399D02*
X85177800Y-84989161D01*
X85177800Y-84989161D02*
X85273038Y-84941542D01*
X85273038Y-84941542D02*
X85368276Y-84941542D01*
X85368276Y-84941542D02*
X85463514Y-84989161D01*
X85463514Y-84989161D02*
X85511133Y-85084399D01*
X85511133Y-85084399D02*
X85511133Y-85322494D01*
X85511133Y-85322494D02*
X85558752Y-85417732D01*
X85796847Y-85798685D02*
X85130180Y-86036780D01*
X85796847Y-86274875D02*
X85130180Y-86036780D01*
X85130180Y-86036780D02*
X84892085Y-85941542D01*
X84892085Y-85941542D02*
X84844466Y-85893923D01*
X84844466Y-85893923D02*
X84796847Y-85798685D01*
X86030180Y-101512969D02*
X86030180Y-101036779D01*
X86030180Y-101036779D02*
X85553990Y-100989160D01*
X85553990Y-100989160D02*
X85601609Y-101036779D01*
X85601609Y-101036779D02*
X85649228Y-101132017D01*
X85649228Y-101132017D02*
X85649228Y-101370112D01*
X85649228Y-101370112D02*
X85601609Y-101465350D01*
X85601609Y-101465350D02*
X85553990Y-101512969D01*
X85553990Y-101512969D02*
X85458752Y-101560588D01*
X85458752Y-101560588D02*
X85220657Y-101560588D01*
X85220657Y-101560588D02*
X85125419Y-101512969D01*
X85125419Y-101512969D02*
X85077800Y-101465350D01*
X85077800Y-101465350D02*
X85030180Y-101370112D01*
X85030180Y-101370112D02*
X85030180Y-101132017D01*
X85030180Y-101132017D02*
X85077800Y-101036779D01*
X85077800Y-101036779D02*
X85125419Y-100989160D01*
X86030180Y-101846303D02*
X85030180Y-102179636D01*
X85030180Y-102179636D02*
X86030180Y-102512969D01*
X85030180Y-104179636D02*
X85506371Y-103846303D01*
X85030180Y-103608208D02*
X86030180Y-103608208D01*
X86030180Y-103608208D02*
X86030180Y-103989160D01*
X86030180Y-103989160D02*
X85982561Y-104084398D01*
X85982561Y-104084398D02*
X85934942Y-104132017D01*
X85934942Y-104132017D02*
X85839704Y-104179636D01*
X85839704Y-104179636D02*
X85696847Y-104179636D01*
X85696847Y-104179636D02*
X85601609Y-104132017D01*
X85601609Y-104132017D02*
X85553990Y-104084398D01*
X85553990Y-104084398D02*
X85506371Y-103989160D01*
X85506371Y-103989160D02*
X85506371Y-103608208D01*
X85077800Y-104989160D02*
X85030180Y-104893922D01*
X85030180Y-104893922D02*
X85030180Y-104703446D01*
X85030180Y-104703446D02*
X85077800Y-104608208D01*
X85077800Y-104608208D02*
X85173038Y-104560589D01*
X85173038Y-104560589D02*
X85553990Y-104560589D01*
X85553990Y-104560589D02*
X85649228Y-104608208D01*
X85649228Y-104608208D02*
X85696847Y-104703446D01*
X85696847Y-104703446D02*
X85696847Y-104893922D01*
X85696847Y-104893922D02*
X85649228Y-104989160D01*
X85649228Y-104989160D02*
X85553990Y-105036779D01*
X85553990Y-105036779D02*
X85458752Y-105036779D01*
X85458752Y-105036779D02*
X85363514Y-104560589D01*
X85030180Y-105608208D02*
X85077800Y-105512970D01*
X85077800Y-105512970D02*
X85173038Y-105465351D01*
X85173038Y-105465351D02*
X86030180Y-105465351D01*
X85030180Y-106417732D02*
X85553990Y-106417732D01*
X85553990Y-106417732D02*
X85649228Y-106370113D01*
X85649228Y-106370113D02*
X85696847Y-106274875D01*
X85696847Y-106274875D02*
X85696847Y-106084399D01*
X85696847Y-106084399D02*
X85649228Y-105989161D01*
X85077800Y-106417732D02*
X85030180Y-106322494D01*
X85030180Y-106322494D02*
X85030180Y-106084399D01*
X85030180Y-106084399D02*
X85077800Y-105989161D01*
X85077800Y-105989161D02*
X85173038Y-105941542D01*
X85173038Y-105941542D02*
X85268276Y-105941542D01*
X85268276Y-105941542D02*
X85363514Y-105989161D01*
X85363514Y-105989161D02*
X85411133Y-106084399D01*
X85411133Y-106084399D02*
X85411133Y-106322494D01*
X85411133Y-106322494D02*
X85458752Y-106417732D01*
X85696847Y-106798685D02*
X85030180Y-107036780D01*
X85696847Y-107274875D02*
X85030180Y-107036780D01*
X85030180Y-107036780D02*
X84792085Y-106941542D01*
X84792085Y-106941542D02*
X84744466Y-106893923D01*
X84744466Y-106893923D02*
X84696847Y-106798685D01*
D12*
X99757257Y-113110149D02*
X99757257Y-113338721D01*
X99757257Y-113338721D02*
X99700114Y-113453006D01*
X99700114Y-113453006D02*
X99585828Y-113567292D01*
X99585828Y-113567292D02*
X99357257Y-113624435D01*
X99357257Y-113624435D02*
X98957257Y-113624435D01*
X98957257Y-113624435D02*
X98728685Y-113567292D01*
X98728685Y-113567292D02*
X98614400Y-113453006D01*
X98614400Y-113453006D02*
X98557257Y-113338721D01*
X98557257Y-113338721D02*
X98557257Y-113110149D01*
X98557257Y-113110149D02*
X98614400Y-112995864D01*
X98614400Y-112995864D02*
X98728685Y-112881578D01*
X98728685Y-112881578D02*
X98957257Y-112824435D01*
X98957257Y-112824435D02*
X99357257Y-112824435D01*
X99357257Y-112824435D02*
X99585828Y-112881578D01*
X99585828Y-112881578D02*
X99700114Y-112995864D01*
X99700114Y-112995864D02*
X99757257Y-113110149D01*
X99357257Y-114653007D02*
X98557257Y-114653007D01*
X99357257Y-114138721D02*
X98728685Y-114138721D01*
X98728685Y-114138721D02*
X98614400Y-114195864D01*
X98614400Y-114195864D02*
X98557257Y-114310149D01*
X98557257Y-114310149D02*
X98557257Y-114481578D01*
X98557257Y-114481578D02*
X98614400Y-114595864D01*
X98614400Y-114595864D02*
X98671542Y-114653007D01*
X99357257Y-115053006D02*
X99357257Y-115510149D01*
X99757257Y-115224435D02*
X98728685Y-115224435D01*
X98728685Y-115224435D02*
X98614400Y-115281578D01*
X98614400Y-115281578D02*
X98557257Y-115395863D01*
X98557257Y-115395863D02*
X98557257Y-115510149D01*
X97050114Y-113195863D02*
X97107257Y-113081578D01*
X97107257Y-113081578D02*
X97107257Y-112910149D01*
X97107257Y-112910149D02*
X97050114Y-112738720D01*
X97050114Y-112738720D02*
X96935828Y-112624435D01*
X96935828Y-112624435D02*
X96821542Y-112567292D01*
X96821542Y-112567292D02*
X96592971Y-112510149D01*
X96592971Y-112510149D02*
X96421542Y-112510149D01*
X96421542Y-112510149D02*
X96192971Y-112567292D01*
X96192971Y-112567292D02*
X96078685Y-112624435D01*
X96078685Y-112624435D02*
X95964400Y-112738720D01*
X95964400Y-112738720D02*
X95907257Y-112910149D01*
X95907257Y-112910149D02*
X95907257Y-113024435D01*
X95907257Y-113024435D02*
X95964400Y-113195863D01*
X95964400Y-113195863D02*
X96021542Y-113253006D01*
X96021542Y-113253006D02*
X96421542Y-113253006D01*
X96421542Y-113253006D02*
X96421542Y-113024435D01*
X95907257Y-113767292D02*
X97107257Y-113767292D01*
X97107257Y-113767292D02*
X95907257Y-114453006D01*
X95907257Y-114453006D02*
X97107257Y-114453006D01*
X95907257Y-115024435D02*
X97107257Y-115024435D01*
X97107257Y-115024435D02*
X97107257Y-115310149D01*
X97107257Y-115310149D02*
X97050114Y-115481578D01*
X97050114Y-115481578D02*
X96935828Y-115595863D01*
X96935828Y-115595863D02*
X96821542Y-115653006D01*
X96821542Y-115653006D02*
X96592971Y-115710149D01*
X96592971Y-115710149D02*
X96421542Y-115710149D01*
X96421542Y-115710149D02*
X96192971Y-115653006D01*
X96192971Y-115653006D02*
X96078685Y-115595863D01*
X96078685Y-115595863D02*
X95964400Y-115481578D01*
X95964400Y-115481578D02*
X95907257Y-115310149D01*
X95907257Y-115310149D02*
X95907257Y-115024435D01*
D11*
X41999345Y-131668558D02*
X41904107Y-131620939D01*
X41904107Y-131620939D02*
X41856488Y-131573320D01*
X41856488Y-131573320D02*
X41808869Y-131478082D01*
X41808869Y-131478082D02*
X41808869Y-131430463D01*
X41808869Y-131430463D02*
X41856488Y-131335225D01*
X41856488Y-131335225D02*
X41904107Y-131287606D01*
X41904107Y-131287606D02*
X41999345Y-131239987D01*
X41999345Y-131239987D02*
X42189821Y-131239987D01*
X42189821Y-131239987D02*
X42285059Y-131287606D01*
X42285059Y-131287606D02*
X42332678Y-131335225D01*
X42332678Y-131335225D02*
X42380297Y-131430463D01*
X42380297Y-131430463D02*
X42380297Y-131478082D01*
X42380297Y-131478082D02*
X42332678Y-131573320D01*
X42332678Y-131573320D02*
X42285059Y-131620939D01*
X42285059Y-131620939D02*
X42189821Y-131668558D01*
X42189821Y-131668558D02*
X41999345Y-131668558D01*
X41999345Y-131668558D02*
X41904107Y-131716177D01*
X41904107Y-131716177D02*
X41856488Y-131763796D01*
X41856488Y-131763796D02*
X41808869Y-131859034D01*
X41808869Y-131859034D02*
X41808869Y-132049510D01*
X41808869Y-132049510D02*
X41856488Y-132144748D01*
X41856488Y-132144748D02*
X41904107Y-132192368D01*
X41904107Y-132192368D02*
X41999345Y-132239987D01*
X41999345Y-132239987D02*
X42189821Y-132239987D01*
X42189821Y-132239987D02*
X42285059Y-132192368D01*
X42285059Y-132192368D02*
X42332678Y-132144748D01*
X42332678Y-132144748D02*
X42380297Y-132049510D01*
X42380297Y-132049510D02*
X42380297Y-131859034D01*
X42380297Y-131859034D02*
X42332678Y-131763796D01*
X42332678Y-131763796D02*
X42285059Y-131716177D01*
X42285059Y-131716177D02*
X42189821Y-131668558D01*
X42713631Y-131239987D02*
X43380297Y-131239987D01*
X43380297Y-131239987D02*
X42951726Y-132239987D01*
X43761250Y-131859034D02*
X44523155Y-131859034D01*
X44142202Y-132239987D02*
X44142202Y-131478082D01*
X45761250Y-132239987D02*
X45761250Y-131239987D01*
X45761250Y-131716177D02*
X46332678Y-131716177D01*
X46332678Y-132239987D02*
X46332678Y-131239987D01*
X47189821Y-132192368D02*
X47094583Y-132239987D01*
X47094583Y-132239987D02*
X46904107Y-132239987D01*
X46904107Y-132239987D02*
X46808869Y-132192368D01*
X46808869Y-132192368D02*
X46761250Y-132097129D01*
X46761250Y-132097129D02*
X46761250Y-131716177D01*
X46761250Y-131716177D02*
X46808869Y-131620939D01*
X46808869Y-131620939D02*
X46904107Y-131573320D01*
X46904107Y-131573320D02*
X47094583Y-131573320D01*
X47094583Y-131573320D02*
X47189821Y-131620939D01*
X47189821Y-131620939D02*
X47237440Y-131716177D01*
X47237440Y-131716177D02*
X47237440Y-131811415D01*
X47237440Y-131811415D02*
X46761250Y-131906653D01*
X48094583Y-132239987D02*
X48094583Y-131716177D01*
X48094583Y-131716177D02*
X48046964Y-131620939D01*
X48046964Y-131620939D02*
X47951726Y-131573320D01*
X47951726Y-131573320D02*
X47761250Y-131573320D01*
X47761250Y-131573320D02*
X47666012Y-131620939D01*
X48094583Y-132192368D02*
X47999345Y-132239987D01*
X47999345Y-132239987D02*
X47761250Y-132239987D01*
X47761250Y-132239987D02*
X47666012Y-132192368D01*
X47666012Y-132192368D02*
X47618393Y-132097129D01*
X47618393Y-132097129D02*
X47618393Y-132001891D01*
X47618393Y-132001891D02*
X47666012Y-131906653D01*
X47666012Y-131906653D02*
X47761250Y-131859034D01*
X47761250Y-131859034D02*
X47999345Y-131859034D01*
X47999345Y-131859034D02*
X48094583Y-131811415D01*
X48999345Y-132239987D02*
X48999345Y-131239987D01*
X48999345Y-132192368D02*
X48904107Y-132239987D01*
X48904107Y-132239987D02*
X48713631Y-132239987D01*
X48713631Y-132239987D02*
X48618393Y-132192368D01*
X48618393Y-132192368D02*
X48570774Y-132144748D01*
X48570774Y-132144748D02*
X48523155Y-132049510D01*
X48523155Y-132049510D02*
X48523155Y-131763796D01*
X48523155Y-131763796D02*
X48570774Y-131668558D01*
X48570774Y-131668558D02*
X48618393Y-131620939D01*
X48618393Y-131620939D02*
X48713631Y-131573320D01*
X48713631Y-131573320D02*
X48904107Y-131573320D01*
X48904107Y-131573320D02*
X48999345Y-131620939D01*
X49618393Y-132239987D02*
X49523155Y-132192368D01*
X49523155Y-132192368D02*
X49475536Y-132097129D01*
X49475536Y-132097129D02*
X49475536Y-131239987D01*
X50427917Y-132239987D02*
X50427917Y-131716177D01*
X50427917Y-131716177D02*
X50380298Y-131620939D01*
X50380298Y-131620939D02*
X50285060Y-131573320D01*
X50285060Y-131573320D02*
X50094584Y-131573320D01*
X50094584Y-131573320D02*
X49999346Y-131620939D01*
X50427917Y-132192368D02*
X50332679Y-132239987D01*
X50332679Y-132239987D02*
X50094584Y-132239987D01*
X50094584Y-132239987D02*
X49999346Y-132192368D01*
X49999346Y-132192368D02*
X49951727Y-132097129D01*
X49951727Y-132097129D02*
X49951727Y-132001891D01*
X49951727Y-132001891D02*
X49999346Y-131906653D01*
X49999346Y-131906653D02*
X50094584Y-131859034D01*
X50094584Y-131859034D02*
X50332679Y-131859034D01*
X50332679Y-131859034D02*
X50427917Y-131811415D01*
X50904108Y-132239987D02*
X50904108Y-131573320D01*
X50904108Y-131668558D02*
X50951727Y-131620939D01*
X50951727Y-131620939D02*
X51046965Y-131573320D01*
X51046965Y-131573320D02*
X51189822Y-131573320D01*
X51189822Y-131573320D02*
X51285060Y-131620939D01*
X51285060Y-131620939D02*
X51332679Y-131716177D01*
X51332679Y-131716177D02*
X51332679Y-132239987D01*
X51332679Y-131716177D02*
X51380298Y-131620939D01*
X51380298Y-131620939D02*
X51475536Y-131573320D01*
X51475536Y-131573320D02*
X51618393Y-131573320D01*
X51618393Y-131573320D02*
X51713632Y-131620939D01*
X51713632Y-131620939D02*
X51761251Y-131716177D01*
X51761251Y-131716177D02*
X51761251Y-132239987D01*
X52237441Y-131573320D02*
X52237441Y-132573320D01*
X52237441Y-131620939D02*
X52332679Y-131573320D01*
X52332679Y-131573320D02*
X52523155Y-131573320D01*
X52523155Y-131573320D02*
X52618393Y-131620939D01*
X52618393Y-131620939D02*
X52666012Y-131668558D01*
X52666012Y-131668558D02*
X52713631Y-131763796D01*
X52713631Y-131763796D02*
X52713631Y-132049510D01*
X52713631Y-132049510D02*
X52666012Y-132144748D01*
X52666012Y-132144748D02*
X52618393Y-132192368D01*
X52618393Y-132192368D02*
X52523155Y-132239987D01*
X52523155Y-132239987D02*
X52332679Y-132239987D01*
X52332679Y-132239987D02*
X52237441Y-132192368D01*
X54475536Y-132144748D02*
X54427917Y-132192368D01*
X54427917Y-132192368D02*
X54285060Y-132239987D01*
X54285060Y-132239987D02*
X54189822Y-132239987D01*
X54189822Y-132239987D02*
X54046965Y-132192368D01*
X54046965Y-132192368D02*
X53951727Y-132097129D01*
X53951727Y-132097129D02*
X53904108Y-132001891D01*
X53904108Y-132001891D02*
X53856489Y-131811415D01*
X53856489Y-131811415D02*
X53856489Y-131668558D01*
X53856489Y-131668558D02*
X53904108Y-131478082D01*
X53904108Y-131478082D02*
X53951727Y-131382844D01*
X53951727Y-131382844D02*
X54046965Y-131287606D01*
X54046965Y-131287606D02*
X54189822Y-131239987D01*
X54189822Y-131239987D02*
X54285060Y-131239987D01*
X54285060Y-131239987D02*
X54427917Y-131287606D01*
X54427917Y-131287606D02*
X54475536Y-131335225D01*
X55046965Y-132239987D02*
X54951727Y-132192368D01*
X54951727Y-132192368D02*
X54904108Y-132144748D01*
X54904108Y-132144748D02*
X54856489Y-132049510D01*
X54856489Y-132049510D02*
X54856489Y-131763796D01*
X54856489Y-131763796D02*
X54904108Y-131668558D01*
X54904108Y-131668558D02*
X54951727Y-131620939D01*
X54951727Y-131620939D02*
X55046965Y-131573320D01*
X55046965Y-131573320D02*
X55189822Y-131573320D01*
X55189822Y-131573320D02*
X55285060Y-131620939D01*
X55285060Y-131620939D02*
X55332679Y-131668558D01*
X55332679Y-131668558D02*
X55380298Y-131763796D01*
X55380298Y-131763796D02*
X55380298Y-132049510D01*
X55380298Y-132049510D02*
X55332679Y-132144748D01*
X55332679Y-132144748D02*
X55285060Y-132192368D01*
X55285060Y-132192368D02*
X55189822Y-132239987D01*
X55189822Y-132239987D02*
X55046965Y-132239987D01*
X55808870Y-131573320D02*
X55808870Y-132239987D01*
X55808870Y-131668558D02*
X55856489Y-131620939D01*
X55856489Y-131620939D02*
X55951727Y-131573320D01*
X55951727Y-131573320D02*
X56094584Y-131573320D01*
X56094584Y-131573320D02*
X56189822Y-131620939D01*
X56189822Y-131620939D02*
X56237441Y-131716177D01*
X56237441Y-131716177D02*
X56237441Y-132239987D01*
X56570775Y-131573320D02*
X56951727Y-131573320D01*
X56713632Y-131239987D02*
X56713632Y-132097129D01*
X56713632Y-132097129D02*
X56761251Y-132192368D01*
X56761251Y-132192368D02*
X56856489Y-132239987D01*
X56856489Y-132239987D02*
X56951727Y-132239987D01*
X57285061Y-132239987D02*
X57285061Y-131573320D01*
X57285061Y-131763796D02*
X57332680Y-131668558D01*
X57332680Y-131668558D02*
X57380299Y-131620939D01*
X57380299Y-131620939D02*
X57475537Y-131573320D01*
X57475537Y-131573320D02*
X57570775Y-131573320D01*
X58046966Y-132239987D02*
X57951728Y-132192368D01*
X57951728Y-132192368D02*
X57904109Y-132144748D01*
X57904109Y-132144748D02*
X57856490Y-132049510D01*
X57856490Y-132049510D02*
X57856490Y-131763796D01*
X57856490Y-131763796D02*
X57904109Y-131668558D01*
X57904109Y-131668558D02*
X57951728Y-131620939D01*
X57951728Y-131620939D02*
X58046966Y-131573320D01*
X58046966Y-131573320D02*
X58189823Y-131573320D01*
X58189823Y-131573320D02*
X58285061Y-131620939D01*
X58285061Y-131620939D02*
X58332680Y-131668558D01*
X58332680Y-131668558D02*
X58380299Y-131763796D01*
X58380299Y-131763796D02*
X58380299Y-132049510D01*
X58380299Y-132049510D02*
X58332680Y-132144748D01*
X58332680Y-132144748D02*
X58285061Y-132192368D01*
X58285061Y-132192368D02*
X58189823Y-132239987D01*
X58189823Y-132239987D02*
X58046966Y-132239987D01*
X58951728Y-132239987D02*
X58856490Y-132192368D01*
X58856490Y-132192368D02*
X58808871Y-132097129D01*
X58808871Y-132097129D02*
X58808871Y-131239987D01*
X59475538Y-132239987D02*
X59380300Y-132192368D01*
X59380300Y-132192368D02*
X59332681Y-132097129D01*
X59332681Y-132097129D02*
X59332681Y-131239987D01*
X60237443Y-132192368D02*
X60142205Y-132239987D01*
X60142205Y-132239987D02*
X59951729Y-132239987D01*
X59951729Y-132239987D02*
X59856491Y-132192368D01*
X59856491Y-132192368D02*
X59808872Y-132097129D01*
X59808872Y-132097129D02*
X59808872Y-131716177D01*
X59808872Y-131716177D02*
X59856491Y-131620939D01*
X59856491Y-131620939D02*
X59951729Y-131573320D01*
X59951729Y-131573320D02*
X60142205Y-131573320D01*
X60142205Y-131573320D02*
X60237443Y-131620939D01*
X60237443Y-131620939D02*
X60285062Y-131716177D01*
X60285062Y-131716177D02*
X60285062Y-131811415D01*
X60285062Y-131811415D02*
X59808872Y-131906653D01*
X60713634Y-132239987D02*
X60713634Y-131573320D01*
X60713634Y-131763796D02*
X60761253Y-131668558D01*
X60761253Y-131668558D02*
X60808872Y-131620939D01*
X60808872Y-131620939D02*
X60904110Y-131573320D01*
X60904110Y-131573320D02*
X60999348Y-131573320D01*
X42046964Y-132849931D02*
X42237440Y-132849931D01*
X42237440Y-132849931D02*
X42332678Y-132897550D01*
X42332678Y-132897550D02*
X42427916Y-132992788D01*
X42427916Y-132992788D02*
X42475535Y-133183264D01*
X42475535Y-133183264D02*
X42475535Y-133516597D01*
X42475535Y-133516597D02*
X42427916Y-133707073D01*
X42427916Y-133707073D02*
X42332678Y-133802312D01*
X42332678Y-133802312D02*
X42237440Y-133849931D01*
X42237440Y-133849931D02*
X42046964Y-133849931D01*
X42046964Y-133849931D02*
X41951726Y-133802312D01*
X41951726Y-133802312D02*
X41856488Y-133707073D01*
X41856488Y-133707073D02*
X41808869Y-133516597D01*
X41808869Y-133516597D02*
X41808869Y-133183264D01*
X41808869Y-133183264D02*
X41856488Y-132992788D01*
X41856488Y-132992788D02*
X41951726Y-132897550D01*
X41951726Y-132897550D02*
X42046964Y-132849931D01*
X42904107Y-133326121D02*
X43237440Y-133326121D01*
X43380297Y-133849931D02*
X42904107Y-133849931D01*
X42904107Y-133849931D02*
X42904107Y-132849931D01*
X42904107Y-132849931D02*
X43380297Y-132849931D01*
X43808869Y-133849931D02*
X43808869Y-132849931D01*
X43808869Y-132849931D02*
X44142202Y-133564216D01*
X44142202Y-133564216D02*
X44475535Y-132849931D01*
X44475535Y-132849931D02*
X44475535Y-133849931D01*
X45713631Y-133849931D02*
X45713631Y-132849931D01*
X45713631Y-132849931D02*
X45951726Y-132849931D01*
X45951726Y-132849931D02*
X46094583Y-132897550D01*
X46094583Y-132897550D02*
X46189821Y-132992788D01*
X46189821Y-132992788D02*
X46237440Y-133088026D01*
X46237440Y-133088026D02*
X46285059Y-133278502D01*
X46285059Y-133278502D02*
X46285059Y-133421359D01*
X46285059Y-133421359D02*
X46237440Y-133611835D01*
X46237440Y-133611835D02*
X46189821Y-133707073D01*
X46189821Y-133707073D02*
X46094583Y-133802312D01*
X46094583Y-133802312D02*
X45951726Y-133849931D01*
X45951726Y-133849931D02*
X45713631Y-133849931D01*
X46713631Y-133849931D02*
X46713631Y-133183264D01*
X46713631Y-133373740D02*
X46761250Y-133278502D01*
X46761250Y-133278502D02*
X46808869Y-133230883D01*
X46808869Y-133230883D02*
X46904107Y-133183264D01*
X46904107Y-133183264D02*
X46999345Y-133183264D01*
X47475536Y-133849931D02*
X47380298Y-133802312D01*
X47380298Y-133802312D02*
X47332679Y-133754692D01*
X47332679Y-133754692D02*
X47285060Y-133659454D01*
X47285060Y-133659454D02*
X47285060Y-133373740D01*
X47285060Y-133373740D02*
X47332679Y-133278502D01*
X47332679Y-133278502D02*
X47380298Y-133230883D01*
X47380298Y-133230883D02*
X47475536Y-133183264D01*
X47475536Y-133183264D02*
X47618393Y-133183264D01*
X47618393Y-133183264D02*
X47713631Y-133230883D01*
X47713631Y-133230883D02*
X47761250Y-133278502D01*
X47761250Y-133278502D02*
X47808869Y-133373740D01*
X47808869Y-133373740D02*
X47808869Y-133659454D01*
X47808869Y-133659454D02*
X47761250Y-133754692D01*
X47761250Y-133754692D02*
X47713631Y-133802312D01*
X47713631Y-133802312D02*
X47618393Y-133849931D01*
X47618393Y-133849931D02*
X47475536Y-133849931D01*
X48237441Y-133183264D02*
X48237441Y-134183264D01*
X48237441Y-133230883D02*
X48332679Y-133183264D01*
X48332679Y-133183264D02*
X48523155Y-133183264D01*
X48523155Y-133183264D02*
X48618393Y-133230883D01*
X48618393Y-133230883D02*
X48666012Y-133278502D01*
X48666012Y-133278502D02*
X48713631Y-133373740D01*
X48713631Y-133373740D02*
X48713631Y-133659454D01*
X48713631Y-133659454D02*
X48666012Y-133754692D01*
X48666012Y-133754692D02*
X48618393Y-133802312D01*
X48618393Y-133802312D02*
X48523155Y-133849931D01*
X48523155Y-133849931D02*
X48332679Y-133849931D01*
X48332679Y-133849931D02*
X48237441Y-133802312D01*
X49142203Y-133468978D02*
X49904108Y-133468978D01*
X50380298Y-133849931D02*
X50380298Y-132849931D01*
X50856488Y-133183264D02*
X50856488Y-133849931D01*
X50856488Y-133278502D02*
X50904107Y-133230883D01*
X50904107Y-133230883D02*
X50999345Y-133183264D01*
X50999345Y-133183264D02*
X51142202Y-133183264D01*
X51142202Y-133183264D02*
X51237440Y-133230883D01*
X51237440Y-133230883D02*
X51285059Y-133326121D01*
X51285059Y-133326121D02*
X51285059Y-133849931D01*
X52380298Y-132849931D02*
X52713631Y-133849931D01*
X52713631Y-133849931D02*
X53046964Y-132849931D01*
X53761250Y-133802312D02*
X53666012Y-133849931D01*
X53666012Y-133849931D02*
X53475536Y-133849931D01*
X53475536Y-133849931D02*
X53380298Y-133802312D01*
X53380298Y-133802312D02*
X53332679Y-133707073D01*
X53332679Y-133707073D02*
X53332679Y-133326121D01*
X53332679Y-133326121D02*
X53380298Y-133230883D01*
X53380298Y-133230883D02*
X53475536Y-133183264D01*
X53475536Y-133183264D02*
X53666012Y-133183264D01*
X53666012Y-133183264D02*
X53761250Y-133230883D01*
X53761250Y-133230883D02*
X53808869Y-133326121D01*
X53808869Y-133326121D02*
X53808869Y-133421359D01*
X53808869Y-133421359D02*
X53332679Y-133516597D01*
X54237441Y-133849931D02*
X54237441Y-133183264D01*
X54237441Y-133373740D02*
X54285060Y-133278502D01*
X54285060Y-133278502D02*
X54332679Y-133230883D01*
X54332679Y-133230883D02*
X54427917Y-133183264D01*
X54427917Y-133183264D02*
X54523155Y-133183264D01*
X54808870Y-133802312D02*
X54904108Y-133849931D01*
X54904108Y-133849931D02*
X55094584Y-133849931D01*
X55094584Y-133849931D02*
X55189822Y-133802312D01*
X55189822Y-133802312D02*
X55237441Y-133707073D01*
X55237441Y-133707073D02*
X55237441Y-133659454D01*
X55237441Y-133659454D02*
X55189822Y-133564216D01*
X55189822Y-133564216D02*
X55094584Y-133516597D01*
X55094584Y-133516597D02*
X54951727Y-133516597D01*
X54951727Y-133516597D02*
X54856489Y-133468978D01*
X54856489Y-133468978D02*
X54808870Y-133373740D01*
X54808870Y-133373740D02*
X54808870Y-133326121D01*
X54808870Y-133326121D02*
X54856489Y-133230883D01*
X54856489Y-133230883D02*
X54951727Y-133183264D01*
X54951727Y-133183264D02*
X55094584Y-133183264D01*
X55094584Y-133183264D02*
X55189822Y-133230883D01*
X55666013Y-133849931D02*
X55666013Y-133183264D01*
X55666013Y-132849931D02*
X55618394Y-132897550D01*
X55618394Y-132897550D02*
X55666013Y-132945169D01*
X55666013Y-132945169D02*
X55713632Y-132897550D01*
X55713632Y-132897550D02*
X55666013Y-132849931D01*
X55666013Y-132849931D02*
X55666013Y-132945169D01*
X56285060Y-133849931D02*
X56189822Y-133802312D01*
X56189822Y-133802312D02*
X56142203Y-133754692D01*
X56142203Y-133754692D02*
X56094584Y-133659454D01*
X56094584Y-133659454D02*
X56094584Y-133373740D01*
X56094584Y-133373740D02*
X56142203Y-133278502D01*
X56142203Y-133278502D02*
X56189822Y-133230883D01*
X56189822Y-133230883D02*
X56285060Y-133183264D01*
X56285060Y-133183264D02*
X56427917Y-133183264D01*
X56427917Y-133183264D02*
X56523155Y-133230883D01*
X56523155Y-133230883D02*
X56570774Y-133278502D01*
X56570774Y-133278502D02*
X56618393Y-133373740D01*
X56618393Y-133373740D02*
X56618393Y-133659454D01*
X56618393Y-133659454D02*
X56570774Y-133754692D01*
X56570774Y-133754692D02*
X56523155Y-133802312D01*
X56523155Y-133802312D02*
X56427917Y-133849931D01*
X56427917Y-133849931D02*
X56285060Y-133849931D01*
X57046965Y-133183264D02*
X57046965Y-133849931D01*
X57046965Y-133278502D02*
X57094584Y-133230883D01*
X57094584Y-133230883D02*
X57189822Y-133183264D01*
X57189822Y-133183264D02*
X57332679Y-133183264D01*
X57332679Y-133183264D02*
X57427917Y-133230883D01*
X57427917Y-133230883D02*
X57475536Y-133326121D01*
X57475536Y-133326121D02*
X57475536Y-133849931D01*
X41713631Y-134459875D02*
X42046964Y-135459875D01*
X42046964Y-135459875D02*
X42380297Y-134459875D01*
X43237440Y-135459875D02*
X42666012Y-135459875D01*
X42951726Y-135459875D02*
X42951726Y-134459875D01*
X42951726Y-134459875D02*
X42856488Y-134602732D01*
X42856488Y-134602732D02*
X42761250Y-134697970D01*
X42761250Y-134697970D02*
X42666012Y-134745589D01*
X43666012Y-135364636D02*
X43713631Y-135412256D01*
X43713631Y-135412256D02*
X43666012Y-135459875D01*
X43666012Y-135459875D02*
X43618393Y-135412256D01*
X43618393Y-135412256D02*
X43666012Y-135364636D01*
X43666012Y-135364636D02*
X43666012Y-135459875D01*
X44666011Y-135459875D02*
X44094583Y-135459875D01*
X44380297Y-135459875D02*
X44380297Y-134459875D01*
X44380297Y-134459875D02*
X44285059Y-134602732D01*
X44285059Y-134602732D02*
X44189821Y-134697970D01*
X44189821Y-134697970D02*
X44094583Y-134745589D01*
X46427916Y-135459875D02*
X46094583Y-134983684D01*
X45856488Y-135459875D02*
X45856488Y-134459875D01*
X45856488Y-134459875D02*
X46237440Y-134459875D01*
X46237440Y-134459875D02*
X46332678Y-134507494D01*
X46332678Y-134507494D02*
X46380297Y-134555113D01*
X46380297Y-134555113D02*
X46427916Y-134650351D01*
X46427916Y-134650351D02*
X46427916Y-134793208D01*
X46427916Y-134793208D02*
X46380297Y-134888446D01*
X46380297Y-134888446D02*
X46332678Y-134936065D01*
X46332678Y-134936065D02*
X46237440Y-134983684D01*
X46237440Y-134983684D02*
X45856488Y-134983684D01*
X46856488Y-135364636D02*
X46904107Y-135412256D01*
X46904107Y-135412256D02*
X46856488Y-135459875D01*
X46856488Y-135459875D02*
X46808869Y-135412256D01*
X46808869Y-135412256D02*
X46856488Y-135364636D01*
X46856488Y-135364636D02*
X46856488Y-135459875D01*
X48427916Y-134936065D02*
X48570773Y-134983684D01*
X48570773Y-134983684D02*
X48618392Y-135031303D01*
X48618392Y-135031303D02*
X48666011Y-135126541D01*
X48666011Y-135126541D02*
X48666011Y-135269398D01*
X48666011Y-135269398D02*
X48618392Y-135364636D01*
X48618392Y-135364636D02*
X48570773Y-135412256D01*
X48570773Y-135412256D02*
X48475535Y-135459875D01*
X48475535Y-135459875D02*
X48094583Y-135459875D01*
X48094583Y-135459875D02*
X48094583Y-134459875D01*
X48094583Y-134459875D02*
X48427916Y-134459875D01*
X48427916Y-134459875D02*
X48523154Y-134507494D01*
X48523154Y-134507494D02*
X48570773Y-134555113D01*
X48570773Y-134555113D02*
X48618392Y-134650351D01*
X48618392Y-134650351D02*
X48618392Y-134745589D01*
X48618392Y-134745589D02*
X48570773Y-134840827D01*
X48570773Y-134840827D02*
X48523154Y-134888446D01*
X48523154Y-134888446D02*
X48427916Y-134936065D01*
X48427916Y-134936065D02*
X48094583Y-134936065D01*
X49237440Y-135459875D02*
X49142202Y-135412256D01*
X49142202Y-135412256D02*
X49094583Y-135317017D01*
X49094583Y-135317017D02*
X49094583Y-134459875D01*
X50046964Y-135459875D02*
X50046964Y-134936065D01*
X50046964Y-134936065D02*
X49999345Y-134840827D01*
X49999345Y-134840827D02*
X49904107Y-134793208D01*
X49904107Y-134793208D02*
X49713631Y-134793208D01*
X49713631Y-134793208D02*
X49618393Y-134840827D01*
X50046964Y-135412256D02*
X49951726Y-135459875D01*
X49951726Y-135459875D02*
X49713631Y-135459875D01*
X49713631Y-135459875D02*
X49618393Y-135412256D01*
X49618393Y-135412256D02*
X49570774Y-135317017D01*
X49570774Y-135317017D02*
X49570774Y-135221779D01*
X49570774Y-135221779D02*
X49618393Y-135126541D01*
X49618393Y-135126541D02*
X49713631Y-135078922D01*
X49713631Y-135078922D02*
X49951726Y-135078922D01*
X49951726Y-135078922D02*
X50046964Y-135031303D01*
X50523155Y-134793208D02*
X50523155Y-135459875D01*
X50523155Y-134888446D02*
X50570774Y-134840827D01*
X50570774Y-134840827D02*
X50666012Y-134793208D01*
X50666012Y-134793208D02*
X50808869Y-134793208D01*
X50808869Y-134793208D02*
X50904107Y-134840827D01*
X50904107Y-134840827D02*
X50951726Y-134936065D01*
X50951726Y-134936065D02*
X50951726Y-135459875D01*
X51856488Y-135412256D02*
X51761250Y-135459875D01*
X51761250Y-135459875D02*
X51570774Y-135459875D01*
X51570774Y-135459875D02*
X51475536Y-135412256D01*
X51475536Y-135412256D02*
X51427917Y-135364636D01*
X51427917Y-135364636D02*
X51380298Y-135269398D01*
X51380298Y-135269398D02*
X51380298Y-134983684D01*
X51380298Y-134983684D02*
X51427917Y-134888446D01*
X51427917Y-134888446D02*
X51475536Y-134840827D01*
X51475536Y-134840827D02*
X51570774Y-134793208D01*
X51570774Y-134793208D02*
X51761250Y-134793208D01*
X51761250Y-134793208D02*
X51856488Y-134840827D01*
X52285060Y-135459875D02*
X52285060Y-134459875D01*
X52713631Y-135459875D02*
X52713631Y-134936065D01*
X52713631Y-134936065D02*
X52666012Y-134840827D01*
X52666012Y-134840827D02*
X52570774Y-134793208D01*
X52570774Y-134793208D02*
X52427917Y-134793208D01*
X52427917Y-134793208D02*
X52332679Y-134840827D01*
X52332679Y-134840827D02*
X52285060Y-134888446D01*
X53618393Y-135459875D02*
X53618393Y-134936065D01*
X53618393Y-134936065D02*
X53570774Y-134840827D01*
X53570774Y-134840827D02*
X53475536Y-134793208D01*
X53475536Y-134793208D02*
X53285060Y-134793208D01*
X53285060Y-134793208D02*
X53189822Y-134840827D01*
X53618393Y-135412256D02*
X53523155Y-135459875D01*
X53523155Y-135459875D02*
X53285060Y-135459875D01*
X53285060Y-135459875D02*
X53189822Y-135412256D01*
X53189822Y-135412256D02*
X53142203Y-135317017D01*
X53142203Y-135317017D02*
X53142203Y-135221779D01*
X53142203Y-135221779D02*
X53189822Y-135126541D01*
X53189822Y-135126541D02*
X53285060Y-135078922D01*
X53285060Y-135078922D02*
X53523155Y-135078922D01*
X53523155Y-135078922D02*
X53618393Y-135031303D01*
X54094584Y-135459875D02*
X54094584Y-134793208D01*
X54094584Y-134983684D02*
X54142203Y-134888446D01*
X54142203Y-134888446D02*
X54189822Y-134840827D01*
X54189822Y-134840827D02*
X54285060Y-134793208D01*
X54285060Y-134793208D02*
X54380298Y-134793208D01*
X55142203Y-135459875D02*
X55142203Y-134459875D01*
X55142203Y-135412256D02*
X55046965Y-135459875D01*
X55046965Y-135459875D02*
X54856489Y-135459875D01*
X54856489Y-135459875D02*
X54761251Y-135412256D01*
X54761251Y-135412256D02*
X54713632Y-135364636D01*
X54713632Y-135364636D02*
X54666013Y-135269398D01*
X54666013Y-135269398D02*
X54666013Y-134983684D01*
X54666013Y-134983684D02*
X54713632Y-134888446D01*
X54713632Y-134888446D02*
X54761251Y-134840827D01*
X54761251Y-134840827D02*
X54856489Y-134793208D01*
X54856489Y-134793208D02*
X55046965Y-134793208D01*
X55046965Y-134793208D02*
X55142203Y-134840827D01*
X56808870Y-134793208D02*
X56808870Y-135459875D01*
X56570775Y-134412256D02*
X56332680Y-135126541D01*
X56332680Y-135126541D02*
X56951727Y-135126541D01*
X57332680Y-135364636D02*
X57380299Y-135412256D01*
X57380299Y-135412256D02*
X57332680Y-135459875D01*
X57332680Y-135459875D02*
X57285061Y-135412256D01*
X57285061Y-135412256D02*
X57332680Y-135364636D01*
X57332680Y-135364636D02*
X57332680Y-135459875D01*
X57761251Y-134555113D02*
X57808870Y-134507494D01*
X57808870Y-134507494D02*
X57904108Y-134459875D01*
X57904108Y-134459875D02*
X58142203Y-134459875D01*
X58142203Y-134459875D02*
X58237441Y-134507494D01*
X58237441Y-134507494D02*
X58285060Y-134555113D01*
X58285060Y-134555113D02*
X58332679Y-134650351D01*
X58332679Y-134650351D02*
X58332679Y-134745589D01*
X58332679Y-134745589D02*
X58285060Y-134888446D01*
X58285060Y-134888446D02*
X57713632Y-135459875D01*
X57713632Y-135459875D02*
X58332679Y-135459875D01*
X58951727Y-134459875D02*
X59046965Y-134459875D01*
X59046965Y-134459875D02*
X59142203Y-134507494D01*
X59142203Y-134507494D02*
X59189822Y-134555113D01*
X59189822Y-134555113D02*
X59237441Y-134650351D01*
X59237441Y-134650351D02*
X59285060Y-134840827D01*
X59285060Y-134840827D02*
X59285060Y-135078922D01*
X59285060Y-135078922D02*
X59237441Y-135269398D01*
X59237441Y-135269398D02*
X59189822Y-135364636D01*
X59189822Y-135364636D02*
X59142203Y-135412256D01*
X59142203Y-135412256D02*
X59046965Y-135459875D01*
X59046965Y-135459875D02*
X58951727Y-135459875D01*
X58951727Y-135459875D02*
X58856489Y-135412256D01*
X58856489Y-135412256D02*
X58808870Y-135364636D01*
X58808870Y-135364636D02*
X58761251Y-135269398D01*
X58761251Y-135269398D02*
X58713632Y-135078922D01*
X58713632Y-135078922D02*
X58713632Y-134840827D01*
X58713632Y-134840827D02*
X58761251Y-134650351D01*
X58761251Y-134650351D02*
X58808870Y-134555113D01*
X58808870Y-134555113D02*
X58856489Y-134507494D01*
X58856489Y-134507494D02*
X58951727Y-134459875D01*
X59666013Y-134555113D02*
X59713632Y-134507494D01*
X59713632Y-134507494D02*
X59808870Y-134459875D01*
X59808870Y-134459875D02*
X60046965Y-134459875D01*
X60046965Y-134459875D02*
X60142203Y-134507494D01*
X60142203Y-134507494D02*
X60189822Y-134555113D01*
X60189822Y-134555113D02*
X60237441Y-134650351D01*
X60237441Y-134650351D02*
X60237441Y-134745589D01*
X60237441Y-134745589D02*
X60189822Y-134888446D01*
X60189822Y-134888446D02*
X59618394Y-135459875D01*
X59618394Y-135459875D02*
X60237441Y-135459875D01*
X61094584Y-134793208D02*
X61094584Y-135459875D01*
X60856489Y-134412256D02*
X60618394Y-135126541D01*
X60618394Y-135126541D02*
X61237441Y-135126541D01*
X42046964Y-136069819D02*
X42237440Y-136069819D01*
X42237440Y-136069819D02*
X42332678Y-136117438D01*
X42332678Y-136117438D02*
X42427916Y-136212676D01*
X42427916Y-136212676D02*
X42475535Y-136403152D01*
X42475535Y-136403152D02*
X42475535Y-136736485D01*
X42475535Y-136736485D02*
X42427916Y-136926961D01*
X42427916Y-136926961D02*
X42332678Y-137022200D01*
X42332678Y-137022200D02*
X42237440Y-137069819D01*
X42237440Y-137069819D02*
X42046964Y-137069819D01*
X42046964Y-137069819D02*
X41951726Y-137022200D01*
X41951726Y-137022200D02*
X41856488Y-136926961D01*
X41856488Y-136926961D02*
X41808869Y-136736485D01*
X41808869Y-136736485D02*
X41808869Y-136403152D01*
X41808869Y-136403152D02*
X41856488Y-136212676D01*
X41856488Y-136212676D02*
X41951726Y-136117438D01*
X41951726Y-136117438D02*
X42046964Y-136069819D01*
X42904107Y-137069819D02*
X42904107Y-136403152D01*
X42904107Y-136593628D02*
X42951726Y-136498390D01*
X42951726Y-136498390D02*
X42999345Y-136450771D01*
X42999345Y-136450771D02*
X43094583Y-136403152D01*
X43094583Y-136403152D02*
X43189821Y-136403152D01*
X43523155Y-137069819D02*
X43523155Y-136403152D01*
X43523155Y-136069819D02*
X43475536Y-136117438D01*
X43475536Y-136117438D02*
X43523155Y-136165057D01*
X43523155Y-136165057D02*
X43570774Y-136117438D01*
X43570774Y-136117438D02*
X43523155Y-136069819D01*
X43523155Y-136069819D02*
X43523155Y-136165057D01*
X44427916Y-136403152D02*
X44427916Y-137212676D01*
X44427916Y-137212676D02*
X44380297Y-137307914D01*
X44380297Y-137307914D02*
X44332678Y-137355533D01*
X44332678Y-137355533D02*
X44237440Y-137403152D01*
X44237440Y-137403152D02*
X44094583Y-137403152D01*
X44094583Y-137403152D02*
X43999345Y-137355533D01*
X44427916Y-137022200D02*
X44332678Y-137069819D01*
X44332678Y-137069819D02*
X44142202Y-137069819D01*
X44142202Y-137069819D02*
X44046964Y-137022200D01*
X44046964Y-137022200D02*
X43999345Y-136974580D01*
X43999345Y-136974580D02*
X43951726Y-136879342D01*
X43951726Y-136879342D02*
X43951726Y-136593628D01*
X43951726Y-136593628D02*
X43999345Y-136498390D01*
X43999345Y-136498390D02*
X44046964Y-136450771D01*
X44046964Y-136450771D02*
X44142202Y-136403152D01*
X44142202Y-136403152D02*
X44332678Y-136403152D01*
X44332678Y-136403152D02*
X44427916Y-136450771D01*
X44904107Y-136974580D02*
X44951726Y-137022200D01*
X44951726Y-137022200D02*
X44904107Y-137069819D01*
X44904107Y-137069819D02*
X44856488Y-137022200D01*
X44856488Y-137022200D02*
X44904107Y-136974580D01*
X44904107Y-136974580D02*
X44904107Y-137069819D01*
X46094583Y-137022200D02*
X46237440Y-137069819D01*
X46237440Y-137069819D02*
X46475535Y-137069819D01*
X46475535Y-137069819D02*
X46570773Y-137022200D01*
X46570773Y-137022200D02*
X46618392Y-136974580D01*
X46618392Y-136974580D02*
X46666011Y-136879342D01*
X46666011Y-136879342D02*
X46666011Y-136784104D01*
X46666011Y-136784104D02*
X46618392Y-136688866D01*
X46618392Y-136688866D02*
X46570773Y-136641247D01*
X46570773Y-136641247D02*
X46475535Y-136593628D01*
X46475535Y-136593628D02*
X46285059Y-136546009D01*
X46285059Y-136546009D02*
X46189821Y-136498390D01*
X46189821Y-136498390D02*
X46142202Y-136450771D01*
X46142202Y-136450771D02*
X46094583Y-136355533D01*
X46094583Y-136355533D02*
X46094583Y-136260295D01*
X46094583Y-136260295D02*
X46142202Y-136165057D01*
X46142202Y-136165057D02*
X46189821Y-136117438D01*
X46189821Y-136117438D02*
X46285059Y-136069819D01*
X46285059Y-136069819D02*
X46523154Y-136069819D01*
X46523154Y-136069819D02*
X46666011Y-136117438D01*
X47523154Y-137022200D02*
X47427916Y-137069819D01*
X47427916Y-137069819D02*
X47237440Y-137069819D01*
X47237440Y-137069819D02*
X47142202Y-137022200D01*
X47142202Y-137022200D02*
X47094583Y-136974580D01*
X47094583Y-136974580D02*
X47046964Y-136879342D01*
X47046964Y-136879342D02*
X47046964Y-136593628D01*
X47046964Y-136593628D02*
X47094583Y-136498390D01*
X47094583Y-136498390D02*
X47142202Y-136450771D01*
X47142202Y-136450771D02*
X47237440Y-136403152D01*
X47237440Y-136403152D02*
X47427916Y-136403152D01*
X47427916Y-136403152D02*
X47523154Y-136450771D01*
X47951726Y-137069819D02*
X47951726Y-136069819D01*
X48380297Y-137069819D02*
X48380297Y-136546009D01*
X48380297Y-136546009D02*
X48332678Y-136450771D01*
X48332678Y-136450771D02*
X48237440Y-136403152D01*
X48237440Y-136403152D02*
X48094583Y-136403152D01*
X48094583Y-136403152D02*
X47999345Y-136450771D01*
X47999345Y-136450771D02*
X47951726Y-136498390D01*
X49237440Y-137022200D02*
X49142202Y-137069819D01*
X49142202Y-137069819D02*
X48951726Y-137069819D01*
X48951726Y-137069819D02*
X48856488Y-137022200D01*
X48856488Y-137022200D02*
X48808869Y-136926961D01*
X48808869Y-136926961D02*
X48808869Y-136546009D01*
X48808869Y-136546009D02*
X48856488Y-136450771D01*
X48856488Y-136450771D02*
X48951726Y-136403152D01*
X48951726Y-136403152D02*
X49142202Y-136403152D01*
X49142202Y-136403152D02*
X49237440Y-136450771D01*
X49237440Y-136450771D02*
X49285059Y-136546009D01*
X49285059Y-136546009D02*
X49285059Y-136641247D01*
X49285059Y-136641247D02*
X48808869Y-136736485D01*
X49713631Y-137069819D02*
X49713631Y-136403152D01*
X49713631Y-136498390D02*
X49761250Y-136450771D01*
X49761250Y-136450771D02*
X49856488Y-136403152D01*
X49856488Y-136403152D02*
X49999345Y-136403152D01*
X49999345Y-136403152D02*
X50094583Y-136450771D01*
X50094583Y-136450771D02*
X50142202Y-136546009D01*
X50142202Y-136546009D02*
X50142202Y-137069819D01*
X50142202Y-136546009D02*
X50189821Y-136450771D01*
X50189821Y-136450771D02*
X50285059Y-136403152D01*
X50285059Y-136403152D02*
X50427916Y-136403152D01*
X50427916Y-136403152D02*
X50523155Y-136450771D01*
X50523155Y-136450771D02*
X50570774Y-136546009D01*
X50570774Y-136546009D02*
X50570774Y-137069819D01*
X51475535Y-137069819D02*
X51475535Y-136546009D01*
X51475535Y-136546009D02*
X51427916Y-136450771D01*
X51427916Y-136450771D02*
X51332678Y-136403152D01*
X51332678Y-136403152D02*
X51142202Y-136403152D01*
X51142202Y-136403152D02*
X51046964Y-136450771D01*
X51475535Y-137022200D02*
X51380297Y-137069819D01*
X51380297Y-137069819D02*
X51142202Y-137069819D01*
X51142202Y-137069819D02*
X51046964Y-137022200D01*
X51046964Y-137022200D02*
X50999345Y-136926961D01*
X50999345Y-136926961D02*
X50999345Y-136831723D01*
X50999345Y-136831723D02*
X51046964Y-136736485D01*
X51046964Y-136736485D02*
X51142202Y-136688866D01*
X51142202Y-136688866D02*
X51380297Y-136688866D01*
X51380297Y-136688866D02*
X51475535Y-136641247D01*
X51808869Y-136403152D02*
X52189821Y-136403152D01*
X51951726Y-136069819D02*
X51951726Y-136926961D01*
X51951726Y-136926961D02*
X51999345Y-137022200D01*
X51999345Y-137022200D02*
X52094583Y-137069819D01*
X52094583Y-137069819D02*
X52189821Y-137069819D01*
X52523155Y-137069819D02*
X52523155Y-136403152D01*
X52523155Y-136069819D02*
X52475536Y-136117438D01*
X52475536Y-136117438D02*
X52523155Y-136165057D01*
X52523155Y-136165057D02*
X52570774Y-136117438D01*
X52570774Y-136117438D02*
X52523155Y-136069819D01*
X52523155Y-136069819D02*
X52523155Y-136165057D01*
X53427916Y-137022200D02*
X53332678Y-137069819D01*
X53332678Y-137069819D02*
X53142202Y-137069819D01*
X53142202Y-137069819D02*
X53046964Y-137022200D01*
X53046964Y-137022200D02*
X52999345Y-136974580D01*
X52999345Y-136974580D02*
X52951726Y-136879342D01*
X52951726Y-136879342D02*
X52951726Y-136593628D01*
X52951726Y-136593628D02*
X52999345Y-136498390D01*
X52999345Y-136498390D02*
X53046964Y-136450771D01*
X53046964Y-136450771D02*
X53142202Y-136403152D01*
X53142202Y-136403152D02*
X53332678Y-136403152D01*
X53332678Y-136403152D02*
X53427916Y-136450771D01*
X54523155Y-136069819D02*
X54761250Y-137069819D01*
X54761250Y-137069819D02*
X54951726Y-136355533D01*
X54951726Y-136355533D02*
X55142202Y-137069819D01*
X55142202Y-137069819D02*
X55380298Y-136069819D01*
X56189821Y-137069819D02*
X56189821Y-136546009D01*
X56189821Y-136546009D02*
X56142202Y-136450771D01*
X56142202Y-136450771D02*
X56046964Y-136403152D01*
X56046964Y-136403152D02*
X55856488Y-136403152D01*
X55856488Y-136403152D02*
X55761250Y-136450771D01*
X56189821Y-137022200D02*
X56094583Y-137069819D01*
X56094583Y-137069819D02*
X55856488Y-137069819D01*
X55856488Y-137069819D02*
X55761250Y-137022200D01*
X55761250Y-137022200D02*
X55713631Y-136926961D01*
X55713631Y-136926961D02*
X55713631Y-136831723D01*
X55713631Y-136831723D02*
X55761250Y-136736485D01*
X55761250Y-136736485D02*
X55856488Y-136688866D01*
X55856488Y-136688866D02*
X56094583Y-136688866D01*
X56094583Y-136688866D02*
X56189821Y-136641247D01*
X56808869Y-137069819D02*
X56713631Y-137022200D01*
X56713631Y-137022200D02*
X56666012Y-136926961D01*
X56666012Y-136926961D02*
X56666012Y-136069819D01*
X57189822Y-137069819D02*
X57189822Y-136069819D01*
X57285060Y-136688866D02*
X57570774Y-137069819D01*
X57570774Y-136403152D02*
X57189822Y-136784104D01*
X58380298Y-137022200D02*
X58285060Y-137069819D01*
X58285060Y-137069819D02*
X58094584Y-137069819D01*
X58094584Y-137069819D02*
X57999346Y-137022200D01*
X57999346Y-137022200D02*
X57951727Y-136926961D01*
X57951727Y-136926961D02*
X57951727Y-136546009D01*
X57951727Y-136546009D02*
X57999346Y-136450771D01*
X57999346Y-136450771D02*
X58094584Y-136403152D01*
X58094584Y-136403152D02*
X58285060Y-136403152D01*
X58285060Y-136403152D02*
X58380298Y-136450771D01*
X58380298Y-136450771D02*
X58427917Y-136546009D01*
X58427917Y-136546009D02*
X58427917Y-136641247D01*
X58427917Y-136641247D02*
X57951727Y-136736485D01*
X58856489Y-137069819D02*
X58856489Y-136403152D01*
X58856489Y-136593628D02*
X58904108Y-136498390D01*
X58904108Y-136498390D02*
X58951727Y-136450771D01*
X58951727Y-136450771D02*
X59046965Y-136403152D01*
X59046965Y-136403152D02*
X59142203Y-136403152D01*
X59332680Y-136069819D02*
X59904108Y-136069819D01*
X59618394Y-137069819D02*
X59618394Y-136069819D01*
X60618394Y-137022200D02*
X60523156Y-137069819D01*
X60523156Y-137069819D02*
X60332680Y-137069819D01*
X60332680Y-137069819D02*
X60237442Y-137022200D01*
X60237442Y-137022200D02*
X60189823Y-136926961D01*
X60189823Y-136926961D02*
X60189823Y-136546009D01*
X60189823Y-136546009D02*
X60237442Y-136450771D01*
X60237442Y-136450771D02*
X60332680Y-136403152D01*
X60332680Y-136403152D02*
X60523156Y-136403152D01*
X60523156Y-136403152D02*
X60618394Y-136450771D01*
X60618394Y-136450771D02*
X60666013Y-136546009D01*
X60666013Y-136546009D02*
X60666013Y-136641247D01*
X60666013Y-136641247D02*
X60189823Y-136736485D01*
X60999347Y-137069819D02*
X61523156Y-136403152D01*
X60999347Y-136403152D02*
X61523156Y-137069819D01*
X62332680Y-137069819D02*
X62332680Y-136546009D01*
X62332680Y-136546009D02*
X62285061Y-136450771D01*
X62285061Y-136450771D02*
X62189823Y-136403152D01*
X62189823Y-136403152D02*
X61999347Y-136403152D01*
X61999347Y-136403152D02*
X61904109Y-136450771D01*
X62332680Y-137022200D02*
X62237442Y-137069819D01*
X62237442Y-137069819D02*
X61999347Y-137069819D01*
X61999347Y-137069819D02*
X61904109Y-137022200D01*
X61904109Y-137022200D02*
X61856490Y-136926961D01*
X61856490Y-136926961D02*
X61856490Y-136831723D01*
X61856490Y-136831723D02*
X61904109Y-136736485D01*
X61904109Y-136736485D02*
X61999347Y-136688866D01*
X61999347Y-136688866D02*
X62237442Y-136688866D01*
X62237442Y-136688866D02*
X62332680Y-136641247D01*
X62808871Y-136403152D02*
X62808871Y-137069819D01*
X62808871Y-136498390D02*
X62856490Y-136450771D01*
X62856490Y-136450771D02*
X62951728Y-136403152D01*
X62951728Y-136403152D02*
X63094585Y-136403152D01*
X63094585Y-136403152D02*
X63189823Y-136450771D01*
X63189823Y-136450771D02*
X63237442Y-136546009D01*
X63237442Y-136546009D02*
X63237442Y-137069819D01*
X90169819Y-136149411D02*
X90169819Y-136720839D01*
X90169819Y-136435125D02*
X89169819Y-136435125D01*
X89169819Y-136435125D02*
X89312676Y-136530363D01*
X89312676Y-136530363D02*
X89407914Y-136625601D01*
X89407914Y-136625601D02*
X89455533Y-136720839D01*
X89169819Y-135530363D02*
X89169819Y-135435125D01*
X89169819Y-135435125D02*
X89217438Y-135339887D01*
X89217438Y-135339887D02*
X89265057Y-135292268D01*
X89265057Y-135292268D02*
X89360295Y-135244649D01*
X89360295Y-135244649D02*
X89550771Y-135197030D01*
X89550771Y-135197030D02*
X89788866Y-135197030D01*
X89788866Y-135197030D02*
X89979342Y-135244649D01*
X89979342Y-135244649D02*
X90074580Y-135292268D01*
X90074580Y-135292268D02*
X90122200Y-135339887D01*
X90122200Y-135339887D02*
X90169819Y-135435125D01*
X90169819Y-135435125D02*
X90169819Y-135530363D01*
X90169819Y-135530363D02*
X90122200Y-135625601D01*
X90122200Y-135625601D02*
X90074580Y-135673220D01*
X90074580Y-135673220D02*
X89979342Y-135720839D01*
X89979342Y-135720839D02*
X89788866Y-135768458D01*
X89788866Y-135768458D02*
X89550771Y-135768458D01*
X89550771Y-135768458D02*
X89360295Y-135720839D01*
X89360295Y-135720839D02*
X89265057Y-135673220D01*
X89265057Y-135673220D02*
X89217438Y-135625601D01*
X89217438Y-135625601D02*
X89169819Y-135530363D01*
X90169819Y-134768458D02*
X89169819Y-134768458D01*
X90169819Y-134197030D02*
X89598390Y-134625601D01*
X89169819Y-134197030D02*
X89741247Y-134768458D01*
D12*
X101664400Y-112567292D02*
X101664400Y-113481578D01*
X101207257Y-113024435D02*
X102121542Y-113024435D01*
X102407257Y-114624434D02*
X102407257Y-114053006D01*
X102407257Y-114053006D02*
X101835828Y-113995863D01*
X101835828Y-113995863D02*
X101892971Y-114053006D01*
X101892971Y-114053006D02*
X101950114Y-114167292D01*
X101950114Y-114167292D02*
X101950114Y-114453006D01*
X101950114Y-114453006D02*
X101892971Y-114567292D01*
X101892971Y-114567292D02*
X101835828Y-114624434D01*
X101835828Y-114624434D02*
X101721542Y-114681577D01*
X101721542Y-114681577D02*
X101435828Y-114681577D01*
X101435828Y-114681577D02*
X101321542Y-114624434D01*
X101321542Y-114624434D02*
X101264400Y-114567292D01*
X101264400Y-114567292D02*
X101207257Y-114453006D01*
X101207257Y-114453006D02*
X101207257Y-114167292D01*
X101207257Y-114167292D02*
X101264400Y-114053006D01*
X101264400Y-114053006D02*
X101321542Y-113995863D01*
X102407257Y-115024434D02*
X101207257Y-115424434D01*
X101207257Y-115424434D02*
X102407257Y-115824434D01*
X50100114Y-113145863D02*
X50157257Y-113031578D01*
X50157257Y-113031578D02*
X50157257Y-112860149D01*
X50157257Y-112860149D02*
X50100114Y-112688720D01*
X50100114Y-112688720D02*
X49985828Y-112574435D01*
X49985828Y-112574435D02*
X49871542Y-112517292D01*
X49871542Y-112517292D02*
X49642971Y-112460149D01*
X49642971Y-112460149D02*
X49471542Y-112460149D01*
X49471542Y-112460149D02*
X49242971Y-112517292D01*
X49242971Y-112517292D02*
X49128685Y-112574435D01*
X49128685Y-112574435D02*
X49014400Y-112688720D01*
X49014400Y-112688720D02*
X48957257Y-112860149D01*
X48957257Y-112860149D02*
X48957257Y-112974435D01*
X48957257Y-112974435D02*
X49014400Y-113145863D01*
X49014400Y-113145863D02*
X49071542Y-113203006D01*
X49071542Y-113203006D02*
X49471542Y-113203006D01*
X49471542Y-113203006D02*
X49471542Y-112974435D01*
X48957257Y-113717292D02*
X50157257Y-113717292D01*
X50157257Y-113717292D02*
X48957257Y-114403006D01*
X48957257Y-114403006D02*
X50157257Y-114403006D01*
X48957257Y-114974435D02*
X50157257Y-114974435D01*
X50157257Y-114974435D02*
X50157257Y-115260149D01*
X50157257Y-115260149D02*
X50100114Y-115431578D01*
X50100114Y-115431578D02*
X49985828Y-115545863D01*
X49985828Y-115545863D02*
X49871542Y-115603006D01*
X49871542Y-115603006D02*
X49642971Y-115660149D01*
X49642971Y-115660149D02*
X49471542Y-115660149D01*
X49471542Y-115660149D02*
X49242971Y-115603006D01*
X49242971Y-115603006D02*
X49128685Y-115545863D01*
X49128685Y-115545863D02*
X49014400Y-115431578D01*
X49014400Y-115431578D02*
X48957257Y-115260149D01*
X48957257Y-115260149D02*
X48957257Y-114974435D01*
D11*
X82024764Y-58639411D02*
X82024764Y-59210839D01*
X82024764Y-58925125D02*
X81024764Y-58925125D01*
X81024764Y-58925125D02*
X81167621Y-59020363D01*
X81167621Y-59020363D02*
X81262859Y-59115601D01*
X81262859Y-59115601D02*
X81310478Y-59210839D01*
X82024764Y-58210839D02*
X81024764Y-58210839D01*
X82024764Y-57639411D02*
X81453335Y-58067982D01*
X81024764Y-57639411D02*
X81596192Y-58210839D01*
X66430180Y-101312969D02*
X66430180Y-100836779D01*
X66430180Y-100836779D02*
X65953990Y-100789160D01*
X65953990Y-100789160D02*
X66001609Y-100836779D01*
X66001609Y-100836779D02*
X66049228Y-100932017D01*
X66049228Y-100932017D02*
X66049228Y-101170112D01*
X66049228Y-101170112D02*
X66001609Y-101265350D01*
X66001609Y-101265350D02*
X65953990Y-101312969D01*
X65953990Y-101312969D02*
X65858752Y-101360588D01*
X65858752Y-101360588D02*
X65620657Y-101360588D01*
X65620657Y-101360588D02*
X65525419Y-101312969D01*
X65525419Y-101312969D02*
X65477800Y-101265350D01*
X65477800Y-101265350D02*
X65430180Y-101170112D01*
X65430180Y-101170112D02*
X65430180Y-100932017D01*
X65430180Y-100932017D02*
X65477800Y-100836779D01*
X65477800Y-100836779D02*
X65525419Y-100789160D01*
X66430180Y-101646303D02*
X65430180Y-101979636D01*
X65430180Y-101979636D02*
X66430180Y-102312969D01*
X65430180Y-103979636D02*
X65906371Y-103646303D01*
X65430180Y-103408208D02*
X66430180Y-103408208D01*
X66430180Y-103408208D02*
X66430180Y-103789160D01*
X66430180Y-103789160D02*
X66382561Y-103884398D01*
X66382561Y-103884398D02*
X66334942Y-103932017D01*
X66334942Y-103932017D02*
X66239704Y-103979636D01*
X66239704Y-103979636D02*
X66096847Y-103979636D01*
X66096847Y-103979636D02*
X66001609Y-103932017D01*
X66001609Y-103932017D02*
X65953990Y-103884398D01*
X65953990Y-103884398D02*
X65906371Y-103789160D01*
X65906371Y-103789160D02*
X65906371Y-103408208D01*
X65477800Y-104789160D02*
X65430180Y-104693922D01*
X65430180Y-104693922D02*
X65430180Y-104503446D01*
X65430180Y-104503446D02*
X65477800Y-104408208D01*
X65477800Y-104408208D02*
X65573038Y-104360589D01*
X65573038Y-104360589D02*
X65953990Y-104360589D01*
X65953990Y-104360589D02*
X66049228Y-104408208D01*
X66049228Y-104408208D02*
X66096847Y-104503446D01*
X66096847Y-104503446D02*
X66096847Y-104693922D01*
X66096847Y-104693922D02*
X66049228Y-104789160D01*
X66049228Y-104789160D02*
X65953990Y-104836779D01*
X65953990Y-104836779D02*
X65858752Y-104836779D01*
X65858752Y-104836779D02*
X65763514Y-104360589D01*
X65430180Y-105408208D02*
X65477800Y-105312970D01*
X65477800Y-105312970D02*
X65573038Y-105265351D01*
X65573038Y-105265351D02*
X66430180Y-105265351D01*
X65430180Y-106217732D02*
X65953990Y-106217732D01*
X65953990Y-106217732D02*
X66049228Y-106170113D01*
X66049228Y-106170113D02*
X66096847Y-106074875D01*
X66096847Y-106074875D02*
X66096847Y-105884399D01*
X66096847Y-105884399D02*
X66049228Y-105789161D01*
X65477800Y-106217732D02*
X65430180Y-106122494D01*
X65430180Y-106122494D02*
X65430180Y-105884399D01*
X65430180Y-105884399D02*
X65477800Y-105789161D01*
X65477800Y-105789161D02*
X65573038Y-105741542D01*
X65573038Y-105741542D02*
X65668276Y-105741542D01*
X65668276Y-105741542D02*
X65763514Y-105789161D01*
X65763514Y-105789161D02*
X65811133Y-105884399D01*
X65811133Y-105884399D02*
X65811133Y-106122494D01*
X65811133Y-106122494D02*
X65858752Y-106217732D01*
X66096847Y-106598685D02*
X65430180Y-106836780D01*
X66096847Y-107074875D02*
X65430180Y-106836780D01*
X65430180Y-106836780D02*
X65192085Y-106741542D01*
X65192085Y-106741542D02*
X65144466Y-106693923D01*
X65144466Y-106693923D02*
X65096847Y-106598685D01*
X88069819Y-135849411D02*
X88069819Y-136420839D01*
X88069819Y-136135125D02*
X87069819Y-136135125D01*
X87069819Y-136135125D02*
X87212676Y-136230363D01*
X87212676Y-136230363D02*
X87307914Y-136325601D01*
X87307914Y-136325601D02*
X87355533Y-136420839D01*
X88069819Y-135420839D02*
X87069819Y-135420839D01*
X88069819Y-134849411D02*
X87498390Y-135277982D01*
X87069819Y-134849411D02*
X87641247Y-135420839D01*
X68570588Y-135769819D02*
X67999160Y-135769819D01*
X68284874Y-135769819D02*
X68284874Y-134769819D01*
X68284874Y-134769819D02*
X68189636Y-134912676D01*
X68189636Y-134912676D02*
X68094398Y-135007914D01*
X68094398Y-135007914D02*
X67999160Y-135055533D01*
X69189636Y-134769819D02*
X69284874Y-134769819D01*
X69284874Y-134769819D02*
X69380112Y-134817438D01*
X69380112Y-134817438D02*
X69427731Y-134865057D01*
X69427731Y-134865057D02*
X69475350Y-134960295D01*
X69475350Y-134960295D02*
X69522969Y-135150771D01*
X69522969Y-135150771D02*
X69522969Y-135388866D01*
X69522969Y-135388866D02*
X69475350Y-135579342D01*
X69475350Y-135579342D02*
X69427731Y-135674580D01*
X69427731Y-135674580D02*
X69380112Y-135722200D01*
X69380112Y-135722200D02*
X69284874Y-135769819D01*
X69284874Y-135769819D02*
X69189636Y-135769819D01*
X69189636Y-135769819D02*
X69094398Y-135722200D01*
X69094398Y-135722200D02*
X69046779Y-135674580D01*
X69046779Y-135674580D02*
X68999160Y-135579342D01*
X68999160Y-135579342D02*
X68951541Y-135388866D01*
X68951541Y-135388866D02*
X68951541Y-135150771D01*
X68951541Y-135150771D02*
X68999160Y-134960295D01*
X68999160Y-134960295D02*
X69046779Y-134865057D01*
X69046779Y-134865057D02*
X69094398Y-134817438D01*
X69094398Y-134817438D02*
X69189636Y-134769819D01*
X69951541Y-135769819D02*
X69951541Y-134769819D01*
X70522969Y-135769819D02*
X70094398Y-135198390D01*
X70522969Y-134769819D02*
X69951541Y-135341247D01*
X118469819Y-116239411D02*
X118469819Y-116810839D01*
X118469819Y-116525125D02*
X117469819Y-116525125D01*
X117469819Y-116525125D02*
X117612676Y-116620363D01*
X117612676Y-116620363D02*
X117707914Y-116715601D01*
X117707914Y-116715601D02*
X117755533Y-116810839D01*
X117565057Y-115858458D02*
X117517438Y-115810839D01*
X117517438Y-115810839D02*
X117469819Y-115715601D01*
X117469819Y-115715601D02*
X117469819Y-115477506D01*
X117469819Y-115477506D02*
X117517438Y-115382268D01*
X117517438Y-115382268D02*
X117565057Y-115334649D01*
X117565057Y-115334649D02*
X117660295Y-115287030D01*
X117660295Y-115287030D02*
X117755533Y-115287030D01*
X117755533Y-115287030D02*
X117898390Y-115334649D01*
X117898390Y-115334649D02*
X118469819Y-115906077D01*
X118469819Y-115906077D02*
X118469819Y-115287030D01*
X117469819Y-115001315D02*
X118469819Y-114667982D01*
X118469819Y-114667982D02*
X117469819Y-114334649D01*
X118469819Y-112667982D02*
X117993628Y-113001315D01*
X118469819Y-113239410D02*
X117469819Y-113239410D01*
X117469819Y-113239410D02*
X117469819Y-112858458D01*
X117469819Y-112858458D02*
X117517438Y-112763220D01*
X117517438Y-112763220D02*
X117565057Y-112715601D01*
X117565057Y-112715601D02*
X117660295Y-112667982D01*
X117660295Y-112667982D02*
X117803152Y-112667982D01*
X117803152Y-112667982D02*
X117898390Y-112715601D01*
X117898390Y-112715601D02*
X117946009Y-112763220D01*
X117946009Y-112763220D02*
X117993628Y-112858458D01*
X117993628Y-112858458D02*
X117993628Y-113239410D01*
X118422200Y-111858458D02*
X118469819Y-111953696D01*
X118469819Y-111953696D02*
X118469819Y-112144172D01*
X118469819Y-112144172D02*
X118422200Y-112239410D01*
X118422200Y-112239410D02*
X118326961Y-112287029D01*
X118326961Y-112287029D02*
X117946009Y-112287029D01*
X117946009Y-112287029D02*
X117850771Y-112239410D01*
X117850771Y-112239410D02*
X117803152Y-112144172D01*
X117803152Y-112144172D02*
X117803152Y-111953696D01*
X117803152Y-111953696D02*
X117850771Y-111858458D01*
X117850771Y-111858458D02*
X117946009Y-111810839D01*
X117946009Y-111810839D02*
X118041247Y-111810839D01*
X118041247Y-111810839D02*
X118136485Y-112287029D01*
X118469819Y-111239410D02*
X118422200Y-111334648D01*
X118422200Y-111334648D02*
X118326961Y-111382267D01*
X118326961Y-111382267D02*
X117469819Y-111382267D01*
X118469819Y-110429886D02*
X117946009Y-110429886D01*
X117946009Y-110429886D02*
X117850771Y-110477505D01*
X117850771Y-110477505D02*
X117803152Y-110572743D01*
X117803152Y-110572743D02*
X117803152Y-110763219D01*
X117803152Y-110763219D02*
X117850771Y-110858457D01*
X118422200Y-110429886D02*
X118469819Y-110525124D01*
X118469819Y-110525124D02*
X118469819Y-110763219D01*
X118469819Y-110763219D02*
X118422200Y-110858457D01*
X118422200Y-110858457D02*
X118326961Y-110906076D01*
X118326961Y-110906076D02*
X118231723Y-110906076D01*
X118231723Y-110906076D02*
X118136485Y-110858457D01*
X118136485Y-110858457D02*
X118088866Y-110763219D01*
X118088866Y-110763219D02*
X118088866Y-110525124D01*
X118088866Y-110525124D02*
X118041247Y-110429886D01*
X117803152Y-110048933D02*
X118469819Y-109810838D01*
X117803152Y-109572743D02*
X118469819Y-109810838D01*
X118469819Y-109810838D02*
X118707914Y-109906076D01*
X118707914Y-109906076D02*
X118755533Y-109953695D01*
X118755533Y-109953695D02*
X118803152Y-110048933D01*
X66430180Y-80612969D02*
X66430180Y-80136779D01*
X66430180Y-80136779D02*
X65953990Y-80089160D01*
X65953990Y-80089160D02*
X66001609Y-80136779D01*
X66001609Y-80136779D02*
X66049228Y-80232017D01*
X66049228Y-80232017D02*
X66049228Y-80470112D01*
X66049228Y-80470112D02*
X66001609Y-80565350D01*
X66001609Y-80565350D02*
X65953990Y-80612969D01*
X65953990Y-80612969D02*
X65858752Y-80660588D01*
X65858752Y-80660588D02*
X65620657Y-80660588D01*
X65620657Y-80660588D02*
X65525419Y-80612969D01*
X65525419Y-80612969D02*
X65477800Y-80565350D01*
X65477800Y-80565350D02*
X65430180Y-80470112D01*
X65430180Y-80470112D02*
X65430180Y-80232017D01*
X65430180Y-80232017D02*
X65477800Y-80136779D01*
X65477800Y-80136779D02*
X65525419Y-80089160D01*
X66430180Y-80946303D02*
X65430180Y-81279636D01*
X65430180Y-81279636D02*
X66430180Y-81612969D01*
X65430180Y-83279636D02*
X65906371Y-82946303D01*
X65430180Y-82708208D02*
X66430180Y-82708208D01*
X66430180Y-82708208D02*
X66430180Y-83089160D01*
X66430180Y-83089160D02*
X66382561Y-83184398D01*
X66382561Y-83184398D02*
X66334942Y-83232017D01*
X66334942Y-83232017D02*
X66239704Y-83279636D01*
X66239704Y-83279636D02*
X66096847Y-83279636D01*
X66096847Y-83279636D02*
X66001609Y-83232017D01*
X66001609Y-83232017D02*
X65953990Y-83184398D01*
X65953990Y-83184398D02*
X65906371Y-83089160D01*
X65906371Y-83089160D02*
X65906371Y-82708208D01*
X65477800Y-84089160D02*
X65430180Y-83993922D01*
X65430180Y-83993922D02*
X65430180Y-83803446D01*
X65430180Y-83803446D02*
X65477800Y-83708208D01*
X65477800Y-83708208D02*
X65573038Y-83660589D01*
X65573038Y-83660589D02*
X65953990Y-83660589D01*
X65953990Y-83660589D02*
X66049228Y-83708208D01*
X66049228Y-83708208D02*
X66096847Y-83803446D01*
X66096847Y-83803446D02*
X66096847Y-83993922D01*
X66096847Y-83993922D02*
X66049228Y-84089160D01*
X66049228Y-84089160D02*
X65953990Y-84136779D01*
X65953990Y-84136779D02*
X65858752Y-84136779D01*
X65858752Y-84136779D02*
X65763514Y-83660589D01*
X65430180Y-84708208D02*
X65477800Y-84612970D01*
X65477800Y-84612970D02*
X65573038Y-84565351D01*
X65573038Y-84565351D02*
X66430180Y-84565351D01*
X65430180Y-85517732D02*
X65953990Y-85517732D01*
X65953990Y-85517732D02*
X66049228Y-85470113D01*
X66049228Y-85470113D02*
X66096847Y-85374875D01*
X66096847Y-85374875D02*
X66096847Y-85184399D01*
X66096847Y-85184399D02*
X66049228Y-85089161D01*
X65477800Y-85517732D02*
X65430180Y-85422494D01*
X65430180Y-85422494D02*
X65430180Y-85184399D01*
X65430180Y-85184399D02*
X65477800Y-85089161D01*
X65477800Y-85089161D02*
X65573038Y-85041542D01*
X65573038Y-85041542D02*
X65668276Y-85041542D01*
X65668276Y-85041542D02*
X65763514Y-85089161D01*
X65763514Y-85089161D02*
X65811133Y-85184399D01*
X65811133Y-85184399D02*
X65811133Y-85422494D01*
X65811133Y-85422494D02*
X65858752Y-85517732D01*
X66096847Y-85898685D02*
X65430180Y-86136780D01*
X66096847Y-86374875D02*
X65430180Y-86136780D01*
X65430180Y-86136780D02*
X65192085Y-86041542D01*
X65192085Y-86041542D02*
X65144466Y-85993923D01*
X65144466Y-85993923D02*
X65096847Y-85898685D01*
D12*
X54714400Y-112517292D02*
X54714400Y-113431578D01*
X54257257Y-112974435D02*
X55171542Y-112974435D01*
X55457257Y-114574434D02*
X55457257Y-114003006D01*
X55457257Y-114003006D02*
X54885828Y-113945863D01*
X54885828Y-113945863D02*
X54942971Y-114003006D01*
X54942971Y-114003006D02*
X55000114Y-114117292D01*
X55000114Y-114117292D02*
X55000114Y-114403006D01*
X55000114Y-114403006D02*
X54942971Y-114517292D01*
X54942971Y-114517292D02*
X54885828Y-114574434D01*
X54885828Y-114574434D02*
X54771542Y-114631577D01*
X54771542Y-114631577D02*
X54485828Y-114631577D01*
X54485828Y-114631577D02*
X54371542Y-114574434D01*
X54371542Y-114574434D02*
X54314400Y-114517292D01*
X54314400Y-114517292D02*
X54257257Y-114403006D01*
X54257257Y-114403006D02*
X54257257Y-114117292D01*
X54257257Y-114117292D02*
X54314400Y-114003006D01*
X54314400Y-114003006D02*
X54371542Y-113945863D01*
X55457257Y-114974434D02*
X54257257Y-115374434D01*
X54257257Y-115374434D02*
X55457257Y-115774434D01*
X51032457Y-74496993D02*
X51089600Y-74554136D01*
X51089600Y-74554136D02*
X51146742Y-74725564D01*
X51146742Y-74725564D02*
X51146742Y-74839850D01*
X51146742Y-74839850D02*
X51089600Y-75011279D01*
X51089600Y-75011279D02*
X50975314Y-75125564D01*
X50975314Y-75125564D02*
X50861028Y-75182707D01*
X50861028Y-75182707D02*
X50632457Y-75239850D01*
X50632457Y-75239850D02*
X50461028Y-75239850D01*
X50461028Y-75239850D02*
X50232457Y-75182707D01*
X50232457Y-75182707D02*
X50118171Y-75125564D01*
X50118171Y-75125564D02*
X50003885Y-75011279D01*
X50003885Y-75011279D02*
X49946742Y-74839850D01*
X49946742Y-74839850D02*
X49946742Y-74725564D01*
X49946742Y-74725564D02*
X50003885Y-74554136D01*
X50003885Y-74554136D02*
X50061028Y-74496993D01*
X51146742Y-73296993D02*
X50575314Y-73696993D01*
X51146742Y-73982707D02*
X49946742Y-73982707D01*
X49946742Y-73982707D02*
X49946742Y-73525564D01*
X49946742Y-73525564D02*
X50003885Y-73411279D01*
X50003885Y-73411279D02*
X50061028Y-73354136D01*
X50061028Y-73354136D02*
X50175314Y-73296993D01*
X50175314Y-73296993D02*
X50346742Y-73296993D01*
X50346742Y-73296993D02*
X50461028Y-73354136D01*
X50461028Y-73354136D02*
X50518171Y-73411279D01*
X50518171Y-73411279D02*
X50575314Y-73525564D01*
X50575314Y-73525564D02*
X50575314Y-73982707D01*
X51146742Y-72154136D02*
X51146742Y-72839850D01*
X51146742Y-72496993D02*
X49946742Y-72496993D01*
X49946742Y-72496993D02*
X50118171Y-72611279D01*
X50118171Y-72611279D02*
X50232457Y-72725564D01*
X50232457Y-72725564D02*
X50289600Y-72839850D01*
D11*
X79166666Y-63854819D02*
X79166666Y-64569104D01*
X79166666Y-64569104D02*
X79119047Y-64711961D01*
X79119047Y-64711961D02*
X79023809Y-64807200D01*
X79023809Y-64807200D02*
X78880952Y-64854819D01*
X78880952Y-64854819D02*
X78785714Y-64854819D01*
X79595238Y-63950057D02*
X79642857Y-63902438D01*
X79642857Y-63902438D02*
X79738095Y-63854819D01*
X79738095Y-63854819D02*
X79976190Y-63854819D01*
X79976190Y-63854819D02*
X80071428Y-63902438D01*
X80071428Y-63902438D02*
X80119047Y-63950057D01*
X80119047Y-63950057D02*
X80166666Y-64045295D01*
X80166666Y-64045295D02*
X80166666Y-64140533D01*
X80166666Y-64140533D02*
X80119047Y-64283390D01*
X80119047Y-64283390D02*
X79547619Y-64854819D01*
X79547619Y-64854819D02*
X80166666Y-64854819D01*
X83929764Y-58666666D02*
X83453573Y-58999999D01*
X83929764Y-59238094D02*
X82929764Y-59238094D01*
X82929764Y-59238094D02*
X82929764Y-58857142D01*
X82929764Y-58857142D02*
X82977383Y-58761904D01*
X82977383Y-58761904D02*
X83025002Y-58714285D01*
X83025002Y-58714285D02*
X83120240Y-58666666D01*
X83120240Y-58666666D02*
X83263097Y-58666666D01*
X83263097Y-58666666D02*
X83358335Y-58714285D01*
X83358335Y-58714285D02*
X83405954Y-58761904D01*
X83405954Y-58761904D02*
X83453573Y-58857142D01*
X83453573Y-58857142D02*
X83453573Y-59238094D01*
X82929764Y-58333332D02*
X82929764Y-57666666D01*
X82929764Y-57666666D02*
X83929764Y-58095237D01*
D12*
X46232457Y-74696993D02*
X46289600Y-74754136D01*
X46289600Y-74754136D02*
X46346742Y-74925564D01*
X46346742Y-74925564D02*
X46346742Y-75039850D01*
X46346742Y-75039850D02*
X46289600Y-75211279D01*
X46289600Y-75211279D02*
X46175314Y-75325564D01*
X46175314Y-75325564D02*
X46061028Y-75382707D01*
X46061028Y-75382707D02*
X45832457Y-75439850D01*
X45832457Y-75439850D02*
X45661028Y-75439850D01*
X45661028Y-75439850D02*
X45432457Y-75382707D01*
X45432457Y-75382707D02*
X45318171Y-75325564D01*
X45318171Y-75325564D02*
X45203885Y-75211279D01*
X45203885Y-75211279D02*
X45146742Y-75039850D01*
X45146742Y-75039850D02*
X45146742Y-74925564D01*
X45146742Y-74925564D02*
X45203885Y-74754136D01*
X45203885Y-74754136D02*
X45261028Y-74696993D01*
X46346742Y-73496993D02*
X45775314Y-73896993D01*
X46346742Y-74182707D02*
X45146742Y-74182707D01*
X45146742Y-74182707D02*
X45146742Y-73725564D01*
X45146742Y-73725564D02*
X45203885Y-73611279D01*
X45203885Y-73611279D02*
X45261028Y-73554136D01*
X45261028Y-73554136D02*
X45375314Y-73496993D01*
X45375314Y-73496993D02*
X45546742Y-73496993D01*
X45546742Y-73496993D02*
X45661028Y-73554136D01*
X45661028Y-73554136D02*
X45718171Y-73611279D01*
X45718171Y-73611279D02*
X45775314Y-73725564D01*
X45775314Y-73725564D02*
X45775314Y-74182707D01*
X45146742Y-73096993D02*
X45146742Y-72354136D01*
X45146742Y-72354136D02*
X45603885Y-72754136D01*
X45603885Y-72754136D02*
X45603885Y-72582707D01*
X45603885Y-72582707D02*
X45661028Y-72468422D01*
X45661028Y-72468422D02*
X45718171Y-72411279D01*
X45718171Y-72411279D02*
X45832457Y-72354136D01*
X45832457Y-72354136D02*
X46118171Y-72354136D01*
X46118171Y-72354136D02*
X46232457Y-72411279D01*
X46232457Y-72411279D02*
X46289600Y-72468422D01*
X46289600Y-72468422D02*
X46346742Y-72582707D01*
X46346742Y-72582707D02*
X46346742Y-72925564D01*
X46346742Y-72925564D02*
X46289600Y-73039850D01*
X46289600Y-73039850D02*
X46232457Y-73096993D01*
D11*
X92144947Y-139956554D02*
X92097328Y-140051792D01*
X92097328Y-140051792D02*
X92002090Y-140147030D01*
X92002090Y-140147030D02*
X91859232Y-140289887D01*
X91859232Y-140289887D02*
X91811613Y-140385125D01*
X91811613Y-140385125D02*
X91811613Y-140480363D01*
X92049709Y-140432744D02*
X92002090Y-140527982D01*
X92002090Y-140527982D02*
X91906851Y-140623220D01*
X91906851Y-140623220D02*
X91716375Y-140670839D01*
X91716375Y-140670839D02*
X91383042Y-140670839D01*
X91383042Y-140670839D02*
X91192566Y-140623220D01*
X91192566Y-140623220D02*
X91097328Y-140527982D01*
X91097328Y-140527982D02*
X91049709Y-140432744D01*
X91049709Y-140432744D02*
X91049709Y-140242268D01*
X91049709Y-140242268D02*
X91097328Y-140147030D01*
X91097328Y-140147030D02*
X91192566Y-140051792D01*
X91192566Y-140051792D02*
X91383042Y-140004173D01*
X91383042Y-140004173D02*
X91716375Y-140004173D01*
X91716375Y-140004173D02*
X91906851Y-140051792D01*
X91906851Y-140051792D02*
X92002090Y-140147030D01*
X92002090Y-140147030D02*
X92049709Y-140242268D01*
X92049709Y-140242268D02*
X92049709Y-140432744D01*
X92049709Y-139051792D02*
X92049709Y-139623220D01*
X92049709Y-139337506D02*
X91049709Y-139337506D01*
X91049709Y-139337506D02*
X91192566Y-139432744D01*
X91192566Y-139432744D02*
X91287804Y-139527982D01*
X91287804Y-139527982D02*
X91335423Y-139623220D01*
X73345180Y-96061905D02*
X74345180Y-96061905D01*
X73345180Y-96633333D02*
X73916609Y-96204762D01*
X74345180Y-96633333D02*
X73773752Y-96061905D01*
X74249942Y-97014286D02*
X74297561Y-97061905D01*
X74297561Y-97061905D02*
X74345180Y-97157143D01*
X74345180Y-97157143D02*
X74345180Y-97395238D01*
X74345180Y-97395238D02*
X74297561Y-97490476D01*
X74297561Y-97490476D02*
X74249942Y-97538095D01*
X74249942Y-97538095D02*
X74154704Y-97585714D01*
X74154704Y-97585714D02*
X74059466Y-97585714D01*
X74059466Y-97585714D02*
X73916609Y-97538095D01*
X73916609Y-97538095D02*
X73345180Y-96966667D01*
X73345180Y-96966667D02*
X73345180Y-97585714D01*
D13*
X67159171Y-108815225D02*
X68659171Y-108815225D01*
X68659171Y-108815225D02*
X67159171Y-109672368D01*
X67159171Y-109672368D02*
X68659171Y-109672368D01*
X67302028Y-111243797D02*
X67230600Y-111172369D01*
X67230600Y-111172369D02*
X67159171Y-110958083D01*
X67159171Y-110958083D02*
X67159171Y-110815226D01*
X67159171Y-110815226D02*
X67230600Y-110600940D01*
X67230600Y-110600940D02*
X67373457Y-110458083D01*
X67373457Y-110458083D02*
X67516314Y-110386654D01*
X67516314Y-110386654D02*
X67802028Y-110315226D01*
X67802028Y-110315226D02*
X68016314Y-110315226D01*
X68016314Y-110315226D02*
X68302028Y-110386654D01*
X68302028Y-110386654D02*
X68444885Y-110458083D01*
X68444885Y-110458083D02*
X68587742Y-110600940D01*
X68587742Y-110600940D02*
X68659171Y-110815226D01*
X68659171Y-110815226D02*
X68659171Y-110958083D01*
X68659171Y-110958083D02*
X68587742Y-111172369D01*
X68587742Y-111172369D02*
X68516314Y-111243797D01*
X63359171Y-108779510D02*
X64859171Y-108779510D01*
X64859171Y-108779510D02*
X63359171Y-109636653D01*
X63359171Y-109636653D02*
X64859171Y-109636653D01*
X64859171Y-110636654D02*
X64859171Y-110922368D01*
X64859171Y-110922368D02*
X64787742Y-111065225D01*
X64787742Y-111065225D02*
X64644885Y-111208082D01*
X64644885Y-111208082D02*
X64359171Y-111279511D01*
X64359171Y-111279511D02*
X63859171Y-111279511D01*
X63859171Y-111279511D02*
X63573457Y-111208082D01*
X63573457Y-111208082D02*
X63430600Y-111065225D01*
X63430600Y-111065225D02*
X63359171Y-110922368D01*
X63359171Y-110922368D02*
X63359171Y-110636654D01*
X63359171Y-110636654D02*
X63430600Y-110493797D01*
X63430600Y-110493797D02*
X63573457Y-110350939D01*
X63573457Y-110350939D02*
X63859171Y-110279511D01*
X63859171Y-110279511D02*
X64359171Y-110279511D01*
X64359171Y-110279511D02*
X64644885Y-110350939D01*
X64644885Y-110350939D02*
X64787742Y-110493797D01*
X64787742Y-110493797D02*
X64859171Y-110636654D01*
D11*
X69053333Y-139774819D02*
X68720000Y-139298628D01*
X68481905Y-139774819D02*
X68481905Y-138774819D01*
X68481905Y-138774819D02*
X68862857Y-138774819D01*
X68862857Y-138774819D02*
X68958095Y-138822438D01*
X68958095Y-138822438D02*
X69005714Y-138870057D01*
X69005714Y-138870057D02*
X69053333Y-138965295D01*
X69053333Y-138965295D02*
X69053333Y-139108152D01*
X69053333Y-139108152D02*
X69005714Y-139203390D01*
X69005714Y-139203390D02*
X68958095Y-139251009D01*
X68958095Y-139251009D02*
X68862857Y-139298628D01*
X68862857Y-139298628D02*
X68481905Y-139298628D01*
X69910476Y-139108152D02*
X69910476Y-139774819D01*
X69672381Y-138727200D02*
X69434286Y-139441485D01*
X69434286Y-139441485D02*
X70053333Y-139441485D01*
X61874819Y-58665475D02*
X61398628Y-58998808D01*
X61874819Y-59236903D02*
X60874819Y-59236903D01*
X60874819Y-59236903D02*
X60874819Y-58855951D01*
X60874819Y-58855951D02*
X60922438Y-58760713D01*
X60922438Y-58760713D02*
X60970057Y-58713094D01*
X60970057Y-58713094D02*
X61065295Y-58665475D01*
X61065295Y-58665475D02*
X61208152Y-58665475D01*
X61208152Y-58665475D02*
X61303390Y-58713094D01*
X61303390Y-58713094D02*
X61351009Y-58760713D01*
X61351009Y-58760713D02*
X61398628Y-58855951D01*
X61398628Y-58855951D02*
X61398628Y-59236903D01*
X60874819Y-57760713D02*
X60874819Y-58236903D01*
X60874819Y-58236903D02*
X61351009Y-58284522D01*
X61351009Y-58284522D02*
X61303390Y-58236903D01*
X61303390Y-58236903D02*
X61255771Y-58141665D01*
X61255771Y-58141665D02*
X61255771Y-57903570D01*
X61255771Y-57903570D02*
X61303390Y-57808332D01*
X61303390Y-57808332D02*
X61351009Y-57760713D01*
X61351009Y-57760713D02*
X61446247Y-57713094D01*
X61446247Y-57713094D02*
X61684342Y-57713094D01*
X61684342Y-57713094D02*
X61779580Y-57760713D01*
X61779580Y-57760713D02*
X61827200Y-57808332D01*
X61827200Y-57808332D02*
X61874819Y-57903570D01*
X61874819Y-57903570D02*
X61874819Y-58141665D01*
X61874819Y-58141665D02*
X61827200Y-58236903D01*
X61827200Y-58236903D02*
X61779580Y-58284522D01*
D14*
X128164382Y-100517977D02*
X127424153Y-100517977D01*
X127424153Y-100517977D02*
X127337067Y-100561520D01*
X127337067Y-100561520D02*
X127293525Y-100605063D01*
X127293525Y-100605063D02*
X127249982Y-100692148D01*
X127249982Y-100692148D02*
X127249982Y-100866320D01*
X127249982Y-100866320D02*
X127293525Y-100953405D01*
X127293525Y-100953405D02*
X127337067Y-100996948D01*
X127337067Y-100996948D02*
X127424153Y-101040491D01*
X127424153Y-101040491D02*
X128164382Y-101040491D01*
X127249982Y-101954891D02*
X127249982Y-101432377D01*
X127249982Y-101693634D02*
X128164382Y-101693634D01*
X128164382Y-101693634D02*
X128033753Y-101606548D01*
X128033753Y-101606548D02*
X127946667Y-101519463D01*
X127946667Y-101519463D02*
X127903125Y-101432377D01*
X121060305Y-94643120D02*
X121060305Y-95309786D01*
X121060305Y-95309786D02*
X120060305Y-94881215D01*
X120631734Y-95833596D02*
X120679353Y-95738358D01*
X120679353Y-95738358D02*
X120726972Y-95690739D01*
X120726972Y-95690739D02*
X120822210Y-95643120D01*
X120822210Y-95643120D02*
X120869829Y-95643120D01*
X120869829Y-95643120D02*
X120965067Y-95690739D01*
X120965067Y-95690739D02*
X121012686Y-95738358D01*
X121012686Y-95738358D02*
X121060305Y-95833596D01*
X121060305Y-95833596D02*
X121060305Y-96024072D01*
X121060305Y-96024072D02*
X121012686Y-96119310D01*
X121012686Y-96119310D02*
X120965067Y-96166929D01*
X120965067Y-96166929D02*
X120869829Y-96214548D01*
X120869829Y-96214548D02*
X120822210Y-96214548D01*
X120822210Y-96214548D02*
X120726972Y-96166929D01*
X120726972Y-96166929D02*
X120679353Y-96119310D01*
X120679353Y-96119310D02*
X120631734Y-96024072D01*
X120631734Y-96024072D02*
X120631734Y-95833596D01*
X120631734Y-95833596D02*
X120584115Y-95738358D01*
X120584115Y-95738358D02*
X120536496Y-95690739D01*
X120536496Y-95690739D02*
X120441258Y-95643120D01*
X120441258Y-95643120D02*
X120250782Y-95643120D01*
X120250782Y-95643120D02*
X120155544Y-95690739D01*
X120155544Y-95690739D02*
X120107925Y-95738358D01*
X120107925Y-95738358D02*
X120060305Y-95833596D01*
X120060305Y-95833596D02*
X120060305Y-96024072D01*
X120060305Y-96024072D02*
X120107925Y-96119310D01*
X120107925Y-96119310D02*
X120155544Y-96166929D01*
X120155544Y-96166929D02*
X120250782Y-96214548D01*
X120250782Y-96214548D02*
X120441258Y-96214548D01*
X120441258Y-96214548D02*
X120536496Y-96166929D01*
X120536496Y-96166929D02*
X120584115Y-96119310D01*
X120584115Y-96119310D02*
X120631734Y-96024072D01*
X121060305Y-96833596D02*
X121060305Y-96928834D01*
X121060305Y-96928834D02*
X121012686Y-97024072D01*
X121012686Y-97024072D02*
X120965067Y-97071691D01*
X120965067Y-97071691D02*
X120869829Y-97119310D01*
X120869829Y-97119310D02*
X120679353Y-97166929D01*
X120679353Y-97166929D02*
X120441258Y-97166929D01*
X120441258Y-97166929D02*
X120250782Y-97119310D01*
X120250782Y-97119310D02*
X120155544Y-97071691D01*
X120155544Y-97071691D02*
X120107925Y-97024072D01*
X120107925Y-97024072D02*
X120060305Y-96928834D01*
X120060305Y-96928834D02*
X120060305Y-96833596D01*
X120060305Y-96833596D02*
X120107925Y-96738358D01*
X120107925Y-96738358D02*
X120155544Y-96690739D01*
X120155544Y-96690739D02*
X120250782Y-96643120D01*
X120250782Y-96643120D02*
X120441258Y-96595501D01*
X120441258Y-96595501D02*
X120679353Y-96595501D01*
X120679353Y-96595501D02*
X120869829Y-96643120D01*
X120869829Y-96643120D02*
X120965067Y-96690739D01*
X120965067Y-96690739D02*
X121012686Y-96738358D01*
X121012686Y-96738358D02*
X121060305Y-96833596D01*
X121060305Y-98071691D02*
X121060305Y-97595501D01*
X121060305Y-97595501D02*
X120584115Y-97547882D01*
X120584115Y-97547882D02*
X120631734Y-97595501D01*
X120631734Y-97595501D02*
X120679353Y-97690739D01*
X120679353Y-97690739D02*
X120679353Y-97928834D01*
X120679353Y-97928834D02*
X120631734Y-98024072D01*
X120631734Y-98024072D02*
X120584115Y-98071691D01*
X120584115Y-98071691D02*
X120488877Y-98119310D01*
X120488877Y-98119310D02*
X120250782Y-98119310D01*
X120250782Y-98119310D02*
X120155544Y-98071691D01*
X120155544Y-98071691D02*
X120107925Y-98024072D01*
X120107925Y-98024072D02*
X120060305Y-97928834D01*
X120060305Y-97928834D02*
X120060305Y-97690739D01*
X120060305Y-97690739D02*
X120107925Y-97595501D01*
X120107925Y-97595501D02*
X120155544Y-97547882D01*
D12*
X114162780Y-99360149D02*
X114162780Y-99550625D01*
X114162780Y-99550625D02*
X114115161Y-99645863D01*
X114115161Y-99645863D02*
X114019923Y-99741101D01*
X114019923Y-99741101D02*
X113829447Y-99788720D01*
X113829447Y-99788720D02*
X113496114Y-99788720D01*
X113496114Y-99788720D02*
X113305638Y-99741101D01*
X113305638Y-99741101D02*
X113210400Y-99645863D01*
X113210400Y-99645863D02*
X113162780Y-99550625D01*
X113162780Y-99550625D02*
X113162780Y-99360149D01*
X113162780Y-99360149D02*
X113210400Y-99264911D01*
X113210400Y-99264911D02*
X113305638Y-99169673D01*
X113305638Y-99169673D02*
X113496114Y-99122054D01*
X113496114Y-99122054D02*
X113829447Y-99122054D01*
X113829447Y-99122054D02*
X114019923Y-99169673D01*
X114019923Y-99169673D02*
X114115161Y-99264911D01*
X114115161Y-99264911D02*
X114162780Y-99360149D01*
X114162780Y-100217292D02*
X113353257Y-100217292D01*
X113353257Y-100217292D02*
X113258019Y-100264911D01*
X113258019Y-100264911D02*
X113210400Y-100312530D01*
X113210400Y-100312530D02*
X113162780Y-100407768D01*
X113162780Y-100407768D02*
X113162780Y-100598244D01*
X113162780Y-100598244D02*
X113210400Y-100693482D01*
X113210400Y-100693482D02*
X113258019Y-100741101D01*
X113258019Y-100741101D02*
X113353257Y-100788720D01*
X113353257Y-100788720D02*
X114162780Y-100788720D01*
X114162780Y-101122054D02*
X114162780Y-101693482D01*
X113162780Y-101407768D02*
X114162780Y-101407768D01*
X113562780Y-91869673D02*
X114562780Y-91869673D01*
X113562780Y-92345863D02*
X114562780Y-92345863D01*
X114562780Y-92345863D02*
X113562780Y-92917291D01*
X113562780Y-92917291D02*
X114562780Y-92917291D01*
X128948014Y-94007363D02*
X129005157Y-93893078D01*
X129005157Y-93893078D02*
X129005157Y-93721649D01*
X129005157Y-93721649D02*
X128948014Y-93550220D01*
X128948014Y-93550220D02*
X128833728Y-93435935D01*
X128833728Y-93435935D02*
X128719442Y-93378792D01*
X128719442Y-93378792D02*
X128490871Y-93321649D01*
X128490871Y-93321649D02*
X128319442Y-93321649D01*
X128319442Y-93321649D02*
X128090871Y-93378792D01*
X128090871Y-93378792D02*
X127976585Y-93435935D01*
X127976585Y-93435935D02*
X127862300Y-93550220D01*
X127862300Y-93550220D02*
X127805157Y-93721649D01*
X127805157Y-93721649D02*
X127805157Y-93835935D01*
X127805157Y-93835935D02*
X127862300Y-94007363D01*
X127862300Y-94007363D02*
X127919442Y-94064506D01*
X127919442Y-94064506D02*
X128319442Y-94064506D01*
X128319442Y-94064506D02*
X128319442Y-93835935D01*
X127805157Y-94578792D02*
X129005157Y-94578792D01*
X129005157Y-94578792D02*
X127805157Y-95264506D01*
X127805157Y-95264506D02*
X129005157Y-95264506D01*
X127805157Y-95835935D02*
X129005157Y-95835935D01*
X129005157Y-95835935D02*
X129005157Y-96121649D01*
X129005157Y-96121649D02*
X128948014Y-96293078D01*
X128948014Y-96293078D02*
X128833728Y-96407363D01*
X128833728Y-96407363D02*
X128719442Y-96464506D01*
X128719442Y-96464506D02*
X128490871Y-96521649D01*
X128490871Y-96521649D02*
X128319442Y-96521649D01*
X128319442Y-96521649D02*
X128090871Y-96464506D01*
X128090871Y-96464506D02*
X127976585Y-96407363D01*
X127976585Y-96407363D02*
X127862300Y-96293078D01*
X127862300Y-96293078D02*
X127805157Y-96121649D01*
X127805157Y-96121649D02*
X127805157Y-95835935D01*
X113943382Y-96684838D02*
X113848144Y-96637219D01*
X113848144Y-96637219D02*
X113705287Y-96637219D01*
X113705287Y-96637219D02*
X113562430Y-96684838D01*
X113562430Y-96684838D02*
X113467192Y-96780076D01*
X113467192Y-96780076D02*
X113419573Y-96875314D01*
X113419573Y-96875314D02*
X113371954Y-97065790D01*
X113371954Y-97065790D02*
X113371954Y-97208647D01*
X113371954Y-97208647D02*
X113419573Y-97399123D01*
X113419573Y-97399123D02*
X113467192Y-97494361D01*
X113467192Y-97494361D02*
X113562430Y-97589600D01*
X113562430Y-97589600D02*
X113705287Y-97637219D01*
X113705287Y-97637219D02*
X113800525Y-97637219D01*
X113800525Y-97637219D02*
X113943382Y-97589600D01*
X113943382Y-97589600D02*
X113991001Y-97541980D01*
X113991001Y-97541980D02*
X113991001Y-97208647D01*
X113991001Y-97208647D02*
X113800525Y-97208647D01*
X114419573Y-97637219D02*
X114419573Y-96637219D01*
X114419573Y-96637219D02*
X114991001Y-97637219D01*
X114991001Y-97637219D02*
X114991001Y-96637219D01*
X115467192Y-97637219D02*
X115467192Y-96637219D01*
X115467192Y-96637219D02*
X115705287Y-96637219D01*
X115705287Y-96637219D02*
X115848144Y-96684838D01*
X115848144Y-96684838D02*
X115943382Y-96780076D01*
X115943382Y-96780076D02*
X115991001Y-96875314D01*
X115991001Y-96875314D02*
X116038620Y-97065790D01*
X116038620Y-97065790D02*
X116038620Y-97208647D01*
X116038620Y-97208647D02*
X115991001Y-97399123D01*
X115991001Y-97399123D02*
X115943382Y-97494361D01*
X115943382Y-97494361D02*
X115848144Y-97589600D01*
X115848144Y-97589600D02*
X115705287Y-97637219D01*
X115705287Y-97637219D02*
X115467192Y-97637219D01*
X99017292Y-82746742D02*
X99017292Y-83718171D01*
X99017292Y-83718171D02*
X99074435Y-83832457D01*
X99074435Y-83832457D02*
X99131578Y-83889600D01*
X99131578Y-83889600D02*
X99245863Y-83946742D01*
X99245863Y-83946742D02*
X99474435Y-83946742D01*
X99474435Y-83946742D02*
X99588720Y-83889600D01*
X99588720Y-83889600D02*
X99645863Y-83832457D01*
X99645863Y-83832457D02*
X99703006Y-83718171D01*
X99703006Y-83718171D02*
X99703006Y-82746742D01*
X100160149Y-82746742D02*
X100903006Y-82746742D01*
X100903006Y-82746742D02*
X100503006Y-83203885D01*
X100503006Y-83203885D02*
X100674435Y-83203885D01*
X100674435Y-83203885D02*
X100788721Y-83261028D01*
X100788721Y-83261028D02*
X100845863Y-83318171D01*
X100845863Y-83318171D02*
X100903006Y-83432457D01*
X100903006Y-83432457D02*
X100903006Y-83718171D01*
X100903006Y-83718171D02*
X100845863Y-83832457D01*
X100845863Y-83832457D02*
X100788721Y-83889600D01*
X100788721Y-83889600D02*
X100674435Y-83946742D01*
X100674435Y-83946742D02*
X100331578Y-83946742D01*
X100331578Y-83946742D02*
X100217292Y-83889600D01*
X100217292Y-83889600D02*
X100160149Y-83832457D01*
X97043949Y-92384028D02*
X97101092Y-92326885D01*
X97101092Y-92326885D02*
X97215378Y-92269742D01*
X97215378Y-92269742D02*
X97501092Y-92269742D01*
X97501092Y-92269742D02*
X97615378Y-92326885D01*
X97615378Y-92326885D02*
X97672520Y-92384028D01*
X97672520Y-92384028D02*
X97729663Y-92498314D01*
X97729663Y-92498314D02*
X97729663Y-92612600D01*
X97729663Y-92612600D02*
X97672520Y-92784028D01*
X97672520Y-92784028D02*
X96986806Y-93469742D01*
X96986806Y-93469742D02*
X97729663Y-93469742D01*
X102276263Y-93469742D02*
X101590549Y-93469742D01*
X101933406Y-93469742D02*
X101933406Y-92269742D01*
X101933406Y-92269742D02*
X101819120Y-92441171D01*
X101819120Y-92441171D02*
X101704835Y-92555457D01*
X101704835Y-92555457D02*
X101590549Y-92612600D01*
D11*
X69033333Y-133834819D02*
X68700000Y-133358628D01*
X68461905Y-133834819D02*
X68461905Y-132834819D01*
X68461905Y-132834819D02*
X68842857Y-132834819D01*
X68842857Y-132834819D02*
X68938095Y-132882438D01*
X68938095Y-132882438D02*
X68985714Y-132930057D01*
X68985714Y-132930057D02*
X69033333Y-133025295D01*
X69033333Y-133025295D02*
X69033333Y-133168152D01*
X69033333Y-133168152D02*
X68985714Y-133263390D01*
X68985714Y-133263390D02*
X68938095Y-133311009D01*
X68938095Y-133311009D02*
X68842857Y-133358628D01*
X68842857Y-133358628D02*
X68461905Y-133358628D01*
X69366667Y-132834819D02*
X69985714Y-132834819D01*
X69985714Y-132834819D02*
X69652381Y-133215771D01*
X69652381Y-133215771D02*
X69795238Y-133215771D01*
X69795238Y-133215771D02*
X69890476Y-133263390D01*
X69890476Y-133263390D02*
X69938095Y-133311009D01*
X69938095Y-133311009D02*
X69985714Y-133406247D01*
X69985714Y-133406247D02*
X69985714Y-133644342D01*
X69985714Y-133644342D02*
X69938095Y-133739580D01*
X69938095Y-133739580D02*
X69890476Y-133787200D01*
X69890476Y-133787200D02*
X69795238Y-133834819D01*
X69795238Y-133834819D02*
X69509524Y-133834819D01*
X69509524Y-133834819D02*
X69414286Y-133787200D01*
X69414286Y-133787200D02*
X69366667Y-133739580D01*
X82966666Y-129754819D02*
X82966666Y-130469104D01*
X82966666Y-130469104D02*
X82919047Y-130611961D01*
X82919047Y-130611961D02*
X82823809Y-130707200D01*
X82823809Y-130707200D02*
X82680952Y-130754819D01*
X82680952Y-130754819D02*
X82585714Y-130754819D01*
X83966666Y-130754819D02*
X83395238Y-130754819D01*
X83680952Y-130754819D02*
X83680952Y-129754819D01*
X83680952Y-129754819D02*
X83585714Y-129897676D01*
X83585714Y-129897676D02*
X83490476Y-129992914D01*
X83490476Y-129992914D02*
X83395238Y-130040533D01*
X87216666Y-120231009D02*
X86883333Y-120231009D01*
X86883333Y-120754819D02*
X86883333Y-119754819D01*
X86883333Y-119754819D02*
X87359523Y-119754819D01*
X87692857Y-119850057D02*
X87740476Y-119802438D01*
X87740476Y-119802438D02*
X87835714Y-119754819D01*
X87835714Y-119754819D02*
X88073809Y-119754819D01*
X88073809Y-119754819D02*
X88169047Y-119802438D01*
X88169047Y-119802438D02*
X88216666Y-119850057D01*
X88216666Y-119850057D02*
X88264285Y-119945295D01*
X88264285Y-119945295D02*
X88264285Y-120040533D01*
X88264285Y-120040533D02*
X88216666Y-120183390D01*
X88216666Y-120183390D02*
X87645238Y-120754819D01*
X87645238Y-120754819D02*
X88264285Y-120754819D01*
X126934819Y-123866666D02*
X126458628Y-124199999D01*
X126934819Y-124438094D02*
X125934819Y-124438094D01*
X125934819Y-124438094D02*
X125934819Y-124057142D01*
X125934819Y-124057142D02*
X125982438Y-123961904D01*
X125982438Y-123961904D02*
X126030057Y-123914285D01*
X126030057Y-123914285D02*
X126125295Y-123866666D01*
X126125295Y-123866666D02*
X126268152Y-123866666D01*
X126268152Y-123866666D02*
X126363390Y-123914285D01*
X126363390Y-123914285D02*
X126411009Y-123961904D01*
X126411009Y-123961904D02*
X126458628Y-124057142D01*
X126458628Y-124057142D02*
X126458628Y-124438094D01*
X126934819Y-123390475D02*
X126934819Y-123199999D01*
X126934819Y-123199999D02*
X126887200Y-123104761D01*
X126887200Y-123104761D02*
X126839580Y-123057142D01*
X126839580Y-123057142D02*
X126696723Y-122961904D01*
X126696723Y-122961904D02*
X126506247Y-122914285D01*
X126506247Y-122914285D02*
X126125295Y-122914285D01*
X126125295Y-122914285D02*
X126030057Y-122961904D01*
X126030057Y-122961904D02*
X125982438Y-123009523D01*
X125982438Y-123009523D02*
X125934819Y-123104761D01*
X125934819Y-123104761D02*
X125934819Y-123295237D01*
X125934819Y-123295237D02*
X125982438Y-123390475D01*
X125982438Y-123390475D02*
X126030057Y-123438094D01*
X126030057Y-123438094D02*
X126125295Y-123485713D01*
X126125295Y-123485713D02*
X126363390Y-123485713D01*
X126363390Y-123485713D02*
X126458628Y-123438094D01*
X126458628Y-123438094D02*
X126506247Y-123390475D01*
X126506247Y-123390475D02*
X126553866Y-123295237D01*
X126553866Y-123295237D02*
X126553866Y-123104761D01*
X126553866Y-123104761D02*
X126506247Y-123009523D01*
X126506247Y-123009523D02*
X126458628Y-122961904D01*
X126458628Y-122961904D02*
X126363390Y-122914285D01*
X119185714Y-89869104D02*
X119661904Y-89869104D01*
X119090476Y-90154819D02*
X119423809Y-89154819D01*
X119423809Y-89154819D02*
X119757142Y-90154819D01*
X120614285Y-90154819D02*
X120042857Y-90154819D01*
X120328571Y-90154819D02*
X120328571Y-89154819D01*
X120328571Y-89154819D02*
X120233333Y-89297676D01*
X120233333Y-89297676D02*
X120138095Y-89392914D01*
X120138095Y-89392914D02*
X120042857Y-89440533D01*
X107608207Y-87144580D02*
X107560588Y-87192200D01*
X107560588Y-87192200D02*
X107417731Y-87239819D01*
X107417731Y-87239819D02*
X107322493Y-87239819D01*
X107322493Y-87239819D02*
X107179636Y-87192200D01*
X107179636Y-87192200D02*
X107084398Y-87096961D01*
X107084398Y-87096961D02*
X107036779Y-87001723D01*
X107036779Y-87001723D02*
X106989160Y-86811247D01*
X106989160Y-86811247D02*
X106989160Y-86668390D01*
X106989160Y-86668390D02*
X107036779Y-86477914D01*
X107036779Y-86477914D02*
X107084398Y-86382676D01*
X107084398Y-86382676D02*
X107179636Y-86287438D01*
X107179636Y-86287438D02*
X107322493Y-86239819D01*
X107322493Y-86239819D02*
X107417731Y-86239819D01*
X107417731Y-86239819D02*
X107560588Y-86287438D01*
X107560588Y-86287438D02*
X107608207Y-86335057D01*
X108560588Y-87239819D02*
X107989160Y-87239819D01*
X108274874Y-87239819D02*
X108274874Y-86239819D01*
X108274874Y-86239819D02*
X108179636Y-86382676D01*
X108179636Y-86382676D02*
X108084398Y-86477914D01*
X108084398Y-86477914D02*
X107989160Y-86525533D01*
X53645057Y-59396554D02*
X53597438Y-59491792D01*
X53597438Y-59491792D02*
X53502200Y-59587030D01*
X53502200Y-59587030D02*
X53359342Y-59729887D01*
X53359342Y-59729887D02*
X53311723Y-59825125D01*
X53311723Y-59825125D02*
X53311723Y-59920363D01*
X53549819Y-59872744D02*
X53502200Y-59967982D01*
X53502200Y-59967982D02*
X53406961Y-60063220D01*
X53406961Y-60063220D02*
X53216485Y-60110839D01*
X53216485Y-60110839D02*
X52883152Y-60110839D01*
X52883152Y-60110839D02*
X52692676Y-60063220D01*
X52692676Y-60063220D02*
X52597438Y-59967982D01*
X52597438Y-59967982D02*
X52549819Y-59872744D01*
X52549819Y-59872744D02*
X52549819Y-59682268D01*
X52549819Y-59682268D02*
X52597438Y-59587030D01*
X52597438Y-59587030D02*
X52692676Y-59491792D01*
X52692676Y-59491792D02*
X52883152Y-59444173D01*
X52883152Y-59444173D02*
X53216485Y-59444173D01*
X53216485Y-59444173D02*
X53406961Y-59491792D01*
X53406961Y-59491792D02*
X53502200Y-59587030D01*
X53502200Y-59587030D02*
X53549819Y-59682268D01*
X53549819Y-59682268D02*
X53549819Y-59872744D01*
X52549819Y-59110839D02*
X52549819Y-58491792D01*
X52549819Y-58491792D02*
X52930771Y-58825125D01*
X52930771Y-58825125D02*
X52930771Y-58682268D01*
X52930771Y-58682268D02*
X52978390Y-58587030D01*
X52978390Y-58587030D02*
X53026009Y-58539411D01*
X53026009Y-58539411D02*
X53121247Y-58491792D01*
X53121247Y-58491792D02*
X53359342Y-58491792D01*
X53359342Y-58491792D02*
X53454580Y-58539411D01*
X53454580Y-58539411D02*
X53502200Y-58587030D01*
X53502200Y-58587030D02*
X53549819Y-58682268D01*
X53549819Y-58682268D02*
X53549819Y-58967982D01*
X53549819Y-58967982D02*
X53502200Y-59063220D01*
X53502200Y-59063220D02*
X53454580Y-59110839D01*
X107808207Y-97444580D02*
X107760588Y-97492200D01*
X107760588Y-97492200D02*
X107617731Y-97539819D01*
X107617731Y-97539819D02*
X107522493Y-97539819D01*
X107522493Y-97539819D02*
X107379636Y-97492200D01*
X107379636Y-97492200D02*
X107284398Y-97396961D01*
X107284398Y-97396961D02*
X107236779Y-97301723D01*
X107236779Y-97301723D02*
X107189160Y-97111247D01*
X107189160Y-97111247D02*
X107189160Y-96968390D01*
X107189160Y-96968390D02*
X107236779Y-96777914D01*
X107236779Y-96777914D02*
X107284398Y-96682676D01*
X107284398Y-96682676D02*
X107379636Y-96587438D01*
X107379636Y-96587438D02*
X107522493Y-96539819D01*
X107522493Y-96539819D02*
X107617731Y-96539819D01*
X107617731Y-96539819D02*
X107760588Y-96587438D01*
X107760588Y-96587438D02*
X107808207Y-96635057D01*
X108189160Y-96635057D02*
X108236779Y-96587438D01*
X108236779Y-96587438D02*
X108332017Y-96539819D01*
X108332017Y-96539819D02*
X108570112Y-96539819D01*
X108570112Y-96539819D02*
X108665350Y-96587438D01*
X108665350Y-96587438D02*
X108712969Y-96635057D01*
X108712969Y-96635057D02*
X108760588Y-96730295D01*
X108760588Y-96730295D02*
X108760588Y-96825533D01*
X108760588Y-96825533D02*
X108712969Y-96968390D01*
X108712969Y-96968390D02*
X108141541Y-97539819D01*
X108141541Y-97539819D02*
X108760588Y-97539819D01*
X67716666Y-120081009D02*
X67383333Y-120081009D01*
X67383333Y-120604819D02*
X67383333Y-119604819D01*
X67383333Y-119604819D02*
X67859523Y-119604819D01*
X68764285Y-120604819D02*
X68192857Y-120604819D01*
X68478571Y-120604819D02*
X68478571Y-119604819D01*
X68478571Y-119604819D02*
X68383333Y-119747676D01*
X68383333Y-119747676D02*
X68288095Y-119842914D01*
X68288095Y-119842914D02*
X68192857Y-119890533D01*
X62535057Y-62096554D02*
X62487438Y-62191792D01*
X62487438Y-62191792D02*
X62392200Y-62287030D01*
X62392200Y-62287030D02*
X62249342Y-62429887D01*
X62249342Y-62429887D02*
X62201723Y-62525125D01*
X62201723Y-62525125D02*
X62201723Y-62620363D01*
X62439819Y-62572744D02*
X62392200Y-62667982D01*
X62392200Y-62667982D02*
X62296961Y-62763220D01*
X62296961Y-62763220D02*
X62106485Y-62810839D01*
X62106485Y-62810839D02*
X61773152Y-62810839D01*
X61773152Y-62810839D02*
X61582676Y-62763220D01*
X61582676Y-62763220D02*
X61487438Y-62667982D01*
X61487438Y-62667982D02*
X61439819Y-62572744D01*
X61439819Y-62572744D02*
X61439819Y-62382268D01*
X61439819Y-62382268D02*
X61487438Y-62287030D01*
X61487438Y-62287030D02*
X61582676Y-62191792D01*
X61582676Y-62191792D02*
X61773152Y-62144173D01*
X61773152Y-62144173D02*
X62106485Y-62144173D01*
X62106485Y-62144173D02*
X62296961Y-62191792D01*
X62296961Y-62191792D02*
X62392200Y-62287030D01*
X62392200Y-62287030D02*
X62439819Y-62382268D01*
X62439819Y-62382268D02*
X62439819Y-62572744D01*
X61773152Y-61287030D02*
X62439819Y-61287030D01*
X61392200Y-61525125D02*
X62106485Y-61763220D01*
X62106485Y-61763220D02*
X62106485Y-61144173D01*
X93119874Y-58666666D02*
X92643683Y-58999999D01*
X93119874Y-59238094D02*
X92119874Y-59238094D01*
X92119874Y-59238094D02*
X92119874Y-58857142D01*
X92119874Y-58857142D02*
X92167493Y-58761904D01*
X92167493Y-58761904D02*
X92215112Y-58714285D01*
X92215112Y-58714285D02*
X92310350Y-58666666D01*
X92310350Y-58666666D02*
X92453207Y-58666666D01*
X92453207Y-58666666D02*
X92548445Y-58714285D01*
X92548445Y-58714285D02*
X92596064Y-58761904D01*
X92596064Y-58761904D02*
X92643683Y-58857142D01*
X92643683Y-58857142D02*
X92643683Y-59238094D01*
X92548445Y-58095237D02*
X92500826Y-58190475D01*
X92500826Y-58190475D02*
X92453207Y-58238094D01*
X92453207Y-58238094D02*
X92357969Y-58285713D01*
X92357969Y-58285713D02*
X92310350Y-58285713D01*
X92310350Y-58285713D02*
X92215112Y-58238094D01*
X92215112Y-58238094D02*
X92167493Y-58190475D01*
X92167493Y-58190475D02*
X92119874Y-58095237D01*
X92119874Y-58095237D02*
X92119874Y-57904761D01*
X92119874Y-57904761D02*
X92167493Y-57809523D01*
X92167493Y-57809523D02*
X92215112Y-57761904D01*
X92215112Y-57761904D02*
X92310350Y-57714285D01*
X92310350Y-57714285D02*
X92357969Y-57714285D01*
X92357969Y-57714285D02*
X92453207Y-57761904D01*
X92453207Y-57761904D02*
X92500826Y-57809523D01*
X92500826Y-57809523D02*
X92548445Y-57904761D01*
X92548445Y-57904761D02*
X92548445Y-58095237D01*
X92548445Y-58095237D02*
X92596064Y-58190475D01*
X92596064Y-58190475D02*
X92643683Y-58238094D01*
X92643683Y-58238094D02*
X92738921Y-58285713D01*
X92738921Y-58285713D02*
X92929397Y-58285713D01*
X92929397Y-58285713D02*
X93024635Y-58238094D01*
X93024635Y-58238094D02*
X93072255Y-58190475D01*
X93072255Y-58190475D02*
X93119874Y-58095237D01*
X93119874Y-58095237D02*
X93119874Y-57904761D01*
X93119874Y-57904761D02*
X93072255Y-57809523D01*
X93072255Y-57809523D02*
X93024635Y-57761904D01*
X93024635Y-57761904D02*
X92929397Y-57714285D01*
X92929397Y-57714285D02*
X92738921Y-57714285D01*
X92738921Y-57714285D02*
X92643683Y-57761904D01*
X92643683Y-57761904D02*
X92596064Y-57809523D01*
X92596064Y-57809523D02*
X92548445Y-57904761D01*
X73645180Y-75861905D02*
X74645180Y-75861905D01*
X73645180Y-76433333D02*
X74216609Y-76004762D01*
X74645180Y-76433333D02*
X74073752Y-75861905D01*
X73645180Y-77385714D02*
X73645180Y-76814286D01*
X73645180Y-77100000D02*
X74645180Y-77100000D01*
X74645180Y-77100000D02*
X74502323Y-77004762D01*
X74502323Y-77004762D02*
X74407085Y-76909524D01*
X74407085Y-76909524D02*
X74359466Y-76814286D01*
D13*
X67159171Y-88520225D02*
X68659171Y-88520225D01*
X68659171Y-88520225D02*
X67159171Y-89377368D01*
X67159171Y-89377368D02*
X68659171Y-89377368D01*
X67302028Y-90948797D02*
X67230600Y-90877369D01*
X67230600Y-90877369D02*
X67159171Y-90663083D01*
X67159171Y-90663083D02*
X67159171Y-90520226D01*
X67159171Y-90520226D02*
X67230600Y-90305940D01*
X67230600Y-90305940D02*
X67373457Y-90163083D01*
X67373457Y-90163083D02*
X67516314Y-90091654D01*
X67516314Y-90091654D02*
X67802028Y-90020226D01*
X67802028Y-90020226D02*
X68016314Y-90020226D01*
X68016314Y-90020226D02*
X68302028Y-90091654D01*
X68302028Y-90091654D02*
X68444885Y-90163083D01*
X68444885Y-90163083D02*
X68587742Y-90305940D01*
X68587742Y-90305940D02*
X68659171Y-90520226D01*
X68659171Y-90520226D02*
X68659171Y-90663083D01*
X68659171Y-90663083D02*
X68587742Y-90877369D01*
X68587742Y-90877369D02*
X68516314Y-90948797D01*
X63359171Y-88484510D02*
X64859171Y-88484510D01*
X64859171Y-88484510D02*
X63359171Y-89341653D01*
X63359171Y-89341653D02*
X64859171Y-89341653D01*
X64859171Y-90341654D02*
X64859171Y-90627368D01*
X64859171Y-90627368D02*
X64787742Y-90770225D01*
X64787742Y-90770225D02*
X64644885Y-90913082D01*
X64644885Y-90913082D02*
X64359171Y-90984511D01*
X64359171Y-90984511D02*
X63859171Y-90984511D01*
X63859171Y-90984511D02*
X63573457Y-90913082D01*
X63573457Y-90913082D02*
X63430600Y-90770225D01*
X63430600Y-90770225D02*
X63359171Y-90627368D01*
X63359171Y-90627368D02*
X63359171Y-90341654D01*
X63359171Y-90341654D02*
X63430600Y-90198797D01*
X63430600Y-90198797D02*
X63573457Y-90055939D01*
X63573457Y-90055939D02*
X63859171Y-89984511D01*
X63859171Y-89984511D02*
X64359171Y-89984511D01*
X64359171Y-89984511D02*
X64644885Y-90055939D01*
X64644885Y-90055939D02*
X64787742Y-90198797D01*
X64787742Y-90198797D02*
X64859171Y-90341654D01*
D11*
X113025167Y-134796554D02*
X112977548Y-134891792D01*
X112977548Y-134891792D02*
X112882310Y-134987030D01*
X112882310Y-134987030D02*
X112739452Y-135129887D01*
X112739452Y-135129887D02*
X112691833Y-135225125D01*
X112691833Y-135225125D02*
X112691833Y-135320363D01*
X112929929Y-135272744D02*
X112882310Y-135367982D01*
X112882310Y-135367982D02*
X112787071Y-135463220D01*
X112787071Y-135463220D02*
X112596595Y-135510839D01*
X112596595Y-135510839D02*
X112263262Y-135510839D01*
X112263262Y-135510839D02*
X112072786Y-135463220D01*
X112072786Y-135463220D02*
X111977548Y-135367982D01*
X111977548Y-135367982D02*
X111929929Y-135272744D01*
X111929929Y-135272744D02*
X111929929Y-135082268D01*
X111929929Y-135082268D02*
X111977548Y-134987030D01*
X111977548Y-134987030D02*
X112072786Y-134891792D01*
X112072786Y-134891792D02*
X112263262Y-134844173D01*
X112263262Y-134844173D02*
X112596595Y-134844173D01*
X112596595Y-134844173D02*
X112787071Y-134891792D01*
X112787071Y-134891792D02*
X112882310Y-134987030D01*
X112882310Y-134987030D02*
X112929929Y-135082268D01*
X112929929Y-135082268D02*
X112929929Y-135272744D01*
X111929929Y-134510839D02*
X111929929Y-133844173D01*
X111929929Y-133844173D02*
X112929929Y-134272744D01*
X76845180Y-75866905D02*
X77845180Y-75866905D01*
X76845180Y-76438333D02*
X77416609Y-76009762D01*
X77845180Y-76438333D02*
X77273752Y-75866905D01*
X77845180Y-76771667D02*
X77845180Y-77390714D01*
X77845180Y-77390714D02*
X77464228Y-77057381D01*
X77464228Y-77057381D02*
X77464228Y-77200238D01*
X77464228Y-77200238D02*
X77416609Y-77295476D01*
X77416609Y-77295476D02*
X77368990Y-77343095D01*
X77368990Y-77343095D02*
X77273752Y-77390714D01*
X77273752Y-77390714D02*
X77035657Y-77390714D01*
X77035657Y-77390714D02*
X76940419Y-77343095D01*
X76940419Y-77343095D02*
X76892800Y-77295476D01*
X76892800Y-77295476D02*
X76845180Y-77200238D01*
X76845180Y-77200238D02*
X76845180Y-76914524D01*
X76845180Y-76914524D02*
X76892800Y-76819286D01*
X76892800Y-76819286D02*
X76940419Y-76771667D01*
D13*
X82959171Y-88479510D02*
X84459171Y-88479510D01*
X84459171Y-88479510D02*
X82959171Y-89336653D01*
X82959171Y-89336653D02*
X84459171Y-89336653D01*
X84459171Y-90336654D02*
X84459171Y-90622368D01*
X84459171Y-90622368D02*
X84387742Y-90765225D01*
X84387742Y-90765225D02*
X84244885Y-90908082D01*
X84244885Y-90908082D02*
X83959171Y-90979511D01*
X83959171Y-90979511D02*
X83459171Y-90979511D01*
X83459171Y-90979511D02*
X83173457Y-90908082D01*
X83173457Y-90908082D02*
X83030600Y-90765225D01*
X83030600Y-90765225D02*
X82959171Y-90622368D01*
X82959171Y-90622368D02*
X82959171Y-90336654D01*
X82959171Y-90336654D02*
X83030600Y-90193797D01*
X83030600Y-90193797D02*
X83173457Y-90050939D01*
X83173457Y-90050939D02*
X83459171Y-89979511D01*
X83459171Y-89979511D02*
X83959171Y-89979511D01*
X83959171Y-89979511D02*
X84244885Y-90050939D01*
X84244885Y-90050939D02*
X84387742Y-90193797D01*
X84387742Y-90193797D02*
X84459171Y-90336654D01*
X86759171Y-88515225D02*
X88259171Y-88515225D01*
X88259171Y-88515225D02*
X86759171Y-89372368D01*
X86759171Y-89372368D02*
X88259171Y-89372368D01*
X86902028Y-90943797D02*
X86830600Y-90872369D01*
X86830600Y-90872369D02*
X86759171Y-90658083D01*
X86759171Y-90658083D02*
X86759171Y-90515226D01*
X86759171Y-90515226D02*
X86830600Y-90300940D01*
X86830600Y-90300940D02*
X86973457Y-90158083D01*
X86973457Y-90158083D02*
X87116314Y-90086654D01*
X87116314Y-90086654D02*
X87402028Y-90015226D01*
X87402028Y-90015226D02*
X87616314Y-90015226D01*
X87616314Y-90015226D02*
X87902028Y-90086654D01*
X87902028Y-90086654D02*
X88044885Y-90158083D01*
X88044885Y-90158083D02*
X88187742Y-90300940D01*
X88187742Y-90300940D02*
X88259171Y-90515226D01*
X88259171Y-90515226D02*
X88259171Y-90658083D01*
X88259171Y-90658083D02*
X88187742Y-90872369D01*
X88187742Y-90872369D02*
X88116314Y-90943797D01*
D11*
X84735057Y-63156554D02*
X84687438Y-63251792D01*
X84687438Y-63251792D02*
X84592200Y-63347030D01*
X84592200Y-63347030D02*
X84449342Y-63489887D01*
X84449342Y-63489887D02*
X84401723Y-63585125D01*
X84401723Y-63585125D02*
X84401723Y-63680363D01*
X84639819Y-63632744D02*
X84592200Y-63727982D01*
X84592200Y-63727982D02*
X84496961Y-63823220D01*
X84496961Y-63823220D02*
X84306485Y-63870839D01*
X84306485Y-63870839D02*
X83973152Y-63870839D01*
X83973152Y-63870839D02*
X83782676Y-63823220D01*
X83782676Y-63823220D02*
X83687438Y-63727982D01*
X83687438Y-63727982D02*
X83639819Y-63632744D01*
X83639819Y-63632744D02*
X83639819Y-63442268D01*
X83639819Y-63442268D02*
X83687438Y-63347030D01*
X83687438Y-63347030D02*
X83782676Y-63251792D01*
X83782676Y-63251792D02*
X83973152Y-63204173D01*
X83973152Y-63204173D02*
X84306485Y-63204173D01*
X84306485Y-63204173D02*
X84496961Y-63251792D01*
X84496961Y-63251792D02*
X84592200Y-63347030D01*
X84592200Y-63347030D02*
X84639819Y-63442268D01*
X84639819Y-63442268D02*
X84639819Y-63632744D01*
X83639819Y-62347030D02*
X83639819Y-62537506D01*
X83639819Y-62537506D02*
X83687438Y-62632744D01*
X83687438Y-62632744D02*
X83735057Y-62680363D01*
X83735057Y-62680363D02*
X83877914Y-62775601D01*
X83877914Y-62775601D02*
X84068390Y-62823220D01*
X84068390Y-62823220D02*
X84449342Y-62823220D01*
X84449342Y-62823220D02*
X84544580Y-62775601D01*
X84544580Y-62775601D02*
X84592200Y-62727982D01*
X84592200Y-62727982D02*
X84639819Y-62632744D01*
X84639819Y-62632744D02*
X84639819Y-62442268D01*
X84639819Y-62442268D02*
X84592200Y-62347030D01*
X84592200Y-62347030D02*
X84544580Y-62299411D01*
X84544580Y-62299411D02*
X84449342Y-62251792D01*
X84449342Y-62251792D02*
X84211247Y-62251792D01*
X84211247Y-62251792D02*
X84116009Y-62299411D01*
X84116009Y-62299411D02*
X84068390Y-62347030D01*
X84068390Y-62347030D02*
X84020771Y-62442268D01*
X84020771Y-62442268D02*
X84020771Y-62632744D01*
X84020771Y-62632744D02*
X84068390Y-62727982D01*
X84068390Y-62727982D02*
X84116009Y-62775601D01*
X84116009Y-62775601D02*
X84211247Y-62823220D01*
X74954947Y-140296554D02*
X74907328Y-140391792D01*
X74907328Y-140391792D02*
X74812090Y-140487030D01*
X74812090Y-140487030D02*
X74669232Y-140629887D01*
X74669232Y-140629887D02*
X74621613Y-140725125D01*
X74621613Y-140725125D02*
X74621613Y-140820363D01*
X74859709Y-140772744D02*
X74812090Y-140867982D01*
X74812090Y-140867982D02*
X74716851Y-140963220D01*
X74716851Y-140963220D02*
X74526375Y-141010839D01*
X74526375Y-141010839D02*
X74193042Y-141010839D01*
X74193042Y-141010839D02*
X74002566Y-140963220D01*
X74002566Y-140963220D02*
X73907328Y-140867982D01*
X73907328Y-140867982D02*
X73859709Y-140772744D01*
X73859709Y-140772744D02*
X73859709Y-140582268D01*
X73859709Y-140582268D02*
X73907328Y-140487030D01*
X73907328Y-140487030D02*
X74002566Y-140391792D01*
X74002566Y-140391792D02*
X74193042Y-140344173D01*
X74193042Y-140344173D02*
X74526375Y-140344173D01*
X74526375Y-140344173D02*
X74716851Y-140391792D01*
X74716851Y-140391792D02*
X74812090Y-140487030D01*
X74812090Y-140487030D02*
X74859709Y-140582268D01*
X74859709Y-140582268D02*
X74859709Y-140772744D01*
X73954947Y-139963220D02*
X73907328Y-139915601D01*
X73907328Y-139915601D02*
X73859709Y-139820363D01*
X73859709Y-139820363D02*
X73859709Y-139582268D01*
X73859709Y-139582268D02*
X73907328Y-139487030D01*
X73907328Y-139487030D02*
X73954947Y-139439411D01*
X73954947Y-139439411D02*
X74050185Y-139391792D01*
X74050185Y-139391792D02*
X74145423Y-139391792D01*
X74145423Y-139391792D02*
X74288280Y-139439411D01*
X74288280Y-139439411D02*
X74859709Y-140010839D01*
X74859709Y-140010839D02*
X74859709Y-139391792D01*
D12*
X51217292Y-82546742D02*
X51217292Y-83518171D01*
X51217292Y-83518171D02*
X51274435Y-83632457D01*
X51274435Y-83632457D02*
X51331578Y-83689600D01*
X51331578Y-83689600D02*
X51445863Y-83746742D01*
X51445863Y-83746742D02*
X51674435Y-83746742D01*
X51674435Y-83746742D02*
X51788720Y-83689600D01*
X51788720Y-83689600D02*
X51845863Y-83632457D01*
X51845863Y-83632457D02*
X51903006Y-83518171D01*
X51903006Y-83518171D02*
X51903006Y-82546742D01*
X52417292Y-82661028D02*
X52474435Y-82603885D01*
X52474435Y-82603885D02*
X52588721Y-82546742D01*
X52588721Y-82546742D02*
X52874435Y-82546742D01*
X52874435Y-82546742D02*
X52988721Y-82603885D01*
X52988721Y-82603885D02*
X53045863Y-82661028D01*
X53045863Y-82661028D02*
X53103006Y-82775314D01*
X53103006Y-82775314D02*
X53103006Y-82889600D01*
X53103006Y-82889600D02*
X53045863Y-83061028D01*
X53045863Y-83061028D02*
X52360149Y-83746742D01*
X52360149Y-83746742D02*
X53103006Y-83746742D01*
X49980949Y-92506428D02*
X50038092Y-92449285D01*
X50038092Y-92449285D02*
X50152378Y-92392142D01*
X50152378Y-92392142D02*
X50438092Y-92392142D01*
X50438092Y-92392142D02*
X50552378Y-92449285D01*
X50552378Y-92449285D02*
X50609520Y-92506428D01*
X50609520Y-92506428D02*
X50666663Y-92620714D01*
X50666663Y-92620714D02*
X50666663Y-92735000D01*
X50666663Y-92735000D02*
X50609520Y-92906428D01*
X50609520Y-92906428D02*
X49923806Y-93592142D01*
X49923806Y-93592142D02*
X50666663Y-93592142D01*
X55213263Y-93592142D02*
X54527549Y-93592142D01*
X54870406Y-93592142D02*
X54870406Y-92392142D01*
X54870406Y-92392142D02*
X54756120Y-92563571D01*
X54756120Y-92563571D02*
X54641835Y-92677857D01*
X54641835Y-92677857D02*
X54527549Y-92735000D01*
D11*
X70584819Y-58665476D02*
X70108628Y-58998809D01*
X70584819Y-59236904D02*
X69584819Y-59236904D01*
X69584819Y-59236904D02*
X69584819Y-58855952D01*
X69584819Y-58855952D02*
X69632438Y-58760714D01*
X69632438Y-58760714D02*
X69680057Y-58713095D01*
X69680057Y-58713095D02*
X69775295Y-58665476D01*
X69775295Y-58665476D02*
X69918152Y-58665476D01*
X69918152Y-58665476D02*
X70013390Y-58713095D01*
X70013390Y-58713095D02*
X70061009Y-58760714D01*
X70061009Y-58760714D02*
X70108628Y-58855952D01*
X70108628Y-58855952D02*
X70108628Y-59236904D01*
X69584819Y-57808333D02*
X69584819Y-57998809D01*
X69584819Y-57998809D02*
X69632438Y-58094047D01*
X69632438Y-58094047D02*
X69680057Y-58141666D01*
X69680057Y-58141666D02*
X69822914Y-58236904D01*
X69822914Y-58236904D02*
X70013390Y-58284523D01*
X70013390Y-58284523D02*
X70394342Y-58284523D01*
X70394342Y-58284523D02*
X70489580Y-58236904D01*
X70489580Y-58236904D02*
X70537200Y-58189285D01*
X70537200Y-58189285D02*
X70584819Y-58094047D01*
X70584819Y-58094047D02*
X70584819Y-57903571D01*
X70584819Y-57903571D02*
X70537200Y-57808333D01*
X70537200Y-57808333D02*
X70489580Y-57760714D01*
X70489580Y-57760714D02*
X70394342Y-57713095D01*
X70394342Y-57713095D02*
X70156247Y-57713095D01*
X70156247Y-57713095D02*
X70061009Y-57760714D01*
X70061009Y-57760714D02*
X70013390Y-57808333D01*
X70013390Y-57808333D02*
X69965771Y-57903571D01*
X69965771Y-57903571D02*
X69965771Y-58094047D01*
X69965771Y-58094047D02*
X70013390Y-58189285D01*
X70013390Y-58189285D02*
X70061009Y-58236904D01*
X70061009Y-58236904D02*
X70156247Y-58284523D01*
D12*
X51603006Y-122232457D02*
X51545863Y-122289600D01*
X51545863Y-122289600D02*
X51374435Y-122346742D01*
X51374435Y-122346742D02*
X51260149Y-122346742D01*
X51260149Y-122346742D02*
X51088720Y-122289600D01*
X51088720Y-122289600D02*
X50974435Y-122175314D01*
X50974435Y-122175314D02*
X50917292Y-122061028D01*
X50917292Y-122061028D02*
X50860149Y-121832457D01*
X50860149Y-121832457D02*
X50860149Y-121661028D01*
X50860149Y-121661028D02*
X50917292Y-121432457D01*
X50917292Y-121432457D02*
X50974435Y-121318171D01*
X50974435Y-121318171D02*
X51088720Y-121203885D01*
X51088720Y-121203885D02*
X51260149Y-121146742D01*
X51260149Y-121146742D02*
X51374435Y-121146742D01*
X51374435Y-121146742D02*
X51545863Y-121203885D01*
X51545863Y-121203885D02*
X51603006Y-121261028D01*
X52803006Y-122346742D02*
X52403006Y-121775314D01*
X52117292Y-122346742D02*
X52117292Y-121146742D01*
X52117292Y-121146742D02*
X52574435Y-121146742D01*
X52574435Y-121146742D02*
X52688720Y-121203885D01*
X52688720Y-121203885D02*
X52745863Y-121261028D01*
X52745863Y-121261028D02*
X52803006Y-121375314D01*
X52803006Y-121375314D02*
X52803006Y-121546742D01*
X52803006Y-121546742D02*
X52745863Y-121661028D01*
X52745863Y-121661028D02*
X52688720Y-121718171D01*
X52688720Y-121718171D02*
X52574435Y-121775314D01*
X52574435Y-121775314D02*
X52117292Y-121775314D01*
X53831578Y-121546742D02*
X53831578Y-122346742D01*
X53545863Y-121089600D02*
X53260149Y-121946742D01*
X53260149Y-121946742D02*
X54003006Y-121946742D01*
D11*
X107125167Y-130496554D02*
X107077548Y-130591792D01*
X107077548Y-130591792D02*
X106982310Y-130687030D01*
X106982310Y-130687030D02*
X106839452Y-130829887D01*
X106839452Y-130829887D02*
X106791833Y-130925125D01*
X106791833Y-130925125D02*
X106791833Y-131020363D01*
X107029929Y-130972744D02*
X106982310Y-131067982D01*
X106982310Y-131067982D02*
X106887071Y-131163220D01*
X106887071Y-131163220D02*
X106696595Y-131210839D01*
X106696595Y-131210839D02*
X106363262Y-131210839D01*
X106363262Y-131210839D02*
X106172786Y-131163220D01*
X106172786Y-131163220D02*
X106077548Y-131067982D01*
X106077548Y-131067982D02*
X106029929Y-130972744D01*
X106029929Y-130972744D02*
X106029929Y-130782268D01*
X106029929Y-130782268D02*
X106077548Y-130687030D01*
X106077548Y-130687030D02*
X106172786Y-130591792D01*
X106172786Y-130591792D02*
X106363262Y-130544173D01*
X106363262Y-130544173D02*
X106696595Y-130544173D01*
X106696595Y-130544173D02*
X106887071Y-130591792D01*
X106887071Y-130591792D02*
X106982310Y-130687030D01*
X106982310Y-130687030D02*
X107029929Y-130782268D01*
X107029929Y-130782268D02*
X107029929Y-130972744D01*
X106458500Y-129972744D02*
X106410881Y-130067982D01*
X106410881Y-130067982D02*
X106363262Y-130115601D01*
X106363262Y-130115601D02*
X106268024Y-130163220D01*
X106268024Y-130163220D02*
X106220405Y-130163220D01*
X106220405Y-130163220D02*
X106125167Y-130115601D01*
X106125167Y-130115601D02*
X106077548Y-130067982D01*
X106077548Y-130067982D02*
X106029929Y-129972744D01*
X106029929Y-129972744D02*
X106029929Y-129782268D01*
X106029929Y-129782268D02*
X106077548Y-129687030D01*
X106077548Y-129687030D02*
X106125167Y-129639411D01*
X106125167Y-129639411D02*
X106220405Y-129591792D01*
X106220405Y-129591792D02*
X106268024Y-129591792D01*
X106268024Y-129591792D02*
X106363262Y-129639411D01*
X106363262Y-129639411D02*
X106410881Y-129687030D01*
X106410881Y-129687030D02*
X106458500Y-129782268D01*
X106458500Y-129782268D02*
X106458500Y-129972744D01*
X106458500Y-129972744D02*
X106506119Y-130067982D01*
X106506119Y-130067982D02*
X106553738Y-130115601D01*
X106553738Y-130115601D02*
X106648976Y-130163220D01*
X106648976Y-130163220D02*
X106839452Y-130163220D01*
X106839452Y-130163220D02*
X106934690Y-130115601D01*
X106934690Y-130115601D02*
X106982310Y-130067982D01*
X106982310Y-130067982D02*
X107029929Y-129972744D01*
X107029929Y-129972744D02*
X107029929Y-129782268D01*
X107029929Y-129782268D02*
X106982310Y-129687030D01*
X106982310Y-129687030D02*
X106934690Y-129639411D01*
X106934690Y-129639411D02*
X106839452Y-129591792D01*
X106839452Y-129591792D02*
X106648976Y-129591792D01*
X106648976Y-129591792D02*
X106553738Y-129639411D01*
X106553738Y-129639411D02*
X106506119Y-129687030D01*
X106506119Y-129687030D02*
X106458500Y-129782268D01*
X110554819Y-113538094D02*
X109554819Y-113538094D01*
X110554819Y-112966666D02*
X109983390Y-113395237D01*
X109554819Y-112966666D02*
X110126247Y-113538094D01*
X109554819Y-112061904D02*
X109554819Y-112538094D01*
X109554819Y-112538094D02*
X110031009Y-112585713D01*
X110031009Y-112585713D02*
X109983390Y-112538094D01*
X109983390Y-112538094D02*
X109935771Y-112442856D01*
X109935771Y-112442856D02*
X109935771Y-112204761D01*
X109935771Y-112204761D02*
X109983390Y-112109523D01*
X109983390Y-112109523D02*
X110031009Y-112061904D01*
X110031009Y-112061904D02*
X110126247Y-112014285D01*
X110126247Y-112014285D02*
X110364342Y-112014285D01*
X110364342Y-112014285D02*
X110459580Y-112061904D01*
X110459580Y-112061904D02*
X110507200Y-112109523D01*
X110507200Y-112109523D02*
X110554819Y-112204761D01*
X110554819Y-112204761D02*
X110554819Y-112442856D01*
X110554819Y-112442856D02*
X110507200Y-112538094D01*
X110507200Y-112538094D02*
X110459580Y-112585713D01*
D13*
X120575828Y-108620489D02*
X119075828Y-108620489D01*
X119075828Y-108620489D02*
X120575828Y-107763346D01*
X120575828Y-107763346D02*
X119075828Y-107763346D01*
X119075828Y-106763345D02*
X119075828Y-106477631D01*
X119075828Y-106477631D02*
X119147257Y-106334774D01*
X119147257Y-106334774D02*
X119290114Y-106191917D01*
X119290114Y-106191917D02*
X119575828Y-106120488D01*
X119575828Y-106120488D02*
X120075828Y-106120488D01*
X120075828Y-106120488D02*
X120361542Y-106191917D01*
X120361542Y-106191917D02*
X120504400Y-106334774D01*
X120504400Y-106334774D02*
X120575828Y-106477631D01*
X120575828Y-106477631D02*
X120575828Y-106763345D01*
X120575828Y-106763345D02*
X120504400Y-106906203D01*
X120504400Y-106906203D02*
X120361542Y-107049060D01*
X120361542Y-107049060D02*
X120075828Y-107120488D01*
X120075828Y-107120488D02*
X119575828Y-107120488D01*
X119575828Y-107120488D02*
X119290114Y-107049060D01*
X119290114Y-107049060D02*
X119147257Y-106906203D01*
X119147257Y-106906203D02*
X119075828Y-106763345D01*
X116775828Y-108584774D02*
X115275828Y-108584774D01*
X115275828Y-108584774D02*
X116775828Y-107727631D01*
X116775828Y-107727631D02*
X115275828Y-107727631D01*
X116632971Y-106156202D02*
X116704400Y-106227630D01*
X116704400Y-106227630D02*
X116775828Y-106441916D01*
X116775828Y-106441916D02*
X116775828Y-106584773D01*
X116775828Y-106584773D02*
X116704400Y-106799059D01*
X116704400Y-106799059D02*
X116561542Y-106941916D01*
X116561542Y-106941916D02*
X116418685Y-107013345D01*
X116418685Y-107013345D02*
X116132971Y-107084773D01*
X116132971Y-107084773D02*
X115918685Y-107084773D01*
X115918685Y-107084773D02*
X115632971Y-107013345D01*
X115632971Y-107013345D02*
X115490114Y-106941916D01*
X115490114Y-106941916D02*
X115347257Y-106799059D01*
X115347257Y-106799059D02*
X115275828Y-106584773D01*
X115275828Y-106584773D02*
X115275828Y-106441916D01*
X115275828Y-106441916D02*
X115347257Y-106227630D01*
X115347257Y-106227630D02*
X115418685Y-106156202D01*
D11*
X91954819Y-133876666D02*
X91478628Y-134209999D01*
X91954819Y-134448094D02*
X90954819Y-134448094D01*
X90954819Y-134448094D02*
X90954819Y-134067142D01*
X90954819Y-134067142D02*
X91002438Y-133971904D01*
X91002438Y-133971904D02*
X91050057Y-133924285D01*
X91050057Y-133924285D02*
X91145295Y-133876666D01*
X91145295Y-133876666D02*
X91288152Y-133876666D01*
X91288152Y-133876666D02*
X91383390Y-133924285D01*
X91383390Y-133924285D02*
X91431009Y-133971904D01*
X91431009Y-133971904D02*
X91478628Y-134067142D01*
X91478628Y-134067142D02*
X91478628Y-134448094D01*
X91954819Y-132924285D02*
X91954819Y-133495713D01*
X91954819Y-133209999D02*
X90954819Y-133209999D01*
X90954819Y-133209999D02*
X91097676Y-133305237D01*
X91097676Y-133305237D02*
X91192914Y-133400475D01*
X91192914Y-133400475D02*
X91240533Y-133495713D01*
X75535057Y-60556554D02*
X75487438Y-60651792D01*
X75487438Y-60651792D02*
X75392200Y-60747030D01*
X75392200Y-60747030D02*
X75249342Y-60889887D01*
X75249342Y-60889887D02*
X75201723Y-60985125D01*
X75201723Y-60985125D02*
X75201723Y-61080363D01*
X75439819Y-61032744D02*
X75392200Y-61127982D01*
X75392200Y-61127982D02*
X75296961Y-61223220D01*
X75296961Y-61223220D02*
X75106485Y-61270839D01*
X75106485Y-61270839D02*
X74773152Y-61270839D01*
X74773152Y-61270839D02*
X74582676Y-61223220D01*
X74582676Y-61223220D02*
X74487438Y-61127982D01*
X74487438Y-61127982D02*
X74439819Y-61032744D01*
X74439819Y-61032744D02*
X74439819Y-60842268D01*
X74439819Y-60842268D02*
X74487438Y-60747030D01*
X74487438Y-60747030D02*
X74582676Y-60651792D01*
X74582676Y-60651792D02*
X74773152Y-60604173D01*
X74773152Y-60604173D02*
X75106485Y-60604173D01*
X75106485Y-60604173D02*
X75296961Y-60651792D01*
X75296961Y-60651792D02*
X75392200Y-60747030D01*
X75392200Y-60747030D02*
X75439819Y-60842268D01*
X75439819Y-60842268D02*
X75439819Y-61032744D01*
X74439819Y-59699411D02*
X74439819Y-60175601D01*
X74439819Y-60175601D02*
X74916009Y-60223220D01*
X74916009Y-60223220D02*
X74868390Y-60175601D01*
X74868390Y-60175601D02*
X74820771Y-60080363D01*
X74820771Y-60080363D02*
X74820771Y-59842268D01*
X74820771Y-59842268D02*
X74868390Y-59747030D01*
X74868390Y-59747030D02*
X74916009Y-59699411D01*
X74916009Y-59699411D02*
X75011247Y-59651792D01*
X75011247Y-59651792D02*
X75249342Y-59651792D01*
X75249342Y-59651792D02*
X75344580Y-59699411D01*
X75344580Y-59699411D02*
X75392200Y-59747030D01*
X75392200Y-59747030D02*
X75439819Y-59842268D01*
X75439819Y-59842268D02*
X75439819Y-60080363D01*
X75439819Y-60080363D02*
X75392200Y-60175601D01*
X75392200Y-60175601D02*
X75344580Y-60223220D01*
X117608207Y-126244580D02*
X117560588Y-126292200D01*
X117560588Y-126292200D02*
X117417731Y-126339819D01*
X117417731Y-126339819D02*
X117322493Y-126339819D01*
X117322493Y-126339819D02*
X117179636Y-126292200D01*
X117179636Y-126292200D02*
X117084398Y-126196961D01*
X117084398Y-126196961D02*
X117036779Y-126101723D01*
X117036779Y-126101723D02*
X116989160Y-125911247D01*
X116989160Y-125911247D02*
X116989160Y-125768390D01*
X116989160Y-125768390D02*
X117036779Y-125577914D01*
X117036779Y-125577914D02*
X117084398Y-125482676D01*
X117084398Y-125482676D02*
X117179636Y-125387438D01*
X117179636Y-125387438D02*
X117322493Y-125339819D01*
X117322493Y-125339819D02*
X117417731Y-125339819D01*
X117417731Y-125339819D02*
X117560588Y-125387438D01*
X117560588Y-125387438D02*
X117608207Y-125435057D01*
X118608207Y-126339819D02*
X118274874Y-125863628D01*
X118036779Y-126339819D02*
X118036779Y-125339819D01*
X118036779Y-125339819D02*
X118417731Y-125339819D01*
X118417731Y-125339819D02*
X118512969Y-125387438D01*
X118512969Y-125387438D02*
X118560588Y-125435057D01*
X118560588Y-125435057D02*
X118608207Y-125530295D01*
X118608207Y-125530295D02*
X118608207Y-125673152D01*
X118608207Y-125673152D02*
X118560588Y-125768390D01*
X118560588Y-125768390D02*
X118512969Y-125816009D01*
X118512969Y-125816009D02*
X118417731Y-125863628D01*
X118417731Y-125863628D02*
X118036779Y-125863628D01*
X119512969Y-125339819D02*
X119036779Y-125339819D01*
X119036779Y-125339819D02*
X118989160Y-125816009D01*
X118989160Y-125816009D02*
X119036779Y-125768390D01*
X119036779Y-125768390D02*
X119132017Y-125720771D01*
X119132017Y-125720771D02*
X119370112Y-125720771D01*
X119370112Y-125720771D02*
X119465350Y-125768390D01*
X119465350Y-125768390D02*
X119512969Y-125816009D01*
X119512969Y-125816009D02*
X119560588Y-125911247D01*
X119560588Y-125911247D02*
X119560588Y-126149342D01*
X119560588Y-126149342D02*
X119512969Y-126244580D01*
X119512969Y-126244580D02*
X119465350Y-126292200D01*
X119465350Y-126292200D02*
X119370112Y-126339819D01*
X119370112Y-126339819D02*
X119132017Y-126339819D01*
X119132017Y-126339819D02*
X119036779Y-126292200D01*
X119036779Y-126292200D02*
X118989160Y-126244580D01*
X86134819Y-135766666D02*
X85658628Y-136099999D01*
X86134819Y-136338094D02*
X85134819Y-136338094D01*
X85134819Y-136338094D02*
X85134819Y-135957142D01*
X85134819Y-135957142D02*
X85182438Y-135861904D01*
X85182438Y-135861904D02*
X85230057Y-135814285D01*
X85230057Y-135814285D02*
X85325295Y-135766666D01*
X85325295Y-135766666D02*
X85468152Y-135766666D01*
X85468152Y-135766666D02*
X85563390Y-135814285D01*
X85563390Y-135814285D02*
X85611009Y-135861904D01*
X85611009Y-135861904D02*
X85658628Y-135957142D01*
X85658628Y-135957142D02*
X85658628Y-136338094D01*
X85230057Y-135385713D02*
X85182438Y-135338094D01*
X85182438Y-135338094D02*
X85134819Y-135242856D01*
X85134819Y-135242856D02*
X85134819Y-135004761D01*
X85134819Y-135004761D02*
X85182438Y-134909523D01*
X85182438Y-134909523D02*
X85230057Y-134861904D01*
X85230057Y-134861904D02*
X85325295Y-134814285D01*
X85325295Y-134814285D02*
X85420533Y-134814285D01*
X85420533Y-134814285D02*
X85563390Y-134861904D01*
X85563390Y-134861904D02*
X86134819Y-135433332D01*
X86134819Y-135433332D02*
X86134819Y-134814285D01*
X76945180Y-96061905D02*
X77945180Y-96061905D01*
X76945180Y-96633333D02*
X77516609Y-96204762D01*
X77945180Y-96633333D02*
X77373752Y-96061905D01*
X77611847Y-97490476D02*
X76945180Y-97490476D01*
X77992800Y-97252381D02*
X77278514Y-97014286D01*
X77278514Y-97014286D02*
X77278514Y-97633333D01*
D13*
X86759171Y-108810225D02*
X88259171Y-108810225D01*
X88259171Y-108810225D02*
X86759171Y-109667368D01*
X86759171Y-109667368D02*
X88259171Y-109667368D01*
X86902028Y-111238797D02*
X86830600Y-111167369D01*
X86830600Y-111167369D02*
X86759171Y-110953083D01*
X86759171Y-110953083D02*
X86759171Y-110810226D01*
X86759171Y-110810226D02*
X86830600Y-110595940D01*
X86830600Y-110595940D02*
X86973457Y-110453083D01*
X86973457Y-110453083D02*
X87116314Y-110381654D01*
X87116314Y-110381654D02*
X87402028Y-110310226D01*
X87402028Y-110310226D02*
X87616314Y-110310226D01*
X87616314Y-110310226D02*
X87902028Y-110381654D01*
X87902028Y-110381654D02*
X88044885Y-110453083D01*
X88044885Y-110453083D02*
X88187742Y-110595940D01*
X88187742Y-110595940D02*
X88259171Y-110810226D01*
X88259171Y-110810226D02*
X88259171Y-110953083D01*
X88259171Y-110953083D02*
X88187742Y-111167369D01*
X88187742Y-111167369D02*
X88116314Y-111238797D01*
X82959171Y-108774510D02*
X84459171Y-108774510D01*
X84459171Y-108774510D02*
X82959171Y-109631653D01*
X82959171Y-109631653D02*
X84459171Y-109631653D01*
X84459171Y-110631654D02*
X84459171Y-110917368D01*
X84459171Y-110917368D02*
X84387742Y-111060225D01*
X84387742Y-111060225D02*
X84244885Y-111203082D01*
X84244885Y-111203082D02*
X83959171Y-111274511D01*
X83959171Y-111274511D02*
X83459171Y-111274511D01*
X83459171Y-111274511D02*
X83173457Y-111203082D01*
X83173457Y-111203082D02*
X83030600Y-111060225D01*
X83030600Y-111060225D02*
X82959171Y-110917368D01*
X82959171Y-110917368D02*
X82959171Y-110631654D01*
X82959171Y-110631654D02*
X83030600Y-110488797D01*
X83030600Y-110488797D02*
X83173457Y-110345939D01*
X83173457Y-110345939D02*
X83459171Y-110274511D01*
X83459171Y-110274511D02*
X83959171Y-110274511D01*
X83959171Y-110274511D02*
X84244885Y-110345939D01*
X84244885Y-110345939D02*
X84387742Y-110488797D01*
X84387742Y-110488797D02*
X84459171Y-110631654D01*
D11*
X101957142Y-132254819D02*
X101623809Y-131778628D01*
X101385714Y-132254819D02*
X101385714Y-131254819D01*
X101385714Y-131254819D02*
X101766666Y-131254819D01*
X101766666Y-131254819D02*
X101861904Y-131302438D01*
X101861904Y-131302438D02*
X101909523Y-131350057D01*
X101909523Y-131350057D02*
X101957142Y-131445295D01*
X101957142Y-131445295D02*
X101957142Y-131588152D01*
X101957142Y-131588152D02*
X101909523Y-131683390D01*
X101909523Y-131683390D02*
X101861904Y-131731009D01*
X101861904Y-131731009D02*
X101766666Y-131778628D01*
X101766666Y-131778628D02*
X101385714Y-131778628D01*
X102909523Y-132254819D02*
X102338095Y-132254819D01*
X102623809Y-132254819D02*
X102623809Y-131254819D01*
X102623809Y-131254819D02*
X102528571Y-131397676D01*
X102528571Y-131397676D02*
X102433333Y-131492914D01*
X102433333Y-131492914D02*
X102338095Y-131540533D01*
X103528571Y-131254819D02*
X103623809Y-131254819D01*
X103623809Y-131254819D02*
X103719047Y-131302438D01*
X103719047Y-131302438D02*
X103766666Y-131350057D01*
X103766666Y-131350057D02*
X103814285Y-131445295D01*
X103814285Y-131445295D02*
X103861904Y-131635771D01*
X103861904Y-131635771D02*
X103861904Y-131873866D01*
X103861904Y-131873866D02*
X103814285Y-132064342D01*
X103814285Y-132064342D02*
X103766666Y-132159580D01*
X103766666Y-132159580D02*
X103719047Y-132207200D01*
X103719047Y-132207200D02*
X103623809Y-132254819D01*
X103623809Y-132254819D02*
X103528571Y-132254819D01*
X103528571Y-132254819D02*
X103433333Y-132207200D01*
X103433333Y-132207200D02*
X103385714Y-132159580D01*
X103385714Y-132159580D02*
X103338095Y-132064342D01*
X103338095Y-132064342D02*
X103290476Y-131873866D01*
X103290476Y-131873866D02*
X103290476Y-131635771D01*
X103290476Y-131635771D02*
X103338095Y-131445295D01*
X103338095Y-131445295D02*
X103385714Y-131350057D01*
X103385714Y-131350057D02*
X103433333Y-131302438D01*
X103433333Y-131302438D02*
X103528571Y-131254819D01*
D12*
X42132457Y-102296993D02*
X42189600Y-102354136D01*
X42189600Y-102354136D02*
X42246742Y-102525564D01*
X42246742Y-102525564D02*
X42246742Y-102639850D01*
X42246742Y-102639850D02*
X42189600Y-102811279D01*
X42189600Y-102811279D02*
X42075314Y-102925564D01*
X42075314Y-102925564D02*
X41961028Y-102982707D01*
X41961028Y-102982707D02*
X41732457Y-103039850D01*
X41732457Y-103039850D02*
X41561028Y-103039850D01*
X41561028Y-103039850D02*
X41332457Y-102982707D01*
X41332457Y-102982707D02*
X41218171Y-102925564D01*
X41218171Y-102925564D02*
X41103885Y-102811279D01*
X41103885Y-102811279D02*
X41046742Y-102639850D01*
X41046742Y-102639850D02*
X41046742Y-102525564D01*
X41046742Y-102525564D02*
X41103885Y-102354136D01*
X41103885Y-102354136D02*
X41161028Y-102296993D01*
X42246742Y-101096993D02*
X41675314Y-101496993D01*
X42246742Y-101782707D02*
X41046742Y-101782707D01*
X41046742Y-101782707D02*
X41046742Y-101325564D01*
X41046742Y-101325564D02*
X41103885Y-101211279D01*
X41103885Y-101211279D02*
X41161028Y-101154136D01*
X41161028Y-101154136D02*
X41275314Y-101096993D01*
X41275314Y-101096993D02*
X41446742Y-101096993D01*
X41446742Y-101096993D02*
X41561028Y-101154136D01*
X41561028Y-101154136D02*
X41618171Y-101211279D01*
X41618171Y-101211279D02*
X41675314Y-101325564D01*
X41675314Y-101325564D02*
X41675314Y-101782707D01*
X41161028Y-100639850D02*
X41103885Y-100582707D01*
X41103885Y-100582707D02*
X41046742Y-100468422D01*
X41046742Y-100468422D02*
X41046742Y-100182707D01*
X41046742Y-100182707D02*
X41103885Y-100068422D01*
X41103885Y-100068422D02*
X41161028Y-100011279D01*
X41161028Y-100011279D02*
X41275314Y-99954136D01*
X41275314Y-99954136D02*
X41389600Y-99954136D01*
X41389600Y-99954136D02*
X41561028Y-100011279D01*
X41561028Y-100011279D02*
X42246742Y-100696993D01*
X42246742Y-100696993D02*
X42246742Y-99954136D01*
D15*
%TO.C,CR1*%
X51730000Y-71125000D02*
X51730000Y-72395000D01*
X51730000Y-72395000D02*
X51730000Y-77475000D01*
X51730000Y-72395000D02*
X54270000Y-72395000D01*
X51730000Y-77475000D02*
X53000000Y-77475000D01*
X53000000Y-71125000D02*
X51730000Y-71125000D01*
X53000000Y-71125000D02*
X53000000Y-70490000D01*
X53000000Y-77475000D02*
X53000000Y-78110000D01*
X53000000Y-77475000D02*
X54270000Y-77475000D01*
X54270000Y-71125000D02*
X53000000Y-71125000D01*
X54270000Y-72395000D02*
X54270000Y-71125000D01*
X54270000Y-77475000D02*
X54270000Y-72395000D01*
%TO.C,J2*%
D10*
X64500000Y-65300000D02*
X94500000Y-65300000D01*
X94500000Y-73300000D01*
X64500000Y-73300000D01*
X64500000Y-65300000D01*
D16*
%TO.C,R7*%
X80634945Y-56580000D02*
X80634945Y-60420000D01*
X80634945Y-60420000D02*
X82474945Y-60420000D01*
X81554945Y-55630000D02*
X81554945Y-56580000D01*
X81554945Y-61370000D02*
X81554945Y-60420000D01*
X82474945Y-56580000D02*
X80634945Y-56580000D01*
X82474945Y-60420000D02*
X82474945Y-56580000D01*
D15*
%TO.C,CR3*%
X46730000Y-71125000D02*
X46730000Y-72395000D01*
X46730000Y-72395000D02*
X46730000Y-77475000D01*
X46730000Y-72395000D02*
X49270000Y-72395000D01*
X46730000Y-77475000D02*
X48000000Y-77475000D01*
X48000000Y-71125000D02*
X46730000Y-71125000D01*
X48000000Y-71125000D02*
X48000000Y-70490000D01*
X48000000Y-77475000D02*
X48000000Y-78110000D01*
X48000000Y-77475000D02*
X49270000Y-77475000D01*
X49270000Y-71125000D02*
X48000000Y-71125000D01*
X49270000Y-72395000D02*
X49270000Y-71125000D01*
X49270000Y-77475000D02*
X49270000Y-72395000D01*
%TO.C,Q1*%
X95599900Y-135220100D02*
X95599900Y-139179900D01*
X95601100Y-139181200D02*
G75*
G02*
X95601100Y-135218800I-1498400J1981200D01*
G01*
%TO.C,K2*%
D12*
X72660000Y-95825000D02*
X59160000Y-95825000D01*
X59160000Y-111825000D01*
X72660000Y-111825000D01*
X72660000Y-95825000D01*
D16*
%TO.C,R4*%
X66350000Y-137400000D02*
X67300000Y-137400000D01*
X67300000Y-136480000D02*
X67300000Y-138320000D01*
X67300000Y-138320000D02*
X71140000Y-138320000D01*
X71140000Y-136480000D02*
X67300000Y-136480000D01*
X71140000Y-138320000D02*
X71140000Y-136480000D01*
X72090000Y-137400000D02*
X71140000Y-137400000D01*
%TO.C,R5*%
X58580000Y-56578809D02*
X58580000Y-60418809D01*
X58580000Y-60418809D02*
X60420000Y-60418809D01*
X59500000Y-55628809D02*
X59500000Y-56578809D01*
X59500000Y-61368809D02*
X59500000Y-60418809D01*
X60420000Y-56578809D02*
X58580000Y-56578809D01*
X60420000Y-60418809D02*
X60420000Y-56578809D01*
D17*
%TO.C,U1*%
X113176900Y-93850500D02*
X118764900Y-93850500D01*
X113176900Y-96136500D02*
X118764900Y-96136500D01*
X113176900Y-98422500D02*
X118764900Y-98422500D01*
D18*
X119018900Y-92961500D02*
X119018900Y-99438500D01*
X119018900Y-99438500D02*
X125368900Y-99438500D01*
X119526900Y-93596500D02*
X124733900Y-93596500D01*
X119526900Y-98930500D02*
X119526900Y-93596500D01*
X124733900Y-93596500D02*
X124733900Y-98930500D01*
X124733900Y-98930500D02*
X119526900Y-98930500D01*
X125368900Y-92961500D02*
X119018900Y-92961500D01*
X125368900Y-99438500D02*
X125368900Y-92961500D01*
X125495900Y-92961500D02*
X129051900Y-92961500D01*
X129051900Y-92961500D02*
X129686900Y-93596500D01*
X129051900Y-99438500D02*
X125368900Y-99438500D01*
X129686900Y-93596500D02*
X129686900Y-98803500D01*
X129686900Y-98803500D02*
X129051900Y-99438500D01*
X121558900Y-98676500D02*
G75*
G02*
X122828900Y-98676500I635000J-56900D01*
G01*
X122828900Y-93850500D02*
G75*
G02*
X121558900Y-93850500I-635000J56900D01*
G01*
D15*
%TO.C,U3*%
X93508000Y-84349000D02*
X104888000Y-84349000D01*
X93508000Y-111749000D02*
X93508000Y-84349000D01*
X94220000Y-85542800D02*
X94220000Y-85415800D01*
X94220000Y-85542800D02*
X104227600Y-85542800D01*
X94220000Y-90597400D02*
X94220000Y-85542800D01*
X94220000Y-90597400D02*
X104227600Y-90597400D01*
X94220000Y-91334000D02*
X94220000Y-90597400D01*
X104227600Y-85542800D02*
X104227600Y-90597400D01*
X104227600Y-90597400D02*
X104227600Y-91334000D01*
X104227600Y-91334000D02*
X94220000Y-91334000D01*
X104888000Y-84349000D02*
X104888000Y-111749000D01*
X104888000Y-111749000D02*
X93508000Y-111749000D01*
D16*
%TO.C,R3*%
X66330000Y-135300000D02*
X67280000Y-135300000D01*
X67280000Y-134380000D02*
X67280000Y-136220000D01*
X67280000Y-136220000D02*
X71120000Y-136220000D01*
X71120000Y-134380000D02*
X67280000Y-134380000D01*
X71120000Y-136220000D02*
X71120000Y-134380000D01*
X72070000Y-135300000D02*
X71120000Y-135300000D01*
%TO.C,J1*%
D10*
X64500000Y-121300000D02*
X102500000Y-121300000D01*
X102500000Y-129300000D01*
X64500000Y-129300000D01*
X64500000Y-121300000D01*
D16*
%TO.C,F2*%
X85900000Y-115200000D02*
X89100000Y-115200000D01*
X86750000Y-117200000D02*
X88350000Y-117200000D01*
X89100000Y-119200000D02*
X85900000Y-119200000D01*
%TO.C,R9*%
X127480000Y-121780000D02*
X127480000Y-125620000D01*
X127480000Y-125620000D02*
X129320000Y-125620000D01*
X128400000Y-120830000D02*
X128400000Y-121780000D01*
X128400000Y-126570000D02*
X128400000Y-125620000D01*
X129320000Y-121780000D02*
X127480000Y-121780000D01*
X129320000Y-125620000D02*
X129320000Y-121780000D01*
%TO.C,A1*%
X129427000Y-88670000D02*
X129427000Y-55650000D01*
X129427000Y-55650000D02*
X124347000Y-55650000D01*
X126760000Y-88670000D02*
X129427000Y-88670000D01*
X126760000Y-86130000D02*
X126760000Y-88670000D01*
X126760000Y-86130000D02*
X126760000Y-58190000D01*
X126760000Y-58190000D02*
X129430000Y-58190000D01*
X124347000Y-53110000D02*
X124347000Y-55650000D01*
X124347000Y-53110000D02*
X116473000Y-53110000D01*
X116473000Y-55650000D02*
X111393000Y-55650000D01*
X116473000Y-53110000D02*
X116473000Y-55650000D01*
X114060000Y-88670000D02*
X114060000Y-58190000D01*
X114060000Y-88670000D02*
X111390000Y-88670000D01*
X114060000Y-60730000D02*
X111390000Y-60730000D01*
X114060000Y-58190000D02*
X111390000Y-58190000D01*
X111393000Y-88670000D02*
X126760000Y-88670000D01*
X111393000Y-55650000D02*
X111390000Y-88670000D01*
D15*
%TO.C,C1*%
X106000000Y-91600000D02*
X107016000Y-91600000D01*
X106500100Y-92116100D02*
X106500100Y-91100100D01*
D13*
X110500100Y-90600000D02*
G75*
G02*
X105499900Y-90600000I-2500100J0D01*
G01*
X105499900Y-90600000D02*
G75*
G02*
X110500100Y-90600000I2500100J0D01*
G01*
D15*
%TO.C,Q3*%
X54170100Y-60879900D02*
X54170100Y-56920100D01*
X54168900Y-56918800D02*
G75*
G02*
X54168900Y-60881200I1498400J-1981200D01*
G01*
%TO.C,C2*%
X109548033Y-99483900D02*
X109548033Y-100499900D01*
X110048133Y-100000000D02*
X109032133Y-100000000D01*
D13*
X110548233Y-101000000D02*
G75*
G02*
X105548033Y-101000000I-2500100J0D01*
G01*
X105548033Y-101000000D02*
G75*
G02*
X110548233Y-101000000I2500100J0D01*
G01*
D16*
%TO.C,F1*%
X66400000Y-115300000D02*
X69600000Y-115300000D01*
X68750000Y-117300000D02*
X67150000Y-117300000D01*
X69600000Y-119300000D02*
X66400000Y-119300000D01*
D15*
%TO.C,Q4*%
X62619990Y-60879900D02*
X62619990Y-56920100D01*
X62618790Y-56918800D02*
G75*
G02*
X62618790Y-60881200I1498400J-1981200D01*
G01*
D16*
%TO.C,R8*%
X89825055Y-56580000D02*
X89825055Y-60420000D01*
X89825055Y-60420000D02*
X91665055Y-60420000D01*
X90745055Y-55630000D02*
X90745055Y-56580000D01*
X90745055Y-61370000D02*
X90745055Y-60420000D01*
X91665055Y-56580000D02*
X89825055Y-56580000D01*
X91665055Y-60420000D02*
X91665055Y-56580000D01*
%TO.C,K1*%
D12*
X72660000Y-75530000D02*
X59160000Y-75530000D01*
X59160000Y-91530000D01*
X72660000Y-91530000D01*
X72660000Y-75530000D01*
D15*
%TO.C,Q7*%
X115990010Y-128920100D02*
X115990010Y-132879900D01*
X115991210Y-132881200D02*
G75*
G02*
X115991210Y-128918800I-1498400J1981200D01*
G01*
%TO.C,K3*%
D12*
X92260000Y-75525000D02*
X78760000Y-75525000D01*
X78760000Y-91525000D01*
X92260000Y-91525000D01*
X92260000Y-75525000D01*
D15*
%TO.C,Q6*%
X85255045Y-62539900D02*
X85255045Y-58580100D01*
X85253845Y-58578800D02*
G75*
G02*
X85253845Y-62541200I1498400J-1981200D01*
G01*
%TO.C,Q2*%
X78509900Y-135380100D02*
X78509900Y-139339900D01*
X78511100Y-139341200D02*
G75*
G02*
X78511100Y-135378800I-1498400J1981200D01*
G01*
%TO.C,U2*%
X46445000Y-84700000D02*
X57825000Y-84700000D01*
X46445000Y-112100000D02*
X46445000Y-84700000D01*
X47157000Y-85893800D02*
X47157000Y-85766800D01*
X47157000Y-85893800D02*
X57164600Y-85893800D01*
X47157000Y-90948400D02*
X47157000Y-85893800D01*
X47157000Y-90948400D02*
X57164600Y-90948400D01*
X47157000Y-91685000D02*
X47157000Y-90948400D01*
X57164600Y-85893800D02*
X57164600Y-90948400D01*
X57164600Y-90948400D02*
X57164600Y-91685000D01*
X57164600Y-91685000D02*
X47157000Y-91685000D01*
X57825000Y-84700000D02*
X57825000Y-112100000D01*
X57825000Y-112100000D02*
X46445000Y-112100000D01*
D16*
%TO.C,R6*%
X67290000Y-56578809D02*
X67290000Y-60418809D01*
X67290000Y-60418809D02*
X69130000Y-60418809D01*
X68210000Y-55628809D02*
X68210000Y-56578809D01*
X68210000Y-61368809D02*
X68210000Y-60418809D01*
X69130000Y-56578809D02*
X67290000Y-56578809D01*
X69130000Y-60418809D02*
X69130000Y-56578809D01*
D15*
%TO.C,CR4*%
X48745000Y-117830000D02*
X48745000Y-119100000D01*
X48745000Y-119100000D02*
X48110000Y-119100000D01*
X48745000Y-119100000D02*
X48745000Y-120370000D01*
X48745000Y-120370000D02*
X50015000Y-120370000D01*
X50015000Y-117830000D02*
X48745000Y-117830000D01*
X50015000Y-120370000D02*
X50015000Y-117830000D01*
X50015000Y-120370000D02*
X55095000Y-120370000D01*
X55095000Y-117830000D02*
X50015000Y-117830000D01*
X55095000Y-119100000D02*
X55095000Y-117830000D01*
X55095000Y-119100000D02*
X55730000Y-119100000D01*
X55095000Y-120370000D02*
X55095000Y-119100000D01*
%TO.C,Q8*%
X111490010Y-128920100D02*
X111490010Y-132879900D01*
X111491210Y-132881200D02*
G75*
G02*
X111491210Y-128918800I-1498400J1981200D01*
G01*
%TO.C,K5*%
D12*
X111275000Y-121575000D02*
X124775000Y-121575000D01*
X124775000Y-105575000D01*
X111275000Y-105575000D01*
X111275000Y-121575000D01*
D16*
%TO.C,R1*%
X88830000Y-133680000D02*
X88830000Y-137520000D01*
X88830000Y-137520000D02*
X90670000Y-137520000D01*
X89750000Y-132730000D02*
X89750000Y-133680000D01*
X89750000Y-138470000D02*
X89750000Y-137520000D01*
X90670000Y-133680000D02*
X88830000Y-133680000D01*
X90670000Y-137520000D02*
X90670000Y-133680000D01*
D15*
%TO.C,Q5*%
X76055045Y-62539900D02*
X76055045Y-58580100D01*
X76053845Y-58578800D02*
G75*
G02*
X76053845Y-62541200I1498400J-1981200D01*
G01*
%TO.C,CR5*%
X115225000Y-122330000D02*
X115225000Y-123600000D01*
X115225000Y-123600000D02*
X114590000Y-123600000D01*
X115225000Y-123600000D02*
X115225000Y-124870000D01*
X115225000Y-124870000D02*
X116495000Y-124870000D01*
X116495000Y-122330000D02*
X115225000Y-122330000D01*
X116495000Y-124870000D02*
X116495000Y-122330000D01*
X116495000Y-124870000D02*
X121575000Y-124870000D01*
X121575000Y-122330000D02*
X116495000Y-122330000D01*
X121575000Y-123600000D02*
X121575000Y-122330000D01*
X121575000Y-123600000D02*
X122210000Y-123600000D01*
X121575000Y-124870000D02*
X121575000Y-123600000D01*
D16*
%TO.C,R2*%
X86680000Y-133680000D02*
X86680000Y-137520000D01*
X86680000Y-137520000D02*
X88520000Y-137520000D01*
X87600000Y-132730000D02*
X87600000Y-133680000D01*
X87600000Y-138470000D02*
X87600000Y-137520000D01*
X88520000Y-133680000D02*
X86680000Y-133680000D01*
X88520000Y-137520000D02*
X88520000Y-133680000D01*
%TO.C,K4*%
D12*
X92260000Y-95820000D02*
X78760000Y-95820000D01*
X78760000Y-111820000D01*
X92260000Y-111820000D01*
X92260000Y-95820000D01*
D16*
%TO.C,R10*%
X99730000Y-133600000D02*
X100680000Y-133600000D01*
X100680000Y-132680000D02*
X100680000Y-134520000D01*
X100680000Y-134520000D02*
X104520000Y-134520000D01*
X104520000Y-132680000D02*
X100680000Y-132680000D01*
X104520000Y-134520000D02*
X104520000Y-132680000D01*
X105470000Y-133600000D02*
X104520000Y-133600000D01*
D15*
%TO.C,CR2*%
X42730000Y-98125000D02*
X42730000Y-103205000D01*
X42730000Y-103205000D02*
X42730000Y-104475000D01*
X42730000Y-104475000D02*
X44000000Y-104475000D01*
X44000000Y-98125000D02*
X42730000Y-98125000D01*
X44000000Y-98125000D02*
X44000000Y-97490000D01*
X44000000Y-104475000D02*
X44000000Y-105110000D01*
X44000000Y-104475000D02*
X45270000Y-104475000D01*
X45270000Y-98125000D02*
X44000000Y-98125000D01*
X45270000Y-103205000D02*
X42730000Y-103205000D01*
X45270000Y-103205000D02*
X45270000Y-98125000D01*
X45270000Y-104475000D02*
X45270000Y-103205000D01*
%TD*%
M02*
