M48
; DRILL file {KiCad 8.0.8} date 2025-04-12T15:43:35-0400
; FORMAT={-:-/ absolute / inch / decimal}
; #@! TF.CreationDate,2025-04-12T15:43:35-04:00
; #@! TF.GenerationSoftware,Kicad,Pcbnew,8.0.8
; #@! TF.FileFunction,Plated,1,2,PTH
FMAT,2
INCH
; #@! TA.AperFunction,Plated,PTH,ViaDrill
T1C0.0118
; #@! TA.AperFunction,Plated,PTH,ComponentDrill
T2C0.0276
; #@! TA.AperFunction,Plated,PTH,ComponentDrill
T3C0.0300
; #@! TA.AperFunction,Plated,PTH,ComponentDrill
T4C0.0315
; #@! TA.AperFunction,Plated,PTH,ComponentDrill
T5C0.0394
; #@! TA.AperFunction,Plated,PTH,ComponentDrill
T6C0.0394
; #@! TA.AperFunction,Plated,PTH,ComponentDrill
T7C0.0400
; #@! TA.AperFunction,Plated,PTH,ComponentDrill
T8C0.0434
; #@! TA.AperFunction,Plated,PTH,ComponentDrill
T9C0.0472
; #@! TA.AperFunction,Plated,PTH,ComponentDrill
T10C0.0552
; #@! TA.AperFunction,Plated,PTH,ComponentDrill
T11C0.0591
%
G90
G05
T1
X2.2441Y-4.3829
X2.8474Y-2.8976
X3.1693Y-4.2047
X4.1535Y-4.0866
X4.9528Y-3.6181
X4.9961Y-3.7953
T2
X2.3425Y-2.1531
X2.3425Y-2.4531
X2.5744Y-5.3268
X2.5752Y-5.4094
X2.6854Y-2.1531
X2.6854Y-2.4531
X2.8744Y-5.3268
X2.8752Y-5.4094
X3.2108Y-2.1531
X3.2108Y-2.4531
X3.4488Y-5.1886
X3.4488Y-5.4886
X3.5335Y-5.1886
X3.5335Y-5.4886
X3.5726Y-2.1531
X3.5726Y-2.4531
X3.8894Y-5.2598
X4.1894Y-5.2598
X5.0551Y-4.7201
X5.0551Y-5.0201
T4
X4.252Y-3.5276
X4.252Y-3.6063
X4.2539Y-3.937
X4.2539Y-4.0157
X4.4406Y-2.3409
X4.4406Y-2.4409
X4.4406Y-2.5409
X4.4406Y-2.6409
X4.4406Y-2.7409
X4.4406Y-2.8409
X4.4406Y-2.9409
X4.4406Y-3.0409
X4.4406Y-3.1409
X4.4406Y-3.2409
X4.4406Y-3.3409
X4.4406Y-3.4409
X5.0406Y-2.3409
X5.0406Y-2.4409
X5.0406Y-2.5409
X5.0406Y-2.6409
X5.0406Y-2.7409
X5.0406Y-2.8409
X5.0406Y-2.9409
X5.0406Y-3.0409
X5.0406Y-3.1409
X5.0406Y-3.2409
X5.0406Y-3.3409
X5.0406Y-3.4409
T6
X1.7323Y-3.7882
X1.7323Y-4.1882
X1.8441Y-4.689
X1.8898Y-2.7252
X1.8898Y-3.1252
X2.0866Y-2.7252
X2.0866Y-3.1252
X2.2441Y-4.689
X4.4614Y-4.8661
X4.8614Y-4.8661
T7
X1.9516Y-4.3546
X2.0516Y-4.3546
X2.1516Y-4.3546
X3.8044Y-4.3408
X3.9044Y-4.3408
X4.0044Y-4.3408
T8
X4.3908Y-3.6999
X4.3908Y-3.7899
X4.3908Y-3.8799
T9
X2.1917Y-2.2189
X2.1917Y-2.3189
X2.1917Y-2.4189
X2.5244Y-2.2189
X2.5244Y-2.3189
X2.5244Y-2.4189
X3.0319Y-5.3079
X3.0319Y-5.4079
X3.0319Y-5.5079
X3.0533Y-2.2843
X3.0533Y-2.3843
X3.0533Y-2.4843
X3.4155Y-2.2843
X3.4155Y-2.3843
X3.4155Y-2.4843
X3.7047Y-5.3016
X3.7047Y-5.4016
X3.7047Y-5.5016
X4.3303Y-5.0535
X4.3303Y-5.1535
X4.3303Y-5.2535
X4.5075Y-5.0535
X4.5075Y-5.1535
X4.5075Y-5.2535
T10
X1.9556Y-3.4796
X2.1516Y-3.4796
X3.8084Y-3.4658
X4.0044Y-3.4658
T11
X2.3953Y-3.1382
X2.3953Y-3.5382
X2.3953Y-3.9372
X2.3953Y-4.3372
X2.5953Y-3.0382
X2.5953Y-3.8372
X2.7953Y-3.1382
X2.7953Y-3.5382
X2.7953Y-3.9372
X2.7953Y-4.3372
X3.1669Y-3.138
X3.1669Y-3.538
X3.1669Y-3.937
X3.1669Y-4.337
X3.3669Y-3.038
X3.3669Y-3.837
X3.5669Y-3.138
X3.5669Y-3.538
X3.5669Y-3.937
X3.5669Y-4.337
X4.4463Y-4.2219
X4.4463Y-4.6219
X4.6463Y-4.7219
X4.8463Y-4.2219
X4.8463Y-4.6219
T3
G00X2.4488Y-4.6346
M15
G01X2.4488Y-4.5859
M16
G05
G00X2.5984Y-4.6346
M15
G01X2.5984Y-4.5859
M16
G05
G00X2.7677Y-4.6346
M15
G01X2.7677Y-4.5859
M16
G05
G00X2.9173Y-4.6346
M15
G01X2.9173Y-4.5859
M16
G05
G00X3.1811Y-4.5859
M15
G01X3.1811Y-4.6346
M16
G05
G00X3.3307Y-4.5859
M15
G01X3.3307Y-4.6346
M16
G05
G00X3.5Y-4.5859
M15
G01X3.5Y-4.6346
M16
G05
G00X3.6496Y-4.5859
M15
G01X3.6496Y-4.6346
M16
G05
T5
G00X2.6378Y-2.7283
M15
G01X2.7165Y-2.7283
M16
G05
G00X2.6476Y-4.9331
M15
G01X2.7264Y-4.9331
M16
G05
G00X2.9396Y-2.7283
M15
G01X3.0184Y-2.7283
M16
G05
G00X2.9478Y-4.9331
M15
G01X3.0266Y-4.9331
M16
G05
G00X3.2415Y-2.7283
M15
G01X3.3202Y-2.7283
M16
G05
G00X3.248Y-4.9331
M15
G01X3.3268Y-4.9331
M16
G05
G00X3.5433Y-2.7283
M15
G01X3.622Y-2.7283
M16
G05
G00X3.5482Y-4.9331
M15
G01X3.627Y-4.9331
M16
G05
G00X3.8484Y-4.9331
M15
G01X3.9272Y-4.9331
M16
G05
M30
